G04 #@! TF.GenerationSoftware,KiCad,Pcbnew,7.0.8*
G04 #@! TF.CreationDate,2024-08-07T19:42:33-07:00*
G04 #@! TF.ProjectId,bloo,626c6f6f-2e6b-4696-9361-645f70636258,rev?*
G04 #@! TF.SameCoordinates,Original*
G04 #@! TF.FileFunction,Paste,Top*
G04 #@! TF.FilePolarity,Positive*
%FSLAX46Y46*%
G04 Gerber Fmt 4.6, Leading zero omitted, Abs format (unit mm)*
G04 Created by KiCad (PCBNEW 7.0.8) date 2024-08-07 19:42:33*
%MOMM*%
%LPD*%
G01*
G04 APERTURE LIST*
G04 Aperture macros list*
%AMRoundRect*
0 Rectangle with rounded corners*
0 $1 Rounding radius*
0 $2 $3 $4 $5 $6 $7 $8 $9 X,Y pos of 4 corners*
0 Add a 4 corners polygon primitive as box body*
4,1,4,$2,$3,$4,$5,$6,$7,$8,$9,$2,$3,0*
0 Add four circle primitives for the rounded corners*
1,1,$1+$1,$2,$3*
1,1,$1+$1,$4,$5*
1,1,$1+$1,$6,$7*
1,1,$1+$1,$8,$9*
0 Add four rect primitives between the rounded corners*
20,1,$1+$1,$2,$3,$4,$5,0*
20,1,$1+$1,$4,$5,$6,$7,0*
20,1,$1+$1,$6,$7,$8,$9,0*
20,1,$1+$1,$8,$9,$2,$3,0*%
G04 Aperture macros list end*
%ADD10RoundRect,0.250000X-0.650000X0.412500X-0.650000X-0.412500X0.650000X-0.412500X0.650000X0.412500X0*%
%ADD11RoundRect,0.250000X-0.412500X-0.650000X0.412500X-0.650000X0.412500X0.650000X-0.412500X0.650000X0*%
%ADD12RoundRect,0.250000X0.625000X-0.400000X0.625000X0.400000X-0.625000X0.400000X-0.625000X-0.400000X0*%
%ADD13RoundRect,0.250000X0.650000X-0.412500X0.650000X0.412500X-0.650000X0.412500X-0.650000X-0.412500X0*%
%ADD14RoundRect,0.150000X-0.150000X0.587500X-0.150000X-0.587500X0.150000X-0.587500X0.150000X0.587500X0*%
%ADD15RoundRect,0.250000X-0.450000X0.325000X-0.450000X-0.325000X0.450000X-0.325000X0.450000X0.325000X0*%
%ADD16R,0.355600X0.850900*%
%ADD17RoundRect,0.250000X0.400000X0.625000X-0.400000X0.625000X-0.400000X-0.625000X0.400000X-0.625000X0*%
%ADD18RoundRect,0.250000X0.412500X0.650000X-0.412500X0.650000X-0.412500X-0.650000X0.412500X-0.650000X0*%
%ADD19R,2.500000X2.000000*%
%ADD20RoundRect,0.250000X-0.400000X-0.625000X0.400000X-0.625000X0.400000X0.625000X-0.400000X0.625000X0*%
%ADD21RoundRect,0.075000X-0.662500X-0.075000X0.662500X-0.075000X0.662500X0.075000X-0.662500X0.075000X0*%
%ADD22RoundRect,0.075000X-0.075000X-0.662500X0.075000X-0.662500X0.075000X0.662500X-0.075000X0.662500X0*%
%ADD23R,4.550000X5.250000*%
%ADD24R,4.600000X1.100000*%
%ADD25RoundRect,0.150000X-0.587500X-0.150000X0.587500X-0.150000X0.587500X0.150000X-0.587500X0.150000X0*%
%ADD26RoundRect,0.150000X0.150000X0.625000X-0.150000X0.625000X-0.150000X-0.625000X0.150000X-0.625000X0*%
%ADD27RoundRect,0.250000X0.350000X0.650000X-0.350000X0.650000X-0.350000X-0.650000X0.350000X-0.650000X0*%
%ADD28R,0.508000X0.508000*%
%ADD29RoundRect,0.250000X0.325000X0.450000X-0.325000X0.450000X-0.325000X-0.450000X0.325000X-0.450000X0*%
%ADD30R,1.750000X0.450000*%
%ADD31RoundRect,0.250001X-0.462499X-0.624999X0.462499X-0.624999X0.462499X0.624999X-0.462499X0.624999X0*%
G04 APERTURE END LIST*
D10*
X206475956Y-103571096D03*
X206475956Y-106696096D03*
D11*
X207737500Y-150600000D03*
X210862500Y-150600000D03*
D12*
X197475956Y-169796096D03*
X197475956Y-166696096D03*
D13*
X203075956Y-119621096D03*
X203075956Y-116496096D03*
X206025956Y-119621096D03*
X206025956Y-116496096D03*
D14*
X194225956Y-174421096D03*
X192325956Y-174421096D03*
X193275956Y-176296096D03*
D15*
X164275956Y-107046096D03*
X164275956Y-109096096D03*
D10*
X192100000Y-167837500D03*
X192100000Y-170962500D03*
D16*
X189825957Y-119432746D03*
X190475956Y-119432746D03*
X191125955Y-119432746D03*
X191125955Y-117159446D03*
X190475956Y-117159446D03*
X189825957Y-117159446D03*
D17*
X197775956Y-178696096D03*
X194675956Y-178696096D03*
D16*
X183825957Y-119432746D03*
X184475956Y-119432746D03*
X185125955Y-119432746D03*
X185125955Y-117159446D03*
X184475956Y-117159446D03*
X183825957Y-117159446D03*
D18*
X220638456Y-116096096D03*
X217513456Y-116096096D03*
D19*
X233595956Y-148746096D03*
X242155956Y-148746096D03*
D17*
X181050000Y-151600000D03*
X177950000Y-151600000D03*
D14*
X205975956Y-174496096D03*
X204075956Y-174496096D03*
X205025956Y-176371096D03*
D15*
X166915956Y-107046096D03*
X166915956Y-109096096D03*
D14*
X172025956Y-160821096D03*
X170125956Y-160821096D03*
X171075956Y-162696096D03*
D11*
X211137500Y-145700000D03*
X214262500Y-145700000D03*
D10*
X199675956Y-116533596D03*
X199675956Y-119658596D03*
D19*
X233595956Y-144496096D03*
X242155956Y-144496096D03*
X233595956Y-152946096D03*
X242155956Y-152946096D03*
D20*
X175475956Y-110786096D03*
X178575956Y-110786096D03*
D10*
X194700000Y-167837500D03*
X194700000Y-170962500D03*
D20*
X225850000Y-145200000D03*
X228950000Y-145200000D03*
D10*
X196725956Y-116533596D03*
X196725956Y-119658596D03*
D13*
X181875956Y-173621096D03*
X181875956Y-170496096D03*
D20*
X175475956Y-105096096D03*
X178575956Y-105096096D03*
D12*
X200075956Y-169796096D03*
X200075956Y-166696096D03*
D20*
X225850000Y-148800000D03*
X228950000Y-148800000D03*
D13*
X176275956Y-173658596D03*
X176275956Y-170533596D03*
D21*
X197175000Y-151600000D03*
X197175000Y-152100000D03*
X197175000Y-152600000D03*
X197175000Y-153100000D03*
X197175000Y-153600000D03*
X197175000Y-154100000D03*
X197175000Y-154600000D03*
X197175000Y-155100000D03*
X197175000Y-155600000D03*
X197175000Y-156100000D03*
X197175000Y-156600000D03*
X197175000Y-157100000D03*
D22*
X198587500Y-158512500D03*
X199087500Y-158512500D03*
X199587500Y-158512500D03*
X200087500Y-158512500D03*
X200587500Y-158512500D03*
X201087500Y-158512500D03*
X201587500Y-158512500D03*
X202087500Y-158512500D03*
X202587500Y-158512500D03*
X203087500Y-158512500D03*
X203587500Y-158512500D03*
X204087500Y-158512500D03*
D21*
X205500000Y-157100000D03*
X205500000Y-156600000D03*
X205500000Y-156100000D03*
X205500000Y-155600000D03*
X205500000Y-155100000D03*
X205500000Y-154600000D03*
X205500000Y-154100000D03*
X205500000Y-153600000D03*
X205500000Y-153100000D03*
X205500000Y-152600000D03*
X205500000Y-152100000D03*
X205500000Y-151600000D03*
D22*
X204087500Y-150187500D03*
X203587500Y-150187500D03*
X203087500Y-150187500D03*
X202587500Y-150187500D03*
X202087500Y-150187500D03*
X201587500Y-150187500D03*
X201087500Y-150187500D03*
X200587500Y-150187500D03*
X200087500Y-150187500D03*
X199587500Y-150187500D03*
X199087500Y-150187500D03*
X198587500Y-150187500D03*
D19*
X180595956Y-96496096D03*
X189155956Y-96496096D03*
D23*
X219750956Y-103531096D03*
X219750956Y-97981096D03*
X214900956Y-103531096D03*
X214900956Y-97981096D03*
D24*
X226475956Y-103296096D03*
X226475956Y-100756096D03*
X226475956Y-98216096D03*
D25*
X235200956Y-156346096D03*
X235200956Y-158246096D03*
X237075956Y-157296096D03*
D10*
X209675956Y-103571096D03*
X209675956Y-106696096D03*
D26*
X184375956Y-136171096D03*
X185375956Y-136171096D03*
X186375956Y-136171096D03*
X187375956Y-136171096D03*
X188375956Y-136171096D03*
X189375956Y-136171096D03*
D27*
X183075956Y-138696096D03*
X190675956Y-138696096D03*
D12*
X208475956Y-176396096D03*
X208475956Y-173296096D03*
D11*
X213337500Y-150600000D03*
X216462500Y-150600000D03*
D12*
X232875956Y-159646096D03*
X232875956Y-156546096D03*
D11*
X213337500Y-148200000D03*
X216462500Y-148200000D03*
D12*
X210275956Y-169896096D03*
X210275956Y-166796096D03*
D20*
X225850000Y-152400000D03*
X228950000Y-152400000D03*
D17*
X242475956Y-157296096D03*
X239375956Y-157296096D03*
X199275956Y-176096096D03*
X196175956Y-176096096D03*
D11*
X207737500Y-148200000D03*
X210862500Y-148200000D03*
D10*
X219075956Y-172733596D03*
X219075956Y-175858596D03*
D20*
X185300000Y-154600000D03*
X188400000Y-154600000D03*
D28*
X220663556Y-110446097D03*
X220663556Y-108546095D03*
X218275956Y-109496096D03*
D20*
X175475956Y-107896096D03*
X178575956Y-107896096D03*
D12*
X174800000Y-163850000D03*
X174800000Y-160750000D03*
D26*
X213375956Y-136171096D03*
X214375956Y-136171096D03*
X215375956Y-136171096D03*
X216375956Y-136171096D03*
X217375956Y-136171096D03*
X218375956Y-136171096D03*
D27*
X212075956Y-138696096D03*
X219675956Y-138696096D03*
D29*
X185125000Y-151700000D03*
X183075000Y-151700000D03*
D12*
X207475956Y-169896096D03*
X207475956Y-166796096D03*
D10*
X216475956Y-172733596D03*
X216475956Y-175858596D03*
D15*
X161675956Y-107046096D03*
X161675956Y-109096096D03*
D13*
X184675956Y-173621096D03*
X184675956Y-170496096D03*
D20*
X205375956Y-179096096D03*
X208475956Y-179096096D03*
D30*
X197675956Y-135046096D03*
X197675956Y-135696096D03*
X197675956Y-136346096D03*
X197675956Y-136996096D03*
X197675956Y-137646096D03*
X197675956Y-138296096D03*
X197675956Y-138946096D03*
X197675956Y-139596096D03*
X197675956Y-140246096D03*
X197675956Y-140896096D03*
X197675956Y-141546096D03*
X197675956Y-142196096D03*
X204875956Y-142196096D03*
X204875956Y-141546096D03*
X204875956Y-140896096D03*
X204875956Y-140246096D03*
X204875956Y-139596096D03*
X204875956Y-138946096D03*
X204875956Y-138296096D03*
X204875956Y-137646096D03*
X204875956Y-136996096D03*
X204875956Y-136346096D03*
X204875956Y-135696096D03*
X204875956Y-135046096D03*
D31*
X223649956Y-175032096D03*
X226624956Y-175032096D03*
D10*
X213675956Y-172733596D03*
X213675956Y-175858596D03*
D12*
X168175956Y-163896096D03*
X168175956Y-160796096D03*
D13*
X179075956Y-173621096D03*
X179075956Y-170496096D03*
M02*
