M48
; DRILL file {KiCad 7.0.8} date Wed Aug  7 19:42:38 2024
; FORMAT={-:-/ absolute / metric / decimal}
; #@! TF.CreationDate,2024-08-07T19:42:38-07:00
; #@! TF.GenerationSoftware,Kicad,Pcbnew,7.0.8
; #@! TF.FileFunction,Plated,1,4,PTH
FMAT,2
METRIC
; #@! TA.AperFunction,Plated,PTH,ViaDrill
T1C0.400
; #@! TA.AperFunction,Plated,PTH,ViaDrill
T2C0.450
; #@! TA.AperFunction,Plated,PTH,ViaDrill
T3C0.500
; #@! TA.AperFunction,Plated,PTH,ViaDrill
T4C0.650
; #@! TA.AperFunction,Plated,PTH,ComponentDrill
T5C0.650
; #@! TA.AperFunction,Plated,PTH,ViaDrill
T6C0.700
; #@! TA.AperFunction,Plated,PTH,ComponentDrill
T7C0.762
; #@! TA.AperFunction,Plated,PTH,ViaDrill
T8C0.800
; #@! TA.AperFunction,Plated,PTH,ComponentDrill
T9C0.800
; #@! TA.AperFunction,Plated,PTH,ComponentDrill
T10C0.900
; #@! TA.AperFunction,Plated,PTH,ViaDrill
T11C1.000
; #@! TA.AperFunction,Plated,PTH,ComponentDrill
T12C1.000
; #@! TA.AperFunction,Plated,PTH,ComponentDrill
T13C1.850
%
G90
G05
T1
X167.216Y-145.216
X167.6Y-156.5
X167.9Y-146.8
X168.4Y-145.7
X170.1Y-136.1
X170.6Y-101.9
X170.9Y-112.7
X172.8Y-152.4
X174.6Y-126.9
X175.6Y-154.7
X176.7Y-160.8
X180.1Y-111.9
X181.3Y-109.4
X181.35Y-112.15
X183.0Y-157.3
X184.4Y-134.6
X184.7Y-111.6
X186.9Y-150.2
X189.9Y-158.0
X190.1Y-156.6
X190.1Y-168.2
X191.5Y-111.5
X193.252Y-138.648
X193.5Y-158.4
X193.8Y-155.82
X194.5Y-156.5
X194.8Y-122.5
X195.1Y-174.9
X197.1Y-150.1
X198.1Y-162.5
X199.536Y-152.041
X199.7Y-156.8
X200.3Y-160.3
X200.4Y-151.7
X200.4Y-161.9
X200.4Y-161.9
X200.6Y-146.8
X201.0Y-156.8
X201.2Y-162.4
X201.279Y-148.2
X201.5Y-126.9
X201.787Y-152.72
X202.1Y-145.9
X202.1Y-147.2
X202.1Y-162.8
X202.7Y-140.9
X202.7Y-154.3
X202.9Y-148.0
X202.9Y-166.9
X203.1Y-135.7
X203.1Y-168.5
X203.6Y-153.3
X203.6Y-155.1
X204.1Y-166.9
X204.6Y-168.5
X205.2Y-158.6
X205.7Y-148.9
X206.4Y-140.5
X206.895Y-139.695
X208.1Y-133.2
X208.4Y-171.9
X209.1Y-144.1
X209.5Y-155.8
X210.1Y-164.2
X210.2Y-165.3
X210.8Y-153.8
X210.895Y-154.748
X211.216Y-152.969
X212.2Y-146.862
X212.8Y-152.2
X213.4Y-138.9
X214.0Y-152.9
X215.5Y-152.6
X215.5Y-153.8
X219.8Y-144.8
X219.9Y-146.4
X227.3Y-145.1
X227.4Y-148.7
X227.4Y-152.4
X228.3Y-126.6
T2
X225.85Y-150.65
T3
X179.832Y-154.649
X208.9Y-136.0
T4
X177.1Y-119.6
X187.5Y-120.5
X199.5Y-99.7
T5
X169.806Y-145.086
X169.806Y-146.356
X169.806Y-147.626
X169.806Y-148.896
X169.806Y-150.166
X171.076Y-145.086
X171.076Y-146.356
X171.076Y-147.626
X171.076Y-148.896
X171.076Y-150.166
T6
X174.6Y-145.3
X208.0Y-119.6
X221.6Y-118.4
T7
X214.351Y-97.2
X214.351Y-99.232
X214.351Y-101.264
X214.351Y-103.296
X214.351Y-105.328
X216.383Y-97.2
X216.383Y-99.232
X216.383Y-101.264
X216.383Y-103.296
X216.383Y-105.328
X218.415Y-97.2
X218.415Y-99.232
X218.415Y-101.264
X218.415Y-103.296
X218.415Y-105.328
X220.447Y-97.2
X220.447Y-99.232
X220.447Y-101.264
X220.447Y-103.296
X220.447Y-105.328
T8
X181.5Y-117.159
X187.759Y-117.159
X199.7Y-114.8
X204.9Y-132.8
X205.23Y-143.526
X215.9Y-109.5
X221.3Y-172.2
X221.9Y-177.6
X226.226Y-170.0
X228.9Y-174.7
T9
X208.076Y-97.178
X208.076Y-99.678
X231.576Y-101.896
X234.076Y-101.896
T10
X163.136Y-160.896
X163.476Y-100.896
X165.676Y-160.896
X167.476Y-100.896
X169.055Y-166.58
X171.595Y-166.58
X190.781Y-179.394
X191.915Y-181.667
X198.276Y-181.896
X199.409Y-184.169
X203.817Y-184.192
X204.95Y-181.919
X211.422Y-181.744
X212.555Y-179.471
X231.945Y-166.707
X234.485Y-166.707
X237.336Y-160.496
X239.876Y-160.496
T11
X229.6Y-106.2
T12
X162.676Y-144.096
X162.7Y-147.756
X162.7Y-150.296
X162.7Y-152.836
X162.7Y-155.376
X162.7Y-157.916
X172.476Y-96.096
X176.476Y-96.096
X180.529Y-142.37
X183.069Y-142.37
X184.326Y-102.071
X184.326Y-106.896
X185.609Y-142.37
X186.866Y-102.071
X186.866Y-106.896
X188.149Y-142.37
X189.406Y-102.071
X189.406Y-106.896
X190.689Y-142.37
X191.946Y-102.071
X191.946Y-106.896
X193.229Y-142.37
X194.486Y-102.071
X194.486Y-106.896
X195.876Y-96.096
X197.026Y-102.071
X197.026Y-106.896
X209.529Y-142.37
X212.069Y-142.37
X214.609Y-142.37
X217.149Y-142.37
X219.689Y-142.37
X222.229Y-142.37
X224.736Y-110.496
X227.276Y-110.496
X230.276Y-141.896
X234.676Y-96.296
T13
X239.885Y-98.47
X239.885Y-103.296
X239.885Y-108.122
T0
M30
