G04 #@! TF.GenerationSoftware,KiCad,Pcbnew,7.0.8*
G04 #@! TF.CreationDate,2024-08-07T19:42:33-07:00*
G04 #@! TF.ProjectId,bloo,626c6f6f-2e6b-4696-9361-645f70636258,rev?*
G04 #@! TF.SameCoordinates,Original*
G04 #@! TF.FileFunction,Legend,Top*
G04 #@! TF.FilePolarity,Positive*
%FSLAX46Y46*%
G04 Gerber Fmt 4.6, Leading zero omitted, Abs format (unit mm)*
G04 Created by KiCad (PCBNEW 7.0.8) date 2024-08-07 19:42:33*
%MOMM*%
%LPD*%
G01*
G04 APERTURE LIST*
G04 Aperture macros list*
%AMRoundRect*
0 Rectangle with rounded corners*
0 $1 Rounding radius*
0 $2 $3 $4 $5 $6 $7 $8 $9 X,Y pos of 4 corners*
0 Add a 4 corners polygon primitive as box body*
4,1,4,$2,$3,$4,$5,$6,$7,$8,$9,$2,$3,0*
0 Add four circle primitives for the rounded corners*
1,1,$1+$1,$2,$3*
1,1,$1+$1,$4,$5*
1,1,$1+$1,$6,$7*
1,1,$1+$1,$8,$9*
0 Add four rect primitives between the rounded corners*
20,1,$1+$1,$2,$3,$4,$5,0*
20,1,$1+$1,$4,$5,$6,$7,0*
20,1,$1+$1,$6,$7,$8,$9,0*
20,1,$1+$1,$8,$9,$2,$3,0*%
G04 Aperture macros list end*
%ADD10C,0.125000*%
%ADD11C,0.150000*%
%ADD12C,0.075000*%
%ADD13C,0.120000*%
%ADD14C,0.152400*%
%ADD15C,2.400000*%
%ADD16RoundRect,0.200000X0.403863X-1.207019X1.207019X0.403863X-0.403863X1.207019X-1.207019X-0.403863X0*%
%ADD17C,2.200000*%
%ADD18RoundRect,0.200000X-0.850000X0.850000X-0.850000X-0.850000X0.850000X-0.850000X0.850000X0.850000X0*%
%ADD19O,2.100000X2.100000*%
%ADD20RoundRect,0.200000X-0.850000X-0.850000X0.850000X-0.850000X0.850000X0.850000X-0.850000X0.850000X0*%
%ADD21RoundRect,0.450000X-0.650000X0.412500X-0.650000X-0.412500X0.650000X-0.412500X0.650000X0.412500X0*%
%ADD22RoundRect,0.450000X-0.412500X-0.650000X0.412500X-0.650000X0.412500X0.650000X-0.412500X0.650000X0*%
%ADD23RoundRect,0.450000X0.625000X-0.400000X0.625000X0.400000X-0.625000X0.400000X-0.625000X-0.400000X0*%
%ADD24RoundRect,0.450000X0.650000X-0.412500X0.650000X0.412500X-0.650000X0.412500X-0.650000X-0.412500X0*%
%ADD25RoundRect,0.200000X-1.207019X0.403863X-0.403863X-1.207019X1.207019X-0.403863X0.403863X1.207019X0*%
%ADD26RoundRect,0.200000X-0.900000X-0.900000X0.900000X-0.900000X0.900000X0.900000X-0.900000X0.900000X0*%
%ADD27RoundRect,0.350000X-0.150000X0.587500X-0.150000X-0.587500X0.150000X-0.587500X0.150000X0.587500X0*%
%ADD28RoundRect,0.450000X-0.450000X0.325000X-0.450000X-0.325000X0.450000X-0.325000X0.450000X0.325000X0*%
%ADD29RoundRect,0.200000X0.177800X-0.425450X0.177800X0.425450X-0.177800X0.425450X-0.177800X-0.425450X0*%
%ADD30RoundRect,0.450000X0.400000X0.625000X-0.400000X0.625000X-0.400000X-0.625000X0.400000X-0.625000X0*%
%ADD31RoundRect,0.200000X0.850000X-0.850000X0.850000X0.850000X-0.850000X0.850000X-0.850000X-0.850000X0*%
%ADD32RoundRect,0.450000X0.412500X0.650000X-0.412500X0.650000X-0.412500X-0.650000X0.412500X-0.650000X0*%
%ADD33RoundRect,0.200000X-1.250000X-1.000000X1.250000X-1.000000X1.250000X1.000000X-1.250000X1.000000X0*%
%ADD34C,2.600000*%
%ADD35RoundRect,0.450000X-0.400000X-0.625000X0.400000X-0.625000X0.400000X0.625000X-0.400000X0.625000X0*%
%ADD36C,2.584400*%
%ADD37C,3.400000*%
%ADD38RoundRect,0.275000X-0.662500X-0.075000X0.662500X-0.075000X0.662500X0.075000X-0.662500X0.075000X0*%
%ADD39RoundRect,0.275000X-0.075000X-0.662500X0.075000X-0.662500X0.075000X0.662500X-0.075000X0.662500X0*%
%ADD40RoundRect,0.200000X0.750000X-0.500000X0.750000X0.500000X-0.750000X0.500000X-0.750000X-0.500000X0*%
%ADD41RoundRect,0.200000X2.300000X0.550000X-2.300000X0.550000X-2.300000X-0.550000X2.300000X-0.550000X0*%
%ADD42C,1.924000*%
%ADD43RoundRect,0.200000X4.700000X5.400000X-4.700000X5.400000X-4.700000X-5.400000X4.700000X-5.400000X0*%
%ADD44RoundRect,0.350000X-0.587500X-0.150000X0.587500X-0.150000X0.587500X0.150000X-0.587500X0.150000X0*%
%ADD45RoundRect,0.350000X0.150000X0.625000X-0.150000X0.625000X-0.150000X-0.625000X0.150000X-0.625000X0*%
%ADD46RoundRect,0.450000X0.350000X0.650000X-0.350000X0.650000X-0.350000X-0.650000X0.350000X-0.650000X0*%
%ADD47RoundRect,0.200000X0.800000X-0.800000X0.800000X0.800000X-0.800000X0.800000X-0.800000X-0.800000X0*%
%ADD48C,2.000000*%
%ADD49RoundRect,0.200000X0.800000X0.800000X-0.800000X0.800000X-0.800000X-0.800000X0.800000X-0.800000X0*%
%ADD50RoundRect,0.200000X0.254000X-0.254000X0.254000X0.254000X-0.254000X0.254000X-0.254000X-0.254000X0*%
%ADD51RoundRect,0.450000X0.325000X0.450000X-0.325000X0.450000X-0.325000X-0.450000X0.325000X-0.450000X0*%
%ADD52RoundRect,0.200000X0.500000X0.500000X-0.500000X0.500000X-0.500000X-0.500000X0.500000X-0.500000X0*%
%ADD53O,1.400000X1.400000*%
%ADD54RoundRect,0.200000X-0.875000X-0.225000X0.875000X-0.225000X0.875000X0.225000X-0.875000X0.225000X0*%
%ADD55RoundRect,0.450001X-0.462499X-0.624999X0.462499X-0.624999X0.462499X0.624999X-0.462499X0.624999X0*%
G04 APERTURE END LIST*
D10*
X186472475Y-108528405D02*
X186758189Y-108528405D01*
X186615332Y-109028405D02*
X186615332Y-108528405D01*
X186877236Y-108528405D02*
X187210569Y-109028405D01*
X187210569Y-108528405D02*
X186877236Y-109028405D01*
X189210567Y-109028405D02*
X189043901Y-108790310D01*
X188924853Y-109028405D02*
X188924853Y-108528405D01*
X188924853Y-108528405D02*
X189115329Y-108528405D01*
X189115329Y-108528405D02*
X189162948Y-108552215D01*
X189162948Y-108552215D02*
X189186758Y-108576024D01*
X189186758Y-108576024D02*
X189210567Y-108623643D01*
X189210567Y-108623643D02*
X189210567Y-108695072D01*
X189210567Y-108695072D02*
X189186758Y-108742691D01*
X189186758Y-108742691D02*
X189162948Y-108766500D01*
X189162948Y-108766500D02*
X189115329Y-108790310D01*
X189115329Y-108790310D02*
X188924853Y-108790310D01*
X189377234Y-108528405D02*
X189710567Y-109028405D01*
X189710567Y-108528405D02*
X189377234Y-109028405D01*
X196639132Y-108552215D02*
X196591513Y-108528405D01*
X196591513Y-108528405D02*
X196520084Y-108528405D01*
X196520084Y-108528405D02*
X196448656Y-108552215D01*
X196448656Y-108552215D02*
X196401037Y-108599834D01*
X196401037Y-108599834D02*
X196377227Y-108647453D01*
X196377227Y-108647453D02*
X196353418Y-108742691D01*
X196353418Y-108742691D02*
X196353418Y-108814119D01*
X196353418Y-108814119D02*
X196377227Y-108909357D01*
X196377227Y-108909357D02*
X196401037Y-108956976D01*
X196401037Y-108956976D02*
X196448656Y-109004596D01*
X196448656Y-109004596D02*
X196520084Y-109028405D01*
X196520084Y-109028405D02*
X196567703Y-109028405D01*
X196567703Y-109028405D02*
X196639132Y-109004596D01*
X196639132Y-109004596D02*
X196662941Y-108980786D01*
X196662941Y-108980786D02*
X196662941Y-108814119D01*
X196662941Y-108814119D02*
X196567703Y-108814119D01*
X196877227Y-109028405D02*
X196877227Y-108528405D01*
X196877227Y-108528405D02*
X197162941Y-109028405D01*
X197162941Y-109028405D02*
X197162941Y-108528405D01*
X197401037Y-109028405D02*
X197401037Y-108528405D01*
X197401037Y-108528405D02*
X197520085Y-108528405D01*
X197520085Y-108528405D02*
X197591513Y-108552215D01*
X197591513Y-108552215D02*
X197639132Y-108599834D01*
X197639132Y-108599834D02*
X197662942Y-108647453D01*
X197662942Y-108647453D02*
X197686751Y-108742691D01*
X197686751Y-108742691D02*
X197686751Y-108814119D01*
X197686751Y-108814119D02*
X197662942Y-108909357D01*
X197662942Y-108909357D02*
X197639132Y-108956976D01*
X197639132Y-108956976D02*
X197591513Y-109004596D01*
X197591513Y-109004596D02*
X197520085Y-109028405D01*
X197520085Y-109028405D02*
X197401037Y-109028405D01*
D11*
X159987089Y-142232875D02*
X159987089Y-142994780D01*
X159606136Y-142613827D02*
X160368041Y-142613827D01*
X160606136Y-143375732D02*
X160606136Y-143994779D01*
X160606136Y-143994779D02*
X160225184Y-143661446D01*
X160225184Y-143661446D02*
X160225184Y-143804303D01*
X160225184Y-143804303D02*
X160177565Y-143899541D01*
X160177565Y-143899541D02*
X160129946Y-143947160D01*
X160129946Y-143947160D02*
X160034708Y-143994779D01*
X160034708Y-143994779D02*
X159796613Y-143994779D01*
X159796613Y-143994779D02*
X159701375Y-143947160D01*
X159701375Y-143947160D02*
X159653756Y-143899541D01*
X159653756Y-143899541D02*
X159606136Y-143804303D01*
X159606136Y-143804303D02*
X159606136Y-143518589D01*
X159606136Y-143518589D02*
X159653756Y-143423351D01*
X159653756Y-143423351D02*
X159701375Y-143375732D01*
X160606136Y-144280494D02*
X159606136Y-144613827D01*
X159606136Y-144613827D02*
X160606136Y-144947160D01*
X160606136Y-145185256D02*
X160606136Y-145804303D01*
X160606136Y-145804303D02*
X160225184Y-145470970D01*
X160225184Y-145470970D02*
X160225184Y-145613827D01*
X160225184Y-145613827D02*
X160177565Y-145709065D01*
X160177565Y-145709065D02*
X160129946Y-145756684D01*
X160129946Y-145756684D02*
X160034708Y-145804303D01*
X160034708Y-145804303D02*
X159796613Y-145804303D01*
X159796613Y-145804303D02*
X159701375Y-145756684D01*
X159701375Y-145756684D02*
X159653756Y-145709065D01*
X159653756Y-145709065D02*
X159606136Y-145613827D01*
X159606136Y-145613827D02*
X159606136Y-145328113D01*
X159606136Y-145328113D02*
X159653756Y-145232875D01*
X159653756Y-145232875D02*
X159701375Y-145185256D01*
X229869878Y-94965915D02*
X230203211Y-95965915D01*
X230203211Y-95965915D02*
X230536544Y-94965915D01*
X231441306Y-95870676D02*
X231393687Y-95918296D01*
X231393687Y-95918296D02*
X231250830Y-95965915D01*
X231250830Y-95965915D02*
X231155592Y-95965915D01*
X231155592Y-95965915D02*
X231012735Y-95918296D01*
X231012735Y-95918296D02*
X230917497Y-95823057D01*
X230917497Y-95823057D02*
X230869878Y-95727819D01*
X230869878Y-95727819D02*
X230822259Y-95537343D01*
X230822259Y-95537343D02*
X230822259Y-95394486D01*
X230822259Y-95394486D02*
X230869878Y-95204010D01*
X230869878Y-95204010D02*
X230917497Y-95108772D01*
X230917497Y-95108772D02*
X231012735Y-95013534D01*
X231012735Y-95013534D02*
X231155592Y-94965915D01*
X231155592Y-94965915D02*
X231250830Y-94965915D01*
X231250830Y-94965915D02*
X231393687Y-95013534D01*
X231393687Y-95013534D02*
X231441306Y-95061153D01*
X232441306Y-95870676D02*
X232393687Y-95918296D01*
X232393687Y-95918296D02*
X232250830Y-95965915D01*
X232250830Y-95965915D02*
X232155592Y-95965915D01*
X232155592Y-95965915D02*
X232012735Y-95918296D01*
X232012735Y-95918296D02*
X231917497Y-95823057D01*
X231917497Y-95823057D02*
X231869878Y-95727819D01*
X231869878Y-95727819D02*
X231822259Y-95537343D01*
X231822259Y-95537343D02*
X231822259Y-95394486D01*
X231822259Y-95394486D02*
X231869878Y-95204010D01*
X231869878Y-95204010D02*
X231917497Y-95108772D01*
X231917497Y-95108772D02*
X232012735Y-95013534D01*
X232012735Y-95013534D02*
X232155592Y-94965915D01*
X232155592Y-94965915D02*
X232250830Y-94965915D01*
X232250830Y-94965915D02*
X232393687Y-95013534D01*
X232393687Y-95013534D02*
X232441306Y-95061153D01*
D10*
X164339144Y-105552215D02*
X164291525Y-105528405D01*
X164291525Y-105528405D02*
X164220096Y-105528405D01*
X164220096Y-105528405D02*
X164148668Y-105552215D01*
X164148668Y-105552215D02*
X164101049Y-105599834D01*
X164101049Y-105599834D02*
X164077239Y-105647453D01*
X164077239Y-105647453D02*
X164053430Y-105742691D01*
X164053430Y-105742691D02*
X164053430Y-105814119D01*
X164053430Y-105814119D02*
X164077239Y-105909357D01*
X164077239Y-105909357D02*
X164101049Y-105956976D01*
X164101049Y-105956976D02*
X164148668Y-106004596D01*
X164148668Y-106004596D02*
X164220096Y-106028405D01*
X164220096Y-106028405D02*
X164267715Y-106028405D01*
X164267715Y-106028405D02*
X164339144Y-106004596D01*
X164339144Y-106004596D02*
X164362953Y-105980786D01*
X164362953Y-105980786D02*
X164362953Y-105814119D01*
X164362953Y-105814119D02*
X164267715Y-105814119D01*
X166962953Y-106028405D02*
X166796287Y-105790310D01*
X166677239Y-106028405D02*
X166677239Y-105528405D01*
X166677239Y-105528405D02*
X166867715Y-105528405D01*
X166867715Y-105528405D02*
X166915334Y-105552215D01*
X166915334Y-105552215D02*
X166939144Y-105576024D01*
X166939144Y-105576024D02*
X166962953Y-105623643D01*
X166962953Y-105623643D02*
X166962953Y-105695072D01*
X166962953Y-105695072D02*
X166939144Y-105742691D01*
X166939144Y-105742691D02*
X166915334Y-105766500D01*
X166915334Y-105766500D02*
X166867715Y-105790310D01*
X166867715Y-105790310D02*
X166677239Y-105790310D01*
D12*
X160454900Y-147220770D02*
X160454900Y-147449342D01*
X160340614Y-147335056D02*
X160569185Y-147335056D01*
X160640614Y-147563628D02*
X160640614Y-147749342D01*
X160640614Y-147749342D02*
X160526328Y-147649342D01*
X160526328Y-147649342D02*
X160526328Y-147692199D01*
X160526328Y-147692199D02*
X160512042Y-147720771D01*
X160512042Y-147720771D02*
X160497757Y-147735056D01*
X160497757Y-147735056D02*
X160469185Y-147749342D01*
X160469185Y-147749342D02*
X160397757Y-147749342D01*
X160397757Y-147749342D02*
X160369185Y-147735056D01*
X160369185Y-147735056D02*
X160354900Y-147720771D01*
X160354900Y-147720771D02*
X160340614Y-147692199D01*
X160340614Y-147692199D02*
X160340614Y-147606485D01*
X160340614Y-147606485D02*
X160354900Y-147577913D01*
X160354900Y-147577913D02*
X160369185Y-147563628D01*
X160640614Y-147835056D02*
X160340614Y-147935056D01*
X160340614Y-147935056D02*
X160640614Y-148035056D01*
X160640614Y-148106485D02*
X160640614Y-148292199D01*
X160640614Y-148292199D02*
X160526328Y-148192199D01*
X160526328Y-148192199D02*
X160526328Y-148235056D01*
X160526328Y-148235056D02*
X160512042Y-148263628D01*
X160512042Y-148263628D02*
X160497757Y-148277913D01*
X160497757Y-148277913D02*
X160469185Y-148292199D01*
X160469185Y-148292199D02*
X160397757Y-148292199D01*
X160397757Y-148292199D02*
X160369185Y-148277913D01*
X160369185Y-148277913D02*
X160354900Y-148263628D01*
X160354900Y-148263628D02*
X160340614Y-148235056D01*
X160340614Y-148235056D02*
X160340614Y-148149342D01*
X160340614Y-148149342D02*
X160354900Y-148120770D01*
X160354900Y-148120770D02*
X160369185Y-148106485D01*
X160354900Y-149549339D02*
X160340614Y-149592197D01*
X160340614Y-149592197D02*
X160340614Y-149663625D01*
X160340614Y-149663625D02*
X160354900Y-149692197D01*
X160354900Y-149692197D02*
X160369185Y-149706482D01*
X160369185Y-149706482D02*
X160397757Y-149720768D01*
X160397757Y-149720768D02*
X160426328Y-149720768D01*
X160426328Y-149720768D02*
X160454900Y-149706482D01*
X160454900Y-149706482D02*
X160469185Y-149692197D01*
X160469185Y-149692197D02*
X160483471Y-149663625D01*
X160483471Y-149663625D02*
X160497757Y-149606482D01*
X160497757Y-149606482D02*
X160512042Y-149577911D01*
X160512042Y-149577911D02*
X160526328Y-149563625D01*
X160526328Y-149563625D02*
X160554900Y-149549339D01*
X160554900Y-149549339D02*
X160583471Y-149549339D01*
X160583471Y-149549339D02*
X160612042Y-149563625D01*
X160612042Y-149563625D02*
X160626328Y-149577911D01*
X160626328Y-149577911D02*
X160640614Y-149606482D01*
X160640614Y-149606482D02*
X160640614Y-149677911D01*
X160640614Y-149677911D02*
X160626328Y-149720768D01*
X160640614Y-149820768D02*
X160340614Y-149892196D01*
X160340614Y-149892196D02*
X160554900Y-149949339D01*
X160554900Y-149949339D02*
X160340614Y-150006482D01*
X160340614Y-150006482D02*
X160640614Y-150077911D01*
X160340614Y-150192196D02*
X160640614Y-150192196D01*
X160640614Y-150192196D02*
X160640614Y-150263625D01*
X160640614Y-150263625D02*
X160626328Y-150306482D01*
X160626328Y-150306482D02*
X160597757Y-150335053D01*
X160597757Y-150335053D02*
X160569185Y-150349339D01*
X160569185Y-150349339D02*
X160512042Y-150363625D01*
X160512042Y-150363625D02*
X160469185Y-150363625D01*
X160469185Y-150363625D02*
X160412042Y-150349339D01*
X160412042Y-150349339D02*
X160383471Y-150335053D01*
X160383471Y-150335053D02*
X160354900Y-150306482D01*
X160354900Y-150306482D02*
X160340614Y-150263625D01*
X160340614Y-150263625D02*
X160340614Y-150192196D01*
X160340614Y-150492196D02*
X160640614Y-150492196D01*
X160640614Y-150692196D02*
X160640614Y-150749339D01*
X160640614Y-150749339D02*
X160626328Y-150777910D01*
X160626328Y-150777910D02*
X160597757Y-150806482D01*
X160597757Y-150806482D02*
X160540614Y-150820767D01*
X160540614Y-150820767D02*
X160440614Y-150820767D01*
X160440614Y-150820767D02*
X160383471Y-150806482D01*
X160383471Y-150806482D02*
X160354900Y-150777910D01*
X160354900Y-150777910D02*
X160340614Y-150749339D01*
X160340614Y-150749339D02*
X160340614Y-150692196D01*
X160340614Y-150692196D02*
X160354900Y-150663625D01*
X160354900Y-150663625D02*
X160383471Y-150635053D01*
X160383471Y-150635053D02*
X160440614Y-150620767D01*
X160440614Y-150620767D02*
X160540614Y-150620767D01*
X160540614Y-150620767D02*
X160597757Y-150635053D01*
X160597757Y-150635053D02*
X160626328Y-150663625D01*
X160626328Y-150663625D02*
X160640614Y-150692196D01*
X160354900Y-151849337D02*
X160340614Y-151892195D01*
X160340614Y-151892195D02*
X160340614Y-151963623D01*
X160340614Y-151963623D02*
X160354900Y-151992195D01*
X160354900Y-151992195D02*
X160369185Y-152006480D01*
X160369185Y-152006480D02*
X160397757Y-152020766D01*
X160397757Y-152020766D02*
X160426328Y-152020766D01*
X160426328Y-152020766D02*
X160454900Y-152006480D01*
X160454900Y-152006480D02*
X160469185Y-151992195D01*
X160469185Y-151992195D02*
X160483471Y-151963623D01*
X160483471Y-151963623D02*
X160497757Y-151906480D01*
X160497757Y-151906480D02*
X160512042Y-151877909D01*
X160512042Y-151877909D02*
X160526328Y-151863623D01*
X160526328Y-151863623D02*
X160554900Y-151849337D01*
X160554900Y-151849337D02*
X160583471Y-151849337D01*
X160583471Y-151849337D02*
X160612042Y-151863623D01*
X160612042Y-151863623D02*
X160626328Y-151877909D01*
X160626328Y-151877909D02*
X160640614Y-151906480D01*
X160640614Y-151906480D02*
X160640614Y-151977909D01*
X160640614Y-151977909D02*
X160626328Y-152020766D01*
X160640614Y-152120766D02*
X160340614Y-152192194D01*
X160340614Y-152192194D02*
X160554900Y-152249337D01*
X160554900Y-152249337D02*
X160340614Y-152306480D01*
X160340614Y-152306480D02*
X160640614Y-152377909D01*
X160340614Y-152492194D02*
X160640614Y-152492194D01*
X160640614Y-152492194D02*
X160640614Y-152563623D01*
X160640614Y-152563623D02*
X160626328Y-152606480D01*
X160626328Y-152606480D02*
X160597757Y-152635051D01*
X160597757Y-152635051D02*
X160569185Y-152649337D01*
X160569185Y-152649337D02*
X160512042Y-152663623D01*
X160512042Y-152663623D02*
X160469185Y-152663623D01*
X160469185Y-152663623D02*
X160412042Y-152649337D01*
X160412042Y-152649337D02*
X160383471Y-152635051D01*
X160383471Y-152635051D02*
X160354900Y-152606480D01*
X160354900Y-152606480D02*
X160340614Y-152563623D01*
X160340614Y-152563623D02*
X160340614Y-152492194D01*
X160369185Y-152963623D02*
X160354900Y-152949337D01*
X160354900Y-152949337D02*
X160340614Y-152906480D01*
X160340614Y-152906480D02*
X160340614Y-152877908D01*
X160340614Y-152877908D02*
X160354900Y-152835051D01*
X160354900Y-152835051D02*
X160383471Y-152806480D01*
X160383471Y-152806480D02*
X160412042Y-152792194D01*
X160412042Y-152792194D02*
X160469185Y-152777908D01*
X160469185Y-152777908D02*
X160512042Y-152777908D01*
X160512042Y-152777908D02*
X160569185Y-152792194D01*
X160569185Y-152792194D02*
X160597757Y-152806480D01*
X160597757Y-152806480D02*
X160626328Y-152835051D01*
X160626328Y-152835051D02*
X160640614Y-152877908D01*
X160640614Y-152877908D02*
X160640614Y-152906480D01*
X160640614Y-152906480D02*
X160626328Y-152949337D01*
X160626328Y-152949337D02*
X160612042Y-152963623D01*
X160340614Y-153235051D02*
X160340614Y-153092194D01*
X160340614Y-153092194D02*
X160640614Y-153092194D01*
X160340614Y-153335051D02*
X160640614Y-153335051D01*
X160340614Y-153506480D02*
X160512042Y-153377908D01*
X160640614Y-153506480D02*
X160469185Y-153335051D01*
X160626328Y-154935049D02*
X160640614Y-154906478D01*
X160640614Y-154906478D02*
X160640614Y-154863620D01*
X160640614Y-154863620D02*
X160626328Y-154820763D01*
X160626328Y-154820763D02*
X160597757Y-154792192D01*
X160597757Y-154792192D02*
X160569185Y-154777906D01*
X160569185Y-154777906D02*
X160512042Y-154763620D01*
X160512042Y-154763620D02*
X160469185Y-154763620D01*
X160469185Y-154763620D02*
X160412042Y-154777906D01*
X160412042Y-154777906D02*
X160383471Y-154792192D01*
X160383471Y-154792192D02*
X160354900Y-154820763D01*
X160354900Y-154820763D02*
X160340614Y-154863620D01*
X160340614Y-154863620D02*
X160340614Y-154892192D01*
X160340614Y-154892192D02*
X160354900Y-154935049D01*
X160354900Y-154935049D02*
X160369185Y-154949335D01*
X160369185Y-154949335D02*
X160469185Y-154949335D01*
X160469185Y-154949335D02*
X160469185Y-154892192D01*
X160340614Y-155077906D02*
X160640614Y-155077906D01*
X160640614Y-155077906D02*
X160340614Y-155249335D01*
X160340614Y-155249335D02*
X160640614Y-155249335D01*
X160340614Y-155392192D02*
X160640614Y-155392192D01*
X160640614Y-155392192D02*
X160640614Y-155463621D01*
X160640614Y-155463621D02*
X160626328Y-155506478D01*
X160626328Y-155506478D02*
X160597757Y-155535049D01*
X160597757Y-155535049D02*
X160569185Y-155549335D01*
X160569185Y-155549335D02*
X160512042Y-155563621D01*
X160512042Y-155563621D02*
X160469185Y-155563621D01*
X160469185Y-155563621D02*
X160412042Y-155549335D01*
X160412042Y-155549335D02*
X160383471Y-155535049D01*
X160383471Y-155535049D02*
X160354900Y-155506478D01*
X160354900Y-155506478D02*
X160340614Y-155463621D01*
X160340614Y-155463621D02*
X160340614Y-155392192D01*
D11*
X224162735Y-112559962D02*
X224924640Y-112559962D01*
X226924640Y-112559962D02*
X227686545Y-112559962D01*
X227305592Y-112940915D02*
X227305592Y-112179010D01*
X173993394Y-97035507D02*
X173945775Y-97130745D01*
X173945775Y-97130745D02*
X173945775Y-97273602D01*
X173945775Y-97273602D02*
X173993394Y-97416459D01*
X173993394Y-97416459D02*
X174088632Y-97511697D01*
X174088632Y-97511697D02*
X174183870Y-97559316D01*
X174183870Y-97559316D02*
X174374346Y-97606935D01*
X174374346Y-97606935D02*
X174517203Y-97606935D01*
X174517203Y-97606935D02*
X174707679Y-97559316D01*
X174707679Y-97559316D02*
X174802917Y-97511697D01*
X174802917Y-97511697D02*
X174898156Y-97416459D01*
X174898156Y-97416459D02*
X174945775Y-97273602D01*
X174945775Y-97273602D02*
X174945775Y-97178364D01*
X174945775Y-97178364D02*
X174898156Y-97035507D01*
X174898156Y-97035507D02*
X174850536Y-96987888D01*
X174850536Y-96987888D02*
X174517203Y-96987888D01*
X174517203Y-96987888D02*
X174517203Y-97178364D01*
X174945775Y-96559316D02*
X173945775Y-96559316D01*
X173945775Y-96559316D02*
X174945775Y-95987888D01*
X174945775Y-95987888D02*
X173945775Y-95987888D01*
X174945775Y-95511697D02*
X173945775Y-95511697D01*
X173945775Y-95511697D02*
X173945775Y-95273602D01*
X173945775Y-95273602D02*
X173993394Y-95130745D01*
X173993394Y-95130745D02*
X174088632Y-95035507D01*
X174088632Y-95035507D02*
X174183870Y-94987888D01*
X174183870Y-94987888D02*
X174374346Y-94940269D01*
X174374346Y-94940269D02*
X174517203Y-94940269D01*
X174517203Y-94940269D02*
X174707679Y-94987888D01*
X174707679Y-94987888D02*
X174802917Y-95035507D01*
X174802917Y-95035507D02*
X174898156Y-95130745D01*
X174898156Y-95130745D02*
X174945775Y-95273602D01*
X174945775Y-95273602D02*
X174945775Y-95511697D01*
D10*
X183643906Y-103966500D02*
X183715334Y-103990310D01*
X183715334Y-103990310D02*
X183739144Y-104014119D01*
X183739144Y-104014119D02*
X183762953Y-104061738D01*
X183762953Y-104061738D02*
X183762953Y-104133167D01*
X183762953Y-104133167D02*
X183739144Y-104180786D01*
X183739144Y-104180786D02*
X183715334Y-104204596D01*
X183715334Y-104204596D02*
X183667715Y-104228405D01*
X183667715Y-104228405D02*
X183477239Y-104228405D01*
X183477239Y-104228405D02*
X183477239Y-103728405D01*
X183477239Y-103728405D02*
X183643906Y-103728405D01*
X183643906Y-103728405D02*
X183691525Y-103752215D01*
X183691525Y-103752215D02*
X183715334Y-103776024D01*
X183715334Y-103776024D02*
X183739144Y-103823643D01*
X183739144Y-103823643D02*
X183739144Y-103871262D01*
X183739144Y-103871262D02*
X183715334Y-103918881D01*
X183715334Y-103918881D02*
X183691525Y-103942691D01*
X183691525Y-103942691D02*
X183643906Y-103966500D01*
X183643906Y-103966500D02*
X183477239Y-103966500D01*
X184215334Y-104228405D02*
X183977239Y-104228405D01*
X183977239Y-104228405D02*
X183977239Y-103728405D01*
X184382001Y-103966500D02*
X184548668Y-103966500D01*
X184620096Y-104228405D02*
X184382001Y-104228405D01*
X184382001Y-104228405D02*
X184382001Y-103728405D01*
X184382001Y-103728405D02*
X184620096Y-103728405D01*
X186286762Y-103728405D02*
X186572476Y-103728405D01*
X186429619Y-104228405D02*
X186429619Y-103728405D01*
X186691523Y-103728405D02*
X187024856Y-104228405D01*
X187024856Y-103728405D02*
X186691523Y-104228405D01*
X189024854Y-104228405D02*
X188858188Y-103990310D01*
X188739140Y-104228405D02*
X188739140Y-103728405D01*
X188739140Y-103728405D02*
X188929616Y-103728405D01*
X188929616Y-103728405D02*
X188977235Y-103752215D01*
X188977235Y-103752215D02*
X189001045Y-103776024D01*
X189001045Y-103776024D02*
X189024854Y-103823643D01*
X189024854Y-103823643D02*
X189024854Y-103895072D01*
X189024854Y-103895072D02*
X189001045Y-103942691D01*
X189001045Y-103942691D02*
X188977235Y-103966500D01*
X188977235Y-103966500D02*
X188929616Y-103990310D01*
X188929616Y-103990310D02*
X188739140Y-103990310D01*
X189191521Y-103728405D02*
X189524854Y-104228405D01*
X189524854Y-103728405D02*
X189191521Y-104228405D01*
X191501043Y-103752215D02*
X191453424Y-103728405D01*
X191453424Y-103728405D02*
X191381995Y-103728405D01*
X191381995Y-103728405D02*
X191310567Y-103752215D01*
X191310567Y-103752215D02*
X191262948Y-103799834D01*
X191262948Y-103799834D02*
X191239138Y-103847453D01*
X191239138Y-103847453D02*
X191215329Y-103942691D01*
X191215329Y-103942691D02*
X191215329Y-104014119D01*
X191215329Y-104014119D02*
X191239138Y-104109357D01*
X191239138Y-104109357D02*
X191262948Y-104156976D01*
X191262948Y-104156976D02*
X191310567Y-104204596D01*
X191310567Y-104204596D02*
X191381995Y-104228405D01*
X191381995Y-104228405D02*
X191429614Y-104228405D01*
X191429614Y-104228405D02*
X191501043Y-104204596D01*
X191501043Y-104204596D02*
X191524852Y-104180786D01*
X191524852Y-104180786D02*
X191524852Y-104014119D01*
X191524852Y-104014119D02*
X191429614Y-104014119D01*
X191739138Y-104228405D02*
X191739138Y-103728405D01*
X191739138Y-103728405D02*
X192024852Y-104228405D01*
X192024852Y-104228405D02*
X192024852Y-103728405D01*
X192262948Y-104228405D02*
X192262948Y-103728405D01*
X192262948Y-103728405D02*
X192381996Y-103728405D01*
X192381996Y-103728405D02*
X192453424Y-103752215D01*
X192453424Y-103752215D02*
X192501043Y-103799834D01*
X192501043Y-103799834D02*
X192524853Y-103847453D01*
X192524853Y-103847453D02*
X192548662Y-103942691D01*
X192548662Y-103942691D02*
X192548662Y-104014119D01*
X192548662Y-104014119D02*
X192524853Y-104109357D01*
X192524853Y-104109357D02*
X192501043Y-104156976D01*
X192501043Y-104156976D02*
X192453424Y-104204596D01*
X192453424Y-104204596D02*
X192381996Y-104228405D01*
X192381996Y-104228405D02*
X192262948Y-104228405D01*
X193905804Y-104037929D02*
X194286757Y-104037929D01*
X194096280Y-104228405D02*
X194096280Y-103847453D01*
X194762947Y-103728405D02*
X194524852Y-103728405D01*
X194524852Y-103728405D02*
X194501043Y-103966500D01*
X194501043Y-103966500D02*
X194524852Y-103942691D01*
X194524852Y-103942691D02*
X194572471Y-103918881D01*
X194572471Y-103918881D02*
X194691519Y-103918881D01*
X194691519Y-103918881D02*
X194739138Y-103942691D01*
X194739138Y-103942691D02*
X194762947Y-103966500D01*
X194762947Y-103966500D02*
X194786757Y-104014119D01*
X194786757Y-104014119D02*
X194786757Y-104133167D01*
X194786757Y-104133167D02*
X194762947Y-104180786D01*
X194762947Y-104180786D02*
X194739138Y-104204596D01*
X194739138Y-104204596D02*
X194691519Y-104228405D01*
X194691519Y-104228405D02*
X194572471Y-104228405D01*
X194572471Y-104228405D02*
X194524852Y-104204596D01*
X194524852Y-104204596D02*
X194501043Y-104180786D01*
X194929614Y-103728405D02*
X195096280Y-104228405D01*
X195096280Y-104228405D02*
X195262947Y-103728405D01*
D11*
X227593394Y-142635507D02*
X227545775Y-142730745D01*
X227545775Y-142730745D02*
X227545775Y-142873602D01*
X227545775Y-142873602D02*
X227593394Y-143016459D01*
X227593394Y-143016459D02*
X227688632Y-143111697D01*
X227688632Y-143111697D02*
X227783870Y-143159316D01*
X227783870Y-143159316D02*
X227974346Y-143206935D01*
X227974346Y-143206935D02*
X228117203Y-143206935D01*
X228117203Y-143206935D02*
X228307679Y-143159316D01*
X228307679Y-143159316D02*
X228402917Y-143111697D01*
X228402917Y-143111697D02*
X228498156Y-143016459D01*
X228498156Y-143016459D02*
X228545775Y-142873602D01*
X228545775Y-142873602D02*
X228545775Y-142778364D01*
X228545775Y-142778364D02*
X228498156Y-142635507D01*
X228498156Y-142635507D02*
X228450536Y-142587888D01*
X228450536Y-142587888D02*
X228117203Y-142587888D01*
X228117203Y-142587888D02*
X228117203Y-142778364D01*
X228545775Y-142159316D02*
X227545775Y-142159316D01*
X227545775Y-142159316D02*
X228545775Y-141587888D01*
X228545775Y-141587888D02*
X227545775Y-141587888D01*
X228545775Y-141111697D02*
X227545775Y-141111697D01*
X227545775Y-141111697D02*
X227545775Y-140873602D01*
X227545775Y-140873602D02*
X227593394Y-140730745D01*
X227593394Y-140730745D02*
X227688632Y-140635507D01*
X227688632Y-140635507D02*
X227783870Y-140587888D01*
X227783870Y-140587888D02*
X227974346Y-140540269D01*
X227974346Y-140540269D02*
X228117203Y-140540269D01*
X228117203Y-140540269D02*
X228307679Y-140587888D01*
X228307679Y-140587888D02*
X228402917Y-140635507D01*
X228402917Y-140635507D02*
X228498156Y-140730745D01*
X228498156Y-140730745D02*
X228545775Y-140873602D01*
X228545775Y-140873602D02*
X228545775Y-141111697D01*
X191012735Y-95584962D02*
X191774640Y-95584962D01*
X191393687Y-95965915D02*
X191393687Y-95204010D01*
X192727020Y-94965915D02*
X192250830Y-94965915D01*
X192250830Y-94965915D02*
X192203211Y-95442105D01*
X192203211Y-95442105D02*
X192250830Y-95394486D01*
X192250830Y-95394486D02*
X192346068Y-95346867D01*
X192346068Y-95346867D02*
X192584163Y-95346867D01*
X192584163Y-95346867D02*
X192679401Y-95394486D01*
X192679401Y-95394486D02*
X192727020Y-95442105D01*
X192727020Y-95442105D02*
X192774639Y-95537343D01*
X192774639Y-95537343D02*
X192774639Y-95775438D01*
X192774639Y-95775438D02*
X192727020Y-95870676D01*
X192727020Y-95870676D02*
X192679401Y-95918296D01*
X192679401Y-95918296D02*
X192584163Y-95965915D01*
X192584163Y-95965915D02*
X192346068Y-95965915D01*
X192346068Y-95965915D02*
X192250830Y-95918296D01*
X192250830Y-95918296D02*
X192203211Y-95870676D01*
X193060354Y-94965915D02*
X193393687Y-95965915D01*
X193393687Y-95965915D02*
X193727020Y-94965915D01*
D10*
X161643906Y-105766500D02*
X161715334Y-105790310D01*
X161715334Y-105790310D02*
X161739144Y-105814119D01*
X161739144Y-105814119D02*
X161762953Y-105861738D01*
X161762953Y-105861738D02*
X161762953Y-105933167D01*
X161762953Y-105933167D02*
X161739144Y-105980786D01*
X161739144Y-105980786D02*
X161715334Y-106004596D01*
X161715334Y-106004596D02*
X161667715Y-106028405D01*
X161667715Y-106028405D02*
X161477239Y-106028405D01*
X161477239Y-106028405D02*
X161477239Y-105528405D01*
X161477239Y-105528405D02*
X161643906Y-105528405D01*
X161643906Y-105528405D02*
X161691525Y-105552215D01*
X161691525Y-105552215D02*
X161715334Y-105576024D01*
X161715334Y-105576024D02*
X161739144Y-105623643D01*
X161739144Y-105623643D02*
X161739144Y-105671262D01*
X161739144Y-105671262D02*
X161715334Y-105718881D01*
X161715334Y-105718881D02*
X161691525Y-105742691D01*
X161691525Y-105742691D02*
X161643906Y-105766500D01*
X161643906Y-105766500D02*
X161477239Y-105766500D01*
D11*
X206185756Y-184740923D02*
X205290822Y-184294725D01*
X205290822Y-184294725D02*
X205397060Y-184081646D01*
X205397060Y-184081646D02*
X205503418Y-183975045D01*
X205503418Y-183975045D02*
X205631145Y-183932309D01*
X205631145Y-183932309D02*
X205737624Y-183932188D01*
X205737624Y-183932188D02*
X205929336Y-183974562D01*
X205929336Y-183974562D02*
X206057183Y-184038304D01*
X206057183Y-184038304D02*
X206206399Y-184165910D01*
X206206399Y-184165910D02*
X206270384Y-184251021D01*
X206270384Y-184251021D02*
X206313121Y-184378748D01*
X206313121Y-184378748D02*
X206291994Y-184527844D01*
X206291994Y-184527844D02*
X206185756Y-184740923D01*
X206865677Y-183377214D02*
X206610707Y-183888605D01*
X206738192Y-183632909D02*
X205843257Y-183186711D01*
X205843257Y-183186711D02*
X205928610Y-183335686D01*
X205928610Y-183335686D02*
X205971347Y-183463413D01*
X205971347Y-183463413D02*
X205971468Y-183569892D01*
X225240241Y-108002105D02*
X225383098Y-108049724D01*
X225383098Y-108049724D02*
X225430717Y-108097343D01*
X225430717Y-108097343D02*
X225478336Y-108192581D01*
X225478336Y-108192581D02*
X225478336Y-108335438D01*
X225478336Y-108335438D02*
X225430717Y-108430676D01*
X225430717Y-108430676D02*
X225383098Y-108478296D01*
X225383098Y-108478296D02*
X225287860Y-108525915D01*
X225287860Y-108525915D02*
X224906908Y-108525915D01*
X224906908Y-108525915D02*
X224906908Y-107525915D01*
X224906908Y-107525915D02*
X225240241Y-107525915D01*
X225240241Y-107525915D02*
X225335479Y-107573534D01*
X225335479Y-107573534D02*
X225383098Y-107621153D01*
X225383098Y-107621153D02*
X225430717Y-107716391D01*
X225430717Y-107716391D02*
X225430717Y-107811629D01*
X225430717Y-107811629D02*
X225383098Y-107906867D01*
X225383098Y-107906867D02*
X225335479Y-107954486D01*
X225335479Y-107954486D02*
X225240241Y-108002105D01*
X225240241Y-108002105D02*
X224906908Y-108002105D01*
X225764051Y-107525915D02*
X226335479Y-107525915D01*
X226049765Y-108525915D02*
X226049765Y-107525915D01*
X227192622Y-108525915D02*
X226621194Y-108525915D01*
X226906908Y-108525915D02*
X226906908Y-107525915D01*
X226906908Y-107525915D02*
X226811670Y-107668772D01*
X226811670Y-107668772D02*
X226716432Y-107764010D01*
X226716432Y-107764010D02*
X226621194Y-107811629D01*
X205633098Y-108693176D02*
X205585479Y-108740796D01*
X205585479Y-108740796D02*
X205442622Y-108788415D01*
X205442622Y-108788415D02*
X205347384Y-108788415D01*
X205347384Y-108788415D02*
X205204527Y-108740796D01*
X205204527Y-108740796D02*
X205109289Y-108645557D01*
X205109289Y-108645557D02*
X205061670Y-108550319D01*
X205061670Y-108550319D02*
X205014051Y-108359843D01*
X205014051Y-108359843D02*
X205014051Y-108216986D01*
X205014051Y-108216986D02*
X205061670Y-108026510D01*
X205061670Y-108026510D02*
X205109289Y-107931272D01*
X205109289Y-107931272D02*
X205204527Y-107836034D01*
X205204527Y-107836034D02*
X205347384Y-107788415D01*
X205347384Y-107788415D02*
X205442622Y-107788415D01*
X205442622Y-107788415D02*
X205585479Y-107836034D01*
X205585479Y-107836034D02*
X205633098Y-107883653D01*
X206585479Y-108788415D02*
X206014051Y-108788415D01*
X206299765Y-108788415D02*
X206299765Y-107788415D01*
X206299765Y-107788415D02*
X206204527Y-107931272D01*
X206204527Y-107931272D02*
X206109289Y-108026510D01*
X206109289Y-108026510D02*
X206014051Y-108074129D01*
X207204527Y-107788415D02*
X207299765Y-107788415D01*
X207299765Y-107788415D02*
X207395003Y-107836034D01*
X207395003Y-107836034D02*
X207442622Y-107883653D01*
X207442622Y-107883653D02*
X207490241Y-107978891D01*
X207490241Y-107978891D02*
X207537860Y-108169367D01*
X207537860Y-108169367D02*
X207537860Y-108407462D01*
X207537860Y-108407462D02*
X207490241Y-108597938D01*
X207490241Y-108597938D02*
X207442622Y-108693176D01*
X207442622Y-108693176D02*
X207395003Y-108740796D01*
X207395003Y-108740796D02*
X207299765Y-108788415D01*
X207299765Y-108788415D02*
X207204527Y-108788415D01*
X207204527Y-108788415D02*
X207109289Y-108740796D01*
X207109289Y-108740796D02*
X207061670Y-108693176D01*
X207061670Y-108693176D02*
X207014051Y-108597938D01*
X207014051Y-108597938D02*
X206966432Y-108407462D01*
X206966432Y-108407462D02*
X206966432Y-108169367D01*
X206966432Y-108169367D02*
X207014051Y-107978891D01*
X207014051Y-107978891D02*
X207061670Y-107883653D01*
X207061670Y-107883653D02*
X207109289Y-107836034D01*
X207109289Y-107836034D02*
X207204527Y-107788415D01*
X208557142Y-152859580D02*
X208509523Y-152907200D01*
X208509523Y-152907200D02*
X208366666Y-152954819D01*
X208366666Y-152954819D02*
X208271428Y-152954819D01*
X208271428Y-152954819D02*
X208128571Y-152907200D01*
X208128571Y-152907200D02*
X208033333Y-152811961D01*
X208033333Y-152811961D02*
X207985714Y-152716723D01*
X207985714Y-152716723D02*
X207938095Y-152526247D01*
X207938095Y-152526247D02*
X207938095Y-152383390D01*
X207938095Y-152383390D02*
X207985714Y-152192914D01*
X207985714Y-152192914D02*
X208033333Y-152097676D01*
X208033333Y-152097676D02*
X208128571Y-152002438D01*
X208128571Y-152002438D02*
X208271428Y-151954819D01*
X208271428Y-151954819D02*
X208366666Y-151954819D01*
X208366666Y-151954819D02*
X208509523Y-152002438D01*
X208509523Y-152002438D02*
X208557142Y-152050057D01*
X208938095Y-152050057D02*
X208985714Y-152002438D01*
X208985714Y-152002438D02*
X209080952Y-151954819D01*
X209080952Y-151954819D02*
X209319047Y-151954819D01*
X209319047Y-151954819D02*
X209414285Y-152002438D01*
X209414285Y-152002438D02*
X209461904Y-152050057D01*
X209461904Y-152050057D02*
X209509523Y-152145295D01*
X209509523Y-152145295D02*
X209509523Y-152240533D01*
X209509523Y-152240533D02*
X209461904Y-152383390D01*
X209461904Y-152383390D02*
X208890476Y-152954819D01*
X208890476Y-152954819D02*
X209509523Y-152954819D01*
X209890476Y-152050057D02*
X209938095Y-152002438D01*
X209938095Y-152002438D02*
X210033333Y-151954819D01*
X210033333Y-151954819D02*
X210271428Y-151954819D01*
X210271428Y-151954819D02*
X210366666Y-152002438D01*
X210366666Y-152002438D02*
X210414285Y-152050057D01*
X210414285Y-152050057D02*
X210461904Y-152145295D01*
X210461904Y-152145295D02*
X210461904Y-152240533D01*
X210461904Y-152240533D02*
X210414285Y-152383390D01*
X210414285Y-152383390D02*
X209842857Y-152954819D01*
X209842857Y-152954819D02*
X210461904Y-152954819D01*
X197233333Y-165654819D02*
X196900000Y-165178628D01*
X196661905Y-165654819D02*
X196661905Y-164654819D01*
X196661905Y-164654819D02*
X197042857Y-164654819D01*
X197042857Y-164654819D02*
X197138095Y-164702438D01*
X197138095Y-164702438D02*
X197185714Y-164750057D01*
X197185714Y-164750057D02*
X197233333Y-164845295D01*
X197233333Y-164845295D02*
X197233333Y-164988152D01*
X197233333Y-164988152D02*
X197185714Y-165083390D01*
X197185714Y-165083390D02*
X197138095Y-165131009D01*
X197138095Y-165131009D02*
X197042857Y-165178628D01*
X197042857Y-165178628D02*
X196661905Y-165178628D01*
X197566667Y-164654819D02*
X198185714Y-164654819D01*
X198185714Y-164654819D02*
X197852381Y-165035771D01*
X197852381Y-165035771D02*
X197995238Y-165035771D01*
X197995238Y-165035771D02*
X198090476Y-165083390D01*
X198090476Y-165083390D02*
X198138095Y-165131009D01*
X198138095Y-165131009D02*
X198185714Y-165226247D01*
X198185714Y-165226247D02*
X198185714Y-165464342D01*
X198185714Y-165464342D02*
X198138095Y-165559580D01*
X198138095Y-165559580D02*
X198090476Y-165607200D01*
X198090476Y-165607200D02*
X197995238Y-165654819D01*
X197995238Y-165654819D02*
X197709524Y-165654819D01*
X197709524Y-165654819D02*
X197614286Y-165607200D01*
X197614286Y-165607200D02*
X197566667Y-165559580D01*
X202909289Y-115255676D02*
X202861670Y-115303296D01*
X202861670Y-115303296D02*
X202718813Y-115350915D01*
X202718813Y-115350915D02*
X202623575Y-115350915D01*
X202623575Y-115350915D02*
X202480718Y-115303296D01*
X202480718Y-115303296D02*
X202385480Y-115208057D01*
X202385480Y-115208057D02*
X202337861Y-115112819D01*
X202337861Y-115112819D02*
X202290242Y-114922343D01*
X202290242Y-114922343D02*
X202290242Y-114779486D01*
X202290242Y-114779486D02*
X202337861Y-114589010D01*
X202337861Y-114589010D02*
X202385480Y-114493772D01*
X202385480Y-114493772D02*
X202480718Y-114398534D01*
X202480718Y-114398534D02*
X202623575Y-114350915D01*
X202623575Y-114350915D02*
X202718813Y-114350915D01*
X202718813Y-114350915D02*
X202861670Y-114398534D01*
X202861670Y-114398534D02*
X202909289Y-114446153D01*
X203814051Y-114350915D02*
X203337861Y-114350915D01*
X203337861Y-114350915D02*
X203290242Y-114827105D01*
X203290242Y-114827105D02*
X203337861Y-114779486D01*
X203337861Y-114779486D02*
X203433099Y-114731867D01*
X203433099Y-114731867D02*
X203671194Y-114731867D01*
X203671194Y-114731867D02*
X203766432Y-114779486D01*
X203766432Y-114779486D02*
X203814051Y-114827105D01*
X203814051Y-114827105D02*
X203861670Y-114922343D01*
X203861670Y-114922343D02*
X203861670Y-115160438D01*
X203861670Y-115160438D02*
X203814051Y-115255676D01*
X203814051Y-115255676D02*
X203766432Y-115303296D01*
X203766432Y-115303296D02*
X203671194Y-115350915D01*
X203671194Y-115350915D02*
X203433099Y-115350915D01*
X203433099Y-115350915D02*
X203337861Y-115303296D01*
X203337861Y-115303296D02*
X203290242Y-115255676D01*
X205909289Y-115255676D02*
X205861670Y-115303296D01*
X205861670Y-115303296D02*
X205718813Y-115350915D01*
X205718813Y-115350915D02*
X205623575Y-115350915D01*
X205623575Y-115350915D02*
X205480718Y-115303296D01*
X205480718Y-115303296D02*
X205385480Y-115208057D01*
X205385480Y-115208057D02*
X205337861Y-115112819D01*
X205337861Y-115112819D02*
X205290242Y-114922343D01*
X205290242Y-114922343D02*
X205290242Y-114779486D01*
X205290242Y-114779486D02*
X205337861Y-114589010D01*
X205337861Y-114589010D02*
X205385480Y-114493772D01*
X205385480Y-114493772D02*
X205480718Y-114398534D01*
X205480718Y-114398534D02*
X205623575Y-114350915D01*
X205623575Y-114350915D02*
X205718813Y-114350915D01*
X205718813Y-114350915D02*
X205861670Y-114398534D01*
X205861670Y-114398534D02*
X205909289Y-114446153D01*
X206242623Y-114350915D02*
X206909289Y-114350915D01*
X206909289Y-114350915D02*
X206480718Y-115350915D01*
X196412327Y-183457621D02*
X197307261Y-183011424D01*
X197307261Y-183011424D02*
X197413499Y-183224503D01*
X197413499Y-183224503D02*
X197434626Y-183373598D01*
X197434626Y-183373598D02*
X197391889Y-183501325D01*
X197391889Y-183501325D02*
X197327904Y-183586436D01*
X197327904Y-183586436D02*
X197178688Y-183714042D01*
X197178688Y-183714042D02*
X197050841Y-183777785D01*
X197050841Y-183777785D02*
X196859129Y-183820159D01*
X196859129Y-183820159D02*
X196752650Y-183820038D01*
X196752650Y-183820038D02*
X196624923Y-183777301D01*
X196624923Y-183777301D02*
X196518565Y-183670701D01*
X196518565Y-183670701D02*
X196412327Y-183457621D01*
X197710964Y-183821126D02*
X197987182Y-184375133D01*
X197987182Y-184375133D02*
X197497522Y-184246802D01*
X197497522Y-184246802D02*
X197561264Y-184374650D01*
X197561264Y-184374650D02*
X197561144Y-184481129D01*
X197561144Y-184481129D02*
X197539775Y-184544992D01*
X197539775Y-184544992D02*
X197475791Y-184630103D01*
X197475791Y-184630103D02*
X197262711Y-184736341D01*
X197262711Y-184736341D02*
X197156232Y-184736220D01*
X197156232Y-184736220D02*
X197092368Y-184714852D01*
X197092368Y-184714852D02*
X197007257Y-184650867D01*
X197007257Y-184650867D02*
X196879772Y-184395172D01*
X196879772Y-184395172D02*
X196879893Y-184288692D01*
X196879893Y-184288692D02*
X196901262Y-184224829D01*
X233153928Y-169166708D02*
X233058690Y-169119089D01*
X233058690Y-169119089D02*
X232963452Y-169023851D01*
X232963452Y-169023851D02*
X232820595Y-168880993D01*
X232820595Y-168880993D02*
X232725357Y-168833374D01*
X232725357Y-168833374D02*
X232630119Y-168833374D01*
X232677738Y-169071470D02*
X232582500Y-169023851D01*
X232582500Y-169023851D02*
X232487262Y-168928612D01*
X232487262Y-168928612D02*
X232439643Y-168738136D01*
X232439643Y-168738136D02*
X232439643Y-168404803D01*
X232439643Y-168404803D02*
X232487262Y-168214327D01*
X232487262Y-168214327D02*
X232582500Y-168119089D01*
X232582500Y-168119089D02*
X232677738Y-168071470D01*
X232677738Y-168071470D02*
X232868214Y-168071470D01*
X232868214Y-168071470D02*
X232963452Y-168119089D01*
X232963452Y-168119089D02*
X233058690Y-168214327D01*
X233058690Y-168214327D02*
X233106309Y-168404803D01*
X233106309Y-168404803D02*
X233106309Y-168738136D01*
X233106309Y-168738136D02*
X233058690Y-168928612D01*
X233058690Y-168928612D02*
X232963452Y-169023851D01*
X232963452Y-169023851D02*
X232868214Y-169071470D01*
X232868214Y-169071470D02*
X232677738Y-169071470D01*
X233725357Y-168071470D02*
X233820595Y-168071470D01*
X233820595Y-168071470D02*
X233915833Y-168119089D01*
X233915833Y-168119089D02*
X233963452Y-168166708D01*
X233963452Y-168166708D02*
X234011071Y-168261946D01*
X234011071Y-168261946D02*
X234058690Y-168452422D01*
X234058690Y-168452422D02*
X234058690Y-168690517D01*
X234058690Y-168690517D02*
X234011071Y-168880993D01*
X234011071Y-168880993D02*
X233963452Y-168976231D01*
X233963452Y-168976231D02*
X233915833Y-169023851D01*
X233915833Y-169023851D02*
X233820595Y-169071470D01*
X233820595Y-169071470D02*
X233725357Y-169071470D01*
X233725357Y-169071470D02*
X233630119Y-169023851D01*
X233630119Y-169023851D02*
X233582500Y-168976231D01*
X233582500Y-168976231D02*
X233534881Y-168880993D01*
X233534881Y-168880993D02*
X233487262Y-168690517D01*
X233487262Y-168690517D02*
X233487262Y-168452422D01*
X233487262Y-168452422D02*
X233534881Y-168261946D01*
X233534881Y-168261946D02*
X233582500Y-168166708D01*
X233582500Y-168166708D02*
X233630119Y-168119089D01*
X233630119Y-168119089D02*
X233725357Y-168071470D01*
X192704527Y-173246153D02*
X192609289Y-173198534D01*
X192609289Y-173198534D02*
X192514051Y-173103296D01*
X192514051Y-173103296D02*
X192371194Y-172960438D01*
X192371194Y-172960438D02*
X192275956Y-172912819D01*
X192275956Y-172912819D02*
X192180718Y-172912819D01*
X192228337Y-173150915D02*
X192133099Y-173103296D01*
X192133099Y-173103296D02*
X192037861Y-173008057D01*
X192037861Y-173008057D02*
X191990242Y-172817581D01*
X191990242Y-172817581D02*
X191990242Y-172484248D01*
X191990242Y-172484248D02*
X192037861Y-172293772D01*
X192037861Y-172293772D02*
X192133099Y-172198534D01*
X192133099Y-172198534D02*
X192228337Y-172150915D01*
X192228337Y-172150915D02*
X192418813Y-172150915D01*
X192418813Y-172150915D02*
X192514051Y-172198534D01*
X192514051Y-172198534D02*
X192609289Y-172293772D01*
X192609289Y-172293772D02*
X192656908Y-172484248D01*
X192656908Y-172484248D02*
X192656908Y-172817581D01*
X192656908Y-172817581D02*
X192609289Y-173008057D01*
X192609289Y-173008057D02*
X192514051Y-173103296D01*
X192514051Y-173103296D02*
X192418813Y-173150915D01*
X192418813Y-173150915D02*
X192228337Y-173150915D01*
X193609289Y-173150915D02*
X193037861Y-173150915D01*
X193323575Y-173150915D02*
X193323575Y-172150915D01*
X193323575Y-172150915D02*
X193228337Y-172293772D01*
X193228337Y-172293772D02*
X193133099Y-172389010D01*
X193133099Y-172389010D02*
X193037861Y-172436629D01*
X193990242Y-172246153D02*
X194037861Y-172198534D01*
X194037861Y-172198534D02*
X194133099Y-172150915D01*
X194133099Y-172150915D02*
X194371194Y-172150915D01*
X194371194Y-172150915D02*
X194466432Y-172198534D01*
X194466432Y-172198534D02*
X194514051Y-172246153D01*
X194514051Y-172246153D02*
X194561670Y-172341391D01*
X194561670Y-172341391D02*
X194561670Y-172436629D01*
X194561670Y-172436629D02*
X194514051Y-172579486D01*
X194514051Y-172579486D02*
X193942623Y-173150915D01*
X193942623Y-173150915D02*
X194561670Y-173150915D01*
X163537861Y-111350915D02*
X163537861Y-110350915D01*
X163537861Y-110350915D02*
X163775956Y-110350915D01*
X163775956Y-110350915D02*
X163918813Y-110398534D01*
X163918813Y-110398534D02*
X164014051Y-110493772D01*
X164014051Y-110493772D02*
X164061670Y-110589010D01*
X164061670Y-110589010D02*
X164109289Y-110779486D01*
X164109289Y-110779486D02*
X164109289Y-110922343D01*
X164109289Y-110922343D02*
X164061670Y-111112819D01*
X164061670Y-111112819D02*
X164014051Y-111208057D01*
X164014051Y-111208057D02*
X163918813Y-111303296D01*
X163918813Y-111303296D02*
X163775956Y-111350915D01*
X163775956Y-111350915D02*
X163537861Y-111350915D01*
X165014051Y-110350915D02*
X164537861Y-110350915D01*
X164537861Y-110350915D02*
X164490242Y-110827105D01*
X164490242Y-110827105D02*
X164537861Y-110779486D01*
X164537861Y-110779486D02*
X164633099Y-110731867D01*
X164633099Y-110731867D02*
X164871194Y-110731867D01*
X164871194Y-110731867D02*
X164966432Y-110779486D01*
X164966432Y-110779486D02*
X165014051Y-110827105D01*
X165014051Y-110827105D02*
X165061670Y-110922343D01*
X165061670Y-110922343D02*
X165061670Y-111160438D01*
X165061670Y-111160438D02*
X165014051Y-111255676D01*
X165014051Y-111255676D02*
X164966432Y-111303296D01*
X164966432Y-111303296D02*
X164871194Y-111350915D01*
X164871194Y-111350915D02*
X164633099Y-111350915D01*
X164633099Y-111350915D02*
X164537861Y-111303296D01*
X164537861Y-111303296D02*
X164490242Y-111255676D01*
X191157142Y-166659580D02*
X191109523Y-166707200D01*
X191109523Y-166707200D02*
X190966666Y-166754819D01*
X190966666Y-166754819D02*
X190871428Y-166754819D01*
X190871428Y-166754819D02*
X190728571Y-166707200D01*
X190728571Y-166707200D02*
X190633333Y-166611961D01*
X190633333Y-166611961D02*
X190585714Y-166516723D01*
X190585714Y-166516723D02*
X190538095Y-166326247D01*
X190538095Y-166326247D02*
X190538095Y-166183390D01*
X190538095Y-166183390D02*
X190585714Y-165992914D01*
X190585714Y-165992914D02*
X190633333Y-165897676D01*
X190633333Y-165897676D02*
X190728571Y-165802438D01*
X190728571Y-165802438D02*
X190871428Y-165754819D01*
X190871428Y-165754819D02*
X190966666Y-165754819D01*
X190966666Y-165754819D02*
X191109523Y-165802438D01*
X191109523Y-165802438D02*
X191157142Y-165850057D01*
X191538095Y-165850057D02*
X191585714Y-165802438D01*
X191585714Y-165802438D02*
X191680952Y-165754819D01*
X191680952Y-165754819D02*
X191919047Y-165754819D01*
X191919047Y-165754819D02*
X192014285Y-165802438D01*
X192014285Y-165802438D02*
X192061904Y-165850057D01*
X192061904Y-165850057D02*
X192109523Y-165945295D01*
X192109523Y-165945295D02*
X192109523Y-166040533D01*
X192109523Y-166040533D02*
X192061904Y-166183390D01*
X192061904Y-166183390D02*
X191490476Y-166754819D01*
X191490476Y-166754819D02*
X192109523Y-166754819D01*
X192585714Y-166754819D02*
X192776190Y-166754819D01*
X192776190Y-166754819D02*
X192871428Y-166707200D01*
X192871428Y-166707200D02*
X192919047Y-166659580D01*
X192919047Y-166659580D02*
X193014285Y-166516723D01*
X193014285Y-166516723D02*
X193061904Y-166326247D01*
X193061904Y-166326247D02*
X193061904Y-165945295D01*
X193061904Y-165945295D02*
X193014285Y-165850057D01*
X193014285Y-165850057D02*
X192966666Y-165802438D01*
X192966666Y-165802438D02*
X192871428Y-165754819D01*
X192871428Y-165754819D02*
X192680952Y-165754819D01*
X192680952Y-165754819D02*
X192585714Y-165802438D01*
X192585714Y-165802438D02*
X192538095Y-165850057D01*
X192538095Y-165850057D02*
X192490476Y-165945295D01*
X192490476Y-165945295D02*
X192490476Y-166183390D01*
X192490476Y-166183390D02*
X192538095Y-166278628D01*
X192538095Y-166278628D02*
X192585714Y-166326247D01*
X192585714Y-166326247D02*
X192680952Y-166373866D01*
X192680952Y-166373866D02*
X192871428Y-166373866D01*
X192871428Y-166373866D02*
X192966666Y-166326247D01*
X192966666Y-166326247D02*
X193014285Y-166278628D01*
X193014285Y-166278628D02*
X193061904Y-166183390D01*
X237901872Y-162860670D02*
X237901872Y-161860670D01*
X237901872Y-161860670D02*
X238139967Y-161860670D01*
X238139967Y-161860670D02*
X238282824Y-161908289D01*
X238282824Y-161908289D02*
X238378062Y-162003527D01*
X238378062Y-162003527D02*
X238425681Y-162098765D01*
X238425681Y-162098765D02*
X238473300Y-162289241D01*
X238473300Y-162289241D02*
X238473300Y-162432098D01*
X238473300Y-162432098D02*
X238425681Y-162622574D01*
X238425681Y-162622574D02*
X238378062Y-162717812D01*
X238378062Y-162717812D02*
X238282824Y-162813051D01*
X238282824Y-162813051D02*
X238139967Y-162860670D01*
X238139967Y-162860670D02*
X237901872Y-162860670D01*
X239092348Y-161860670D02*
X239187586Y-161860670D01*
X239187586Y-161860670D02*
X239282824Y-161908289D01*
X239282824Y-161908289D02*
X239330443Y-161955908D01*
X239330443Y-161955908D02*
X239378062Y-162051146D01*
X239378062Y-162051146D02*
X239425681Y-162241622D01*
X239425681Y-162241622D02*
X239425681Y-162479717D01*
X239425681Y-162479717D02*
X239378062Y-162670193D01*
X239378062Y-162670193D02*
X239330443Y-162765431D01*
X239330443Y-162765431D02*
X239282824Y-162813051D01*
X239282824Y-162813051D02*
X239187586Y-162860670D01*
X239187586Y-162860670D02*
X239092348Y-162860670D01*
X239092348Y-162860670D02*
X238997110Y-162813051D01*
X238997110Y-162813051D02*
X238949491Y-162765431D01*
X238949491Y-162765431D02*
X238901872Y-162670193D01*
X238901872Y-162670193D02*
X238854253Y-162479717D01*
X238854253Y-162479717D02*
X238854253Y-162241622D01*
X238854253Y-162241622D02*
X238901872Y-162051146D01*
X238901872Y-162051146D02*
X238949491Y-161955908D01*
X238949491Y-161955908D02*
X238997110Y-161908289D01*
X238997110Y-161908289D02*
X239092348Y-161860670D01*
X189714051Y-114950915D02*
X189714051Y-115760438D01*
X189714051Y-115760438D02*
X189761670Y-115855676D01*
X189761670Y-115855676D02*
X189809289Y-115903296D01*
X189809289Y-115903296D02*
X189904527Y-115950915D01*
X189904527Y-115950915D02*
X190095003Y-115950915D01*
X190095003Y-115950915D02*
X190190241Y-115903296D01*
X190190241Y-115903296D02*
X190237860Y-115855676D01*
X190237860Y-115855676D02*
X190285479Y-115760438D01*
X190285479Y-115760438D02*
X190285479Y-114950915D01*
X191190241Y-114950915D02*
X190999765Y-114950915D01*
X190999765Y-114950915D02*
X190904527Y-114998534D01*
X190904527Y-114998534D02*
X190856908Y-115046153D01*
X190856908Y-115046153D02*
X190761670Y-115189010D01*
X190761670Y-115189010D02*
X190714051Y-115379486D01*
X190714051Y-115379486D02*
X190714051Y-115760438D01*
X190714051Y-115760438D02*
X190761670Y-115855676D01*
X190761670Y-115855676D02*
X190809289Y-115903296D01*
X190809289Y-115903296D02*
X190904527Y-115950915D01*
X190904527Y-115950915D02*
X191095003Y-115950915D01*
X191095003Y-115950915D02*
X191190241Y-115903296D01*
X191190241Y-115903296D02*
X191237860Y-115855676D01*
X191237860Y-115855676D02*
X191285479Y-115760438D01*
X191285479Y-115760438D02*
X191285479Y-115522343D01*
X191285479Y-115522343D02*
X191237860Y-115427105D01*
X191237860Y-115427105D02*
X191190241Y-115379486D01*
X191190241Y-115379486D02*
X191095003Y-115331867D01*
X191095003Y-115331867D02*
X190904527Y-115331867D01*
X190904527Y-115331867D02*
X190809289Y-115379486D01*
X190809289Y-115379486D02*
X190761670Y-115427105D01*
X190761670Y-115427105D02*
X190714051Y-115522343D01*
X190130775Y-118296095D02*
X190368870Y-118296095D01*
X190273632Y-118534190D02*
X190368870Y-118296095D01*
X190368870Y-118296095D02*
X190273632Y-118058000D01*
X190559346Y-118438952D02*
X190368870Y-118296095D01*
X190368870Y-118296095D02*
X190559346Y-118153238D01*
X196059289Y-180950915D02*
X195725956Y-180474724D01*
X195487861Y-180950915D02*
X195487861Y-179950915D01*
X195487861Y-179950915D02*
X195868813Y-179950915D01*
X195868813Y-179950915D02*
X195964051Y-179998534D01*
X195964051Y-179998534D02*
X196011670Y-180046153D01*
X196011670Y-180046153D02*
X196059289Y-180141391D01*
X196059289Y-180141391D02*
X196059289Y-180284248D01*
X196059289Y-180284248D02*
X196011670Y-180379486D01*
X196011670Y-180379486D02*
X195964051Y-180427105D01*
X195964051Y-180427105D02*
X195868813Y-180474724D01*
X195868813Y-180474724D02*
X195487861Y-180474724D01*
X196630718Y-180379486D02*
X196535480Y-180331867D01*
X196535480Y-180331867D02*
X196487861Y-180284248D01*
X196487861Y-180284248D02*
X196440242Y-180189010D01*
X196440242Y-180189010D02*
X196440242Y-180141391D01*
X196440242Y-180141391D02*
X196487861Y-180046153D01*
X196487861Y-180046153D02*
X196535480Y-179998534D01*
X196535480Y-179998534D02*
X196630718Y-179950915D01*
X196630718Y-179950915D02*
X196821194Y-179950915D01*
X196821194Y-179950915D02*
X196916432Y-179998534D01*
X196916432Y-179998534D02*
X196964051Y-180046153D01*
X196964051Y-180046153D02*
X197011670Y-180141391D01*
X197011670Y-180141391D02*
X197011670Y-180189010D01*
X197011670Y-180189010D02*
X196964051Y-180284248D01*
X196964051Y-180284248D02*
X196916432Y-180331867D01*
X196916432Y-180331867D02*
X196821194Y-180379486D01*
X196821194Y-180379486D02*
X196630718Y-180379486D01*
X196630718Y-180379486D02*
X196535480Y-180427105D01*
X196535480Y-180427105D02*
X196487861Y-180474724D01*
X196487861Y-180474724D02*
X196440242Y-180569962D01*
X196440242Y-180569962D02*
X196440242Y-180760438D01*
X196440242Y-180760438D02*
X196487861Y-180855676D01*
X196487861Y-180855676D02*
X196535480Y-180903296D01*
X196535480Y-180903296D02*
X196630718Y-180950915D01*
X196630718Y-180950915D02*
X196821194Y-180950915D01*
X196821194Y-180950915D02*
X196916432Y-180903296D01*
X196916432Y-180903296D02*
X196964051Y-180855676D01*
X196964051Y-180855676D02*
X197011670Y-180760438D01*
X197011670Y-180760438D02*
X197011670Y-180569962D01*
X197011670Y-180569962D02*
X196964051Y-180474724D01*
X196964051Y-180474724D02*
X196916432Y-180427105D01*
X196916432Y-180427105D02*
X196821194Y-180379486D01*
X198505775Y-107229429D02*
X199220060Y-107229429D01*
X199220060Y-107229429D02*
X199362917Y-107277048D01*
X199362917Y-107277048D02*
X199458156Y-107372286D01*
X199458156Y-107372286D02*
X199505775Y-107515143D01*
X199505775Y-107515143D02*
X199505775Y-107610381D01*
X199505775Y-106229429D02*
X199505775Y-106800857D01*
X199505775Y-106515143D02*
X198505775Y-106515143D01*
X198505775Y-106515143D02*
X198648632Y-106610381D01*
X198648632Y-106610381D02*
X198743870Y-106705619D01*
X198743870Y-106705619D02*
X198791489Y-106800857D01*
X183714051Y-114750915D02*
X183714051Y-115560438D01*
X183714051Y-115560438D02*
X183761670Y-115655676D01*
X183761670Y-115655676D02*
X183809289Y-115703296D01*
X183809289Y-115703296D02*
X183904527Y-115750915D01*
X183904527Y-115750915D02*
X184095003Y-115750915D01*
X184095003Y-115750915D02*
X184190241Y-115703296D01*
X184190241Y-115703296D02*
X184237860Y-115655676D01*
X184237860Y-115655676D02*
X184285479Y-115560438D01*
X184285479Y-115560438D02*
X184285479Y-114750915D01*
X185237860Y-114750915D02*
X184761670Y-114750915D01*
X184761670Y-114750915D02*
X184714051Y-115227105D01*
X184714051Y-115227105D02*
X184761670Y-115179486D01*
X184761670Y-115179486D02*
X184856908Y-115131867D01*
X184856908Y-115131867D02*
X185095003Y-115131867D01*
X185095003Y-115131867D02*
X185190241Y-115179486D01*
X185190241Y-115179486D02*
X185237860Y-115227105D01*
X185237860Y-115227105D02*
X185285479Y-115322343D01*
X185285479Y-115322343D02*
X185285479Y-115560438D01*
X185285479Y-115560438D02*
X185237860Y-115655676D01*
X185237860Y-115655676D02*
X185190241Y-115703296D01*
X185190241Y-115703296D02*
X185095003Y-115750915D01*
X185095003Y-115750915D02*
X184856908Y-115750915D01*
X184856908Y-115750915D02*
X184761670Y-115703296D01*
X184761670Y-115703296D02*
X184714051Y-115655676D01*
X184280776Y-118359445D02*
X184518871Y-118359445D01*
X184423633Y-118597540D02*
X184518871Y-118359445D01*
X184518871Y-118359445D02*
X184423633Y-118121350D01*
X184709347Y-118502302D02*
X184518871Y-118359445D01*
X184518871Y-118359445D02*
X184709347Y-118216588D01*
X218433098Y-118305676D02*
X218385479Y-118353296D01*
X218385479Y-118353296D02*
X218242622Y-118400915D01*
X218242622Y-118400915D02*
X218147384Y-118400915D01*
X218147384Y-118400915D02*
X218004527Y-118353296D01*
X218004527Y-118353296D02*
X217909289Y-118258057D01*
X217909289Y-118258057D02*
X217861670Y-118162819D01*
X217861670Y-118162819D02*
X217814051Y-117972343D01*
X217814051Y-117972343D02*
X217814051Y-117829486D01*
X217814051Y-117829486D02*
X217861670Y-117639010D01*
X217861670Y-117639010D02*
X217909289Y-117543772D01*
X217909289Y-117543772D02*
X218004527Y-117448534D01*
X218004527Y-117448534D02*
X218147384Y-117400915D01*
X218147384Y-117400915D02*
X218242622Y-117400915D01*
X218242622Y-117400915D02*
X218385479Y-117448534D01*
X218385479Y-117448534D02*
X218433098Y-117496153D01*
X219385479Y-118400915D02*
X218814051Y-118400915D01*
X219099765Y-118400915D02*
X219099765Y-117400915D01*
X219099765Y-117400915D02*
X219004527Y-117543772D01*
X219004527Y-117543772D02*
X218909289Y-117639010D01*
X218909289Y-117639010D02*
X218814051Y-117686629D01*
X219718813Y-117400915D02*
X220385479Y-117400915D01*
X220385479Y-117400915D02*
X219956908Y-118400915D01*
X231683156Y-150029428D02*
X231730775Y-149886571D01*
X231730775Y-149886571D02*
X231730775Y-149648476D01*
X231730775Y-149648476D02*
X231683156Y-149553238D01*
X231683156Y-149553238D02*
X231635536Y-149505619D01*
X231635536Y-149505619D02*
X231540298Y-149458000D01*
X231540298Y-149458000D02*
X231445060Y-149458000D01*
X231445060Y-149458000D02*
X231349822Y-149505619D01*
X231349822Y-149505619D02*
X231302203Y-149553238D01*
X231302203Y-149553238D02*
X231254584Y-149648476D01*
X231254584Y-149648476D02*
X231206965Y-149838952D01*
X231206965Y-149838952D02*
X231159346Y-149934190D01*
X231159346Y-149934190D02*
X231111727Y-149981809D01*
X231111727Y-149981809D02*
X231016489Y-150029428D01*
X231016489Y-150029428D02*
X230921251Y-150029428D01*
X230921251Y-150029428D02*
X230826013Y-149981809D01*
X230826013Y-149981809D02*
X230778394Y-149934190D01*
X230778394Y-149934190D02*
X230730775Y-149838952D01*
X230730775Y-149838952D02*
X230730775Y-149600857D01*
X230730775Y-149600857D02*
X230778394Y-149458000D01*
X230730775Y-149124666D02*
X231730775Y-148886571D01*
X231730775Y-148886571D02*
X231016489Y-148696095D01*
X231016489Y-148696095D02*
X231730775Y-148505619D01*
X231730775Y-148505619D02*
X230730775Y-148267524D01*
X230826013Y-147934190D02*
X230778394Y-147886571D01*
X230778394Y-147886571D02*
X230730775Y-147791333D01*
X230730775Y-147791333D02*
X230730775Y-147553238D01*
X230730775Y-147553238D02*
X230778394Y-147458000D01*
X230778394Y-147458000D02*
X230826013Y-147410381D01*
X230826013Y-147410381D02*
X230921251Y-147362762D01*
X230921251Y-147362762D02*
X231016489Y-147362762D01*
X231016489Y-147362762D02*
X231159346Y-147410381D01*
X231159346Y-147410381D02*
X231730775Y-147981809D01*
X231730775Y-147981809D02*
X231730775Y-147362762D01*
X178857142Y-153874819D02*
X178523809Y-153398628D01*
X178285714Y-153874819D02*
X178285714Y-152874819D01*
X178285714Y-152874819D02*
X178666666Y-152874819D01*
X178666666Y-152874819D02*
X178761904Y-152922438D01*
X178761904Y-152922438D02*
X178809523Y-152970057D01*
X178809523Y-152970057D02*
X178857142Y-153065295D01*
X178857142Y-153065295D02*
X178857142Y-153208152D01*
X178857142Y-153208152D02*
X178809523Y-153303390D01*
X178809523Y-153303390D02*
X178761904Y-153351009D01*
X178761904Y-153351009D02*
X178666666Y-153398628D01*
X178666666Y-153398628D02*
X178285714Y-153398628D01*
X179238095Y-152970057D02*
X179285714Y-152922438D01*
X179285714Y-152922438D02*
X179380952Y-152874819D01*
X179380952Y-152874819D02*
X179619047Y-152874819D01*
X179619047Y-152874819D02*
X179714285Y-152922438D01*
X179714285Y-152922438D02*
X179761904Y-152970057D01*
X179761904Y-152970057D02*
X179809523Y-153065295D01*
X179809523Y-153065295D02*
X179809523Y-153160533D01*
X179809523Y-153160533D02*
X179761904Y-153303390D01*
X179761904Y-153303390D02*
X179190476Y-153874819D01*
X179190476Y-153874819D02*
X179809523Y-153874819D01*
X180666666Y-152874819D02*
X180476190Y-152874819D01*
X180476190Y-152874819D02*
X180380952Y-152922438D01*
X180380952Y-152922438D02*
X180333333Y-152970057D01*
X180333333Y-152970057D02*
X180238095Y-153112914D01*
X180238095Y-153112914D02*
X180190476Y-153303390D01*
X180190476Y-153303390D02*
X180190476Y-153684342D01*
X180190476Y-153684342D02*
X180238095Y-153779580D01*
X180238095Y-153779580D02*
X180285714Y-153827200D01*
X180285714Y-153827200D02*
X180380952Y-153874819D01*
X180380952Y-153874819D02*
X180571428Y-153874819D01*
X180571428Y-153874819D02*
X180666666Y-153827200D01*
X180666666Y-153827200D02*
X180714285Y-153779580D01*
X180714285Y-153779580D02*
X180761904Y-153684342D01*
X180761904Y-153684342D02*
X180761904Y-153446247D01*
X180761904Y-153446247D02*
X180714285Y-153351009D01*
X180714285Y-153351009D02*
X180666666Y-153303390D01*
X180666666Y-153303390D02*
X180571428Y-153255771D01*
X180571428Y-153255771D02*
X180380952Y-153255771D01*
X180380952Y-153255771D02*
X180285714Y-153303390D01*
X180285714Y-153303390D02*
X180238095Y-153351009D01*
X180238095Y-153351009D02*
X180190476Y-153446247D01*
X203226013Y-175867524D02*
X203178394Y-175962762D01*
X203178394Y-175962762D02*
X203083156Y-176058000D01*
X203083156Y-176058000D02*
X202940298Y-176200857D01*
X202940298Y-176200857D02*
X202892679Y-176296095D01*
X202892679Y-176296095D02*
X202892679Y-176391333D01*
X203130775Y-176343714D02*
X203083156Y-176438952D01*
X203083156Y-176438952D02*
X202987917Y-176534190D01*
X202987917Y-176534190D02*
X202797441Y-176581809D01*
X202797441Y-176581809D02*
X202464108Y-176581809D01*
X202464108Y-176581809D02*
X202273632Y-176534190D01*
X202273632Y-176534190D02*
X202178394Y-176438952D01*
X202178394Y-176438952D02*
X202130775Y-176343714D01*
X202130775Y-176343714D02*
X202130775Y-176153238D01*
X202130775Y-176153238D02*
X202178394Y-176058000D01*
X202178394Y-176058000D02*
X202273632Y-175962762D01*
X202273632Y-175962762D02*
X202464108Y-175915143D01*
X202464108Y-175915143D02*
X202797441Y-175915143D01*
X202797441Y-175915143D02*
X202987917Y-175962762D01*
X202987917Y-175962762D02*
X203083156Y-176058000D01*
X203083156Y-176058000D02*
X203130775Y-176153238D01*
X203130775Y-176153238D02*
X203130775Y-176343714D01*
X203130775Y-174962762D02*
X203130775Y-175534190D01*
X203130775Y-175248476D02*
X202130775Y-175248476D01*
X202130775Y-175248476D02*
X202273632Y-175343714D01*
X202273632Y-175343714D02*
X202368870Y-175438952D01*
X202368870Y-175438952D02*
X202416489Y-175534190D01*
X202130775Y-174343714D02*
X202130775Y-174248476D01*
X202130775Y-174248476D02*
X202178394Y-174153238D01*
X202178394Y-174153238D02*
X202226013Y-174105619D01*
X202226013Y-174105619D02*
X202321251Y-174058000D01*
X202321251Y-174058000D02*
X202511727Y-174010381D01*
X202511727Y-174010381D02*
X202749822Y-174010381D01*
X202749822Y-174010381D02*
X202940298Y-174058000D01*
X202940298Y-174058000D02*
X203035536Y-174105619D01*
X203035536Y-174105619D02*
X203083156Y-174153238D01*
X203083156Y-174153238D02*
X203130775Y-174248476D01*
X203130775Y-174248476D02*
X203130775Y-174343714D01*
X203130775Y-174343714D02*
X203083156Y-174438952D01*
X203083156Y-174438952D02*
X203035536Y-174486571D01*
X203035536Y-174486571D02*
X202940298Y-174534190D01*
X202940298Y-174534190D02*
X202749822Y-174581809D01*
X202749822Y-174581809D02*
X202511727Y-174581809D01*
X202511727Y-174581809D02*
X202321251Y-174534190D01*
X202321251Y-174534190D02*
X202226013Y-174486571D01*
X202226013Y-174486571D02*
X202178394Y-174438952D01*
X202178394Y-174438952D02*
X202130775Y-174343714D01*
X166137861Y-111350915D02*
X166137861Y-110350915D01*
X166137861Y-110350915D02*
X166375956Y-110350915D01*
X166375956Y-110350915D02*
X166518813Y-110398534D01*
X166518813Y-110398534D02*
X166614051Y-110493772D01*
X166614051Y-110493772D02*
X166661670Y-110589010D01*
X166661670Y-110589010D02*
X166709289Y-110779486D01*
X166709289Y-110779486D02*
X166709289Y-110922343D01*
X166709289Y-110922343D02*
X166661670Y-111112819D01*
X166661670Y-111112819D02*
X166614051Y-111208057D01*
X166614051Y-111208057D02*
X166518813Y-111303296D01*
X166518813Y-111303296D02*
X166375956Y-111350915D01*
X166375956Y-111350915D02*
X166137861Y-111350915D01*
X167566432Y-110684248D02*
X167566432Y-111350915D01*
X167328337Y-110303296D02*
X167090242Y-111017581D01*
X167090242Y-111017581D02*
X167709289Y-111017581D01*
X170304527Y-164846153D02*
X170209289Y-164798534D01*
X170209289Y-164798534D02*
X170114051Y-164703296D01*
X170114051Y-164703296D02*
X169971194Y-164560438D01*
X169971194Y-164560438D02*
X169875956Y-164512819D01*
X169875956Y-164512819D02*
X169780718Y-164512819D01*
X169828337Y-164750915D02*
X169733099Y-164703296D01*
X169733099Y-164703296D02*
X169637861Y-164608057D01*
X169637861Y-164608057D02*
X169590242Y-164417581D01*
X169590242Y-164417581D02*
X169590242Y-164084248D01*
X169590242Y-164084248D02*
X169637861Y-163893772D01*
X169637861Y-163893772D02*
X169733099Y-163798534D01*
X169733099Y-163798534D02*
X169828337Y-163750915D01*
X169828337Y-163750915D02*
X170018813Y-163750915D01*
X170018813Y-163750915D02*
X170114051Y-163798534D01*
X170114051Y-163798534D02*
X170209289Y-163893772D01*
X170209289Y-163893772D02*
X170256908Y-164084248D01*
X170256908Y-164084248D02*
X170256908Y-164417581D01*
X170256908Y-164417581D02*
X170209289Y-164608057D01*
X170209289Y-164608057D02*
X170114051Y-164703296D01*
X170114051Y-164703296D02*
X170018813Y-164750915D01*
X170018813Y-164750915D02*
X169828337Y-164750915D01*
X171209289Y-164750915D02*
X170637861Y-164750915D01*
X170923575Y-164750915D02*
X170923575Y-163750915D01*
X170923575Y-163750915D02*
X170828337Y-163893772D01*
X170828337Y-163893772D02*
X170733099Y-163989010D01*
X170733099Y-163989010D02*
X170637861Y-164036629D01*
X172161670Y-164750915D02*
X171590242Y-164750915D01*
X171875956Y-164750915D02*
X171875956Y-163750915D01*
X171875956Y-163750915D02*
X171780718Y-163893772D01*
X171780718Y-163893772D02*
X171685480Y-163989010D01*
X171685480Y-163989010D02*
X171590242Y-164036629D01*
X216157142Y-146059580D02*
X216109523Y-146107200D01*
X216109523Y-146107200D02*
X215966666Y-146154819D01*
X215966666Y-146154819D02*
X215871428Y-146154819D01*
X215871428Y-146154819D02*
X215728571Y-146107200D01*
X215728571Y-146107200D02*
X215633333Y-146011961D01*
X215633333Y-146011961D02*
X215585714Y-145916723D01*
X215585714Y-145916723D02*
X215538095Y-145726247D01*
X215538095Y-145726247D02*
X215538095Y-145583390D01*
X215538095Y-145583390D02*
X215585714Y-145392914D01*
X215585714Y-145392914D02*
X215633333Y-145297676D01*
X215633333Y-145297676D02*
X215728571Y-145202438D01*
X215728571Y-145202438D02*
X215871428Y-145154819D01*
X215871428Y-145154819D02*
X215966666Y-145154819D01*
X215966666Y-145154819D02*
X216109523Y-145202438D01*
X216109523Y-145202438D02*
X216157142Y-145250057D01*
X216538095Y-145250057D02*
X216585714Y-145202438D01*
X216585714Y-145202438D02*
X216680952Y-145154819D01*
X216680952Y-145154819D02*
X216919047Y-145154819D01*
X216919047Y-145154819D02*
X217014285Y-145202438D01*
X217014285Y-145202438D02*
X217061904Y-145250057D01*
X217061904Y-145250057D02*
X217109523Y-145345295D01*
X217109523Y-145345295D02*
X217109523Y-145440533D01*
X217109523Y-145440533D02*
X217061904Y-145583390D01*
X217061904Y-145583390D02*
X216490476Y-146154819D01*
X216490476Y-146154819D02*
X217109523Y-146154819D01*
X217966666Y-145488152D02*
X217966666Y-146154819D01*
X217728571Y-145107200D02*
X217490476Y-145821485D01*
X217490476Y-145821485D02*
X218109523Y-145821485D01*
X199509289Y-114055676D02*
X199461670Y-114103296D01*
X199461670Y-114103296D02*
X199318813Y-114150915D01*
X199318813Y-114150915D02*
X199223575Y-114150915D01*
X199223575Y-114150915D02*
X199080718Y-114103296D01*
X199080718Y-114103296D02*
X198985480Y-114008057D01*
X198985480Y-114008057D02*
X198937861Y-113912819D01*
X198937861Y-113912819D02*
X198890242Y-113722343D01*
X198890242Y-113722343D02*
X198890242Y-113579486D01*
X198890242Y-113579486D02*
X198937861Y-113389010D01*
X198937861Y-113389010D02*
X198985480Y-113293772D01*
X198985480Y-113293772D02*
X199080718Y-113198534D01*
X199080718Y-113198534D02*
X199223575Y-113150915D01*
X199223575Y-113150915D02*
X199318813Y-113150915D01*
X199318813Y-113150915D02*
X199461670Y-113198534D01*
X199461670Y-113198534D02*
X199509289Y-113246153D01*
X199842623Y-113150915D02*
X200461670Y-113150915D01*
X200461670Y-113150915D02*
X200128337Y-113531867D01*
X200128337Y-113531867D02*
X200271194Y-113531867D01*
X200271194Y-113531867D02*
X200366432Y-113579486D01*
X200366432Y-113579486D02*
X200414051Y-113627105D01*
X200414051Y-113627105D02*
X200461670Y-113722343D01*
X200461670Y-113722343D02*
X200461670Y-113960438D01*
X200461670Y-113960438D02*
X200414051Y-114055676D01*
X200414051Y-114055676D02*
X200366432Y-114103296D01*
X200366432Y-114103296D02*
X200271194Y-114150915D01*
X200271194Y-114150915D02*
X199985480Y-114150915D01*
X199985480Y-114150915D02*
X199890242Y-114103296D01*
X199890242Y-114103296D02*
X199842623Y-114055676D01*
X231683156Y-146229428D02*
X231730775Y-146086571D01*
X231730775Y-146086571D02*
X231730775Y-145848476D01*
X231730775Y-145848476D02*
X231683156Y-145753238D01*
X231683156Y-145753238D02*
X231635536Y-145705619D01*
X231635536Y-145705619D02*
X231540298Y-145658000D01*
X231540298Y-145658000D02*
X231445060Y-145658000D01*
X231445060Y-145658000D02*
X231349822Y-145705619D01*
X231349822Y-145705619D02*
X231302203Y-145753238D01*
X231302203Y-145753238D02*
X231254584Y-145848476D01*
X231254584Y-145848476D02*
X231206965Y-146038952D01*
X231206965Y-146038952D02*
X231159346Y-146134190D01*
X231159346Y-146134190D02*
X231111727Y-146181809D01*
X231111727Y-146181809D02*
X231016489Y-146229428D01*
X231016489Y-146229428D02*
X230921251Y-146229428D01*
X230921251Y-146229428D02*
X230826013Y-146181809D01*
X230826013Y-146181809D02*
X230778394Y-146134190D01*
X230778394Y-146134190D02*
X230730775Y-146038952D01*
X230730775Y-146038952D02*
X230730775Y-145800857D01*
X230730775Y-145800857D02*
X230778394Y-145658000D01*
X230730775Y-145324666D02*
X231730775Y-145086571D01*
X231730775Y-145086571D02*
X231016489Y-144896095D01*
X231016489Y-144896095D02*
X231730775Y-144705619D01*
X231730775Y-144705619D02*
X230730775Y-144467524D01*
X231730775Y-143562762D02*
X231730775Y-144134190D01*
X231730775Y-143848476D02*
X230730775Y-143848476D01*
X230730775Y-143848476D02*
X230873632Y-143943714D01*
X230873632Y-143943714D02*
X230968870Y-144038952D01*
X230968870Y-144038952D02*
X231016489Y-144134190D01*
X231683156Y-154229428D02*
X231730775Y-154086571D01*
X231730775Y-154086571D02*
X231730775Y-153848476D01*
X231730775Y-153848476D02*
X231683156Y-153753238D01*
X231683156Y-153753238D02*
X231635536Y-153705619D01*
X231635536Y-153705619D02*
X231540298Y-153658000D01*
X231540298Y-153658000D02*
X231445060Y-153658000D01*
X231445060Y-153658000D02*
X231349822Y-153705619D01*
X231349822Y-153705619D02*
X231302203Y-153753238D01*
X231302203Y-153753238D02*
X231254584Y-153848476D01*
X231254584Y-153848476D02*
X231206965Y-154038952D01*
X231206965Y-154038952D02*
X231159346Y-154134190D01*
X231159346Y-154134190D02*
X231111727Y-154181809D01*
X231111727Y-154181809D02*
X231016489Y-154229428D01*
X231016489Y-154229428D02*
X230921251Y-154229428D01*
X230921251Y-154229428D02*
X230826013Y-154181809D01*
X230826013Y-154181809D02*
X230778394Y-154134190D01*
X230778394Y-154134190D02*
X230730775Y-154038952D01*
X230730775Y-154038952D02*
X230730775Y-153800857D01*
X230730775Y-153800857D02*
X230778394Y-153658000D01*
X230730775Y-153324666D02*
X231730775Y-153086571D01*
X231730775Y-153086571D02*
X231016489Y-152896095D01*
X231016489Y-152896095D02*
X231730775Y-152705619D01*
X231730775Y-152705619D02*
X230730775Y-152467524D01*
X230730775Y-152181809D02*
X230730775Y-151562762D01*
X230730775Y-151562762D02*
X231111727Y-151896095D01*
X231111727Y-151896095D02*
X231111727Y-151753238D01*
X231111727Y-151753238D02*
X231159346Y-151658000D01*
X231159346Y-151658000D02*
X231206965Y-151610381D01*
X231206965Y-151610381D02*
X231302203Y-151562762D01*
X231302203Y-151562762D02*
X231540298Y-151562762D01*
X231540298Y-151562762D02*
X231635536Y-151610381D01*
X231635536Y-151610381D02*
X231683156Y-151658000D01*
X231683156Y-151658000D02*
X231730775Y-151753238D01*
X231730775Y-151753238D02*
X231730775Y-152038952D01*
X231730775Y-152038952D02*
X231683156Y-152134190D01*
X231683156Y-152134190D02*
X231635536Y-152181809D01*
X180233098Y-111150915D02*
X179899765Y-110674724D01*
X179661670Y-111150915D02*
X179661670Y-110150915D01*
X179661670Y-110150915D02*
X180042622Y-110150915D01*
X180042622Y-110150915D02*
X180137860Y-110198534D01*
X180137860Y-110198534D02*
X180185479Y-110246153D01*
X180185479Y-110246153D02*
X180233098Y-110341391D01*
X180233098Y-110341391D02*
X180233098Y-110484248D01*
X180233098Y-110484248D02*
X180185479Y-110579486D01*
X180185479Y-110579486D02*
X180137860Y-110627105D01*
X180137860Y-110627105D02*
X180042622Y-110674724D01*
X180042622Y-110674724D02*
X179661670Y-110674724D01*
X180614051Y-110246153D02*
X180661670Y-110198534D01*
X180661670Y-110198534D02*
X180756908Y-110150915D01*
X180756908Y-110150915D02*
X180995003Y-110150915D01*
X180995003Y-110150915D02*
X181090241Y-110198534D01*
X181090241Y-110198534D02*
X181137860Y-110246153D01*
X181137860Y-110246153D02*
X181185479Y-110341391D01*
X181185479Y-110341391D02*
X181185479Y-110436629D01*
X181185479Y-110436629D02*
X181137860Y-110579486D01*
X181137860Y-110579486D02*
X180566432Y-111150915D01*
X180566432Y-111150915D02*
X181185479Y-111150915D01*
X182137860Y-111150915D02*
X181566432Y-111150915D01*
X181852146Y-111150915D02*
X181852146Y-110150915D01*
X181852146Y-110150915D02*
X181756908Y-110293772D01*
X181756908Y-110293772D02*
X181661670Y-110389010D01*
X181661670Y-110389010D02*
X181566432Y-110436629D01*
X194057142Y-166659580D02*
X194009523Y-166707200D01*
X194009523Y-166707200D02*
X193866666Y-166754819D01*
X193866666Y-166754819D02*
X193771428Y-166754819D01*
X193771428Y-166754819D02*
X193628571Y-166707200D01*
X193628571Y-166707200D02*
X193533333Y-166611961D01*
X193533333Y-166611961D02*
X193485714Y-166516723D01*
X193485714Y-166516723D02*
X193438095Y-166326247D01*
X193438095Y-166326247D02*
X193438095Y-166183390D01*
X193438095Y-166183390D02*
X193485714Y-165992914D01*
X193485714Y-165992914D02*
X193533333Y-165897676D01*
X193533333Y-165897676D02*
X193628571Y-165802438D01*
X193628571Y-165802438D02*
X193771428Y-165754819D01*
X193771428Y-165754819D02*
X193866666Y-165754819D01*
X193866666Y-165754819D02*
X194009523Y-165802438D01*
X194009523Y-165802438D02*
X194057142Y-165850057D01*
X194438095Y-165850057D02*
X194485714Y-165802438D01*
X194485714Y-165802438D02*
X194580952Y-165754819D01*
X194580952Y-165754819D02*
X194819047Y-165754819D01*
X194819047Y-165754819D02*
X194914285Y-165802438D01*
X194914285Y-165802438D02*
X194961904Y-165850057D01*
X194961904Y-165850057D02*
X195009523Y-165945295D01*
X195009523Y-165945295D02*
X195009523Y-166040533D01*
X195009523Y-166040533D02*
X194961904Y-166183390D01*
X194961904Y-166183390D02*
X194390476Y-166754819D01*
X194390476Y-166754819D02*
X195009523Y-166754819D01*
X195580952Y-166183390D02*
X195485714Y-166135771D01*
X195485714Y-166135771D02*
X195438095Y-166088152D01*
X195438095Y-166088152D02*
X195390476Y-165992914D01*
X195390476Y-165992914D02*
X195390476Y-165945295D01*
X195390476Y-165945295D02*
X195438095Y-165850057D01*
X195438095Y-165850057D02*
X195485714Y-165802438D01*
X195485714Y-165802438D02*
X195580952Y-165754819D01*
X195580952Y-165754819D02*
X195771428Y-165754819D01*
X195771428Y-165754819D02*
X195866666Y-165802438D01*
X195866666Y-165802438D02*
X195914285Y-165850057D01*
X195914285Y-165850057D02*
X195961904Y-165945295D01*
X195961904Y-165945295D02*
X195961904Y-165992914D01*
X195961904Y-165992914D02*
X195914285Y-166088152D01*
X195914285Y-166088152D02*
X195866666Y-166135771D01*
X195866666Y-166135771D02*
X195771428Y-166183390D01*
X195771428Y-166183390D02*
X195580952Y-166183390D01*
X195580952Y-166183390D02*
X195485714Y-166231009D01*
X195485714Y-166231009D02*
X195438095Y-166278628D01*
X195438095Y-166278628D02*
X195390476Y-166373866D01*
X195390476Y-166373866D02*
X195390476Y-166564342D01*
X195390476Y-166564342D02*
X195438095Y-166659580D01*
X195438095Y-166659580D02*
X195485714Y-166707200D01*
X195485714Y-166707200D02*
X195580952Y-166754819D01*
X195580952Y-166754819D02*
X195771428Y-166754819D01*
X195771428Y-166754819D02*
X195866666Y-166707200D01*
X195866666Y-166707200D02*
X195914285Y-166659580D01*
X195914285Y-166659580D02*
X195961904Y-166564342D01*
X195961904Y-166564342D02*
X195961904Y-166373866D01*
X195961904Y-166373866D02*
X195914285Y-166278628D01*
X195914285Y-166278628D02*
X195866666Y-166231009D01*
X195866666Y-166231009D02*
X195771428Y-166183390D01*
X214162678Y-181759486D02*
X214077567Y-181823470D01*
X214077567Y-181823470D02*
X213949840Y-181866207D01*
X213949840Y-181866207D02*
X213758249Y-181930312D01*
X213758249Y-181930312D02*
X213673138Y-181994296D01*
X213673138Y-181994296D02*
X213630643Y-182079528D01*
X213864971Y-182143150D02*
X213779860Y-182207134D01*
X213779860Y-182207134D02*
X213652133Y-182249871D01*
X213652133Y-182249871D02*
X213460421Y-182207497D01*
X213460421Y-182207497D02*
X213162110Y-182058764D01*
X213162110Y-182058764D02*
X213012894Y-181931158D01*
X213012894Y-181931158D02*
X212970157Y-181803431D01*
X212970157Y-181803431D02*
X212970036Y-181696952D01*
X212970036Y-181696952D02*
X213055026Y-181526488D01*
X213055026Y-181526488D02*
X213140137Y-181462504D01*
X213140137Y-181462504D02*
X213267864Y-181419767D01*
X213267864Y-181419767D02*
X213459575Y-181462141D01*
X213459575Y-181462141D02*
X213757887Y-181610874D01*
X213757887Y-181610874D02*
X213907103Y-181738480D01*
X213907103Y-181738480D02*
X213949840Y-181866207D01*
X213949840Y-181866207D02*
X213949961Y-181972686D01*
X213949961Y-181972686D02*
X213864971Y-182143150D01*
X214481148Y-180907288D02*
X214226178Y-181418679D01*
X214353663Y-181162984D02*
X213458729Y-180716786D01*
X213458729Y-180716786D02*
X213544082Y-180865760D01*
X213544082Y-180865760D02*
X213586819Y-180993487D01*
X213586819Y-180993487D02*
X213586939Y-181099966D01*
X226557142Y-147454819D02*
X226223809Y-146978628D01*
X225985714Y-147454819D02*
X225985714Y-146454819D01*
X225985714Y-146454819D02*
X226366666Y-146454819D01*
X226366666Y-146454819D02*
X226461904Y-146502438D01*
X226461904Y-146502438D02*
X226509523Y-146550057D01*
X226509523Y-146550057D02*
X226557142Y-146645295D01*
X226557142Y-146645295D02*
X226557142Y-146788152D01*
X226557142Y-146788152D02*
X226509523Y-146883390D01*
X226509523Y-146883390D02*
X226461904Y-146931009D01*
X226461904Y-146931009D02*
X226366666Y-146978628D01*
X226366666Y-146978628D02*
X225985714Y-146978628D01*
X227509523Y-147454819D02*
X226938095Y-147454819D01*
X227223809Y-147454819D02*
X227223809Y-146454819D01*
X227223809Y-146454819D02*
X227128571Y-146597676D01*
X227128571Y-146597676D02*
X227033333Y-146692914D01*
X227033333Y-146692914D02*
X226938095Y-146740533D01*
X228461904Y-147454819D02*
X227890476Y-147454819D01*
X228176190Y-147454819D02*
X228176190Y-146454819D01*
X228176190Y-146454819D02*
X228080952Y-146597676D01*
X228080952Y-146597676D02*
X227985714Y-146692914D01*
X227985714Y-146692914D02*
X227890476Y-146740533D01*
X196509289Y-115255676D02*
X196461670Y-115303296D01*
X196461670Y-115303296D02*
X196318813Y-115350915D01*
X196318813Y-115350915D02*
X196223575Y-115350915D01*
X196223575Y-115350915D02*
X196080718Y-115303296D01*
X196080718Y-115303296D02*
X195985480Y-115208057D01*
X195985480Y-115208057D02*
X195937861Y-115112819D01*
X195937861Y-115112819D02*
X195890242Y-114922343D01*
X195890242Y-114922343D02*
X195890242Y-114779486D01*
X195890242Y-114779486D02*
X195937861Y-114589010D01*
X195937861Y-114589010D02*
X195985480Y-114493772D01*
X195985480Y-114493772D02*
X196080718Y-114398534D01*
X196080718Y-114398534D02*
X196223575Y-114350915D01*
X196223575Y-114350915D02*
X196318813Y-114350915D01*
X196318813Y-114350915D02*
X196461670Y-114398534D01*
X196461670Y-114398534D02*
X196509289Y-114446153D01*
X197366432Y-114684248D02*
X197366432Y-115350915D01*
X197128337Y-114303296D02*
X196890242Y-115017581D01*
X196890242Y-115017581D02*
X197509289Y-115017581D01*
X181433098Y-175655676D02*
X181385479Y-175703296D01*
X181385479Y-175703296D02*
X181242622Y-175750915D01*
X181242622Y-175750915D02*
X181147384Y-175750915D01*
X181147384Y-175750915D02*
X181004527Y-175703296D01*
X181004527Y-175703296D02*
X180909289Y-175608057D01*
X180909289Y-175608057D02*
X180861670Y-175512819D01*
X180861670Y-175512819D02*
X180814051Y-175322343D01*
X180814051Y-175322343D02*
X180814051Y-175179486D01*
X180814051Y-175179486D02*
X180861670Y-174989010D01*
X180861670Y-174989010D02*
X180909289Y-174893772D01*
X180909289Y-174893772D02*
X181004527Y-174798534D01*
X181004527Y-174798534D02*
X181147384Y-174750915D01*
X181147384Y-174750915D02*
X181242622Y-174750915D01*
X181242622Y-174750915D02*
X181385479Y-174798534D01*
X181385479Y-174798534D02*
X181433098Y-174846153D01*
X181814051Y-174846153D02*
X181861670Y-174798534D01*
X181861670Y-174798534D02*
X181956908Y-174750915D01*
X181956908Y-174750915D02*
X182195003Y-174750915D01*
X182195003Y-174750915D02*
X182290241Y-174798534D01*
X182290241Y-174798534D02*
X182337860Y-174846153D01*
X182337860Y-174846153D02*
X182385479Y-174941391D01*
X182385479Y-174941391D02*
X182385479Y-175036629D01*
X182385479Y-175036629D02*
X182337860Y-175179486D01*
X182337860Y-175179486D02*
X181766432Y-175750915D01*
X181766432Y-175750915D02*
X182385479Y-175750915D01*
X183337860Y-175750915D02*
X182766432Y-175750915D01*
X183052146Y-175750915D02*
X183052146Y-174750915D01*
X183052146Y-174750915D02*
X182956908Y-174893772D01*
X182956908Y-174893772D02*
X182861670Y-174989010D01*
X182861670Y-174989010D02*
X182766432Y-175036629D01*
X180233098Y-105550915D02*
X179899765Y-105074724D01*
X179661670Y-105550915D02*
X179661670Y-104550915D01*
X179661670Y-104550915D02*
X180042622Y-104550915D01*
X180042622Y-104550915D02*
X180137860Y-104598534D01*
X180137860Y-104598534D02*
X180185479Y-104646153D01*
X180185479Y-104646153D02*
X180233098Y-104741391D01*
X180233098Y-104741391D02*
X180233098Y-104884248D01*
X180233098Y-104884248D02*
X180185479Y-104979486D01*
X180185479Y-104979486D02*
X180137860Y-105027105D01*
X180137860Y-105027105D02*
X180042622Y-105074724D01*
X180042622Y-105074724D02*
X179661670Y-105074724D01*
X181185479Y-105550915D02*
X180614051Y-105550915D01*
X180899765Y-105550915D02*
X180899765Y-104550915D01*
X180899765Y-104550915D02*
X180804527Y-104693772D01*
X180804527Y-104693772D02*
X180709289Y-104789010D01*
X180709289Y-104789010D02*
X180614051Y-104836629D01*
X181661670Y-105550915D02*
X181852146Y-105550915D01*
X181852146Y-105550915D02*
X181947384Y-105503296D01*
X181947384Y-105503296D02*
X181995003Y-105455676D01*
X181995003Y-105455676D02*
X182090241Y-105312819D01*
X182090241Y-105312819D02*
X182137860Y-105122343D01*
X182137860Y-105122343D02*
X182137860Y-104741391D01*
X182137860Y-104741391D02*
X182090241Y-104646153D01*
X182090241Y-104646153D02*
X182042622Y-104598534D01*
X182042622Y-104598534D02*
X181947384Y-104550915D01*
X181947384Y-104550915D02*
X181756908Y-104550915D01*
X181756908Y-104550915D02*
X181661670Y-104598534D01*
X181661670Y-104598534D02*
X181614051Y-104646153D01*
X181614051Y-104646153D02*
X181566432Y-104741391D01*
X181566432Y-104741391D02*
X181566432Y-104979486D01*
X181566432Y-104979486D02*
X181614051Y-105074724D01*
X181614051Y-105074724D02*
X181661670Y-105122343D01*
X181661670Y-105122343D02*
X181756908Y-105169962D01*
X181756908Y-105169962D02*
X181947384Y-105169962D01*
X181947384Y-105169962D02*
X182042622Y-105122343D01*
X182042622Y-105122343D02*
X182090241Y-105074724D01*
X182090241Y-105074724D02*
X182137860Y-104979486D01*
X195190242Y-132150915D02*
X195190242Y-131150915D01*
X195190242Y-131150915D02*
X195523575Y-131865200D01*
X195523575Y-131865200D02*
X195856908Y-131150915D01*
X195856908Y-131150915D02*
X195856908Y-132150915D01*
X196095004Y-132246153D02*
X196856908Y-132246153D01*
X197095004Y-132150915D02*
X197095004Y-131150915D01*
X197095004Y-131150915D02*
X197428337Y-131865200D01*
X197428337Y-131865200D02*
X197761670Y-131150915D01*
X197761670Y-131150915D02*
X197761670Y-132150915D01*
X198237861Y-132150915D02*
X198237861Y-131150915D01*
X198237861Y-131627105D02*
X198809289Y-131627105D01*
X198809289Y-132150915D02*
X198809289Y-131150915D01*
X199809289Y-132150915D02*
X199237861Y-132150915D01*
X199523575Y-132150915D02*
X199523575Y-131150915D01*
X199523575Y-131150915D02*
X199428337Y-131293772D01*
X199428337Y-131293772D02*
X199333099Y-131389010D01*
X199333099Y-131389010D02*
X199237861Y-131436629D01*
X202330775Y-168662762D02*
X201854584Y-168996095D01*
X202330775Y-169234190D02*
X201330775Y-169234190D01*
X201330775Y-169234190D02*
X201330775Y-168853238D01*
X201330775Y-168853238D02*
X201378394Y-168758000D01*
X201378394Y-168758000D02*
X201426013Y-168710381D01*
X201426013Y-168710381D02*
X201521251Y-168662762D01*
X201521251Y-168662762D02*
X201664108Y-168662762D01*
X201664108Y-168662762D02*
X201759346Y-168710381D01*
X201759346Y-168710381D02*
X201806965Y-168758000D01*
X201806965Y-168758000D02*
X201854584Y-168853238D01*
X201854584Y-168853238D02*
X201854584Y-169234190D01*
X201664108Y-167805619D02*
X202330775Y-167805619D01*
X201283156Y-168043714D02*
X201997441Y-168281809D01*
X201997441Y-168281809D02*
X201997441Y-167662762D01*
X226857142Y-151154819D02*
X226523809Y-150678628D01*
X226285714Y-151154819D02*
X226285714Y-150154819D01*
X226285714Y-150154819D02*
X226666666Y-150154819D01*
X226666666Y-150154819D02*
X226761904Y-150202438D01*
X226761904Y-150202438D02*
X226809523Y-150250057D01*
X226809523Y-150250057D02*
X226857142Y-150345295D01*
X226857142Y-150345295D02*
X226857142Y-150488152D01*
X226857142Y-150488152D02*
X226809523Y-150583390D01*
X226809523Y-150583390D02*
X226761904Y-150631009D01*
X226761904Y-150631009D02*
X226666666Y-150678628D01*
X226666666Y-150678628D02*
X226285714Y-150678628D01*
X227238095Y-150250057D02*
X227285714Y-150202438D01*
X227285714Y-150202438D02*
X227380952Y-150154819D01*
X227380952Y-150154819D02*
X227619047Y-150154819D01*
X227619047Y-150154819D02*
X227714285Y-150202438D01*
X227714285Y-150202438D02*
X227761904Y-150250057D01*
X227761904Y-150250057D02*
X227809523Y-150345295D01*
X227809523Y-150345295D02*
X227809523Y-150440533D01*
X227809523Y-150440533D02*
X227761904Y-150583390D01*
X227761904Y-150583390D02*
X227190476Y-151154819D01*
X227190476Y-151154819D02*
X227809523Y-151154819D01*
X228666666Y-150488152D02*
X228666666Y-151154819D01*
X228428571Y-150107200D02*
X228190476Y-150821485D01*
X228190476Y-150821485D02*
X228809523Y-150821485D01*
X175433098Y-175618176D02*
X175385479Y-175665796D01*
X175385479Y-175665796D02*
X175242622Y-175713415D01*
X175242622Y-175713415D02*
X175147384Y-175713415D01*
X175147384Y-175713415D02*
X175004527Y-175665796D01*
X175004527Y-175665796D02*
X174909289Y-175570557D01*
X174909289Y-175570557D02*
X174861670Y-175475319D01*
X174861670Y-175475319D02*
X174814051Y-175284843D01*
X174814051Y-175284843D02*
X174814051Y-175141986D01*
X174814051Y-175141986D02*
X174861670Y-174951510D01*
X174861670Y-174951510D02*
X174909289Y-174856272D01*
X174909289Y-174856272D02*
X175004527Y-174761034D01*
X175004527Y-174761034D02*
X175147384Y-174713415D01*
X175147384Y-174713415D02*
X175242622Y-174713415D01*
X175242622Y-174713415D02*
X175385479Y-174761034D01*
X175385479Y-174761034D02*
X175433098Y-174808653D01*
X176385479Y-175713415D02*
X175814051Y-175713415D01*
X176099765Y-175713415D02*
X176099765Y-174713415D01*
X176099765Y-174713415D02*
X176004527Y-174856272D01*
X176004527Y-174856272D02*
X175909289Y-174951510D01*
X175909289Y-174951510D02*
X175814051Y-174999129D01*
X177242622Y-175046748D02*
X177242622Y-175713415D01*
X177004527Y-174665796D02*
X176766432Y-175380081D01*
X176766432Y-175380081D02*
X177385479Y-175380081D01*
X239114051Y-111303296D02*
X239256908Y-111350915D01*
X239256908Y-111350915D02*
X239495003Y-111350915D01*
X239495003Y-111350915D02*
X239590241Y-111303296D01*
X239590241Y-111303296D02*
X239637860Y-111255676D01*
X239637860Y-111255676D02*
X239685479Y-111160438D01*
X239685479Y-111160438D02*
X239685479Y-111065200D01*
X239685479Y-111065200D02*
X239637860Y-110969962D01*
X239637860Y-110969962D02*
X239590241Y-110922343D01*
X239590241Y-110922343D02*
X239495003Y-110874724D01*
X239495003Y-110874724D02*
X239304527Y-110827105D01*
X239304527Y-110827105D02*
X239209289Y-110779486D01*
X239209289Y-110779486D02*
X239161670Y-110731867D01*
X239161670Y-110731867D02*
X239114051Y-110636629D01*
X239114051Y-110636629D02*
X239114051Y-110541391D01*
X239114051Y-110541391D02*
X239161670Y-110446153D01*
X239161670Y-110446153D02*
X239209289Y-110398534D01*
X239209289Y-110398534D02*
X239304527Y-110350915D01*
X239304527Y-110350915D02*
X239542622Y-110350915D01*
X239542622Y-110350915D02*
X239685479Y-110398534D01*
X240637860Y-111350915D02*
X240066432Y-111350915D01*
X240352146Y-111350915D02*
X240352146Y-110350915D01*
X240352146Y-110350915D02*
X240256908Y-110493772D01*
X240256908Y-110493772D02*
X240161670Y-110589010D01*
X240161670Y-110589010D02*
X240066432Y-110636629D01*
X200575595Y-147954819D02*
X200575595Y-148764342D01*
X200575595Y-148764342D02*
X200623214Y-148859580D01*
X200623214Y-148859580D02*
X200670833Y-148907200D01*
X200670833Y-148907200D02*
X200766071Y-148954819D01*
X200766071Y-148954819D02*
X200956547Y-148954819D01*
X200956547Y-148954819D02*
X201051785Y-148907200D01*
X201051785Y-148907200D02*
X201099404Y-148859580D01*
X201099404Y-148859580D02*
X201147023Y-148764342D01*
X201147023Y-148764342D02*
X201147023Y-147954819D01*
X201527976Y-147954819D02*
X202194642Y-147954819D01*
X202194642Y-147954819D02*
X201766071Y-148954819D01*
X186642622Y-173350915D02*
X186642622Y-174065200D01*
X186642622Y-174065200D02*
X186595003Y-174208057D01*
X186595003Y-174208057D02*
X186499765Y-174303296D01*
X186499765Y-174303296D02*
X186356908Y-174350915D01*
X186356908Y-174350915D02*
X186261670Y-174350915D01*
X187118813Y-174350915D02*
X187118813Y-173350915D01*
X187118813Y-173350915D02*
X187499765Y-173350915D01*
X187499765Y-173350915D02*
X187595003Y-173398534D01*
X187595003Y-173398534D02*
X187642622Y-173446153D01*
X187642622Y-173446153D02*
X187690241Y-173541391D01*
X187690241Y-173541391D02*
X187690241Y-173684248D01*
X187690241Y-173684248D02*
X187642622Y-173779486D01*
X187642622Y-173779486D02*
X187595003Y-173827105D01*
X187595003Y-173827105D02*
X187499765Y-173874724D01*
X187499765Y-173874724D02*
X187118813Y-173874724D01*
X188547384Y-173684248D02*
X188547384Y-174350915D01*
X188309289Y-173303296D02*
X188071194Y-174017581D01*
X188071194Y-174017581D02*
X188690241Y-174017581D01*
X183423574Y-99700915D02*
X183090241Y-99224724D01*
X182852146Y-99700915D02*
X182852146Y-98700915D01*
X182852146Y-98700915D02*
X183233098Y-98700915D01*
X183233098Y-98700915D02*
X183328336Y-98748534D01*
X183328336Y-98748534D02*
X183375955Y-98796153D01*
X183375955Y-98796153D02*
X183423574Y-98891391D01*
X183423574Y-98891391D02*
X183423574Y-99034248D01*
X183423574Y-99034248D02*
X183375955Y-99129486D01*
X183375955Y-99129486D02*
X183328336Y-99177105D01*
X183328336Y-99177105D02*
X183233098Y-99224724D01*
X183233098Y-99224724D02*
X182852146Y-99224724D01*
X183852146Y-99177105D02*
X184185479Y-99177105D01*
X184328336Y-99700915D02*
X183852146Y-99700915D01*
X183852146Y-99700915D02*
X183852146Y-98700915D01*
X183852146Y-98700915D02*
X184328336Y-98700915D01*
X184709289Y-99653296D02*
X184852146Y-99700915D01*
X184852146Y-99700915D02*
X185090241Y-99700915D01*
X185090241Y-99700915D02*
X185185479Y-99653296D01*
X185185479Y-99653296D02*
X185233098Y-99605676D01*
X185233098Y-99605676D02*
X185280717Y-99510438D01*
X185280717Y-99510438D02*
X185280717Y-99415200D01*
X185280717Y-99415200D02*
X185233098Y-99319962D01*
X185233098Y-99319962D02*
X185185479Y-99272343D01*
X185185479Y-99272343D02*
X185090241Y-99224724D01*
X185090241Y-99224724D02*
X184899765Y-99177105D01*
X184899765Y-99177105D02*
X184804527Y-99129486D01*
X184804527Y-99129486D02*
X184756908Y-99081867D01*
X184756908Y-99081867D02*
X184709289Y-98986629D01*
X184709289Y-98986629D02*
X184709289Y-98891391D01*
X184709289Y-98891391D02*
X184756908Y-98796153D01*
X184756908Y-98796153D02*
X184804527Y-98748534D01*
X184804527Y-98748534D02*
X184899765Y-98700915D01*
X184899765Y-98700915D02*
X185137860Y-98700915D01*
X185137860Y-98700915D02*
X185280717Y-98748534D01*
X185709289Y-99177105D02*
X186042622Y-99177105D01*
X186185479Y-99700915D02*
X185709289Y-99700915D01*
X185709289Y-99700915D02*
X185709289Y-98700915D01*
X185709289Y-98700915D02*
X186185479Y-98700915D01*
X186471194Y-98700915D02*
X187042622Y-98700915D01*
X186756908Y-99700915D02*
X186756908Y-98700915D01*
X226714051Y-95550915D02*
X226714051Y-96360438D01*
X226714051Y-96360438D02*
X226761670Y-96455676D01*
X226761670Y-96455676D02*
X226809289Y-96503296D01*
X226809289Y-96503296D02*
X226904527Y-96550915D01*
X226904527Y-96550915D02*
X227095003Y-96550915D01*
X227095003Y-96550915D02*
X227190241Y-96503296D01*
X227190241Y-96503296D02*
X227237860Y-96455676D01*
X227237860Y-96455676D02*
X227285479Y-96360438D01*
X227285479Y-96360438D02*
X227285479Y-95550915D01*
X227666432Y-95550915D02*
X228285479Y-95550915D01*
X228285479Y-95550915D02*
X227952146Y-95931867D01*
X227952146Y-95931867D02*
X228095003Y-95931867D01*
X228095003Y-95931867D02*
X228190241Y-95979486D01*
X228190241Y-95979486D02*
X228237860Y-96027105D01*
X228237860Y-96027105D02*
X228285479Y-96122343D01*
X228285479Y-96122343D02*
X228285479Y-96360438D01*
X228285479Y-96360438D02*
X228237860Y-96455676D01*
X228237860Y-96455676D02*
X228190241Y-96503296D01*
X228190241Y-96503296D02*
X228095003Y-96550915D01*
X228095003Y-96550915D02*
X227809289Y-96550915D01*
X227809289Y-96550915D02*
X227714051Y-96503296D01*
X227714051Y-96503296D02*
X227666432Y-96455676D01*
X170263528Y-169039708D02*
X170168290Y-168992089D01*
X170168290Y-168992089D02*
X170073052Y-168896851D01*
X170073052Y-168896851D02*
X169930195Y-168753993D01*
X169930195Y-168753993D02*
X169834957Y-168706374D01*
X169834957Y-168706374D02*
X169739719Y-168706374D01*
X169787338Y-168944470D02*
X169692100Y-168896851D01*
X169692100Y-168896851D02*
X169596862Y-168801612D01*
X169596862Y-168801612D02*
X169549243Y-168611136D01*
X169549243Y-168611136D02*
X169549243Y-168277803D01*
X169549243Y-168277803D02*
X169596862Y-168087327D01*
X169596862Y-168087327D02*
X169692100Y-167992089D01*
X169692100Y-167992089D02*
X169787338Y-167944470D01*
X169787338Y-167944470D02*
X169977814Y-167944470D01*
X169977814Y-167944470D02*
X170073052Y-167992089D01*
X170073052Y-167992089D02*
X170168290Y-168087327D01*
X170168290Y-168087327D02*
X170215909Y-168277803D01*
X170215909Y-168277803D02*
X170215909Y-168611136D01*
X170215909Y-168611136D02*
X170168290Y-168801612D01*
X170168290Y-168801612D02*
X170073052Y-168896851D01*
X170073052Y-168896851D02*
X169977814Y-168944470D01*
X169977814Y-168944470D02*
X169787338Y-168944470D01*
X170596862Y-168039708D02*
X170644481Y-167992089D01*
X170644481Y-167992089D02*
X170739719Y-167944470D01*
X170739719Y-167944470D02*
X170977814Y-167944470D01*
X170977814Y-167944470D02*
X171073052Y-167992089D01*
X171073052Y-167992089D02*
X171120671Y-168039708D01*
X171120671Y-168039708D02*
X171168290Y-168134946D01*
X171168290Y-168134946D02*
X171168290Y-168230184D01*
X171168290Y-168230184D02*
X171120671Y-168373041D01*
X171120671Y-168373041D02*
X170549243Y-168944470D01*
X170549243Y-168944470D02*
X171168290Y-168944470D01*
X234980717Y-160246153D02*
X234885479Y-160198534D01*
X234885479Y-160198534D02*
X234790241Y-160103296D01*
X234790241Y-160103296D02*
X234647384Y-159960438D01*
X234647384Y-159960438D02*
X234552146Y-159912819D01*
X234552146Y-159912819D02*
X234456908Y-159912819D01*
X234504527Y-160150915D02*
X234409289Y-160103296D01*
X234409289Y-160103296D02*
X234314051Y-160008057D01*
X234314051Y-160008057D02*
X234266432Y-159817581D01*
X234266432Y-159817581D02*
X234266432Y-159484248D01*
X234266432Y-159484248D02*
X234314051Y-159293772D01*
X234314051Y-159293772D02*
X234409289Y-159198534D01*
X234409289Y-159198534D02*
X234504527Y-159150915D01*
X234504527Y-159150915D02*
X234695003Y-159150915D01*
X234695003Y-159150915D02*
X234790241Y-159198534D01*
X234790241Y-159198534D02*
X234885479Y-159293772D01*
X234885479Y-159293772D02*
X234933098Y-159484248D01*
X234933098Y-159484248D02*
X234933098Y-159817581D01*
X234933098Y-159817581D02*
X234885479Y-160008057D01*
X234885479Y-160008057D02*
X234790241Y-160103296D01*
X234790241Y-160103296D02*
X234695003Y-160150915D01*
X234695003Y-160150915D02*
X234504527Y-160150915D01*
X235409289Y-160150915D02*
X235599765Y-160150915D01*
X235599765Y-160150915D02*
X235695003Y-160103296D01*
X235695003Y-160103296D02*
X235742622Y-160055676D01*
X235742622Y-160055676D02*
X235837860Y-159912819D01*
X235837860Y-159912819D02*
X235885479Y-159722343D01*
X235885479Y-159722343D02*
X235885479Y-159341391D01*
X235885479Y-159341391D02*
X235837860Y-159246153D01*
X235837860Y-159246153D02*
X235790241Y-159198534D01*
X235790241Y-159198534D02*
X235695003Y-159150915D01*
X235695003Y-159150915D02*
X235504527Y-159150915D01*
X235504527Y-159150915D02*
X235409289Y-159198534D01*
X235409289Y-159198534D02*
X235361670Y-159246153D01*
X235361670Y-159246153D02*
X235314051Y-159341391D01*
X235314051Y-159341391D02*
X235314051Y-159579486D01*
X235314051Y-159579486D02*
X235361670Y-159674724D01*
X235361670Y-159674724D02*
X235409289Y-159722343D01*
X235409289Y-159722343D02*
X235504527Y-159769962D01*
X235504527Y-159769962D02*
X235695003Y-159769962D01*
X235695003Y-159769962D02*
X235790241Y-159722343D01*
X235790241Y-159722343D02*
X235837860Y-159674724D01*
X235837860Y-159674724D02*
X235885479Y-159579486D01*
X208833098Y-108693176D02*
X208785479Y-108740796D01*
X208785479Y-108740796D02*
X208642622Y-108788415D01*
X208642622Y-108788415D02*
X208547384Y-108788415D01*
X208547384Y-108788415D02*
X208404527Y-108740796D01*
X208404527Y-108740796D02*
X208309289Y-108645557D01*
X208309289Y-108645557D02*
X208261670Y-108550319D01*
X208261670Y-108550319D02*
X208214051Y-108359843D01*
X208214051Y-108359843D02*
X208214051Y-108216986D01*
X208214051Y-108216986D02*
X208261670Y-108026510D01*
X208261670Y-108026510D02*
X208309289Y-107931272D01*
X208309289Y-107931272D02*
X208404527Y-107836034D01*
X208404527Y-107836034D02*
X208547384Y-107788415D01*
X208547384Y-107788415D02*
X208642622Y-107788415D01*
X208642622Y-107788415D02*
X208785479Y-107836034D01*
X208785479Y-107836034D02*
X208833098Y-107883653D01*
X209785479Y-108788415D02*
X209214051Y-108788415D01*
X209499765Y-108788415D02*
X209499765Y-107788415D01*
X209499765Y-107788415D02*
X209404527Y-107931272D01*
X209404527Y-107931272D02*
X209309289Y-108026510D01*
X209309289Y-108026510D02*
X209214051Y-108074129D01*
X210118813Y-107788415D02*
X210737860Y-107788415D01*
X210737860Y-107788415D02*
X210404527Y-108169367D01*
X210404527Y-108169367D02*
X210547384Y-108169367D01*
X210547384Y-108169367D02*
X210642622Y-108216986D01*
X210642622Y-108216986D02*
X210690241Y-108264605D01*
X210690241Y-108264605D02*
X210737860Y-108359843D01*
X210737860Y-108359843D02*
X210737860Y-108597938D01*
X210737860Y-108597938D02*
X210690241Y-108693176D01*
X210690241Y-108693176D02*
X210642622Y-108740796D01*
X210642622Y-108740796D02*
X210547384Y-108788415D01*
X210547384Y-108788415D02*
X210261670Y-108788415D01*
X210261670Y-108788415D02*
X210166432Y-108740796D01*
X210166432Y-108740796D02*
X210118813Y-108693176D01*
X203190242Y-132150915D02*
X203190242Y-131150915D01*
X203190242Y-131150915D02*
X203523575Y-131865200D01*
X203523575Y-131865200D02*
X203856908Y-131150915D01*
X203856908Y-131150915D02*
X203856908Y-132150915D01*
X204095004Y-132246153D02*
X204856908Y-132246153D01*
X205095004Y-132150915D02*
X205095004Y-131150915D01*
X205095004Y-131150915D02*
X205428337Y-131865200D01*
X205428337Y-131865200D02*
X205761670Y-131150915D01*
X205761670Y-131150915D02*
X205761670Y-132150915D01*
X206237861Y-132150915D02*
X206237861Y-131150915D01*
X206237861Y-131627105D02*
X206809289Y-131627105D01*
X206809289Y-132150915D02*
X206809289Y-131150915D01*
X207237861Y-131246153D02*
X207285480Y-131198534D01*
X207285480Y-131198534D02*
X207380718Y-131150915D01*
X207380718Y-131150915D02*
X207618813Y-131150915D01*
X207618813Y-131150915D02*
X207714051Y-131198534D01*
X207714051Y-131198534D02*
X207761670Y-131246153D01*
X207761670Y-131246153D02*
X207809289Y-131341391D01*
X207809289Y-131341391D02*
X207809289Y-131436629D01*
X207809289Y-131436629D02*
X207761670Y-131579486D01*
X207761670Y-131579486D02*
X207190242Y-132150915D01*
X207190242Y-132150915D02*
X207809289Y-132150915D01*
X192466432Y-140350915D02*
X192466432Y-139350915D01*
X192466432Y-139350915D02*
X192799765Y-140065200D01*
X192799765Y-140065200D02*
X193133098Y-139350915D01*
X193133098Y-139350915D02*
X193133098Y-140350915D01*
X194133098Y-140350915D02*
X193561670Y-140350915D01*
X193847384Y-140350915D02*
X193847384Y-139350915D01*
X193847384Y-139350915D02*
X193752146Y-139493772D01*
X193752146Y-139493772D02*
X193656908Y-139589010D01*
X193656908Y-139589010D02*
X193561670Y-139636629D01*
X210730775Y-175738953D02*
X210254584Y-176072286D01*
X210730775Y-176310381D02*
X209730775Y-176310381D01*
X209730775Y-176310381D02*
X209730775Y-175929429D01*
X209730775Y-175929429D02*
X209778394Y-175834191D01*
X209778394Y-175834191D02*
X209826013Y-175786572D01*
X209826013Y-175786572D02*
X209921251Y-175738953D01*
X209921251Y-175738953D02*
X210064108Y-175738953D01*
X210064108Y-175738953D02*
X210159346Y-175786572D01*
X210159346Y-175786572D02*
X210206965Y-175834191D01*
X210206965Y-175834191D02*
X210254584Y-175929429D01*
X210254584Y-175929429D02*
X210254584Y-176310381D01*
X210730775Y-174786572D02*
X210730775Y-175358000D01*
X210730775Y-175072286D02*
X209730775Y-175072286D01*
X209730775Y-175072286D02*
X209873632Y-175167524D01*
X209873632Y-175167524D02*
X209968870Y-175262762D01*
X209968870Y-175262762D02*
X210016489Y-175358000D01*
X210064108Y-173929429D02*
X210730775Y-173929429D01*
X209683156Y-174167524D02*
X210397441Y-174405619D01*
X210397441Y-174405619D02*
X210397441Y-173786572D01*
X218459580Y-151542857D02*
X218507200Y-151590476D01*
X218507200Y-151590476D02*
X218554819Y-151733333D01*
X218554819Y-151733333D02*
X218554819Y-151828571D01*
X218554819Y-151828571D02*
X218507200Y-151971428D01*
X218507200Y-151971428D02*
X218411961Y-152066666D01*
X218411961Y-152066666D02*
X218316723Y-152114285D01*
X218316723Y-152114285D02*
X218126247Y-152161904D01*
X218126247Y-152161904D02*
X217983390Y-152161904D01*
X217983390Y-152161904D02*
X217792914Y-152114285D01*
X217792914Y-152114285D02*
X217697676Y-152066666D01*
X217697676Y-152066666D02*
X217602438Y-151971428D01*
X217602438Y-151971428D02*
X217554819Y-151828571D01*
X217554819Y-151828571D02*
X217554819Y-151733333D01*
X217554819Y-151733333D02*
X217602438Y-151590476D01*
X217602438Y-151590476D02*
X217650057Y-151542857D01*
X217650057Y-151161904D02*
X217602438Y-151114285D01*
X217602438Y-151114285D02*
X217554819Y-151019047D01*
X217554819Y-151019047D02*
X217554819Y-150780952D01*
X217554819Y-150780952D02*
X217602438Y-150685714D01*
X217602438Y-150685714D02*
X217650057Y-150638095D01*
X217650057Y-150638095D02*
X217745295Y-150590476D01*
X217745295Y-150590476D02*
X217840533Y-150590476D01*
X217840533Y-150590476D02*
X217983390Y-150638095D01*
X217983390Y-150638095D02*
X218554819Y-151209523D01*
X218554819Y-151209523D02*
X218554819Y-150590476D01*
X217554819Y-150257142D02*
X217554819Y-149638095D01*
X217554819Y-149638095D02*
X217935771Y-149971428D01*
X217935771Y-149971428D02*
X217935771Y-149828571D01*
X217935771Y-149828571D02*
X217983390Y-149733333D01*
X217983390Y-149733333D02*
X218031009Y-149685714D01*
X218031009Y-149685714D02*
X218126247Y-149638095D01*
X218126247Y-149638095D02*
X218364342Y-149638095D01*
X218364342Y-149638095D02*
X218459580Y-149685714D01*
X218459580Y-149685714D02*
X218507200Y-149733333D01*
X218507200Y-149733333D02*
X218554819Y-149828571D01*
X218554819Y-149828571D02*
X218554819Y-150114285D01*
X218554819Y-150114285D02*
X218507200Y-150209523D01*
X218507200Y-150209523D02*
X218459580Y-150257142D01*
X231510775Y-158738953D02*
X231034584Y-159072286D01*
X231510775Y-159310381D02*
X230510775Y-159310381D01*
X230510775Y-159310381D02*
X230510775Y-158929429D01*
X230510775Y-158929429D02*
X230558394Y-158834191D01*
X230558394Y-158834191D02*
X230606013Y-158786572D01*
X230606013Y-158786572D02*
X230701251Y-158738953D01*
X230701251Y-158738953D02*
X230844108Y-158738953D01*
X230844108Y-158738953D02*
X230939346Y-158786572D01*
X230939346Y-158786572D02*
X230986965Y-158834191D01*
X230986965Y-158834191D02*
X231034584Y-158929429D01*
X231034584Y-158929429D02*
X231034584Y-159310381D01*
X231510775Y-157786572D02*
X231510775Y-158358000D01*
X231510775Y-158072286D02*
X230510775Y-158072286D01*
X230510775Y-158072286D02*
X230653632Y-158167524D01*
X230653632Y-158167524D02*
X230748870Y-158262762D01*
X230748870Y-158262762D02*
X230796489Y-158358000D01*
X230510775Y-157453238D02*
X230510775Y-156834191D01*
X230510775Y-156834191D02*
X230891727Y-157167524D01*
X230891727Y-157167524D02*
X230891727Y-157024667D01*
X230891727Y-157024667D02*
X230939346Y-156929429D01*
X230939346Y-156929429D02*
X230986965Y-156881810D01*
X230986965Y-156881810D02*
X231082203Y-156834191D01*
X231082203Y-156834191D02*
X231320298Y-156834191D01*
X231320298Y-156834191D02*
X231415536Y-156881810D01*
X231415536Y-156881810D02*
X231463156Y-156929429D01*
X231463156Y-156929429D02*
X231510775Y-157024667D01*
X231510775Y-157024667D02*
X231510775Y-157310381D01*
X231510775Y-157310381D02*
X231463156Y-157405619D01*
X231463156Y-157405619D02*
X231415536Y-157453238D01*
X202633098Y-99855676D02*
X202585479Y-99903296D01*
X202585479Y-99903296D02*
X202442622Y-99950915D01*
X202442622Y-99950915D02*
X202347384Y-99950915D01*
X202347384Y-99950915D02*
X202204527Y-99903296D01*
X202204527Y-99903296D02*
X202109289Y-99808057D01*
X202109289Y-99808057D02*
X202061670Y-99712819D01*
X202061670Y-99712819D02*
X202014051Y-99522343D01*
X202014051Y-99522343D02*
X202014051Y-99379486D01*
X202014051Y-99379486D02*
X202061670Y-99189010D01*
X202061670Y-99189010D02*
X202109289Y-99093772D01*
X202109289Y-99093772D02*
X202204527Y-98998534D01*
X202204527Y-98998534D02*
X202347384Y-98950915D01*
X202347384Y-98950915D02*
X202442622Y-98950915D01*
X202442622Y-98950915D02*
X202585479Y-98998534D01*
X202585479Y-98998534D02*
X202633098Y-99046153D01*
X203585479Y-99950915D02*
X203014051Y-99950915D01*
X203299765Y-99950915D02*
X203299765Y-98950915D01*
X203299765Y-98950915D02*
X203204527Y-99093772D01*
X203204527Y-99093772D02*
X203109289Y-99189010D01*
X203109289Y-99189010D02*
X203014051Y-99236629D01*
X204442622Y-98950915D02*
X204252146Y-98950915D01*
X204252146Y-98950915D02*
X204156908Y-98998534D01*
X204156908Y-98998534D02*
X204109289Y-99046153D01*
X204109289Y-99046153D02*
X204014051Y-99189010D01*
X204014051Y-99189010D02*
X203966432Y-99379486D01*
X203966432Y-99379486D02*
X203966432Y-99760438D01*
X203966432Y-99760438D02*
X204014051Y-99855676D01*
X204014051Y-99855676D02*
X204061670Y-99903296D01*
X204061670Y-99903296D02*
X204156908Y-99950915D01*
X204156908Y-99950915D02*
X204347384Y-99950915D01*
X204347384Y-99950915D02*
X204442622Y-99903296D01*
X204442622Y-99903296D02*
X204490241Y-99855676D01*
X204490241Y-99855676D02*
X204537860Y-99760438D01*
X204537860Y-99760438D02*
X204537860Y-99522343D01*
X204537860Y-99522343D02*
X204490241Y-99427105D01*
X204490241Y-99427105D02*
X204442622Y-99379486D01*
X204442622Y-99379486D02*
X204347384Y-99331867D01*
X204347384Y-99331867D02*
X204156908Y-99331867D01*
X204156908Y-99331867D02*
X204061670Y-99379486D01*
X204061670Y-99379486D02*
X204014051Y-99427105D01*
X204014051Y-99427105D02*
X203966432Y-99522343D01*
X235309289Y-98955676D02*
X235261670Y-99003296D01*
X235261670Y-99003296D02*
X235118813Y-99050915D01*
X235118813Y-99050915D02*
X235023575Y-99050915D01*
X235023575Y-99050915D02*
X234880718Y-99003296D01*
X234880718Y-99003296D02*
X234785480Y-98908057D01*
X234785480Y-98908057D02*
X234737861Y-98812819D01*
X234737861Y-98812819D02*
X234690242Y-98622343D01*
X234690242Y-98622343D02*
X234690242Y-98479486D01*
X234690242Y-98479486D02*
X234737861Y-98289010D01*
X234737861Y-98289010D02*
X234785480Y-98193772D01*
X234785480Y-98193772D02*
X234880718Y-98098534D01*
X234880718Y-98098534D02*
X235023575Y-98050915D01*
X235023575Y-98050915D02*
X235118813Y-98050915D01*
X235118813Y-98050915D02*
X235261670Y-98098534D01*
X235261670Y-98098534D02*
X235309289Y-98146153D01*
X235690242Y-98146153D02*
X235737861Y-98098534D01*
X235737861Y-98098534D02*
X235833099Y-98050915D01*
X235833099Y-98050915D02*
X236071194Y-98050915D01*
X236071194Y-98050915D02*
X236166432Y-98098534D01*
X236166432Y-98098534D02*
X236214051Y-98146153D01*
X236214051Y-98146153D02*
X236261670Y-98241391D01*
X236261670Y-98241391D02*
X236261670Y-98336629D01*
X236261670Y-98336629D02*
X236214051Y-98479486D01*
X236214051Y-98479486D02*
X235642623Y-99050915D01*
X235642623Y-99050915D02*
X236261670Y-99050915D01*
X218459580Y-148642857D02*
X218507200Y-148690476D01*
X218507200Y-148690476D02*
X218554819Y-148833333D01*
X218554819Y-148833333D02*
X218554819Y-148928571D01*
X218554819Y-148928571D02*
X218507200Y-149071428D01*
X218507200Y-149071428D02*
X218411961Y-149166666D01*
X218411961Y-149166666D02*
X218316723Y-149214285D01*
X218316723Y-149214285D02*
X218126247Y-149261904D01*
X218126247Y-149261904D02*
X217983390Y-149261904D01*
X217983390Y-149261904D02*
X217792914Y-149214285D01*
X217792914Y-149214285D02*
X217697676Y-149166666D01*
X217697676Y-149166666D02*
X217602438Y-149071428D01*
X217602438Y-149071428D02*
X217554819Y-148928571D01*
X217554819Y-148928571D02*
X217554819Y-148833333D01*
X217554819Y-148833333D02*
X217602438Y-148690476D01*
X217602438Y-148690476D02*
X217650057Y-148642857D01*
X217650057Y-148261904D02*
X217602438Y-148214285D01*
X217602438Y-148214285D02*
X217554819Y-148119047D01*
X217554819Y-148119047D02*
X217554819Y-147880952D01*
X217554819Y-147880952D02*
X217602438Y-147785714D01*
X217602438Y-147785714D02*
X217650057Y-147738095D01*
X217650057Y-147738095D02*
X217745295Y-147690476D01*
X217745295Y-147690476D02*
X217840533Y-147690476D01*
X217840533Y-147690476D02*
X217983390Y-147738095D01*
X217983390Y-147738095D02*
X218554819Y-148309523D01*
X218554819Y-148309523D02*
X218554819Y-147690476D01*
X217554819Y-147357142D02*
X217554819Y-146690476D01*
X217554819Y-146690476D02*
X218554819Y-147119047D01*
X212530775Y-168462762D02*
X212054584Y-168796095D01*
X212530775Y-169034190D02*
X211530775Y-169034190D01*
X211530775Y-169034190D02*
X211530775Y-168653238D01*
X211530775Y-168653238D02*
X211578394Y-168558000D01*
X211578394Y-168558000D02*
X211626013Y-168510381D01*
X211626013Y-168510381D02*
X211721251Y-168462762D01*
X211721251Y-168462762D02*
X211864108Y-168462762D01*
X211864108Y-168462762D02*
X211959346Y-168510381D01*
X211959346Y-168510381D02*
X212006965Y-168558000D01*
X212006965Y-168558000D02*
X212054584Y-168653238D01*
X212054584Y-168653238D02*
X212054584Y-169034190D01*
X212530775Y-167510381D02*
X212530775Y-168081809D01*
X212530775Y-167796095D02*
X211530775Y-167796095D01*
X211530775Y-167796095D02*
X211673632Y-167891333D01*
X211673632Y-167891333D02*
X211768870Y-167986571D01*
X211768870Y-167986571D02*
X211816489Y-168081809D01*
X227233333Y-154954819D02*
X226900000Y-154478628D01*
X226661905Y-154954819D02*
X226661905Y-153954819D01*
X226661905Y-153954819D02*
X227042857Y-153954819D01*
X227042857Y-153954819D02*
X227138095Y-154002438D01*
X227138095Y-154002438D02*
X227185714Y-154050057D01*
X227185714Y-154050057D02*
X227233333Y-154145295D01*
X227233333Y-154145295D02*
X227233333Y-154288152D01*
X227233333Y-154288152D02*
X227185714Y-154383390D01*
X227185714Y-154383390D02*
X227138095Y-154431009D01*
X227138095Y-154431009D02*
X227042857Y-154478628D01*
X227042857Y-154478628D02*
X226661905Y-154478628D01*
X227709524Y-154954819D02*
X227900000Y-154954819D01*
X227900000Y-154954819D02*
X227995238Y-154907200D01*
X227995238Y-154907200D02*
X228042857Y-154859580D01*
X228042857Y-154859580D02*
X228138095Y-154716723D01*
X228138095Y-154716723D02*
X228185714Y-154526247D01*
X228185714Y-154526247D02*
X228185714Y-154145295D01*
X228185714Y-154145295D02*
X228138095Y-154050057D01*
X228138095Y-154050057D02*
X228090476Y-154002438D01*
X228090476Y-154002438D02*
X227995238Y-153954819D01*
X227995238Y-153954819D02*
X227804762Y-153954819D01*
X227804762Y-153954819D02*
X227709524Y-154002438D01*
X227709524Y-154002438D02*
X227661905Y-154050057D01*
X227661905Y-154050057D02*
X227614286Y-154145295D01*
X227614286Y-154145295D02*
X227614286Y-154383390D01*
X227614286Y-154383390D02*
X227661905Y-154478628D01*
X227661905Y-154478628D02*
X227709524Y-154526247D01*
X227709524Y-154526247D02*
X227804762Y-154573866D01*
X227804762Y-154573866D02*
X227995238Y-154573866D01*
X227995238Y-154573866D02*
X228090476Y-154526247D01*
X228090476Y-154526247D02*
X228138095Y-154478628D01*
X228138095Y-154478628D02*
X228185714Y-154383390D01*
X240759289Y-156150915D02*
X240425956Y-155674724D01*
X240187861Y-156150915D02*
X240187861Y-155150915D01*
X240187861Y-155150915D02*
X240568813Y-155150915D01*
X240568813Y-155150915D02*
X240664051Y-155198534D01*
X240664051Y-155198534D02*
X240711670Y-155246153D01*
X240711670Y-155246153D02*
X240759289Y-155341391D01*
X240759289Y-155341391D02*
X240759289Y-155484248D01*
X240759289Y-155484248D02*
X240711670Y-155579486D01*
X240711670Y-155579486D02*
X240664051Y-155627105D01*
X240664051Y-155627105D02*
X240568813Y-155674724D01*
X240568813Y-155674724D02*
X240187861Y-155674724D01*
X241664051Y-155150915D02*
X241187861Y-155150915D01*
X241187861Y-155150915D02*
X241140242Y-155627105D01*
X241140242Y-155627105D02*
X241187861Y-155579486D01*
X241187861Y-155579486D02*
X241283099Y-155531867D01*
X241283099Y-155531867D02*
X241521194Y-155531867D01*
X241521194Y-155531867D02*
X241616432Y-155579486D01*
X241616432Y-155579486D02*
X241664051Y-155627105D01*
X241664051Y-155627105D02*
X241711670Y-155722343D01*
X241711670Y-155722343D02*
X241711670Y-155960438D01*
X241711670Y-155960438D02*
X241664051Y-156055676D01*
X241664051Y-156055676D02*
X241616432Y-156103296D01*
X241616432Y-156103296D02*
X241521194Y-156150915D01*
X241521194Y-156150915D02*
X241283099Y-156150915D01*
X241283099Y-156150915D02*
X241187861Y-156103296D01*
X241187861Y-156103296D02*
X241140242Y-156055676D01*
X197083098Y-174750915D02*
X196749765Y-174274724D01*
X196511670Y-174750915D02*
X196511670Y-173750915D01*
X196511670Y-173750915D02*
X196892622Y-173750915D01*
X196892622Y-173750915D02*
X196987860Y-173798534D01*
X196987860Y-173798534D02*
X197035479Y-173846153D01*
X197035479Y-173846153D02*
X197083098Y-173941391D01*
X197083098Y-173941391D02*
X197083098Y-174084248D01*
X197083098Y-174084248D02*
X197035479Y-174179486D01*
X197035479Y-174179486D02*
X196987860Y-174227105D01*
X196987860Y-174227105D02*
X196892622Y-174274724D01*
X196892622Y-174274724D02*
X196511670Y-174274724D01*
X198035479Y-174750915D02*
X197464051Y-174750915D01*
X197749765Y-174750915D02*
X197749765Y-173750915D01*
X197749765Y-173750915D02*
X197654527Y-173893772D01*
X197654527Y-173893772D02*
X197559289Y-173989010D01*
X197559289Y-173989010D02*
X197464051Y-174036629D01*
X198892622Y-173750915D02*
X198702146Y-173750915D01*
X198702146Y-173750915D02*
X198606908Y-173798534D01*
X198606908Y-173798534D02*
X198559289Y-173846153D01*
X198559289Y-173846153D02*
X198464051Y-173989010D01*
X198464051Y-173989010D02*
X198416432Y-174179486D01*
X198416432Y-174179486D02*
X198416432Y-174560438D01*
X198416432Y-174560438D02*
X198464051Y-174655676D01*
X198464051Y-174655676D02*
X198511670Y-174703296D01*
X198511670Y-174703296D02*
X198606908Y-174750915D01*
X198606908Y-174750915D02*
X198797384Y-174750915D01*
X198797384Y-174750915D02*
X198892622Y-174703296D01*
X198892622Y-174703296D02*
X198940241Y-174655676D01*
X198940241Y-174655676D02*
X198987860Y-174560438D01*
X198987860Y-174560438D02*
X198987860Y-174322343D01*
X198987860Y-174322343D02*
X198940241Y-174227105D01*
X198940241Y-174227105D02*
X198892622Y-174179486D01*
X198892622Y-174179486D02*
X198797384Y-174131867D01*
X198797384Y-174131867D02*
X198606908Y-174131867D01*
X198606908Y-174131867D02*
X198511670Y-174179486D01*
X198511670Y-174179486D02*
X198464051Y-174227105D01*
X198464051Y-174227105D02*
X198416432Y-174322343D01*
X206459580Y-148742857D02*
X206507200Y-148790476D01*
X206507200Y-148790476D02*
X206554819Y-148933333D01*
X206554819Y-148933333D02*
X206554819Y-149028571D01*
X206554819Y-149028571D02*
X206507200Y-149171428D01*
X206507200Y-149171428D02*
X206411961Y-149266666D01*
X206411961Y-149266666D02*
X206316723Y-149314285D01*
X206316723Y-149314285D02*
X206126247Y-149361904D01*
X206126247Y-149361904D02*
X205983390Y-149361904D01*
X205983390Y-149361904D02*
X205792914Y-149314285D01*
X205792914Y-149314285D02*
X205697676Y-149266666D01*
X205697676Y-149266666D02*
X205602438Y-149171428D01*
X205602438Y-149171428D02*
X205554819Y-149028571D01*
X205554819Y-149028571D02*
X205554819Y-148933333D01*
X205554819Y-148933333D02*
X205602438Y-148790476D01*
X205602438Y-148790476D02*
X205650057Y-148742857D01*
X205650057Y-148361904D02*
X205602438Y-148314285D01*
X205602438Y-148314285D02*
X205554819Y-148219047D01*
X205554819Y-148219047D02*
X205554819Y-147980952D01*
X205554819Y-147980952D02*
X205602438Y-147885714D01*
X205602438Y-147885714D02*
X205650057Y-147838095D01*
X205650057Y-147838095D02*
X205745295Y-147790476D01*
X205745295Y-147790476D02*
X205840533Y-147790476D01*
X205840533Y-147790476D02*
X205983390Y-147838095D01*
X205983390Y-147838095D02*
X206554819Y-148409523D01*
X206554819Y-148409523D02*
X206554819Y-147790476D01*
X205554819Y-146933333D02*
X205554819Y-147123809D01*
X205554819Y-147123809D02*
X205602438Y-147219047D01*
X205602438Y-147219047D02*
X205650057Y-147266666D01*
X205650057Y-147266666D02*
X205792914Y-147361904D01*
X205792914Y-147361904D02*
X205983390Y-147409523D01*
X205983390Y-147409523D02*
X206364342Y-147409523D01*
X206364342Y-147409523D02*
X206459580Y-147361904D01*
X206459580Y-147361904D02*
X206507200Y-147314285D01*
X206507200Y-147314285D02*
X206554819Y-147219047D01*
X206554819Y-147219047D02*
X206554819Y-147028571D01*
X206554819Y-147028571D02*
X206507200Y-146933333D01*
X206507200Y-146933333D02*
X206459580Y-146885714D01*
X206459580Y-146885714D02*
X206364342Y-146838095D01*
X206364342Y-146838095D02*
X206126247Y-146838095D01*
X206126247Y-146838095D02*
X206031009Y-146885714D01*
X206031009Y-146885714D02*
X205983390Y-146933333D01*
X205983390Y-146933333D02*
X205935771Y-147028571D01*
X205935771Y-147028571D02*
X205935771Y-147219047D01*
X205935771Y-147219047D02*
X205983390Y-147314285D01*
X205983390Y-147314285D02*
X206031009Y-147361904D01*
X206031009Y-147361904D02*
X206126247Y-147409523D01*
X218633098Y-171455676D02*
X218585479Y-171503296D01*
X218585479Y-171503296D02*
X218442622Y-171550915D01*
X218442622Y-171550915D02*
X218347384Y-171550915D01*
X218347384Y-171550915D02*
X218204527Y-171503296D01*
X218204527Y-171503296D02*
X218109289Y-171408057D01*
X218109289Y-171408057D02*
X218061670Y-171312819D01*
X218061670Y-171312819D02*
X218014051Y-171122343D01*
X218014051Y-171122343D02*
X218014051Y-170979486D01*
X218014051Y-170979486D02*
X218061670Y-170789010D01*
X218061670Y-170789010D02*
X218109289Y-170693772D01*
X218109289Y-170693772D02*
X218204527Y-170598534D01*
X218204527Y-170598534D02*
X218347384Y-170550915D01*
X218347384Y-170550915D02*
X218442622Y-170550915D01*
X218442622Y-170550915D02*
X218585479Y-170598534D01*
X218585479Y-170598534D02*
X218633098Y-170646153D01*
X219585479Y-171550915D02*
X219014051Y-171550915D01*
X219299765Y-171550915D02*
X219299765Y-170550915D01*
X219299765Y-170550915D02*
X219204527Y-170693772D01*
X219204527Y-170693772D02*
X219109289Y-170789010D01*
X219109289Y-170789010D02*
X219014051Y-170836629D01*
X220156908Y-170979486D02*
X220061670Y-170931867D01*
X220061670Y-170931867D02*
X220014051Y-170884248D01*
X220014051Y-170884248D02*
X219966432Y-170789010D01*
X219966432Y-170789010D02*
X219966432Y-170741391D01*
X219966432Y-170741391D02*
X220014051Y-170646153D01*
X220014051Y-170646153D02*
X220061670Y-170598534D01*
X220061670Y-170598534D02*
X220156908Y-170550915D01*
X220156908Y-170550915D02*
X220347384Y-170550915D01*
X220347384Y-170550915D02*
X220442622Y-170598534D01*
X220442622Y-170598534D02*
X220490241Y-170646153D01*
X220490241Y-170646153D02*
X220537860Y-170741391D01*
X220537860Y-170741391D02*
X220537860Y-170789010D01*
X220537860Y-170789010D02*
X220490241Y-170884248D01*
X220490241Y-170884248D02*
X220442622Y-170931867D01*
X220442622Y-170931867D02*
X220347384Y-170979486D01*
X220347384Y-170979486D02*
X220156908Y-170979486D01*
X220156908Y-170979486D02*
X220061670Y-171027105D01*
X220061670Y-171027105D02*
X220014051Y-171074724D01*
X220014051Y-171074724D02*
X219966432Y-171169962D01*
X219966432Y-171169962D02*
X219966432Y-171360438D01*
X219966432Y-171360438D02*
X220014051Y-171455676D01*
X220014051Y-171455676D02*
X220061670Y-171503296D01*
X220061670Y-171503296D02*
X220156908Y-171550915D01*
X220156908Y-171550915D02*
X220347384Y-171550915D01*
X220347384Y-171550915D02*
X220442622Y-171503296D01*
X220442622Y-171503296D02*
X220490241Y-171455676D01*
X220490241Y-171455676D02*
X220537860Y-171360438D01*
X220537860Y-171360438D02*
X220537860Y-171169962D01*
X220537860Y-171169962D02*
X220490241Y-171074724D01*
X220490241Y-171074724D02*
X220442622Y-171027105D01*
X220442622Y-171027105D02*
X220347384Y-170979486D01*
X160395003Y-96427105D02*
X160537860Y-96474724D01*
X160537860Y-96474724D02*
X160585479Y-96522343D01*
X160585479Y-96522343D02*
X160633098Y-96617581D01*
X160633098Y-96617581D02*
X160633098Y-96760438D01*
X160633098Y-96760438D02*
X160585479Y-96855676D01*
X160585479Y-96855676D02*
X160537860Y-96903296D01*
X160537860Y-96903296D02*
X160442622Y-96950915D01*
X160442622Y-96950915D02*
X160061670Y-96950915D01*
X160061670Y-96950915D02*
X160061670Y-95950915D01*
X160061670Y-95950915D02*
X160395003Y-95950915D01*
X160395003Y-95950915D02*
X160490241Y-95998534D01*
X160490241Y-95998534D02*
X160537860Y-96046153D01*
X160537860Y-96046153D02*
X160585479Y-96141391D01*
X160585479Y-96141391D02*
X160585479Y-96236629D01*
X160585479Y-96236629D02*
X160537860Y-96331867D01*
X160537860Y-96331867D02*
X160490241Y-96379486D01*
X160490241Y-96379486D02*
X160395003Y-96427105D01*
X160395003Y-96427105D02*
X160061670Y-96427105D01*
X160966432Y-95950915D02*
X161633098Y-95950915D01*
X161633098Y-95950915D02*
X160966432Y-96950915D01*
X160966432Y-96950915D02*
X161633098Y-96950915D01*
X162537860Y-96950915D02*
X161966432Y-96950915D01*
X162252146Y-96950915D02*
X162252146Y-95950915D01*
X162252146Y-95950915D02*
X162156908Y-96093772D01*
X162156908Y-96093772D02*
X162061670Y-96189010D01*
X162061670Y-96189010D02*
X161966432Y-96236629D01*
X168595004Y-101069962D02*
X169356909Y-101069962D01*
X168975956Y-101450915D02*
X168975956Y-100689010D01*
X198505775Y-102705619D02*
X199220060Y-102705619D01*
X199220060Y-102705619D02*
X199362917Y-102753238D01*
X199362917Y-102753238D02*
X199458156Y-102848476D01*
X199458156Y-102848476D02*
X199505775Y-102991333D01*
X199505775Y-102991333D02*
X199505775Y-103086571D01*
X199505775Y-101705619D02*
X199505775Y-102277047D01*
X199505775Y-101991333D02*
X198505775Y-101991333D01*
X198505775Y-101991333D02*
X198648632Y-102086571D01*
X198648632Y-102086571D02*
X198743870Y-102181809D01*
X198743870Y-102181809D02*
X198791489Y-102277047D01*
X198505775Y-101086571D02*
X198505775Y-100991333D01*
X198505775Y-100991333D02*
X198553394Y-100896095D01*
X198553394Y-100896095D02*
X198601013Y-100848476D01*
X198601013Y-100848476D02*
X198696251Y-100800857D01*
X198696251Y-100800857D02*
X198886727Y-100753238D01*
X198886727Y-100753238D02*
X199124822Y-100753238D01*
X199124822Y-100753238D02*
X199315298Y-100800857D01*
X199315298Y-100800857D02*
X199410536Y-100848476D01*
X199410536Y-100848476D02*
X199458156Y-100896095D01*
X199458156Y-100896095D02*
X199505775Y-100991333D01*
X199505775Y-100991333D02*
X199505775Y-101086571D01*
X199505775Y-101086571D02*
X199458156Y-101181809D01*
X199458156Y-101181809D02*
X199410536Y-101229428D01*
X199410536Y-101229428D02*
X199315298Y-101277047D01*
X199315298Y-101277047D02*
X199124822Y-101324666D01*
X199124822Y-101324666D02*
X198886727Y-101324666D01*
X198886727Y-101324666D02*
X198696251Y-101277047D01*
X198696251Y-101277047D02*
X198601013Y-101229428D01*
X198601013Y-101229428D02*
X198553394Y-101181809D01*
X198553394Y-101181809D02*
X198505775Y-101086571D01*
X190454819Y-155242857D02*
X189978628Y-155576190D01*
X190454819Y-155814285D02*
X189454819Y-155814285D01*
X189454819Y-155814285D02*
X189454819Y-155433333D01*
X189454819Y-155433333D02*
X189502438Y-155338095D01*
X189502438Y-155338095D02*
X189550057Y-155290476D01*
X189550057Y-155290476D02*
X189645295Y-155242857D01*
X189645295Y-155242857D02*
X189788152Y-155242857D01*
X189788152Y-155242857D02*
X189883390Y-155290476D01*
X189883390Y-155290476D02*
X189931009Y-155338095D01*
X189931009Y-155338095D02*
X189978628Y-155433333D01*
X189978628Y-155433333D02*
X189978628Y-155814285D01*
X190454819Y-154290476D02*
X190454819Y-154861904D01*
X190454819Y-154576190D02*
X189454819Y-154576190D01*
X189454819Y-154576190D02*
X189597676Y-154671428D01*
X189597676Y-154671428D02*
X189692914Y-154766666D01*
X189692914Y-154766666D02*
X189740533Y-154861904D01*
X189550057Y-153909523D02*
X189502438Y-153861904D01*
X189502438Y-153861904D02*
X189454819Y-153766666D01*
X189454819Y-153766666D02*
X189454819Y-153528571D01*
X189454819Y-153528571D02*
X189502438Y-153433333D01*
X189502438Y-153433333D02*
X189550057Y-153385714D01*
X189550057Y-153385714D02*
X189645295Y-153338095D01*
X189645295Y-153338095D02*
X189740533Y-153338095D01*
X189740533Y-153338095D02*
X189883390Y-153385714D01*
X189883390Y-153385714D02*
X190454819Y-153957142D01*
X190454819Y-153957142D02*
X190454819Y-153338095D01*
X217666432Y-112550915D02*
X217666432Y-111550915D01*
X217666432Y-111550915D02*
X217999765Y-112265200D01*
X217999765Y-112265200D02*
X218333098Y-111550915D01*
X218333098Y-111550915D02*
X218333098Y-112550915D01*
X218999765Y-111550915D02*
X219190241Y-111550915D01*
X219190241Y-111550915D02*
X219285479Y-111598534D01*
X219285479Y-111598534D02*
X219380717Y-111693772D01*
X219380717Y-111693772D02*
X219428336Y-111884248D01*
X219428336Y-111884248D02*
X219428336Y-112217581D01*
X219428336Y-112217581D02*
X219380717Y-112408057D01*
X219380717Y-112408057D02*
X219285479Y-112503296D01*
X219285479Y-112503296D02*
X219190241Y-112550915D01*
X219190241Y-112550915D02*
X218999765Y-112550915D01*
X218999765Y-112550915D02*
X218904527Y-112503296D01*
X218904527Y-112503296D02*
X218809289Y-112408057D01*
X218809289Y-112408057D02*
X218761670Y-112217581D01*
X218761670Y-112217581D02*
X218761670Y-111884248D01*
X218761670Y-111884248D02*
X218809289Y-111693772D01*
X218809289Y-111693772D02*
X218904527Y-111598534D01*
X218904527Y-111598534D02*
X218999765Y-111550915D01*
X219809289Y-112503296D02*
X219952146Y-112550915D01*
X219952146Y-112550915D02*
X220190241Y-112550915D01*
X220190241Y-112550915D02*
X220285479Y-112503296D01*
X220285479Y-112503296D02*
X220333098Y-112455676D01*
X220333098Y-112455676D02*
X220380717Y-112360438D01*
X220380717Y-112360438D02*
X220380717Y-112265200D01*
X220380717Y-112265200D02*
X220333098Y-112169962D01*
X220333098Y-112169962D02*
X220285479Y-112122343D01*
X220285479Y-112122343D02*
X220190241Y-112074724D01*
X220190241Y-112074724D02*
X219999765Y-112027105D01*
X219999765Y-112027105D02*
X219904527Y-111979486D01*
X219904527Y-111979486D02*
X219856908Y-111931867D01*
X219856908Y-111931867D02*
X219809289Y-111836629D01*
X219809289Y-111836629D02*
X219809289Y-111741391D01*
X219809289Y-111741391D02*
X219856908Y-111646153D01*
X219856908Y-111646153D02*
X219904527Y-111598534D01*
X219904527Y-111598534D02*
X219999765Y-111550915D01*
X219999765Y-111550915D02*
X220237860Y-111550915D01*
X220237860Y-111550915D02*
X220380717Y-111598534D01*
X221333098Y-112550915D02*
X220761670Y-112550915D01*
X221047384Y-112550915D02*
X221047384Y-111550915D01*
X221047384Y-111550915D02*
X220952146Y-111693772D01*
X220952146Y-111693772D02*
X220856908Y-111789010D01*
X220856908Y-111789010D02*
X220761670Y-111836629D01*
X180233098Y-108350915D02*
X179899765Y-107874724D01*
X179661670Y-108350915D02*
X179661670Y-107350915D01*
X179661670Y-107350915D02*
X180042622Y-107350915D01*
X180042622Y-107350915D02*
X180137860Y-107398534D01*
X180137860Y-107398534D02*
X180185479Y-107446153D01*
X180185479Y-107446153D02*
X180233098Y-107541391D01*
X180233098Y-107541391D02*
X180233098Y-107684248D01*
X180233098Y-107684248D02*
X180185479Y-107779486D01*
X180185479Y-107779486D02*
X180137860Y-107827105D01*
X180137860Y-107827105D02*
X180042622Y-107874724D01*
X180042622Y-107874724D02*
X179661670Y-107874724D01*
X180614051Y-107446153D02*
X180661670Y-107398534D01*
X180661670Y-107398534D02*
X180756908Y-107350915D01*
X180756908Y-107350915D02*
X180995003Y-107350915D01*
X180995003Y-107350915D02*
X181090241Y-107398534D01*
X181090241Y-107398534D02*
X181137860Y-107446153D01*
X181137860Y-107446153D02*
X181185479Y-107541391D01*
X181185479Y-107541391D02*
X181185479Y-107636629D01*
X181185479Y-107636629D02*
X181137860Y-107779486D01*
X181137860Y-107779486D02*
X180566432Y-108350915D01*
X180566432Y-108350915D02*
X181185479Y-108350915D01*
X181804527Y-107350915D02*
X181899765Y-107350915D01*
X181899765Y-107350915D02*
X181995003Y-107398534D01*
X181995003Y-107398534D02*
X182042622Y-107446153D01*
X182042622Y-107446153D02*
X182090241Y-107541391D01*
X182090241Y-107541391D02*
X182137860Y-107731867D01*
X182137860Y-107731867D02*
X182137860Y-107969962D01*
X182137860Y-107969962D02*
X182090241Y-108160438D01*
X182090241Y-108160438D02*
X182042622Y-108255676D01*
X182042622Y-108255676D02*
X181995003Y-108303296D01*
X181995003Y-108303296D02*
X181899765Y-108350915D01*
X181899765Y-108350915D02*
X181804527Y-108350915D01*
X181804527Y-108350915D02*
X181709289Y-108303296D01*
X181709289Y-108303296D02*
X181661670Y-108255676D01*
X181661670Y-108255676D02*
X181614051Y-108160438D01*
X181614051Y-108160438D02*
X181566432Y-107969962D01*
X181566432Y-107969962D02*
X181566432Y-107731867D01*
X181566432Y-107731867D02*
X181614051Y-107541391D01*
X181614051Y-107541391D02*
X181661670Y-107446153D01*
X181661670Y-107446153D02*
X181709289Y-107398534D01*
X181709289Y-107398534D02*
X181804527Y-107350915D01*
X163701872Y-163260670D02*
X163701872Y-162260670D01*
X163701872Y-162260670D02*
X163939967Y-162260670D01*
X163939967Y-162260670D02*
X164082824Y-162308289D01*
X164082824Y-162308289D02*
X164178062Y-162403527D01*
X164178062Y-162403527D02*
X164225681Y-162498765D01*
X164225681Y-162498765D02*
X164273300Y-162689241D01*
X164273300Y-162689241D02*
X164273300Y-162832098D01*
X164273300Y-162832098D02*
X164225681Y-163022574D01*
X164225681Y-163022574D02*
X164178062Y-163117812D01*
X164178062Y-163117812D02*
X164082824Y-163213051D01*
X164082824Y-163213051D02*
X163939967Y-163260670D01*
X163939967Y-163260670D02*
X163701872Y-163260670D01*
X164654253Y-162355908D02*
X164701872Y-162308289D01*
X164701872Y-162308289D02*
X164797110Y-162260670D01*
X164797110Y-162260670D02*
X165035205Y-162260670D01*
X165035205Y-162260670D02*
X165130443Y-162308289D01*
X165130443Y-162308289D02*
X165178062Y-162355908D01*
X165178062Y-162355908D02*
X165225681Y-162451146D01*
X165225681Y-162451146D02*
X165225681Y-162546384D01*
X165225681Y-162546384D02*
X165178062Y-162689241D01*
X165178062Y-162689241D02*
X164606634Y-163260670D01*
X164606634Y-163260670D02*
X165225681Y-163260670D01*
X174157142Y-159654819D02*
X173823809Y-159178628D01*
X173585714Y-159654819D02*
X173585714Y-158654819D01*
X173585714Y-158654819D02*
X173966666Y-158654819D01*
X173966666Y-158654819D02*
X174061904Y-158702438D01*
X174061904Y-158702438D02*
X174109523Y-158750057D01*
X174109523Y-158750057D02*
X174157142Y-158845295D01*
X174157142Y-158845295D02*
X174157142Y-158988152D01*
X174157142Y-158988152D02*
X174109523Y-159083390D01*
X174109523Y-159083390D02*
X174061904Y-159131009D01*
X174061904Y-159131009D02*
X173966666Y-159178628D01*
X173966666Y-159178628D02*
X173585714Y-159178628D01*
X175109523Y-159654819D02*
X174538095Y-159654819D01*
X174823809Y-159654819D02*
X174823809Y-158654819D01*
X174823809Y-158654819D02*
X174728571Y-158797676D01*
X174728571Y-158797676D02*
X174633333Y-158892914D01*
X174633333Y-158892914D02*
X174538095Y-158940533D01*
X176014285Y-158654819D02*
X175538095Y-158654819D01*
X175538095Y-158654819D02*
X175490476Y-159131009D01*
X175490476Y-159131009D02*
X175538095Y-159083390D01*
X175538095Y-159083390D02*
X175633333Y-159035771D01*
X175633333Y-159035771D02*
X175871428Y-159035771D01*
X175871428Y-159035771D02*
X175966666Y-159083390D01*
X175966666Y-159083390D02*
X176014285Y-159131009D01*
X176014285Y-159131009D02*
X176061904Y-159226247D01*
X176061904Y-159226247D02*
X176061904Y-159464342D01*
X176061904Y-159464342D02*
X176014285Y-159559580D01*
X176014285Y-159559580D02*
X175966666Y-159607200D01*
X175966666Y-159607200D02*
X175871428Y-159654819D01*
X175871428Y-159654819D02*
X175633333Y-159654819D01*
X175633333Y-159654819D02*
X175538095Y-159607200D01*
X175538095Y-159607200D02*
X175490476Y-159559580D01*
X208666432Y-140350915D02*
X208666432Y-139350915D01*
X208666432Y-139350915D02*
X208999765Y-140065200D01*
X208999765Y-140065200D02*
X209333098Y-139350915D01*
X209333098Y-139350915D02*
X209333098Y-140350915D01*
X209761670Y-139446153D02*
X209809289Y-139398534D01*
X209809289Y-139398534D02*
X209904527Y-139350915D01*
X209904527Y-139350915D02*
X210142622Y-139350915D01*
X210142622Y-139350915D02*
X210237860Y-139398534D01*
X210237860Y-139398534D02*
X210285479Y-139446153D01*
X210285479Y-139446153D02*
X210333098Y-139541391D01*
X210333098Y-139541391D02*
X210333098Y-139636629D01*
X210333098Y-139636629D02*
X210285479Y-139779486D01*
X210285479Y-139779486D02*
X209714051Y-140350915D01*
X209714051Y-140350915D02*
X210333098Y-140350915D01*
X181890476Y-150554819D02*
X181890476Y-149554819D01*
X181890476Y-149554819D02*
X182271428Y-149554819D01*
X182271428Y-149554819D02*
X182366666Y-149602438D01*
X182366666Y-149602438D02*
X182414285Y-149650057D01*
X182414285Y-149650057D02*
X182461904Y-149745295D01*
X182461904Y-149745295D02*
X182461904Y-149888152D01*
X182461904Y-149888152D02*
X182414285Y-149983390D01*
X182414285Y-149983390D02*
X182366666Y-150031009D01*
X182366666Y-150031009D02*
X182271428Y-150078628D01*
X182271428Y-150078628D02*
X181890476Y-150078628D01*
X183080952Y-149554819D02*
X183271428Y-149554819D01*
X183271428Y-149554819D02*
X183366666Y-149602438D01*
X183366666Y-149602438D02*
X183461904Y-149697676D01*
X183461904Y-149697676D02*
X183509523Y-149888152D01*
X183509523Y-149888152D02*
X183509523Y-150221485D01*
X183509523Y-150221485D02*
X183461904Y-150411961D01*
X183461904Y-150411961D02*
X183366666Y-150507200D01*
X183366666Y-150507200D02*
X183271428Y-150554819D01*
X183271428Y-150554819D02*
X183080952Y-150554819D01*
X183080952Y-150554819D02*
X182985714Y-150507200D01*
X182985714Y-150507200D02*
X182890476Y-150411961D01*
X182890476Y-150411961D02*
X182842857Y-150221485D01*
X182842857Y-150221485D02*
X182842857Y-149888152D01*
X182842857Y-149888152D02*
X182890476Y-149697676D01*
X182890476Y-149697676D02*
X182985714Y-149602438D01*
X182985714Y-149602438D02*
X183080952Y-149554819D01*
X183842857Y-149554819D02*
X184080952Y-150554819D01*
X184080952Y-150554819D02*
X184271428Y-149840533D01*
X184271428Y-149840533D02*
X184461904Y-150554819D01*
X184461904Y-150554819D02*
X184700000Y-149554819D01*
X185080952Y-150031009D02*
X185414285Y-150031009D01*
X185557142Y-150554819D02*
X185080952Y-150554819D01*
X185080952Y-150554819D02*
X185080952Y-149554819D01*
X185080952Y-149554819D02*
X185557142Y-149554819D01*
X186557142Y-150554819D02*
X186223809Y-150078628D01*
X185985714Y-150554819D02*
X185985714Y-149554819D01*
X185985714Y-149554819D02*
X186366666Y-149554819D01*
X186366666Y-149554819D02*
X186461904Y-149602438D01*
X186461904Y-149602438D02*
X186509523Y-149650057D01*
X186509523Y-149650057D02*
X186557142Y-149745295D01*
X186557142Y-149745295D02*
X186557142Y-149888152D01*
X186557142Y-149888152D02*
X186509523Y-149983390D01*
X186509523Y-149983390D02*
X186461904Y-150031009D01*
X186461904Y-150031009D02*
X186366666Y-150078628D01*
X186366666Y-150078628D02*
X185985714Y-150078628D01*
X206110775Y-168662762D02*
X205634584Y-168996095D01*
X206110775Y-169234190D02*
X205110775Y-169234190D01*
X205110775Y-169234190D02*
X205110775Y-168853238D01*
X205110775Y-168853238D02*
X205158394Y-168758000D01*
X205158394Y-168758000D02*
X205206013Y-168710381D01*
X205206013Y-168710381D02*
X205301251Y-168662762D01*
X205301251Y-168662762D02*
X205444108Y-168662762D01*
X205444108Y-168662762D02*
X205539346Y-168710381D01*
X205539346Y-168710381D02*
X205586965Y-168758000D01*
X205586965Y-168758000D02*
X205634584Y-168853238D01*
X205634584Y-168853238D02*
X205634584Y-169234190D01*
X205206013Y-168281809D02*
X205158394Y-168234190D01*
X205158394Y-168234190D02*
X205110775Y-168138952D01*
X205110775Y-168138952D02*
X205110775Y-167900857D01*
X205110775Y-167900857D02*
X205158394Y-167805619D01*
X205158394Y-167805619D02*
X205206013Y-167758000D01*
X205206013Y-167758000D02*
X205301251Y-167710381D01*
X205301251Y-167710381D02*
X205396489Y-167710381D01*
X205396489Y-167710381D02*
X205539346Y-167758000D01*
X205539346Y-167758000D02*
X206110775Y-168329428D01*
X206110775Y-168329428D02*
X206110775Y-167710381D01*
X170107622Y-151315915D02*
X170107622Y-152030200D01*
X170107622Y-152030200D02*
X170060003Y-152173057D01*
X170060003Y-152173057D02*
X169964765Y-152268296D01*
X169964765Y-152268296D02*
X169821908Y-152315915D01*
X169821908Y-152315915D02*
X169726670Y-152315915D01*
X171012384Y-151649248D02*
X171012384Y-152315915D01*
X170774289Y-151268296D02*
X170536194Y-151982581D01*
X170536194Y-151982581D02*
X171155241Y-151982581D01*
X215833098Y-171455676D02*
X215785479Y-171503296D01*
X215785479Y-171503296D02*
X215642622Y-171550915D01*
X215642622Y-171550915D02*
X215547384Y-171550915D01*
X215547384Y-171550915D02*
X215404527Y-171503296D01*
X215404527Y-171503296D02*
X215309289Y-171408057D01*
X215309289Y-171408057D02*
X215261670Y-171312819D01*
X215261670Y-171312819D02*
X215214051Y-171122343D01*
X215214051Y-171122343D02*
X215214051Y-170979486D01*
X215214051Y-170979486D02*
X215261670Y-170789010D01*
X215261670Y-170789010D02*
X215309289Y-170693772D01*
X215309289Y-170693772D02*
X215404527Y-170598534D01*
X215404527Y-170598534D02*
X215547384Y-170550915D01*
X215547384Y-170550915D02*
X215642622Y-170550915D01*
X215642622Y-170550915D02*
X215785479Y-170598534D01*
X215785479Y-170598534D02*
X215833098Y-170646153D01*
X216785479Y-171550915D02*
X216214051Y-171550915D01*
X216499765Y-171550915D02*
X216499765Y-170550915D01*
X216499765Y-170550915D02*
X216404527Y-170693772D01*
X216404527Y-170693772D02*
X216309289Y-170789010D01*
X216309289Y-170789010D02*
X216214051Y-170836629D01*
X217166432Y-170646153D02*
X217214051Y-170598534D01*
X217214051Y-170598534D02*
X217309289Y-170550915D01*
X217309289Y-170550915D02*
X217547384Y-170550915D01*
X217547384Y-170550915D02*
X217642622Y-170598534D01*
X217642622Y-170598534D02*
X217690241Y-170646153D01*
X217690241Y-170646153D02*
X217737860Y-170741391D01*
X217737860Y-170741391D02*
X217737860Y-170836629D01*
X217737860Y-170836629D02*
X217690241Y-170979486D01*
X217690241Y-170979486D02*
X217118813Y-171550915D01*
X217118813Y-171550915D02*
X217737860Y-171550915D01*
X160977861Y-111350915D02*
X160977861Y-110350915D01*
X160977861Y-110350915D02*
X161215956Y-110350915D01*
X161215956Y-110350915D02*
X161358813Y-110398534D01*
X161358813Y-110398534D02*
X161454051Y-110493772D01*
X161454051Y-110493772D02*
X161501670Y-110589010D01*
X161501670Y-110589010D02*
X161549289Y-110779486D01*
X161549289Y-110779486D02*
X161549289Y-110922343D01*
X161549289Y-110922343D02*
X161501670Y-111112819D01*
X161501670Y-111112819D02*
X161454051Y-111208057D01*
X161454051Y-111208057D02*
X161358813Y-111303296D01*
X161358813Y-111303296D02*
X161215956Y-111350915D01*
X161215956Y-111350915D02*
X160977861Y-111350915D01*
X162406432Y-110350915D02*
X162215956Y-110350915D01*
X162215956Y-110350915D02*
X162120718Y-110398534D01*
X162120718Y-110398534D02*
X162073099Y-110446153D01*
X162073099Y-110446153D02*
X161977861Y-110589010D01*
X161977861Y-110589010D02*
X161930242Y-110779486D01*
X161930242Y-110779486D02*
X161930242Y-111160438D01*
X161930242Y-111160438D02*
X161977861Y-111255676D01*
X161977861Y-111255676D02*
X162025480Y-111303296D01*
X162025480Y-111303296D02*
X162120718Y-111350915D01*
X162120718Y-111350915D02*
X162311194Y-111350915D01*
X162311194Y-111350915D02*
X162406432Y-111303296D01*
X162406432Y-111303296D02*
X162454051Y-111255676D01*
X162454051Y-111255676D02*
X162501670Y-111160438D01*
X162501670Y-111160438D02*
X162501670Y-110922343D01*
X162501670Y-110922343D02*
X162454051Y-110827105D01*
X162454051Y-110827105D02*
X162406432Y-110779486D01*
X162406432Y-110779486D02*
X162311194Y-110731867D01*
X162311194Y-110731867D02*
X162120718Y-110731867D01*
X162120718Y-110731867D02*
X162025480Y-110779486D01*
X162025480Y-110779486D02*
X161977861Y-110827105D01*
X161977861Y-110827105D02*
X161930242Y-110922343D01*
X184233098Y-175655676D02*
X184185479Y-175703296D01*
X184185479Y-175703296D02*
X184042622Y-175750915D01*
X184042622Y-175750915D02*
X183947384Y-175750915D01*
X183947384Y-175750915D02*
X183804527Y-175703296D01*
X183804527Y-175703296D02*
X183709289Y-175608057D01*
X183709289Y-175608057D02*
X183661670Y-175512819D01*
X183661670Y-175512819D02*
X183614051Y-175322343D01*
X183614051Y-175322343D02*
X183614051Y-175179486D01*
X183614051Y-175179486D02*
X183661670Y-174989010D01*
X183661670Y-174989010D02*
X183709289Y-174893772D01*
X183709289Y-174893772D02*
X183804527Y-174798534D01*
X183804527Y-174798534D02*
X183947384Y-174750915D01*
X183947384Y-174750915D02*
X184042622Y-174750915D01*
X184042622Y-174750915D02*
X184185479Y-174798534D01*
X184185479Y-174798534D02*
X184233098Y-174846153D01*
X185185479Y-175750915D02*
X184614051Y-175750915D01*
X184899765Y-175750915D02*
X184899765Y-174750915D01*
X184899765Y-174750915D02*
X184804527Y-174893772D01*
X184804527Y-174893772D02*
X184709289Y-174989010D01*
X184709289Y-174989010D02*
X184614051Y-175036629D01*
X186090241Y-174750915D02*
X185614051Y-174750915D01*
X185614051Y-174750915D02*
X185566432Y-175227105D01*
X185566432Y-175227105D02*
X185614051Y-175179486D01*
X185614051Y-175179486D02*
X185709289Y-175131867D01*
X185709289Y-175131867D02*
X185947384Y-175131867D01*
X185947384Y-175131867D02*
X186042622Y-175179486D01*
X186042622Y-175179486D02*
X186090241Y-175227105D01*
X186090241Y-175227105D02*
X186137860Y-175322343D01*
X186137860Y-175322343D02*
X186137860Y-175560438D01*
X186137860Y-175560438D02*
X186090241Y-175655676D01*
X186090241Y-175655676D02*
X186042622Y-175703296D01*
X186042622Y-175703296D02*
X185947384Y-175750915D01*
X185947384Y-175750915D02*
X185709289Y-175750915D01*
X185709289Y-175750915D02*
X185614051Y-175703296D01*
X185614051Y-175703296D02*
X185566432Y-175655676D01*
X206709289Y-181350915D02*
X206375956Y-180874724D01*
X206137861Y-181350915D02*
X206137861Y-180350915D01*
X206137861Y-180350915D02*
X206518813Y-180350915D01*
X206518813Y-180350915D02*
X206614051Y-180398534D01*
X206614051Y-180398534D02*
X206661670Y-180446153D01*
X206661670Y-180446153D02*
X206709289Y-180541391D01*
X206709289Y-180541391D02*
X206709289Y-180684248D01*
X206709289Y-180684248D02*
X206661670Y-180779486D01*
X206661670Y-180779486D02*
X206614051Y-180827105D01*
X206614051Y-180827105D02*
X206518813Y-180874724D01*
X206518813Y-180874724D02*
X206137861Y-180874724D01*
X207566432Y-180350915D02*
X207375956Y-180350915D01*
X207375956Y-180350915D02*
X207280718Y-180398534D01*
X207280718Y-180398534D02*
X207233099Y-180446153D01*
X207233099Y-180446153D02*
X207137861Y-180589010D01*
X207137861Y-180589010D02*
X207090242Y-180779486D01*
X207090242Y-180779486D02*
X207090242Y-181160438D01*
X207090242Y-181160438D02*
X207137861Y-181255676D01*
X207137861Y-181255676D02*
X207185480Y-181303296D01*
X207185480Y-181303296D02*
X207280718Y-181350915D01*
X207280718Y-181350915D02*
X207471194Y-181350915D01*
X207471194Y-181350915D02*
X207566432Y-181303296D01*
X207566432Y-181303296D02*
X207614051Y-181255676D01*
X207614051Y-181255676D02*
X207661670Y-181160438D01*
X207661670Y-181160438D02*
X207661670Y-180922343D01*
X207661670Y-180922343D02*
X207614051Y-180827105D01*
X207614051Y-180827105D02*
X207566432Y-180779486D01*
X207566432Y-180779486D02*
X207471194Y-180731867D01*
X207471194Y-180731867D02*
X207280718Y-180731867D01*
X207280718Y-180731867D02*
X207185480Y-180779486D01*
X207185480Y-180779486D02*
X207137861Y-180827105D01*
X207137861Y-180827105D02*
X207090242Y-180922343D01*
X200714051Y-133075915D02*
X200714051Y-133885438D01*
X200714051Y-133885438D02*
X200761670Y-133980676D01*
X200761670Y-133980676D02*
X200809289Y-134028296D01*
X200809289Y-134028296D02*
X200904527Y-134075915D01*
X200904527Y-134075915D02*
X201095003Y-134075915D01*
X201095003Y-134075915D02*
X201190241Y-134028296D01*
X201190241Y-134028296D02*
X201237860Y-133980676D01*
X201237860Y-133980676D02*
X201285479Y-133885438D01*
X201285479Y-133885438D02*
X201285479Y-133075915D01*
X201714051Y-133171153D02*
X201761670Y-133123534D01*
X201761670Y-133123534D02*
X201856908Y-133075915D01*
X201856908Y-133075915D02*
X202095003Y-133075915D01*
X202095003Y-133075915D02*
X202190241Y-133123534D01*
X202190241Y-133123534D02*
X202237860Y-133171153D01*
X202237860Y-133171153D02*
X202285479Y-133266391D01*
X202285479Y-133266391D02*
X202285479Y-133361629D01*
X202285479Y-133361629D02*
X202237860Y-133504486D01*
X202237860Y-133504486D02*
X201666432Y-134075915D01*
X201666432Y-134075915D02*
X202285479Y-134075915D01*
X189119394Y-181573698D02*
X189119515Y-181467219D01*
X189119515Y-181467219D02*
X189162252Y-181339492D01*
X189162252Y-181339492D02*
X189226357Y-181147901D01*
X189226357Y-181147901D02*
X189226478Y-181041422D01*
X189226478Y-181041422D02*
X189183983Y-180956190D01*
X188992151Y-181105044D02*
X188992272Y-180998564D01*
X188992272Y-180998564D02*
X189035009Y-180870837D01*
X189035009Y-180870837D02*
X189184225Y-180743231D01*
X189184225Y-180743231D02*
X189482536Y-180594499D01*
X189482536Y-180594499D02*
X189674248Y-180552125D01*
X189674248Y-180552125D02*
X189801975Y-180594862D01*
X189801975Y-180594862D02*
X189887085Y-180658846D01*
X189887085Y-180658846D02*
X189972076Y-180829310D01*
X189972076Y-180829310D02*
X189971955Y-180935789D01*
X189971955Y-180935789D02*
X189929218Y-181063516D01*
X189929218Y-181063516D02*
X189780002Y-181191122D01*
X189780002Y-181191122D02*
X189481690Y-181339854D01*
X189481690Y-181339854D02*
X189289979Y-181382229D01*
X189289979Y-181382229D02*
X189162252Y-181339492D01*
X189162252Y-181339492D02*
X189077141Y-181275507D01*
X189077141Y-181275507D02*
X188992151Y-181105044D01*
X190227046Y-181340701D02*
X190503263Y-181894708D01*
X190503263Y-181894708D02*
X190013603Y-181766376D01*
X190013603Y-181766376D02*
X190077346Y-181894224D01*
X190077346Y-181894224D02*
X190077225Y-182000703D01*
X190077225Y-182000703D02*
X190055857Y-182064567D01*
X190055857Y-182064567D02*
X189991872Y-182149678D01*
X189991872Y-182149678D02*
X189778793Y-182255915D01*
X189778793Y-182255915D02*
X189672313Y-182255794D01*
X189672313Y-182255794D02*
X189608450Y-182234426D01*
X189608450Y-182234426D02*
X189523339Y-182170442D01*
X189523339Y-182170442D02*
X189395854Y-181914746D01*
X189395854Y-181914746D02*
X189395975Y-181808267D01*
X189395975Y-181808267D02*
X189417343Y-181744403D01*
X224970789Y-173666915D02*
X224494599Y-173666915D01*
X224494599Y-173666915D02*
X224494599Y-172666915D01*
X225827932Y-173666915D02*
X225256504Y-173666915D01*
X225542218Y-173666915D02*
X225542218Y-172666915D01*
X225542218Y-172666915D02*
X225446980Y-172809772D01*
X225446980Y-172809772D02*
X225351742Y-172905010D01*
X225351742Y-172905010D02*
X225256504Y-172952629D01*
X213033098Y-171455676D02*
X212985479Y-171503296D01*
X212985479Y-171503296D02*
X212842622Y-171550915D01*
X212842622Y-171550915D02*
X212747384Y-171550915D01*
X212747384Y-171550915D02*
X212604527Y-171503296D01*
X212604527Y-171503296D02*
X212509289Y-171408057D01*
X212509289Y-171408057D02*
X212461670Y-171312819D01*
X212461670Y-171312819D02*
X212414051Y-171122343D01*
X212414051Y-171122343D02*
X212414051Y-170979486D01*
X212414051Y-170979486D02*
X212461670Y-170789010D01*
X212461670Y-170789010D02*
X212509289Y-170693772D01*
X212509289Y-170693772D02*
X212604527Y-170598534D01*
X212604527Y-170598534D02*
X212747384Y-170550915D01*
X212747384Y-170550915D02*
X212842622Y-170550915D01*
X212842622Y-170550915D02*
X212985479Y-170598534D01*
X212985479Y-170598534D02*
X213033098Y-170646153D01*
X213985479Y-171550915D02*
X213414051Y-171550915D01*
X213699765Y-171550915D02*
X213699765Y-170550915D01*
X213699765Y-170550915D02*
X213604527Y-170693772D01*
X213604527Y-170693772D02*
X213509289Y-170789010D01*
X213509289Y-170789010D02*
X213414051Y-170836629D01*
X214937860Y-171550915D02*
X214366432Y-171550915D01*
X214652146Y-171550915D02*
X214652146Y-170550915D01*
X214652146Y-170550915D02*
X214556908Y-170693772D01*
X214556908Y-170693772D02*
X214461670Y-170789010D01*
X214461670Y-170789010D02*
X214366432Y-170836629D01*
X168409289Y-159750915D02*
X168075956Y-159274724D01*
X167837861Y-159750915D02*
X167837861Y-158750915D01*
X167837861Y-158750915D02*
X168218813Y-158750915D01*
X168218813Y-158750915D02*
X168314051Y-158798534D01*
X168314051Y-158798534D02*
X168361670Y-158846153D01*
X168361670Y-158846153D02*
X168409289Y-158941391D01*
X168409289Y-158941391D02*
X168409289Y-159084248D01*
X168409289Y-159084248D02*
X168361670Y-159179486D01*
X168361670Y-159179486D02*
X168314051Y-159227105D01*
X168314051Y-159227105D02*
X168218813Y-159274724D01*
X168218813Y-159274724D02*
X167837861Y-159274724D01*
X168742623Y-158750915D02*
X169409289Y-158750915D01*
X169409289Y-158750915D02*
X168980718Y-159750915D01*
X178433098Y-175655676D02*
X178385479Y-175703296D01*
X178385479Y-175703296D02*
X178242622Y-175750915D01*
X178242622Y-175750915D02*
X178147384Y-175750915D01*
X178147384Y-175750915D02*
X178004527Y-175703296D01*
X178004527Y-175703296D02*
X177909289Y-175608057D01*
X177909289Y-175608057D02*
X177861670Y-175512819D01*
X177861670Y-175512819D02*
X177814051Y-175322343D01*
X177814051Y-175322343D02*
X177814051Y-175179486D01*
X177814051Y-175179486D02*
X177861670Y-174989010D01*
X177861670Y-174989010D02*
X177909289Y-174893772D01*
X177909289Y-174893772D02*
X178004527Y-174798534D01*
X178004527Y-174798534D02*
X178147384Y-174750915D01*
X178147384Y-174750915D02*
X178242622Y-174750915D01*
X178242622Y-174750915D02*
X178385479Y-174798534D01*
X178385479Y-174798534D02*
X178433098Y-174846153D01*
X178814051Y-174846153D02*
X178861670Y-174798534D01*
X178861670Y-174798534D02*
X178956908Y-174750915D01*
X178956908Y-174750915D02*
X179195003Y-174750915D01*
X179195003Y-174750915D02*
X179290241Y-174798534D01*
X179290241Y-174798534D02*
X179337860Y-174846153D01*
X179337860Y-174846153D02*
X179385479Y-174941391D01*
X179385479Y-174941391D02*
X179385479Y-175036629D01*
X179385479Y-175036629D02*
X179337860Y-175179486D01*
X179337860Y-175179486D02*
X178766432Y-175750915D01*
X178766432Y-175750915D02*
X179385479Y-175750915D01*
X180004527Y-174750915D02*
X180099765Y-174750915D01*
X180099765Y-174750915D02*
X180195003Y-174798534D01*
X180195003Y-174798534D02*
X180242622Y-174846153D01*
X180242622Y-174846153D02*
X180290241Y-174941391D01*
X180290241Y-174941391D02*
X180337860Y-175131867D01*
X180337860Y-175131867D02*
X180337860Y-175369962D01*
X180337860Y-175369962D02*
X180290241Y-175560438D01*
X180290241Y-175560438D02*
X180242622Y-175655676D01*
X180242622Y-175655676D02*
X180195003Y-175703296D01*
X180195003Y-175703296D02*
X180099765Y-175750915D01*
X180099765Y-175750915D02*
X180004527Y-175750915D01*
X180004527Y-175750915D02*
X179909289Y-175703296D01*
X179909289Y-175703296D02*
X179861670Y-175655676D01*
X179861670Y-175655676D02*
X179814051Y-175560438D01*
X179814051Y-175560438D02*
X179766432Y-175369962D01*
X179766432Y-175369962D02*
X179766432Y-175131867D01*
X179766432Y-175131867D02*
X179814051Y-174941391D01*
X179814051Y-174941391D02*
X179861670Y-174846153D01*
X179861670Y-174846153D02*
X179909289Y-174798534D01*
X179909289Y-174798534D02*
X180004527Y-174750915D01*
D13*
X207043714Y-186125087D02*
X210498161Y-187847410D01*
X204783637Y-184674208D02*
X204783637Y-184674208D01*
X204783637Y-184674208D02*
X207173112Y-185865556D01*
X207173112Y-185865556D02*
X204783637Y-184674208D01*
X207173112Y-185865556D02*
X207173112Y-185865556D01*
X207257889Y-185695518D02*
X207043714Y-186125087D01*
X205908030Y-182396612D02*
X208297505Y-183587961D01*
X205916980Y-182401074D02*
X205916980Y-182401074D01*
X208297505Y-183587961D02*
X205908030Y-182396612D01*
X208435852Y-183332892D02*
X211890298Y-185055215D01*
X208435852Y-183332892D02*
X208614331Y-182974918D01*
X209438178Y-183832633D02*
X208435852Y-183332892D01*
X208431364Y-183319480D02*
X208208265Y-183766947D01*
X208614331Y-182974918D02*
X209616657Y-183474659D01*
X209616657Y-183474659D02*
X209438178Y-183832633D01*
X210498161Y-187847410D02*
G75*
G03*
X211890298Y-185055215I696069J1396097D01*
G01*
X226005956Y-109166096D02*
X223405956Y-109166096D01*
X226005956Y-109166096D02*
X226005956Y-111826096D01*
X223405956Y-109166096D02*
X223405956Y-111826096D01*
X228605956Y-110496096D02*
X228605956Y-111826096D01*
X228605956Y-111826096D02*
X227275956Y-111826096D01*
X226005956Y-111826096D02*
X223405956Y-111826096D01*
X171145956Y-94766096D02*
X172475956Y-94766096D01*
X171145956Y-96096096D02*
X171145956Y-94766096D01*
X171145956Y-97366096D02*
X171145956Y-97426096D01*
X171145956Y-97366096D02*
X173805956Y-97366096D01*
X171145956Y-97426096D02*
X173805956Y-97426096D01*
X173805956Y-97366096D02*
X173805956Y-97426096D01*
X207385956Y-104422344D02*
X207385956Y-105844848D01*
X205565956Y-104422344D02*
X205565956Y-105844848D01*
X208588748Y-149690000D02*
X210011252Y-149690000D01*
X208588748Y-151510000D02*
X210011252Y-151510000D01*
X196565956Y-168973160D02*
X196565956Y-167519032D01*
X198385956Y-168973160D02*
X198385956Y-167519032D01*
X202165956Y-118769848D02*
X202165956Y-117347344D01*
X203985956Y-118769848D02*
X203985956Y-117347344D01*
X205115956Y-118769848D02*
X205115956Y-117347344D01*
X206935956Y-118769848D02*
X206935956Y-117347344D01*
X194790555Y-183309807D02*
X191336108Y-185032130D01*
X197309427Y-182377990D02*
X197309427Y-182377990D01*
X197309427Y-182377990D02*
X194919952Y-183569338D01*
X194919952Y-183569338D02*
X197309427Y-182377990D01*
X194919952Y-183569338D02*
X194919952Y-183569338D01*
X195004730Y-183739375D02*
X194790555Y-183309807D01*
X198451719Y-184646661D02*
X196062244Y-185838009D01*
X198442769Y-184651123D02*
X198442769Y-184651123D01*
X196062244Y-185838009D02*
X198451719Y-184646661D01*
X196182692Y-186102002D02*
X192728245Y-187824326D01*
X196182692Y-186102002D02*
X196361171Y-186459976D01*
X195180365Y-186601744D02*
X196182692Y-186102002D01*
X196196103Y-186106489D02*
X195973004Y-185659022D01*
X196361171Y-186459976D02*
X195358845Y-186959717D01*
X195358845Y-186959717D02*
X195180365Y-186601744D01*
X191336108Y-185032130D02*
G75*
G03*
X192728245Y-187824326I696069J-1396098D01*
G01*
X231655156Y-170456896D02*
X231655156Y-174316896D01*
X231945156Y-167786896D02*
X231945156Y-167786896D01*
X231945156Y-167786896D02*
X231945156Y-170456896D01*
X231945156Y-170456896D02*
X231945156Y-167786896D01*
X231945156Y-170456896D02*
X231945156Y-170456896D01*
X232135156Y-170456896D02*
X231655156Y-170456896D01*
X234485156Y-167776896D02*
X234485156Y-170446896D01*
X234485156Y-167786896D02*
X234485156Y-167786896D01*
X234485156Y-170446896D02*
X234485156Y-167776896D01*
X234775156Y-170456896D02*
X234775156Y-174316896D01*
X234775156Y-170456896D02*
X235175156Y-170456896D01*
X234775156Y-171576896D02*
X234775156Y-170456896D01*
X234785156Y-170446896D02*
X234285156Y-170446896D01*
X235175156Y-170456896D02*
X235175156Y-171576896D01*
X235175156Y-171576896D02*
X234775156Y-171576896D01*
X231655156Y-174316896D02*
G75*
G03*
X234775156Y-174316896I1560000J0D01*
G01*
X194835956Y-175358596D02*
X194835956Y-173683596D01*
X194835956Y-175358596D02*
X194835956Y-176008596D01*
X191715956Y-175358596D02*
X191715956Y-174708596D01*
X191715956Y-175358596D02*
X191715956Y-176008596D01*
X165235956Y-106211096D02*
X163315956Y-106211096D01*
X163315956Y-106211096D02*
X163315956Y-109071096D01*
X165235956Y-109071096D02*
X165235956Y-106211096D01*
X193010000Y-168688748D02*
X193010000Y-170111252D01*
X191190000Y-168688748D02*
X191190000Y-170111252D01*
X237045956Y-164246096D02*
X237045956Y-168106096D01*
X237335956Y-161576096D02*
X237335956Y-161576096D01*
X237335956Y-161576096D02*
X237335956Y-164246096D01*
X237335956Y-164246096D02*
X237335956Y-161576096D01*
X237335956Y-164246096D02*
X237335956Y-164246096D01*
X237525956Y-164246096D02*
X237045956Y-164246096D01*
X239875956Y-161566096D02*
X239875956Y-164236096D01*
X239875956Y-161576096D02*
X239875956Y-161576096D01*
X239875956Y-164236096D02*
X239875956Y-161566096D01*
X240165956Y-164246096D02*
X240165956Y-168106096D01*
X240165956Y-164246096D02*
X240565956Y-164246096D01*
X240165956Y-165366096D02*
X240165956Y-164246096D01*
X240175956Y-164236096D02*
X239675956Y-164236096D01*
X240565956Y-164246096D02*
X240565956Y-165366096D01*
X240565956Y-165366096D02*
X240165956Y-165366096D01*
X237045956Y-168106096D02*
G75*
G03*
X240165956Y-168106096I1560000J0D01*
G01*
D14*
X191682456Y-119134296D02*
X191682456Y-117457896D01*
X189269456Y-117457896D02*
X189269456Y-119134296D01*
D13*
X196953020Y-179606096D02*
X195498892Y-179606096D01*
X196953020Y-177786096D02*
X195498892Y-177786096D01*
X182995956Y-108226096D02*
X182995956Y-106896096D01*
X184325956Y-108226096D02*
X182995956Y-108226096D01*
X185595956Y-108226096D02*
X198355956Y-108226096D01*
X185595956Y-108226096D02*
X185595956Y-105566096D01*
X198355956Y-108226096D02*
X198355956Y-105566096D01*
X185595956Y-105566096D02*
X198355956Y-105566096D01*
X161370000Y-146426096D02*
X162700000Y-146426096D01*
X161370000Y-147756096D02*
X161370000Y-146426096D01*
X161370000Y-149026096D02*
X161370000Y-159246096D01*
X161370000Y-149026096D02*
X164030000Y-149026096D01*
X161370000Y-159246096D02*
X164030000Y-159246096D01*
X164030000Y-149026096D02*
X164030000Y-159246096D01*
D14*
X185682456Y-119134296D02*
X185682456Y-117457896D01*
X183269456Y-117457896D02*
X183269456Y-119134296D01*
D13*
X219787208Y-117006096D02*
X218364704Y-117006096D01*
X219787208Y-115186096D02*
X218364704Y-115186096D01*
X234625956Y-147446096D02*
X241125956Y-147446096D01*
X241125956Y-150046096D02*
X234625956Y-150046096D01*
X180227064Y-152510000D02*
X178772936Y-152510000D01*
X180227064Y-150690000D02*
X178772936Y-150690000D01*
X206585956Y-175433596D02*
X206585956Y-173758596D01*
X206585956Y-175433596D02*
X206585956Y-176083596D01*
X203465956Y-175433596D02*
X203465956Y-174783596D01*
X203465956Y-175433596D02*
X203465956Y-176083596D01*
X167875956Y-106211096D02*
X165955956Y-106211096D01*
X165955956Y-106211096D02*
X165955956Y-109071096D01*
X167875956Y-109071096D02*
X167875956Y-106211096D01*
X172635956Y-161758596D02*
X172635956Y-160083596D01*
X172635956Y-161758596D02*
X172635956Y-162408596D01*
X169515956Y-161758596D02*
X169515956Y-161108596D01*
X169515956Y-161758596D02*
X169515956Y-162408596D01*
X211988748Y-144790000D02*
X213411252Y-144790000D01*
X211988748Y-146610000D02*
X213411252Y-146610000D01*
X200585956Y-117384844D02*
X200585956Y-118807348D01*
X198765956Y-117384844D02*
X198765956Y-118807348D01*
X234625956Y-143196096D02*
X241125956Y-143196096D01*
X241125956Y-145796096D02*
X234625956Y-145796096D01*
X234625956Y-151646096D02*
X241125956Y-151646096D01*
X241125956Y-154246096D02*
X234625956Y-154246096D01*
X175145956Y-94766096D02*
X176475956Y-94766096D01*
X175145956Y-96096096D02*
X175145956Y-94766096D01*
X175145956Y-97366096D02*
X175145956Y-97426096D01*
X175145956Y-97366096D02*
X177805956Y-97366096D01*
X175145956Y-97426096D02*
X177805956Y-97426096D01*
X177805956Y-97366096D02*
X177805956Y-97426096D01*
X176298892Y-109876096D02*
X177753020Y-109876096D01*
X176298892Y-111696096D02*
X177753020Y-111696096D01*
X195610000Y-168688748D02*
X195610000Y-170111252D01*
X193790000Y-168688748D02*
X193790000Y-170111252D01*
X214648562Y-183676469D02*
X218103009Y-185398792D01*
X212388485Y-182225590D02*
X212388485Y-182225590D01*
X212388485Y-182225590D02*
X214777960Y-183416938D01*
X214777960Y-183416938D02*
X212388485Y-182225590D01*
X214777960Y-183416938D02*
X214777960Y-183416938D01*
X214862737Y-183246900D02*
X214648562Y-183676469D01*
X213512878Y-179947994D02*
X215902353Y-181139343D01*
X213521828Y-179952456D02*
X213521828Y-179952456D01*
X215902353Y-181139343D02*
X213512878Y-179947994D01*
X216040700Y-180884274D02*
X219495146Y-182606597D01*
X216040700Y-180884274D02*
X216219179Y-180526300D01*
X217043026Y-181384015D02*
X216040700Y-180884274D01*
X216036212Y-180870862D02*
X215813113Y-181318329D01*
X216219179Y-180526300D02*
X217221505Y-181026041D01*
X217221505Y-181026041D02*
X217043026Y-181384015D01*
X218103009Y-185398792D02*
G75*
G03*
X219495146Y-182606597I696069J1396097D01*
G01*
X226672936Y-144290000D02*
X228127064Y-144290000D01*
X226672936Y-146110000D02*
X228127064Y-146110000D01*
X197635956Y-117384844D02*
X197635956Y-118807348D01*
X195815956Y-117384844D02*
X195815956Y-118807348D01*
X180965956Y-172769848D02*
X180965956Y-171347344D01*
X182785956Y-172769848D02*
X182785956Y-171347344D01*
X176298892Y-104186096D02*
X177753020Y-104186096D01*
X176298892Y-106006096D02*
X177753020Y-106006096D01*
D11*
X169475956Y-113596096D02*
X177975956Y-113596096D01*
X169475956Y-119396096D02*
X180975956Y-119396096D01*
X169475956Y-120896096D02*
X169475956Y-125396096D01*
X169475956Y-126896096D02*
X169475956Y-113596096D01*
X169475956Y-126896096D02*
X169475956Y-140196096D01*
X169475956Y-132896096D02*
X169475956Y-128396096D01*
X169475956Y-134396096D02*
X180975956Y-134396096D01*
X169475956Y-140196096D02*
X177975956Y-140196096D01*
X177975956Y-120896096D02*
X177975956Y-113596096D01*
X177975956Y-132896096D02*
X177975956Y-140196096D01*
X180975956Y-126896096D02*
X180975956Y-119396096D01*
X180975956Y-126896096D02*
X180975956Y-134396096D01*
X200475956Y-120896096D02*
X169475956Y-120896096D01*
X200475956Y-126896096D02*
X200475956Y-120896096D01*
X200475956Y-126896096D02*
X200475956Y-132896096D01*
X200475956Y-132896096D02*
X169475956Y-132896096D01*
D13*
X199165956Y-168973160D02*
X199165956Y-167519032D01*
X200985956Y-168973160D02*
X200985956Y-167519032D01*
X226672936Y-147890000D02*
X228127064Y-147890000D01*
X226672936Y-149710000D02*
X228127064Y-149710000D01*
X175365956Y-172807348D02*
X175365956Y-171384844D01*
X177185956Y-172807348D02*
X177185956Y-171384844D01*
X243186956Y-96692096D02*
X236582956Y-96692096D01*
X236582956Y-96692096D02*
X236582956Y-109900096D01*
X243186956Y-103296096D02*
X243186956Y-96692096D01*
X243186956Y-109900096D02*
X243186956Y-103296096D01*
X239884956Y-109900096D02*
X243186956Y-109900096D01*
X236582956Y-109900096D02*
X239884956Y-109900096D01*
X197727500Y-150740000D02*
X197727500Y-151190000D01*
X197727500Y-151190000D02*
X196437500Y-151190000D01*
X197727500Y-157960000D02*
X197727500Y-157510000D01*
X198177500Y-150740000D02*
X197727500Y-150740000D01*
X198177500Y-157960000D02*
X197727500Y-157960000D01*
X204497500Y-150740000D02*
X204947500Y-150740000D01*
X204497500Y-157960000D02*
X204947500Y-157960000D01*
X204947500Y-150740000D02*
X204947500Y-151190000D01*
X204947500Y-157960000D02*
X204947500Y-157510000D01*
X186475956Y-172646096D02*
X186475956Y-169846096D01*
X188475956Y-172646096D02*
X186475956Y-172646096D01*
X186475956Y-169846096D02*
X188475956Y-169846096D01*
X188475956Y-169846096D02*
X188475956Y-172646096D01*
X181625956Y-95196096D02*
X188125956Y-95196096D01*
X188125956Y-97796096D02*
X181625956Y-97796096D01*
X223650956Y-105956096D02*
X223650956Y-104146096D01*
X223650956Y-104146096D02*
X228775956Y-104146096D01*
X223650956Y-97366096D02*
X224750956Y-97366096D01*
X223650956Y-95556096D02*
X223650956Y-97366096D01*
X222150956Y-105956096D02*
X223650956Y-105956096D01*
X222150956Y-95556096D02*
X223650956Y-95556096D01*
X168764756Y-170329896D02*
X168764756Y-174189896D01*
X169054756Y-167659896D02*
X169054756Y-167659896D01*
X169054756Y-167659896D02*
X169054756Y-170329896D01*
X169054756Y-170329896D02*
X169054756Y-167659896D01*
X169054756Y-170329896D02*
X169054756Y-170329896D01*
X169244756Y-170329896D02*
X168764756Y-170329896D01*
X171594756Y-167649896D02*
X171594756Y-170319896D01*
X171594756Y-167659896D02*
X171594756Y-167659896D01*
X171594756Y-170319896D02*
X171594756Y-167649896D01*
X171884756Y-170329896D02*
X171884756Y-174189896D01*
X171884756Y-170329896D02*
X172284756Y-170329896D01*
X171884756Y-171449896D02*
X171884756Y-170329896D01*
X171894756Y-170319896D02*
X171394756Y-170319896D01*
X172284756Y-170329896D02*
X172284756Y-171449896D01*
X172284756Y-171449896D02*
X171884756Y-171449896D01*
X168764756Y-174189896D02*
G75*
G03*
X171884756Y-174189896I1560000J0D01*
G01*
X236138456Y-155736096D02*
X234463456Y-155736096D01*
X236138456Y-155736096D02*
X236788456Y-155736096D01*
X236138456Y-158856096D02*
X235488456Y-158856096D01*
X236138456Y-158856096D02*
X236788456Y-158856096D01*
X210585956Y-104422344D02*
X210585956Y-105844848D01*
X208765956Y-104422344D02*
X208765956Y-105844848D01*
D11*
X233363456Y-140196096D02*
X224863456Y-140196096D01*
X233363456Y-134396096D02*
X221863456Y-134396096D01*
X233363456Y-132896096D02*
X233363456Y-128396096D01*
X233363456Y-126896096D02*
X233363456Y-140196096D01*
X233363456Y-126896096D02*
X233363456Y-113596096D01*
X233363456Y-120896096D02*
X233363456Y-125396096D01*
X233363456Y-119396096D02*
X221863456Y-119396096D01*
X233363456Y-113596096D02*
X224863456Y-113596096D01*
X224863456Y-132896096D02*
X224863456Y-140196096D01*
X224863456Y-120896096D02*
X224863456Y-113596096D01*
X221863456Y-126896096D02*
X221863456Y-134396096D01*
X221863456Y-126896096D02*
X221863456Y-119396096D01*
X202363456Y-132896096D02*
X233363456Y-132896096D01*
X202363456Y-126896096D02*
X202363456Y-132896096D01*
X202363456Y-126896096D02*
X202363456Y-120896096D01*
X202363456Y-120896096D02*
X233363456Y-120896096D01*
D13*
X179199356Y-143700296D02*
X179199356Y-142370296D01*
X180529356Y-143700296D02*
X179199356Y-143700296D01*
X181799356Y-141040296D02*
X194559356Y-141040296D01*
X181799356Y-143700296D02*
X181799356Y-141040296D01*
X181799356Y-143700296D02*
X194559356Y-143700296D01*
X182765956Y-136386096D02*
X183815956Y-136386096D01*
X182765956Y-137536096D02*
X182765956Y-136386096D01*
X189815956Y-139506096D02*
X183935956Y-139506096D01*
X189935956Y-136386096D02*
X189935956Y-135396096D01*
X190985956Y-136386096D02*
X189935956Y-136386096D01*
X190985956Y-137536096D02*
X190985956Y-136386096D01*
X194559356Y-143700296D02*
X194559356Y-141040296D01*
X207565956Y-175573160D02*
X207565956Y-174119032D01*
X209385956Y-175573160D02*
X209385956Y-174119032D01*
X214188748Y-149690000D02*
X215611252Y-149690000D01*
X214188748Y-151510000D02*
X215611252Y-151510000D01*
X161345956Y-142766096D02*
X162675956Y-142766096D01*
X161345956Y-144096096D02*
X161345956Y-142766096D01*
X161345956Y-145366096D02*
X161345956Y-145426096D01*
X161345956Y-145366096D02*
X164005956Y-145366096D01*
X161345956Y-145426096D02*
X164005956Y-145426096D01*
X164005956Y-145366096D02*
X164005956Y-145426096D01*
X231965956Y-158823160D02*
X231965956Y-157369032D01*
X233785956Y-158823160D02*
X233785956Y-157369032D01*
X206236956Y-101928716D02*
X206236956Y-101298716D01*
X205921956Y-101613716D02*
X206551956Y-101613716D01*
X204845956Y-98428475D02*
X211305956Y-98428475D01*
X204845956Y-98388475D02*
X211305956Y-98388475D01*
X204845956Y-98348475D02*
X211305956Y-98348475D01*
X204847956Y-98308475D02*
X211303956Y-98308475D01*
X204848956Y-98268475D02*
X211302956Y-98268475D01*
X204851956Y-98228475D02*
X211299956Y-98228475D01*
X204853956Y-98188475D02*
X207035956Y-98188475D01*
X209115956Y-98188475D02*
X211297956Y-98188475D01*
X204857956Y-98148475D02*
X207035956Y-98148475D01*
X209115956Y-98148475D02*
X211293956Y-98148475D01*
X204860956Y-98108475D02*
X207035956Y-98108475D01*
X209115956Y-98108475D02*
X211290956Y-98108475D01*
X204864956Y-98068475D02*
X207035956Y-98068475D01*
X209115956Y-98068475D02*
X211286956Y-98068475D01*
X204869956Y-98028475D02*
X207035956Y-98028475D01*
X209115956Y-98028475D02*
X211281956Y-98028475D01*
X204874956Y-97988475D02*
X207035956Y-97988475D01*
X209115956Y-97988475D02*
X211276956Y-97988475D01*
X204880956Y-97948475D02*
X207035956Y-97948475D01*
X209115956Y-97948475D02*
X211270956Y-97948475D01*
X204886956Y-97908475D02*
X207035956Y-97908475D01*
X209115956Y-97908475D02*
X211264956Y-97908475D01*
X204893956Y-97868475D02*
X207035956Y-97868475D01*
X209115956Y-97868475D02*
X211257956Y-97868475D01*
X204900956Y-97828475D02*
X207035956Y-97828475D01*
X209115956Y-97828475D02*
X211250956Y-97828475D01*
X204908956Y-97788475D02*
X207035956Y-97788475D01*
X209115956Y-97788475D02*
X211242956Y-97788475D01*
X204916956Y-97748475D02*
X207035956Y-97748475D01*
X209115956Y-97748475D02*
X211234956Y-97748475D01*
X204925956Y-97707475D02*
X207035956Y-97707475D01*
X209115956Y-97707475D02*
X211225956Y-97707475D01*
X204934956Y-97667475D02*
X207035956Y-97667475D01*
X209115956Y-97667475D02*
X211216956Y-97667475D01*
X204944956Y-97627475D02*
X207035956Y-97627475D01*
X209115956Y-97627475D02*
X211206956Y-97627475D01*
X204954956Y-97587475D02*
X207035956Y-97587475D01*
X209115956Y-97587475D02*
X211196956Y-97587475D01*
X204965956Y-97547475D02*
X207035956Y-97547475D01*
X209115956Y-97547475D02*
X211185956Y-97547475D01*
X204977956Y-97507475D02*
X207035956Y-97507475D01*
X209115956Y-97507475D02*
X211173956Y-97507475D01*
X204989956Y-97467475D02*
X207035956Y-97467475D01*
X209115956Y-97467475D02*
X211161956Y-97467475D01*
X205001956Y-97427475D02*
X207035956Y-97427475D01*
X209115956Y-97427475D02*
X211149956Y-97427475D01*
X205014956Y-97387475D02*
X207035956Y-97387475D01*
X209115956Y-97387475D02*
X211136956Y-97387475D01*
X205028956Y-97347475D02*
X207035956Y-97347475D01*
X209115956Y-97347475D02*
X211122956Y-97347475D01*
X205042956Y-97307475D02*
X207035956Y-97307475D01*
X209115956Y-97307475D02*
X211108956Y-97307475D01*
X205057956Y-97267475D02*
X207035956Y-97267475D01*
X209115956Y-97267475D02*
X211093956Y-97267475D01*
X205073956Y-97227475D02*
X207035956Y-97227475D01*
X209115956Y-97227475D02*
X211077956Y-97227475D01*
X205089956Y-97187475D02*
X207035956Y-97187475D01*
X209115956Y-97187475D02*
X211061956Y-97187475D01*
X205105956Y-97147475D02*
X207035956Y-97147475D01*
X209115956Y-97147475D02*
X211045956Y-97147475D01*
X205123956Y-97107475D02*
X207035956Y-97107475D01*
X209115956Y-97107475D02*
X211027956Y-97107475D01*
X205141956Y-97067475D02*
X207035956Y-97067475D01*
X209115956Y-97067475D02*
X211009956Y-97067475D01*
X205159956Y-97027475D02*
X207035956Y-97027475D01*
X209115956Y-97027475D02*
X210991956Y-97027475D01*
X205179956Y-96987475D02*
X207035956Y-96987475D01*
X209115956Y-96987475D02*
X210971956Y-96987475D01*
X205199956Y-96947475D02*
X207035956Y-96947475D01*
X209115956Y-96947475D02*
X210951956Y-96947475D01*
X205219956Y-96907475D02*
X207035956Y-96907475D01*
X209115956Y-96907475D02*
X210931956Y-96907475D01*
X205241956Y-96867475D02*
X207035956Y-96867475D01*
X209115956Y-96867475D02*
X210909956Y-96867475D01*
X205263956Y-96827475D02*
X207035956Y-96827475D01*
X209115956Y-96827475D02*
X210887956Y-96827475D01*
X205285956Y-96787475D02*
X207035956Y-96787475D01*
X209115956Y-96787475D02*
X210865956Y-96787475D01*
X205309956Y-96747475D02*
X207035956Y-96747475D01*
X209115956Y-96747475D02*
X210841956Y-96747475D01*
X205333956Y-96707475D02*
X207035956Y-96707475D01*
X209115956Y-96707475D02*
X210817956Y-96707475D01*
X205359956Y-96667475D02*
X207035956Y-96667475D01*
X209115956Y-96667475D02*
X210791956Y-96667475D01*
X205385956Y-96627475D02*
X207035956Y-96627475D01*
X209115956Y-96627475D02*
X210765956Y-96627475D01*
X205411956Y-96587475D02*
X207035956Y-96587475D01*
X209115956Y-96587475D02*
X210739956Y-96587475D01*
X205439956Y-96547475D02*
X207035956Y-96547475D01*
X209115956Y-96547475D02*
X210711956Y-96547475D01*
X205468956Y-96507475D02*
X207035956Y-96507475D01*
X209115956Y-96507475D02*
X210682956Y-96507475D01*
X205497956Y-96467475D02*
X207035956Y-96467475D01*
X209115956Y-96467475D02*
X210653956Y-96467475D01*
X205527956Y-96427475D02*
X207035956Y-96427475D01*
X209115956Y-96427475D02*
X210623956Y-96427475D01*
X205559956Y-96387475D02*
X207035956Y-96387475D01*
X209115956Y-96387475D02*
X210591956Y-96387475D01*
X205591956Y-96347475D02*
X207035956Y-96347475D01*
X209115956Y-96347475D02*
X210559956Y-96347475D01*
X205625956Y-96307475D02*
X207035956Y-96307475D01*
X209115956Y-96307475D02*
X210525956Y-96307475D01*
X205659956Y-96267475D02*
X207035956Y-96267475D01*
X209115956Y-96267475D02*
X210491956Y-96267475D01*
X205695956Y-96227475D02*
X207035956Y-96227475D01*
X209115956Y-96227475D02*
X210455956Y-96227475D01*
X205732956Y-96187475D02*
X207035956Y-96187475D01*
X209115956Y-96187475D02*
X210418956Y-96187475D01*
X205770956Y-96147475D02*
X207035956Y-96147475D01*
X209115956Y-96147475D02*
X210380956Y-96147475D01*
X205810956Y-96107475D02*
X210340956Y-96107475D01*
X205851956Y-96067475D02*
X210299956Y-96067475D01*
X205893956Y-96027475D02*
X210257956Y-96027475D01*
X205938956Y-95987475D02*
X210212956Y-95987475D01*
X205983956Y-95947475D02*
X210167956Y-95947475D01*
X206031956Y-95907475D02*
X210119956Y-95907475D01*
X206080956Y-95867475D02*
X210070956Y-95867475D01*
X206131956Y-95827475D02*
X210019956Y-95827475D01*
X206185956Y-95787475D02*
X209965956Y-95787475D01*
X206241956Y-95747475D02*
X209909956Y-95747475D01*
X206299956Y-95707475D02*
X209851956Y-95707475D01*
X206361956Y-95667475D02*
X209789956Y-95667475D01*
X206425956Y-95627475D02*
X209725956Y-95627475D01*
X206494956Y-95587475D02*
X209656956Y-95587475D01*
X206566956Y-95547475D02*
X209584956Y-95547475D01*
X206643956Y-95507475D02*
X209507956Y-95507475D01*
X206725956Y-95467475D02*
X209425956Y-95467475D01*
X206813956Y-95427475D02*
X209337956Y-95427475D01*
X206910956Y-95387475D02*
X209240956Y-95387475D01*
X207016956Y-95347475D02*
X209134956Y-95347475D01*
X207135956Y-95307475D02*
X209015956Y-95307475D01*
X207273956Y-95267475D02*
X208877956Y-95267475D01*
X207442956Y-95227475D02*
X208708956Y-95227475D01*
X207673956Y-95187475D02*
X208477956Y-95187475D01*
X211345956Y-98428475D02*
G75*
G03*
X211345956Y-98428475I-3270000J0D01*
G01*
X236326197Y-103735096D02*
X235696197Y-103735096D01*
X236011197Y-104050096D02*
X236011197Y-103420096D01*
X232825956Y-105126096D02*
X232825956Y-98666096D01*
X232785956Y-105126096D02*
X232785956Y-98666096D01*
X232745956Y-105126096D02*
X232745956Y-98666096D01*
X232705956Y-105124096D02*
X232705956Y-98668096D01*
X232665956Y-105123096D02*
X232665956Y-98669096D01*
X232625956Y-105120096D02*
X232625956Y-98672096D01*
X232585956Y-105118096D02*
X232585956Y-102936096D01*
X232585956Y-100856096D02*
X232585956Y-98674096D01*
X232545956Y-105114096D02*
X232545956Y-102936096D01*
X232545956Y-100856096D02*
X232545956Y-98678096D01*
X232505956Y-105111096D02*
X232505956Y-102936096D01*
X232505956Y-100856096D02*
X232505956Y-98681096D01*
X232465956Y-105107096D02*
X232465956Y-102936096D01*
X232465956Y-100856096D02*
X232465956Y-98685096D01*
X232425956Y-105102096D02*
X232425956Y-102936096D01*
X232425956Y-100856096D02*
X232425956Y-98690096D01*
X232385956Y-105097096D02*
X232385956Y-102936096D01*
X232385956Y-100856096D02*
X232385956Y-98695096D01*
X232345956Y-105091096D02*
X232345956Y-102936096D01*
X232345956Y-100856096D02*
X232345956Y-98701096D01*
X232305956Y-105085096D02*
X232305956Y-102936096D01*
X232305956Y-100856096D02*
X232305956Y-98707096D01*
X232265956Y-105078096D02*
X232265956Y-102936096D01*
X232265956Y-100856096D02*
X232265956Y-98714096D01*
X232225956Y-105071096D02*
X232225956Y-102936096D01*
X232225956Y-100856096D02*
X232225956Y-98721096D01*
X232185956Y-105063096D02*
X232185956Y-102936096D01*
X232185956Y-100856096D02*
X232185956Y-98729096D01*
X232145956Y-105055096D02*
X232145956Y-102936096D01*
X232145956Y-100856096D02*
X232145956Y-98737096D01*
X232104956Y-105046096D02*
X232104956Y-102936096D01*
X232104956Y-100856096D02*
X232104956Y-98746096D01*
X232064956Y-105037096D02*
X232064956Y-102936096D01*
X232064956Y-100856096D02*
X232064956Y-98755096D01*
X232024956Y-105027096D02*
X232024956Y-102936096D01*
X232024956Y-100856096D02*
X232024956Y-98765096D01*
X231984956Y-105017096D02*
X231984956Y-102936096D01*
X231984956Y-100856096D02*
X231984956Y-98775096D01*
X231944956Y-105006096D02*
X231944956Y-102936096D01*
X231944956Y-100856096D02*
X231944956Y-98786096D01*
X231904956Y-104994096D02*
X231904956Y-102936096D01*
X231904956Y-100856096D02*
X231904956Y-98798096D01*
X231864956Y-104982096D02*
X231864956Y-102936096D01*
X231864956Y-100856096D02*
X231864956Y-98810096D01*
X231824956Y-104970096D02*
X231824956Y-102936096D01*
X231824956Y-100856096D02*
X231824956Y-98822096D01*
X231784956Y-104957096D02*
X231784956Y-102936096D01*
X231784956Y-100856096D02*
X231784956Y-98835096D01*
X231744956Y-104943096D02*
X231744956Y-102936096D01*
X231744956Y-100856096D02*
X231744956Y-98849096D01*
X231704956Y-104929096D02*
X231704956Y-102936096D01*
X231704956Y-100856096D02*
X231704956Y-98863096D01*
X231664956Y-104914096D02*
X231664956Y-102936096D01*
X231664956Y-100856096D02*
X231664956Y-98878096D01*
X231624956Y-104898096D02*
X231624956Y-102936096D01*
X231624956Y-100856096D02*
X231624956Y-98894096D01*
X231584956Y-104882096D02*
X231584956Y-102936096D01*
X231584956Y-100856096D02*
X231584956Y-98910096D01*
X231544956Y-104866096D02*
X231544956Y-102936096D01*
X231544956Y-100856096D02*
X231544956Y-98926096D01*
X231504956Y-104848096D02*
X231504956Y-102936096D01*
X231504956Y-100856096D02*
X231504956Y-98944096D01*
X231464956Y-104830096D02*
X231464956Y-102936096D01*
X231464956Y-100856096D02*
X231464956Y-98962096D01*
X231424956Y-104812096D02*
X231424956Y-102936096D01*
X231424956Y-100856096D02*
X231424956Y-98980096D01*
X231384956Y-104792096D02*
X231384956Y-102936096D01*
X231384956Y-100856096D02*
X231384956Y-99000096D01*
X231344956Y-104772096D02*
X231344956Y-102936096D01*
X231344956Y-100856096D02*
X231344956Y-99020096D01*
X231304956Y-104752096D02*
X231304956Y-102936096D01*
X231304956Y-100856096D02*
X231304956Y-99040096D01*
X231264956Y-104730096D02*
X231264956Y-102936096D01*
X231264956Y-100856096D02*
X231264956Y-99062096D01*
X231224956Y-104708096D02*
X231224956Y-102936096D01*
X231224956Y-100856096D02*
X231224956Y-99084096D01*
X231184956Y-104686096D02*
X231184956Y-102936096D01*
X231184956Y-100856096D02*
X231184956Y-99106096D01*
X231144956Y-104662096D02*
X231144956Y-102936096D01*
X231144956Y-100856096D02*
X231144956Y-99130096D01*
X231104956Y-104638096D02*
X231104956Y-102936096D01*
X231104956Y-100856096D02*
X231104956Y-99154096D01*
X231064956Y-104612096D02*
X231064956Y-102936096D01*
X231064956Y-100856096D02*
X231064956Y-99180096D01*
X231024956Y-104586096D02*
X231024956Y-102936096D01*
X231024956Y-100856096D02*
X231024956Y-99206096D01*
X230984956Y-104560096D02*
X230984956Y-102936096D01*
X230984956Y-100856096D02*
X230984956Y-99232096D01*
X230944956Y-104532096D02*
X230944956Y-102936096D01*
X230944956Y-100856096D02*
X230944956Y-99260096D01*
X230904956Y-104503096D02*
X230904956Y-102936096D01*
X230904956Y-100856096D02*
X230904956Y-99289096D01*
X230864956Y-104474096D02*
X230864956Y-102936096D01*
X230864956Y-100856096D02*
X230864956Y-99318096D01*
X230824956Y-104444096D02*
X230824956Y-102936096D01*
X230824956Y-100856096D02*
X230824956Y-99348096D01*
X230784956Y-104412096D02*
X230784956Y-102936096D01*
X230784956Y-100856096D02*
X230784956Y-99380096D01*
X230744956Y-104380096D02*
X230744956Y-102936096D01*
X230744956Y-100856096D02*
X230744956Y-99412096D01*
X230704956Y-104346096D02*
X230704956Y-102936096D01*
X230704956Y-100856096D02*
X230704956Y-99446096D01*
X230664956Y-104312096D02*
X230664956Y-102936096D01*
X230664956Y-100856096D02*
X230664956Y-99480096D01*
X230624956Y-104276096D02*
X230624956Y-102936096D01*
X230624956Y-100856096D02*
X230624956Y-99516096D01*
X230584956Y-104239096D02*
X230584956Y-102936096D01*
X230584956Y-100856096D02*
X230584956Y-99553096D01*
X230544956Y-104201096D02*
X230544956Y-102936096D01*
X230544956Y-100856096D02*
X230544956Y-99591096D01*
X230504956Y-104161096D02*
X230504956Y-99631096D01*
X230464956Y-104120096D02*
X230464956Y-99672096D01*
X230424956Y-104078096D02*
X230424956Y-99714096D01*
X230384956Y-104033096D02*
X230384956Y-99759096D01*
X230344956Y-103988096D02*
X230344956Y-99804096D01*
X230304956Y-103940096D02*
X230304956Y-99852096D01*
X230264956Y-103891096D02*
X230264956Y-99901096D01*
X230224956Y-103840096D02*
X230224956Y-99952096D01*
X230184956Y-103786096D02*
X230184956Y-100006096D01*
X230144956Y-103730096D02*
X230144956Y-100062096D01*
X230104956Y-103672096D02*
X230104956Y-100120096D01*
X230064956Y-103610096D02*
X230064956Y-100182096D01*
X230024956Y-103546096D02*
X230024956Y-100246096D01*
X229984956Y-103477096D02*
X229984956Y-100315096D01*
X229944956Y-103405096D02*
X229944956Y-100387096D01*
X229904956Y-103328096D02*
X229904956Y-100464096D01*
X229864956Y-103246096D02*
X229864956Y-100546096D01*
X229824956Y-103158096D02*
X229824956Y-100634096D01*
X229784956Y-103061096D02*
X229784956Y-100731096D01*
X229744956Y-102955096D02*
X229744956Y-100837096D01*
X229704956Y-102836096D02*
X229704956Y-100956096D01*
X229664956Y-102698096D02*
X229664956Y-101094096D01*
X229624956Y-102529096D02*
X229624956Y-101263096D01*
X229584956Y-102298096D02*
X229584956Y-101494096D01*
X236095956Y-101896096D02*
G75*
G03*
X236095956Y-101896096I-3270000J0D01*
G01*
X214188748Y-147290000D02*
X215611252Y-147290000D01*
X214188748Y-149110000D02*
X215611252Y-149110000D01*
X209365956Y-169073160D02*
X209365956Y-167619032D01*
X211185956Y-169073160D02*
X211185956Y-167619032D01*
X226672936Y-151490000D02*
X228127064Y-151490000D01*
X226672936Y-153310000D02*
X228127064Y-153310000D01*
X241653020Y-158206096D02*
X240198892Y-158206096D01*
X241653020Y-156386096D02*
X240198892Y-156386096D01*
X198453020Y-177006096D02*
X196998892Y-177006096D01*
X198453020Y-175186096D02*
X196998892Y-175186096D01*
X208588748Y-147290000D02*
X210011252Y-147290000D01*
X208588748Y-149110000D02*
X210011252Y-149110000D01*
X219985956Y-173584844D02*
X219985956Y-175007348D01*
X218165956Y-173584844D02*
X218165956Y-175007348D01*
X170095956Y-100896096D02*
G75*
G03*
X170095956Y-100896096I-4620000J0D01*
G01*
X185595956Y-103401096D02*
X198355956Y-103401096D01*
X185595956Y-103401096D02*
X185595956Y-100741096D01*
X198355956Y-103401096D02*
X198355956Y-100741096D01*
X182995956Y-102071096D02*
X182995956Y-100741096D01*
X182995956Y-100741096D02*
X184325956Y-100741096D01*
X185595956Y-100741096D02*
X198355956Y-100741096D01*
X186122936Y-153690000D02*
X187577064Y-153690000D01*
X186122936Y-155510000D02*
X187577064Y-155510000D01*
D14*
X218441056Y-111070896D02*
X220498456Y-111070896D01*
X218441056Y-110082836D02*
X218441056Y-111070896D01*
X220498456Y-109859357D02*
X220498456Y-109132835D01*
X218441056Y-107921296D02*
X218441056Y-108909356D01*
X220498456Y-107921296D02*
X218441056Y-107921296D01*
X220841356Y-112213896D02*
G75*
G03*
X220841356Y-112213896I-127000J0D01*
G01*
D13*
X176298892Y-106986096D02*
X177753020Y-106986096D01*
X176298892Y-108806096D02*
X177753020Y-108806096D01*
X162845956Y-164646096D02*
X162845956Y-168506096D01*
X163135956Y-161976096D02*
X163135956Y-161976096D01*
X163135956Y-161976096D02*
X163135956Y-164646096D01*
X163135956Y-164646096D02*
X163135956Y-161976096D01*
X163135956Y-164646096D02*
X163135956Y-164646096D01*
X163325956Y-164646096D02*
X162845956Y-164646096D01*
X165675956Y-161966096D02*
X165675956Y-164636096D01*
X165675956Y-161976096D02*
X165675956Y-161976096D01*
X165675956Y-164636096D02*
X165675956Y-161966096D01*
X165965956Y-164646096D02*
X165965956Y-168506096D01*
X165965956Y-164646096D02*
X166365956Y-164646096D01*
X165965956Y-165766096D02*
X165965956Y-164646096D01*
X165975956Y-164636096D02*
X165475956Y-164636096D01*
X166365956Y-164646096D02*
X166365956Y-165766096D01*
X166365956Y-165766096D02*
X165965956Y-165766096D01*
X162845956Y-168506096D02*
G75*
G03*
X165965956Y-168506096I1560000J0D01*
G01*
X173890000Y-163027064D02*
X173890000Y-161572936D01*
X175710000Y-163027064D02*
X175710000Y-161572936D01*
X208199356Y-143700296D02*
X208199356Y-142370296D01*
X209529356Y-143700296D02*
X208199356Y-143700296D01*
X210799356Y-141040296D02*
X223559356Y-141040296D01*
X210799356Y-143700296D02*
X210799356Y-141040296D01*
X210799356Y-143700296D02*
X223559356Y-143700296D01*
X211765956Y-136386096D02*
X212815956Y-136386096D01*
X211765956Y-137536096D02*
X211765956Y-136386096D01*
X218815956Y-139506096D02*
X212935956Y-139506096D01*
X218935956Y-136386096D02*
X218935956Y-135396096D01*
X219985956Y-136386096D02*
X218935956Y-136386096D01*
X219985956Y-137536096D02*
X219985956Y-136386096D01*
X223559356Y-143700296D02*
X223559356Y-141040296D01*
X185960000Y-152660000D02*
X185960000Y-150740000D01*
X185960000Y-150740000D02*
X183100000Y-150740000D01*
X183100000Y-152660000D02*
X185960000Y-152660000D01*
X206565956Y-169073160D02*
X206565956Y-167619032D01*
X208385956Y-169073160D02*
X208385956Y-167619032D01*
X172205956Y-150926096D02*
X171075956Y-150926096D01*
X172205956Y-150166096D02*
X172205956Y-150926096D01*
X172205956Y-149406096D02*
X172205956Y-144391096D01*
X172205956Y-149406096D02*
X171639427Y-149406096D01*
X172205956Y-144391096D02*
X171383486Y-144391096D01*
X170768426Y-144391096D02*
X170113486Y-144391096D01*
X170512485Y-149406096D02*
X170369427Y-149406096D01*
X170315956Y-150861096D02*
X170113486Y-150861096D01*
X170315956Y-150729567D02*
X170315956Y-150861096D01*
X170315956Y-149459567D02*
X170315956Y-149602625D01*
X169498426Y-150861096D02*
X168675956Y-150861096D01*
X169498426Y-144391096D02*
X168675956Y-144391096D01*
X168675956Y-150861096D02*
X168675956Y-144391096D01*
X217385956Y-173584844D02*
X217385956Y-175007348D01*
X215565956Y-173584844D02*
X215565956Y-175007348D01*
X162635956Y-106211096D02*
X160715956Y-106211096D01*
X160715956Y-106211096D02*
X160715956Y-109071096D01*
X162635956Y-109071096D02*
X162635956Y-106211096D01*
X183765956Y-172769848D02*
X183765956Y-171347344D01*
X185585956Y-172769848D02*
X185585956Y-171347344D01*
X206198892Y-178186096D02*
X207653020Y-178186096D01*
X206198892Y-180006096D02*
X207653020Y-180006096D01*
D11*
X198400956Y-134296096D02*
X198400956Y-134521096D01*
X198400956Y-134296096D02*
X204150956Y-134296096D01*
X198400956Y-134521096D02*
X196800956Y-134521096D01*
X198400956Y-142946096D02*
X198400956Y-142646096D01*
X198400956Y-142946096D02*
X204150956Y-142946096D01*
X204150956Y-134296096D02*
X204150956Y-134596096D01*
X204150956Y-142946096D02*
X204150956Y-142646096D01*
D13*
X187296013Y-180808074D02*
X183841566Y-182530397D01*
X189814885Y-179876257D02*
X189814885Y-179876257D01*
X189814885Y-179876257D02*
X187425410Y-181067605D01*
X187425410Y-181067605D02*
X189814885Y-179876257D01*
X187425410Y-181067605D02*
X187425410Y-181067605D01*
X187510188Y-181237642D02*
X187296013Y-180808074D01*
X190957177Y-182144928D02*
X188567702Y-183336276D01*
X190948227Y-182149390D02*
X190948227Y-182149390D01*
X188567702Y-183336276D02*
X190957177Y-182144928D01*
X188688150Y-183600269D02*
X185233703Y-185322593D01*
X188688150Y-183600269D02*
X188866629Y-183958243D01*
X187685823Y-184100011D02*
X188688150Y-183600269D01*
X188701561Y-183604756D02*
X188478462Y-183157289D01*
X188866629Y-183958243D02*
X187864303Y-184457984D01*
X187864303Y-184457984D02*
X187685823Y-184100011D01*
X183841566Y-182530397D02*
G75*
G03*
X185233703Y-185322593I696069J-1396098D01*
G01*
X224535392Y-174122096D02*
X225739520Y-174122096D01*
X224535392Y-175942096D02*
X225739520Y-175942096D01*
X214585956Y-173584844D02*
X214585956Y-175007348D01*
X212765956Y-173584844D02*
X212765956Y-175007348D01*
X167265956Y-163073160D02*
X167265956Y-161619032D01*
X169085956Y-163073160D02*
X169085956Y-161619032D01*
X228945956Y-140566096D02*
X230275956Y-140566096D01*
X228945956Y-141896096D02*
X228945956Y-140566096D01*
X228945956Y-143166096D02*
X228945956Y-143226096D01*
X228945956Y-143166096D02*
X231605956Y-143166096D01*
X228945956Y-143226096D02*
X231605956Y-143226096D01*
X231605956Y-143166096D02*
X231605956Y-143226096D01*
X178165956Y-172769848D02*
X178165956Y-171347344D01*
X179985956Y-172769848D02*
X179985956Y-171347344D01*
X194545956Y-94766096D02*
X195875956Y-94766096D01*
X194545956Y-96096096D02*
X194545956Y-94766096D01*
X194545956Y-97366096D02*
X194545956Y-97426096D01*
X194545956Y-97366096D02*
X197205956Y-97366096D01*
X194545956Y-97426096D02*
X197205956Y-97426096D01*
X197205956Y-97366096D02*
X197205956Y-97426096D01*
X233345956Y-94966096D02*
X234675956Y-94966096D01*
X233345956Y-96296096D02*
X233345956Y-94966096D01*
X233345956Y-97566096D02*
X233345956Y-97626096D01*
X233345956Y-97566096D02*
X236005956Y-97566096D01*
X233345956Y-97626096D02*
X236005956Y-97626096D01*
X236005956Y-97566096D02*
X236005956Y-97626096D01*
%LPC*%
D15*
X207793479Y-184755761D03*
D16*
X203817108Y-184192314D03*
D17*
X204950450Y-181919181D03*
D18*
X227275956Y-110496096D03*
D19*
X224735956Y-110496096D03*
D20*
X172475956Y-96096096D03*
D21*
X206475956Y-103571096D03*
X206475956Y-106696096D03*
D22*
X207737500Y-150600000D03*
X210862500Y-150600000D03*
D23*
X197475956Y-169796096D03*
X197475956Y-166696096D03*
D24*
X203075956Y-119621096D03*
X203075956Y-116496096D03*
X206025956Y-119621096D03*
X206025956Y-116496096D03*
D15*
X195432927Y-184732676D03*
D25*
X198275956Y-181896096D03*
D17*
X199409298Y-184169229D03*
D15*
X233215156Y-170516896D03*
D26*
X231945156Y-166706896D03*
D17*
X234485156Y-166706896D03*
D27*
X194225956Y-174421096D03*
X192325956Y-174421096D03*
X193275956Y-176296096D03*
D28*
X164275956Y-107046096D03*
X164275956Y-109096096D03*
D21*
X192100000Y-167837500D03*
X192100000Y-170962500D03*
D15*
X238605956Y-164306096D03*
D26*
X237335956Y-160496096D03*
D17*
X239875956Y-160496096D03*
D29*
X189825957Y-119432746D03*
X190475956Y-119432746D03*
X191125955Y-119432746D03*
X191125955Y-117159446D03*
X190475956Y-117159446D03*
X189825957Y-117159446D03*
D30*
X197775956Y-178696096D03*
X194675956Y-178696096D03*
D31*
X184325956Y-106896096D03*
D19*
X186865956Y-106896096D03*
X189405956Y-106896096D03*
X191945956Y-106896096D03*
X194485956Y-106896096D03*
X197025956Y-106896096D03*
D20*
X162700000Y-147756096D03*
D19*
X162700000Y-150296096D03*
X162700000Y-152836096D03*
X162700000Y-155376096D03*
X162700000Y-157916096D03*
D29*
X183825957Y-119432746D03*
X184475956Y-119432746D03*
X185125955Y-119432746D03*
X185125955Y-117159446D03*
X184475956Y-117159446D03*
X183825957Y-117159446D03*
D32*
X220638456Y-116096096D03*
X217513456Y-116096096D03*
D33*
X233595956Y-148746096D03*
X242155956Y-148746096D03*
D30*
X181050000Y-151600000D03*
X177950000Y-151600000D03*
D27*
X205975956Y-174496096D03*
X204075956Y-174496096D03*
X205025956Y-176371096D03*
D28*
X166915956Y-107046096D03*
X166915956Y-109096096D03*
D27*
X172025956Y-160821096D03*
X170125956Y-160821096D03*
X171075956Y-162696096D03*
D22*
X211137500Y-145700000D03*
X214262500Y-145700000D03*
D21*
X199675956Y-116533596D03*
X199675956Y-119658596D03*
D33*
X233595956Y-144496096D03*
X242155956Y-144496096D03*
X233595956Y-152946096D03*
X242155956Y-152946096D03*
D34*
X201475956Y-104170096D03*
D20*
X176475956Y-96096096D03*
D35*
X175475956Y-110786096D03*
X178575956Y-110786096D03*
D21*
X194700000Y-167837500D03*
X194700000Y-170962500D03*
D15*
X215398327Y-182307143D03*
D16*
X211421956Y-181743696D03*
D17*
X212555298Y-179470563D03*
D35*
X225850000Y-145200000D03*
X228950000Y-145200000D03*
D21*
X196725956Y-116533596D03*
X196725956Y-119658596D03*
D24*
X181875956Y-173621096D03*
X181875956Y-170496096D03*
D35*
X175475956Y-105096096D03*
X178575956Y-105096096D03*
D36*
X173725956Y-117896096D03*
X173725956Y-135896096D03*
D23*
X200075956Y-169796096D03*
X200075956Y-166696096D03*
D35*
X225850000Y-148800000D03*
X228950000Y-148800000D03*
D24*
X176275956Y-173658596D03*
X176275956Y-170533596D03*
D37*
X239884956Y-108122096D03*
X239884956Y-103296096D03*
X239884956Y-98470096D03*
D38*
X197175000Y-151600000D03*
X197175000Y-152100000D03*
X197175000Y-152600000D03*
X197175000Y-153100000D03*
X197175000Y-153600000D03*
X197175000Y-154100000D03*
X197175000Y-154600000D03*
X197175000Y-155100000D03*
X197175000Y-155600000D03*
X197175000Y-156100000D03*
X197175000Y-156600000D03*
X197175000Y-157100000D03*
D39*
X198587500Y-158512500D03*
X199087500Y-158512500D03*
X199587500Y-158512500D03*
X200087500Y-158512500D03*
X200587500Y-158512500D03*
X201087500Y-158512500D03*
X201587500Y-158512500D03*
X202087500Y-158512500D03*
X202587500Y-158512500D03*
X203087500Y-158512500D03*
X203587500Y-158512500D03*
X204087500Y-158512500D03*
D38*
X205500000Y-157100000D03*
X205500000Y-156600000D03*
X205500000Y-156100000D03*
X205500000Y-155600000D03*
X205500000Y-155100000D03*
X205500000Y-154600000D03*
X205500000Y-154100000D03*
X205500000Y-153600000D03*
X205500000Y-153100000D03*
X205500000Y-152600000D03*
X205500000Y-152100000D03*
X205500000Y-151600000D03*
D39*
X204087500Y-150187500D03*
X203587500Y-150187500D03*
X203087500Y-150187500D03*
X202587500Y-150187500D03*
X202087500Y-150187500D03*
X201587500Y-150187500D03*
X201087500Y-150187500D03*
X200587500Y-150187500D03*
X200087500Y-150187500D03*
X199587500Y-150187500D03*
X199087500Y-150187500D03*
X198587500Y-150187500D03*
D40*
X187475956Y-171896096D03*
X187475956Y-170596096D03*
D33*
X180595956Y-96496096D03*
X189155956Y-96496096D03*
D41*
X226475956Y-103296096D03*
X226475956Y-100756096D03*
D42*
X220446956Y-105328096D03*
X220446956Y-103296096D03*
X220446956Y-101264096D03*
X220446956Y-99232096D03*
X220446956Y-97200096D03*
X218414956Y-105328096D03*
X218414956Y-103296096D03*
X218414956Y-101264096D03*
X218414956Y-99232096D03*
X218414956Y-97200096D03*
D43*
X217325956Y-100756096D03*
D42*
X216382956Y-105328096D03*
X216382956Y-103296096D03*
X216382956Y-101264096D03*
X216382956Y-99232096D03*
X216382956Y-97200096D03*
X214350956Y-105328096D03*
X214350956Y-103296096D03*
X214350956Y-101264096D03*
X214350956Y-99232096D03*
X214350956Y-97200096D03*
D41*
X226475956Y-98216096D03*
D15*
X170324756Y-170389896D03*
D26*
X169054756Y-166579896D03*
D17*
X171594756Y-166579896D03*
D44*
X235200956Y-156346096D03*
X235200956Y-158246096D03*
X237075956Y-157296096D03*
D21*
X209675956Y-103571096D03*
X209675956Y-106696096D03*
D36*
X229113456Y-135896096D03*
X229113456Y-117896096D03*
D31*
X180529356Y-142370296D03*
D45*
X184375956Y-136171096D03*
D19*
X183069356Y-142370296D03*
D45*
X185375956Y-136171096D03*
D19*
X185609356Y-142370296D03*
D45*
X186375956Y-136171096D03*
X187375956Y-136171096D03*
D19*
X188149356Y-142370296D03*
D45*
X188375956Y-136171096D03*
D19*
X190689356Y-142370296D03*
D45*
X189375956Y-136171096D03*
D19*
X193229356Y-142370296D03*
D46*
X183075956Y-138696096D03*
X190675956Y-138696096D03*
D23*
X208475956Y-176396096D03*
X208475956Y-173296096D03*
D34*
X201475956Y-96296096D03*
D22*
X213337500Y-150600000D03*
X216462500Y-150600000D03*
D20*
X162675956Y-144096096D03*
D23*
X232875956Y-159646096D03*
X232875956Y-156546096D03*
D47*
X208075956Y-99678475D03*
D48*
X208075956Y-97178475D03*
D49*
X234075956Y-101896096D03*
D48*
X231575956Y-101896096D03*
D22*
X213337500Y-148200000D03*
X216462500Y-148200000D03*
D23*
X210275956Y-169896096D03*
X210275956Y-166796096D03*
D35*
X225850000Y-152400000D03*
X228950000Y-152400000D03*
D34*
X201675956Y-187543096D03*
D30*
X242475956Y-157296096D03*
X239375956Y-157296096D03*
X199275956Y-176096096D03*
X196175956Y-176096096D03*
D22*
X207737500Y-148200000D03*
X210862500Y-148200000D03*
D21*
X219075956Y-172733596D03*
X219075956Y-175858596D03*
D49*
X167475956Y-100896096D03*
D48*
X163475956Y-100896096D03*
D31*
X184325956Y-102071096D03*
D19*
X186865956Y-102071096D03*
X189405956Y-102071096D03*
X191945956Y-102071096D03*
X194485956Y-102071096D03*
X197025956Y-102071096D03*
D35*
X185300000Y-154600000D03*
X188400000Y-154600000D03*
D50*
X220663556Y-110446097D03*
X220663556Y-108546095D03*
X218275956Y-109496096D03*
D35*
X175475956Y-107896096D03*
X178575956Y-107896096D03*
D15*
X164405956Y-164706096D03*
D26*
X163135956Y-160896096D03*
D17*
X165675956Y-160896096D03*
D23*
X174800000Y-163850000D03*
X174800000Y-160750000D03*
D31*
X209529356Y-142370296D03*
D45*
X213375956Y-136171096D03*
D19*
X212069356Y-142370296D03*
D45*
X214375956Y-136171096D03*
D19*
X214609356Y-142370296D03*
D45*
X215375956Y-136171096D03*
X216375956Y-136171096D03*
D19*
X217149356Y-142370296D03*
D45*
X217375956Y-136171096D03*
D19*
X219689356Y-142370296D03*
D45*
X218375956Y-136171096D03*
D19*
X222229356Y-142370296D03*
D46*
X212075956Y-138696096D03*
X219675956Y-138696096D03*
D51*
X185125000Y-151700000D03*
X183075000Y-151700000D03*
D23*
X207475956Y-169896096D03*
X207475956Y-166796096D03*
D52*
X171075956Y-150166096D03*
D53*
X169805956Y-150166096D03*
X171075956Y-148896096D03*
X169805956Y-148896096D03*
X171075956Y-147626096D03*
X169805956Y-147626096D03*
X171075956Y-146356096D03*
X169805956Y-146356096D03*
X171075956Y-145086096D03*
X169805956Y-145086096D03*
D21*
X216475956Y-172733596D03*
X216475956Y-175858596D03*
D34*
X201675956Y-179669096D03*
D28*
X161675956Y-107046096D03*
X161675956Y-109096096D03*
D24*
X184675956Y-173621096D03*
X184675956Y-170496096D03*
D35*
X205375956Y-179096096D03*
X208475956Y-179096096D03*
D54*
X197675956Y-135046096D03*
X197675956Y-135696096D03*
X197675956Y-136346096D03*
X197675956Y-136996096D03*
X197675956Y-137646096D03*
X197675956Y-138296096D03*
X197675956Y-138946096D03*
X197675956Y-139596096D03*
X197675956Y-140246096D03*
X197675956Y-140896096D03*
X197675956Y-141546096D03*
X197675956Y-142196096D03*
X204875956Y-142196096D03*
X204875956Y-141546096D03*
X204875956Y-140896096D03*
X204875956Y-140246096D03*
X204875956Y-139596096D03*
X204875956Y-138946096D03*
X204875956Y-138296096D03*
X204875956Y-137646096D03*
X204875956Y-136996096D03*
X204875956Y-136346096D03*
X204875956Y-135696096D03*
X204875956Y-135046096D03*
D15*
X187938385Y-182230943D03*
D25*
X190781414Y-179394363D03*
D17*
X191914756Y-181667496D03*
D55*
X223649956Y-175032096D03*
X226624956Y-175032096D03*
D21*
X213675956Y-172733596D03*
X213675956Y-175858596D03*
D23*
X168175956Y-163896096D03*
X168175956Y-160796096D03*
D20*
X230275956Y-141896096D03*
D24*
X179075956Y-173621096D03*
X179075956Y-170496096D03*
D20*
X195875956Y-96096096D03*
X234675956Y-96296096D03*
%LPD*%
M02*
