G04 #@! TF.GenerationSoftware,KiCad,Pcbnew,7.0.8*
G04 #@! TF.CreationDate,2024-08-07T19:44:42-07:00*
G04 #@! TF.ProjectId,bloo,626c6f6f-2e6b-4696-9361-645f70636258,rev?*
G04 #@! TF.SameCoordinates,Original*
G04 #@! TF.FileFunction,Paste,Top*
G04 #@! TF.FilePolarity,Positive*
%FSLAX46Y46*%
G04 Gerber Fmt 4.6, Leading zero omitted, Abs format (unit mm)*
G04 Created by KiCad (PCBNEW 7.0.8) date 2024-08-07 19:44:42*
%MOMM*%
%LPD*%
G01*
G04 APERTURE LIST*
G04 Aperture macros list*
%AMRoundRect*
0 Rectangle with rounded corners*
0 $1 Rounding radius*
0 $2 $3 $4 $5 $6 $7 $8 $9 X,Y pos of 4 corners*
0 Add a 4 corners polygon primitive as box body*
4,1,4,$2,$3,$4,$5,$6,$7,$8,$9,$2,$3,0*
0 Add four circle primitives for the rounded corners*
1,1,$1+$1,$2,$3*
1,1,$1+$1,$4,$5*
1,1,$1+$1,$6,$7*
1,1,$1+$1,$8,$9*
0 Add four rect primitives between the rounded corners*
20,1,$1+$1,$2,$3,$4,$5,0*
20,1,$1+$1,$4,$5,$6,$7,0*
20,1,$1+$1,$6,$7,$8,$9,0*
20,1,$1+$1,$8,$9,$2,$3,0*%
G04 Aperture macros list end*
%ADD10RoundRect,0.250000X-0.450000X0.325000X-0.450000X-0.325000X0.450000X-0.325000X0.450000X0.325000X0*%
%ADD11R,2.500000X2.000000*%
%ADD12RoundRect,0.150000X-0.150000X0.587500X-0.150000X-0.587500X0.150000X-0.587500X0.150000X0.587500X0*%
%ADD13RoundRect,0.250000X-0.400000X-0.625000X0.400000X-0.625000X0.400000X0.625000X-0.400000X0.625000X0*%
%ADD14R,0.508000X0.508000*%
%ADD15RoundRect,0.250000X-0.650000X0.412500X-0.650000X-0.412500X0.650000X-0.412500X0.650000X0.412500X0*%
%ADD16RoundRect,0.250000X0.625000X-0.400000X0.625000X0.400000X-0.625000X0.400000X-0.625000X-0.400000X0*%
%ADD17RoundRect,0.250000X0.650000X-0.412500X0.650000X0.412500X-0.650000X0.412500X-0.650000X-0.412500X0*%
%ADD18RoundRect,0.250000X0.400000X0.625000X-0.400000X0.625000X-0.400000X-0.625000X0.400000X-0.625000X0*%
%ADD19RoundRect,0.150000X0.150000X0.625000X-0.150000X0.625000X-0.150000X-0.625000X0.150000X-0.625000X0*%
%ADD20RoundRect,0.250000X0.350000X0.650000X-0.350000X0.650000X-0.350000X-0.650000X0.350000X-0.650000X0*%
%ADD21R,0.355600X0.850900*%
%ADD22R,4.550000X5.250000*%
%ADD23R,4.600000X1.100000*%
%ADD24RoundRect,0.250001X-0.462499X-0.624999X0.462499X-0.624999X0.462499X0.624999X-0.462499X0.624999X0*%
%ADD25R,1.750000X0.450000*%
%ADD26RoundRect,0.250000X0.412500X0.650000X-0.412500X0.650000X-0.412500X-0.650000X0.412500X-0.650000X0*%
%ADD27RoundRect,0.150000X-0.587500X-0.150000X0.587500X-0.150000X0.587500X0.150000X-0.587500X0.150000X0*%
G04 APERTURE END LIST*
D10*
X169600000Y-110950000D03*
X169600000Y-113000000D03*
D11*
X185920000Y-100400000D03*
X194480000Y-100400000D03*
X238920000Y-152650000D03*
X247480000Y-152650000D03*
D12*
X211300000Y-178400000D03*
X209400000Y-178400000D03*
X210350000Y-180275000D03*
D11*
X238920000Y-148400000D03*
X247480000Y-148400000D03*
D13*
X210700000Y-183000000D03*
X213800000Y-183000000D03*
D14*
X225987600Y-114350001D03*
X225987600Y-112449999D03*
X223600000Y-113400000D03*
D15*
X215000000Y-107475000D03*
X215000000Y-110600000D03*
D16*
X202800000Y-173700000D03*
X202800000Y-170600000D03*
D17*
X187200000Y-177525000D03*
X187200000Y-174400000D03*
D12*
X177350000Y-164725000D03*
X175450000Y-164725000D03*
X176400000Y-166600000D03*
D18*
X203100000Y-182600000D03*
X200000000Y-182600000D03*
D12*
X199550000Y-178325000D03*
X197650000Y-178325000D03*
X198600000Y-180200000D03*
D15*
X211800000Y-107475000D03*
X211800000Y-110600000D03*
D13*
X180800000Y-109000000D03*
X183900000Y-109000000D03*
X180800000Y-114690000D03*
X183900000Y-114690000D03*
X180800000Y-111800000D03*
X183900000Y-111800000D03*
D15*
X224400000Y-176637500D03*
X224400000Y-179762500D03*
D18*
X247800000Y-161200000D03*
X244700000Y-161200000D03*
D17*
X208400000Y-123525000D03*
X208400000Y-120400000D03*
X211350000Y-123525000D03*
X211350000Y-120400000D03*
X190000000Y-177525000D03*
X190000000Y-174400000D03*
D19*
X218700000Y-140075000D03*
X219700000Y-140075000D03*
X220700000Y-140075000D03*
X221700000Y-140075000D03*
X222700000Y-140075000D03*
X223700000Y-140075000D03*
D20*
X217400000Y-142600000D03*
X225000000Y-142600000D03*
D21*
X195150001Y-123336650D03*
X195800000Y-123336650D03*
X196449999Y-123336650D03*
X196449999Y-121063350D03*
X195800000Y-121063350D03*
X195150001Y-121063350D03*
X189150001Y-123336650D03*
X189800000Y-123336650D03*
X190449999Y-123336650D03*
X190449999Y-121063350D03*
X189800000Y-121063350D03*
X189150001Y-121063350D03*
D15*
X205000000Y-120437500D03*
X205000000Y-123562500D03*
D16*
X215600000Y-173800000D03*
X215600000Y-170700000D03*
D15*
X219000000Y-176637500D03*
X219000000Y-179762500D03*
D22*
X225075000Y-107435000D03*
X225075000Y-101885000D03*
X220225000Y-107435000D03*
X220225000Y-101885000D03*
D23*
X231800000Y-107200000D03*
X231800000Y-104660000D03*
X231800000Y-102120000D03*
D24*
X228974000Y-178936000D03*
X231949000Y-178936000D03*
D16*
X173500000Y-167800000D03*
X173500000Y-164700000D03*
D25*
X203000000Y-138950000D03*
X203000000Y-139600000D03*
X203000000Y-140250000D03*
X203000000Y-140900000D03*
X203000000Y-141550000D03*
X203000000Y-142200000D03*
X203000000Y-142850000D03*
X203000000Y-143500000D03*
X203000000Y-144150000D03*
X203000000Y-144800000D03*
X203000000Y-145450000D03*
X203000000Y-146100000D03*
X210200000Y-146100000D03*
X210200000Y-145450000D03*
X210200000Y-144800000D03*
X210200000Y-144150000D03*
X210200000Y-143500000D03*
X210200000Y-142850000D03*
X210200000Y-142200000D03*
X210200000Y-141550000D03*
X210200000Y-140900000D03*
X210200000Y-140250000D03*
X210200000Y-139600000D03*
X210200000Y-138950000D03*
D17*
X181600000Y-177562500D03*
X181600000Y-174437500D03*
D10*
X172240000Y-110950000D03*
X172240000Y-113000000D03*
D19*
X189700000Y-140075000D03*
X190700000Y-140075000D03*
X191700000Y-140075000D03*
X192700000Y-140075000D03*
X193700000Y-140075000D03*
X194700000Y-140075000D03*
D20*
X188400000Y-142600000D03*
X196000000Y-142600000D03*
D26*
X225962500Y-120000000D03*
X222837500Y-120000000D03*
D16*
X213800000Y-180300000D03*
X213800000Y-177200000D03*
D27*
X240525000Y-160250000D03*
X240525000Y-162150000D03*
X242400000Y-161200000D03*
D15*
X221800000Y-176637500D03*
X221800000Y-179762500D03*
D16*
X238200000Y-163550000D03*
X238200000Y-160450000D03*
D15*
X202050000Y-120437500D03*
X202050000Y-123562500D03*
D18*
X204600000Y-180000000D03*
X201500000Y-180000000D03*
D16*
X205400000Y-173700000D03*
X205400000Y-170600000D03*
D10*
X167000000Y-110950000D03*
X167000000Y-113000000D03*
D16*
X212800000Y-173800000D03*
X212800000Y-170700000D03*
D17*
X184400000Y-177525000D03*
X184400000Y-174400000D03*
D11*
X238920000Y-156850000D03*
X247480000Y-156850000D03*
M02*
