G04 #@! TF.GenerationSoftware,KiCad,Pcbnew,7.0.8*
G04 #@! TF.CreationDate,2024-08-07T19:44:42-07:00*
G04 #@! TF.ProjectId,bloo,626c6f6f-2e6b-4696-9361-645f70636258,rev?*
G04 #@! TF.SameCoordinates,Original*
G04 #@! TF.FileFunction,Paste,Bot*
G04 #@! TF.FilePolarity,Positive*
%FSLAX46Y46*%
G04 Gerber Fmt 4.6, Leading zero omitted, Abs format (unit mm)*
G04 Created by KiCad (PCBNEW 7.0.8) date 2024-08-07 19:44:42*
%MOMM*%
%LPD*%
G01*
G04 APERTURE LIST*
G04 Aperture macros list*
%AMRoundRect*
0 Rectangle with rounded corners*
0 $1 Rounding radius*
0 $2 $3 $4 $5 $6 $7 $8 $9 X,Y pos of 4 corners*
0 Add a 4 corners polygon primitive as box body*
4,1,4,$2,$3,$4,$5,$6,$7,$8,$9,$2,$3,0*
0 Add four circle primitives for the rounded corners*
1,1,$1+$1,$2,$3*
1,1,$1+$1,$4,$5*
1,1,$1+$1,$6,$7*
1,1,$1+$1,$8,$9*
0 Add four rect primitives between the rounded corners*
20,1,$1+$1,$2,$3,$4,$5,0*
20,1,$1+$1,$4,$5,$6,$7,0*
20,1,$1+$1,$6,$7,$8,$9,0*
20,1,$1+$1,$8,$9,$2,$3,0*%
G04 Aperture macros list end*
%ADD10RoundRect,0.250000X-0.625000X0.400000X-0.625000X-0.400000X0.625000X-0.400000X0.625000X0.400000X0*%
%ADD11RoundRect,0.250000X0.625000X-0.400000X0.625000X0.400000X-0.625000X0.400000X-0.625000X-0.400000X0*%
%ADD12RoundRect,0.237500X0.250000X0.237500X-0.250000X0.237500X-0.250000X-0.237500X0.250000X-0.237500X0*%
%ADD13RoundRect,0.250000X0.650000X-0.412500X0.650000X0.412500X-0.650000X0.412500X-0.650000X-0.412500X0*%
%ADD14RoundRect,0.250000X-0.412500X-0.650000X0.412500X-0.650000X0.412500X0.650000X-0.412500X0.650000X0*%
%ADD15RoundRect,0.250000X0.412500X0.650000X-0.412500X0.650000X-0.412500X-0.650000X0.412500X-0.650000X0*%
%ADD16RoundRect,0.150000X0.150000X-0.587500X0.150000X0.587500X-0.150000X0.587500X-0.150000X-0.587500X0*%
%ADD17RoundRect,0.237500X-0.237500X0.300000X-0.237500X-0.300000X0.237500X-0.300000X0.237500X0.300000X0*%
%ADD18RoundRect,0.250000X0.400000X0.625000X-0.400000X0.625000X-0.400000X-0.625000X0.400000X-0.625000X0*%
%ADD19RoundRect,0.150000X0.150000X-0.512500X0.150000X0.512500X-0.150000X0.512500X-0.150000X-0.512500X0*%
%ADD20RoundRect,0.250000X-0.650000X0.412500X-0.650000X-0.412500X0.650000X-0.412500X0.650000X0.412500X0*%
G04 APERTURE END LIST*
D10*
X198000000Y-158400000D03*
X198000000Y-161500000D03*
D11*
X178400000Y-111950000D03*
X178400000Y-108850000D03*
D12*
X220200000Y-149400000D03*
X218375000Y-149400000D03*
D13*
X240200000Y-113362500D03*
X240200000Y-110237500D03*
D14*
X174475000Y-162000000D03*
X177600000Y-162000000D03*
D15*
X229362500Y-173200000D03*
X226237500Y-173200000D03*
D11*
X195200000Y-161500000D03*
X195200000Y-158400000D03*
D16*
X179350000Y-106475000D03*
X177450000Y-106475000D03*
X178400000Y-104600000D03*
D17*
X192200000Y-114075000D03*
X192200000Y-115800000D03*
D18*
X172350000Y-107800000D03*
X169250000Y-107800000D03*
D19*
X231550000Y-178137500D03*
X230600000Y-178137500D03*
X229650000Y-178137500D03*
X229650000Y-175862500D03*
X231550000Y-175862500D03*
D20*
X237600000Y-110237500D03*
X237600000Y-113362500D03*
D10*
X189400000Y-158400000D03*
X189400000Y-161500000D03*
D18*
X203350000Y-149400000D03*
X200250000Y-149400000D03*
D10*
X223200000Y-158500000D03*
X223200000Y-161600000D03*
D11*
X192200000Y-161500000D03*
X192200000Y-158400000D03*
X202800000Y-161500000D03*
X202800000Y-158400000D03*
D12*
X215512500Y-149400000D03*
X213687500Y-149400000D03*
D17*
X194800000Y-114075000D03*
X194800000Y-115800000D03*
M02*
