G04 #@! TF.GenerationSoftware,KiCad,Pcbnew,7.0.8*
G04 #@! TF.CreationDate,2024-08-07T19:44:42-07:00*
G04 #@! TF.ProjectId,bloo,626c6f6f-2e6b-4696-9361-645f70636258,rev?*
G04 #@! TF.SameCoordinates,Original*
G04 #@! TF.FileFunction,Legend,Bot*
G04 #@! TF.FilePolarity,Positive*
%FSLAX46Y46*%
G04 Gerber Fmt 4.6, Leading zero omitted, Abs format (unit mm)*
G04 Created by KiCad (PCBNEW 7.0.8) date 2024-08-07 19:44:42*
%MOMM*%
%LPD*%
G01*
G04 APERTURE LIST*
G04 Aperture macros list*
%AMRoundRect*
0 Rectangle with rounded corners*
0 $1 Rounding radius*
0 $2 $3 $4 $5 $6 $7 $8 $9 X,Y pos of 4 corners*
0 Add a 4 corners polygon primitive as box body*
4,1,4,$2,$3,$4,$5,$6,$7,$8,$9,$2,$3,0*
0 Add four circle primitives for the rounded corners*
1,1,$1+$1,$2,$3*
1,1,$1+$1,$4,$5*
1,1,$1+$1,$6,$7*
1,1,$1+$1,$8,$9*
0 Add four rect primitives between the rounded corners*
20,1,$1+$1,$2,$3,$4,$5,0*
20,1,$1+$1,$4,$5,$6,$7,0*
20,1,$1+$1,$6,$7,$8,$9,0*
20,1,$1+$1,$8,$9,$2,$3,0*%
G04 Aperture macros list end*
%ADD10C,0.200000*%
%ADD11C,0.300000*%
%ADD12C,0.150000*%
%ADD13C,0.120000*%
%ADD14RoundRect,0.200000X0.800000X0.800000X-0.800000X0.800000X-0.800000X-0.800000X0.800000X-0.800000X0*%
%ADD15C,2.000000*%
%ADD16C,2.400000*%
%ADD17RoundRect,0.200000X0.403863X-1.207019X1.207019X0.403863X-0.403863X1.207019X-1.207019X-0.403863X0*%
%ADD18C,2.200000*%
%ADD19RoundRect,0.200000X-1.207019X0.403863X-0.403863X-1.207019X1.207019X-0.403863X0.403863X1.207019X0*%
%ADD20RoundRect,0.200000X-0.850000X-0.850000X0.850000X-0.850000X0.850000X0.850000X-0.850000X0.850000X0*%
%ADD21RoundRect,0.200000X-0.850000X0.850000X-0.850000X-0.850000X0.850000X-0.850000X0.850000X0.850000X0*%
%ADD22O,2.100000X2.100000*%
%ADD23RoundRect,0.200000X0.850000X-0.850000X0.850000X0.850000X-0.850000X0.850000X-0.850000X-0.850000X0*%
%ADD24C,2.100000*%
%ADD25C,2.600000*%
%ADD26C,2.584400*%
%ADD27RoundRect,0.200000X-0.900000X-0.900000X0.900000X-0.900000X0.900000X0.900000X-0.900000X0.900000X0*%
%ADD28C,1.924000*%
%ADD29RoundRect,0.200000X0.500000X0.500000X-0.500000X0.500000X-0.500000X-0.500000X0.500000X-0.500000X0*%
%ADD30O,1.400000X1.400000*%
%ADD31C,3.400000*%
%ADD32RoundRect,0.200000X0.800000X-0.800000X0.800000X0.800000X-0.800000X0.800000X-0.800000X-0.800000X0*%
%ADD33RoundRect,0.450000X-0.625000X0.400000X-0.625000X-0.400000X0.625000X-0.400000X0.625000X0.400000X0*%
%ADD34RoundRect,0.450000X0.625000X-0.400000X0.625000X0.400000X-0.625000X0.400000X-0.625000X-0.400000X0*%
%ADD35RoundRect,0.437500X0.250000X0.237500X-0.250000X0.237500X-0.250000X-0.237500X0.250000X-0.237500X0*%
%ADD36RoundRect,0.450000X0.650000X-0.412500X0.650000X0.412500X-0.650000X0.412500X-0.650000X-0.412500X0*%
%ADD37RoundRect,0.450000X-0.412500X-0.650000X0.412500X-0.650000X0.412500X0.650000X-0.412500X0.650000X0*%
%ADD38RoundRect,0.450000X0.412500X0.650000X-0.412500X0.650000X-0.412500X-0.650000X0.412500X-0.650000X0*%
%ADD39RoundRect,0.200000X-0.750000X0.500000X-0.750000X-0.500000X0.750000X-0.500000X0.750000X0.500000X0*%
%ADD40RoundRect,0.200000X-0.500000X-0.750000X0.500000X-0.750000X0.500000X0.750000X-0.500000X0.750000X0*%
%ADD41RoundRect,0.350000X0.150000X-0.587500X0.150000X0.587500X-0.150000X0.587500X-0.150000X-0.587500X0*%
%ADD42RoundRect,0.437500X-0.237500X0.300000X-0.237500X-0.300000X0.237500X-0.300000X0.237500X0.300000X0*%
%ADD43RoundRect,0.450000X0.400000X0.625000X-0.400000X0.625000X-0.400000X-0.625000X0.400000X-0.625000X0*%
%ADD44RoundRect,0.350000X0.150000X-0.512500X0.150000X0.512500X-0.150000X0.512500X-0.150000X-0.512500X0*%
%ADD45RoundRect,0.450000X-0.650000X0.412500X-0.650000X-0.412500X0.650000X-0.412500X0.650000X0.412500X0*%
G04 APERTURE END LIST*
D10*
X217200000Y-128065060D02*
X197499760Y-128065060D01*
X197515000Y-120445060D02*
X217235560Y-120432360D01*
X217200000Y-120600000D02*
X217200000Y-128065060D01*
X197515000Y-128065060D02*
X197515000Y-120445060D01*
D11*
X199218571Y-127491731D02*
X199218571Y-126420302D01*
X199218571Y-126420302D02*
X199147142Y-126206017D01*
X199147142Y-126206017D02*
X199004285Y-126063160D01*
X199004285Y-126063160D02*
X198789999Y-125991731D01*
X198789999Y-125991731D02*
X198647142Y-125991731D01*
X199932856Y-126134588D02*
X200004285Y-126063160D01*
X200004285Y-126063160D02*
X199932856Y-125991731D01*
X199932856Y-125991731D02*
X199861428Y-126063160D01*
X199861428Y-126063160D02*
X199932856Y-126134588D01*
X199932856Y-126134588D02*
X199932856Y-125991731D01*
X202504285Y-125991731D02*
X201789999Y-125991731D01*
X201789999Y-125991731D02*
X201789999Y-127491731D01*
X203218571Y-125991731D02*
X203075714Y-126063160D01*
X203075714Y-126063160D02*
X203004285Y-126134588D01*
X203004285Y-126134588D02*
X202932857Y-126277445D01*
X202932857Y-126277445D02*
X202932857Y-126706017D01*
X202932857Y-126706017D02*
X203004285Y-126848874D01*
X203004285Y-126848874D02*
X203075714Y-126920302D01*
X203075714Y-126920302D02*
X203218571Y-126991731D01*
X203218571Y-126991731D02*
X203432857Y-126991731D01*
X203432857Y-126991731D02*
X203575714Y-126920302D01*
X203575714Y-126920302D02*
X203647143Y-126848874D01*
X203647143Y-126848874D02*
X203718571Y-126706017D01*
X203718571Y-126706017D02*
X203718571Y-126277445D01*
X203718571Y-126277445D02*
X203647143Y-126134588D01*
X203647143Y-126134588D02*
X203575714Y-126063160D01*
X203575714Y-126063160D02*
X203432857Y-125991731D01*
X203432857Y-125991731D02*
X203218571Y-125991731D01*
X204218571Y-126991731D02*
X204504286Y-125991731D01*
X204504286Y-125991731D02*
X204790000Y-126706017D01*
X204790000Y-126706017D02*
X205075714Y-125991731D01*
X205075714Y-125991731D02*
X205361428Y-126991731D01*
X206004286Y-126063160D02*
X206004286Y-125991731D01*
X206004286Y-125991731D02*
X205932857Y-125848874D01*
X205932857Y-125848874D02*
X205861429Y-125777445D01*
X207575715Y-127491731D02*
X208432858Y-127491731D01*
X208004286Y-125991731D02*
X208004286Y-127491731D01*
X208932857Y-126134588D02*
X209004286Y-126063160D01*
X209004286Y-126063160D02*
X208932857Y-125991731D01*
X208932857Y-125991731D02*
X208861429Y-126063160D01*
X208861429Y-126063160D02*
X208932857Y-126134588D01*
X208932857Y-126134588D02*
X208932857Y-125991731D01*
X210575715Y-127491731D02*
X211432858Y-127491731D01*
X211004286Y-125991731D02*
X211004286Y-127491731D01*
X212575715Y-125991731D02*
X212575715Y-126777445D01*
X212575715Y-126777445D02*
X212504286Y-126920302D01*
X212504286Y-126920302D02*
X212361429Y-126991731D01*
X212361429Y-126991731D02*
X212075715Y-126991731D01*
X212075715Y-126991731D02*
X211932857Y-126920302D01*
X212575715Y-126063160D02*
X212432857Y-125991731D01*
X212432857Y-125991731D02*
X212075715Y-125991731D01*
X212075715Y-125991731D02*
X211932857Y-126063160D01*
X211932857Y-126063160D02*
X211861429Y-126206017D01*
X211861429Y-126206017D02*
X211861429Y-126348874D01*
X211861429Y-126348874D02*
X211932857Y-126491731D01*
X211932857Y-126491731D02*
X212075715Y-126563160D01*
X212075715Y-126563160D02*
X212432857Y-126563160D01*
X212432857Y-126563160D02*
X212575715Y-126634588D01*
X213290000Y-126991731D02*
X213290000Y-125991731D01*
X213290000Y-126848874D02*
X213361429Y-126920302D01*
X213361429Y-126920302D02*
X213504286Y-126991731D01*
X213504286Y-126991731D02*
X213718572Y-126991731D01*
X213718572Y-126991731D02*
X213861429Y-126920302D01*
X213861429Y-126920302D02*
X213932858Y-126777445D01*
X213932858Y-126777445D02*
X213932858Y-125991731D01*
X215290001Y-126991731D02*
X215290001Y-125777445D01*
X215290001Y-125777445D02*
X215218572Y-125634588D01*
X215218572Y-125634588D02*
X215147143Y-125563160D01*
X215147143Y-125563160D02*
X215004286Y-125491731D01*
X215004286Y-125491731D02*
X214790001Y-125491731D01*
X214790001Y-125491731D02*
X214647143Y-125563160D01*
X215290001Y-126063160D02*
X215147143Y-125991731D01*
X215147143Y-125991731D02*
X214861429Y-125991731D01*
X214861429Y-125991731D02*
X214718572Y-126063160D01*
X214718572Y-126063160D02*
X214647143Y-126134588D01*
X214647143Y-126134588D02*
X214575715Y-126277445D01*
X214575715Y-126277445D02*
X214575715Y-126706017D01*
X214575715Y-126706017D02*
X214647143Y-126848874D01*
X214647143Y-126848874D02*
X214718572Y-126920302D01*
X214718572Y-126920302D02*
X214861429Y-126991731D01*
X214861429Y-126991731D02*
X215147143Y-126991731D01*
X215147143Y-126991731D02*
X215290001Y-126920302D01*
X203004285Y-123576731D02*
X203004285Y-125076731D01*
X203004285Y-125076731D02*
X203861428Y-123576731D01*
X203861428Y-123576731D02*
X203861428Y-125076731D01*
X204575714Y-123719588D02*
X204647143Y-123648160D01*
X204647143Y-123648160D02*
X204575714Y-123576731D01*
X204575714Y-123576731D02*
X204504286Y-123648160D01*
X204504286Y-123648160D02*
X204575714Y-123719588D01*
X204575714Y-123719588D02*
X204575714Y-123576731D01*
X206290000Y-125076731D02*
X206647143Y-123576731D01*
X206647143Y-123576731D02*
X206932857Y-124648160D01*
X206932857Y-124648160D02*
X207218572Y-123576731D01*
X207218572Y-123576731D02*
X207575715Y-125076731D01*
X208790001Y-123576731D02*
X208790001Y-124362445D01*
X208790001Y-124362445D02*
X208718572Y-124505302D01*
X208718572Y-124505302D02*
X208575715Y-124576731D01*
X208575715Y-124576731D02*
X208290001Y-124576731D01*
X208290001Y-124576731D02*
X208147143Y-124505302D01*
X208790001Y-123648160D02*
X208647143Y-123576731D01*
X208647143Y-123576731D02*
X208290001Y-123576731D01*
X208290001Y-123576731D02*
X208147143Y-123648160D01*
X208147143Y-123648160D02*
X208075715Y-123791017D01*
X208075715Y-123791017D02*
X208075715Y-123933874D01*
X208075715Y-123933874D02*
X208147143Y-124076731D01*
X208147143Y-124076731D02*
X208290001Y-124148160D01*
X208290001Y-124148160D02*
X208647143Y-124148160D01*
X208647143Y-124148160D02*
X208790001Y-124219588D01*
X209504286Y-123576731D02*
X209504286Y-124576731D01*
X209504286Y-124291017D02*
X209575715Y-124433874D01*
X209575715Y-124433874D02*
X209647144Y-124505302D01*
X209647144Y-124505302D02*
X209790001Y-124576731D01*
X209790001Y-124576731D02*
X209932858Y-124576731D01*
X211075715Y-123576731D02*
X211075715Y-125076731D01*
X211075715Y-123648160D02*
X210932857Y-123576731D01*
X210932857Y-123576731D02*
X210647143Y-123576731D01*
X210647143Y-123576731D02*
X210504286Y-123648160D01*
X210504286Y-123648160D02*
X210432857Y-123719588D01*
X210432857Y-123719588D02*
X210361429Y-123862445D01*
X210361429Y-123862445D02*
X210361429Y-124291017D01*
X210361429Y-124291017D02*
X210432857Y-124433874D01*
X210432857Y-124433874D02*
X210504286Y-124505302D01*
X210504286Y-124505302D02*
X210647143Y-124576731D01*
X210647143Y-124576731D02*
X210932857Y-124576731D01*
X210932857Y-124576731D02*
X211075715Y-124505302D01*
X200897144Y-122161731D02*
X201254287Y-121161731D01*
X201254287Y-121161731D02*
X201611430Y-122161731D01*
X202468573Y-122661731D02*
X202611430Y-122661731D01*
X202611430Y-122661731D02*
X202754287Y-122590302D01*
X202754287Y-122590302D02*
X202825716Y-122518874D01*
X202825716Y-122518874D02*
X202897144Y-122376017D01*
X202897144Y-122376017D02*
X202968573Y-122090302D01*
X202968573Y-122090302D02*
X202968573Y-121733160D01*
X202968573Y-121733160D02*
X202897144Y-121447445D01*
X202897144Y-121447445D02*
X202825716Y-121304588D01*
X202825716Y-121304588D02*
X202754287Y-121233160D01*
X202754287Y-121233160D02*
X202611430Y-121161731D01*
X202611430Y-121161731D02*
X202468573Y-121161731D01*
X202468573Y-121161731D02*
X202325716Y-121233160D01*
X202325716Y-121233160D02*
X202254287Y-121304588D01*
X202254287Y-121304588D02*
X202182858Y-121447445D01*
X202182858Y-121447445D02*
X202111430Y-121733160D01*
X202111430Y-121733160D02*
X202111430Y-122090302D01*
X202111430Y-122090302D02*
X202182858Y-122376017D01*
X202182858Y-122376017D02*
X202254287Y-122518874D01*
X202254287Y-122518874D02*
X202325716Y-122590302D01*
X202325716Y-122590302D02*
X202468573Y-122661731D01*
X203611429Y-121304588D02*
X203682858Y-121233160D01*
X203682858Y-121233160D02*
X203611429Y-121161731D01*
X203611429Y-121161731D02*
X203540001Y-121233160D01*
X203540001Y-121233160D02*
X203611429Y-121304588D01*
X203611429Y-121304588D02*
X203611429Y-121161731D01*
X204968573Y-122161731D02*
X204968573Y-121161731D01*
X204611430Y-122733160D02*
X204254287Y-121661731D01*
X204254287Y-121661731D02*
X205182858Y-121661731D01*
X207968572Y-122518874D02*
X208040000Y-122590302D01*
X208040000Y-122590302D02*
X208182858Y-122661731D01*
X208182858Y-122661731D02*
X208540000Y-122661731D01*
X208540000Y-122661731D02*
X208682858Y-122590302D01*
X208682858Y-122590302D02*
X208754286Y-122518874D01*
X208754286Y-122518874D02*
X208825715Y-122376017D01*
X208825715Y-122376017D02*
X208825715Y-122233160D01*
X208825715Y-122233160D02*
X208754286Y-122018874D01*
X208754286Y-122018874D02*
X207897143Y-121161731D01*
X207897143Y-121161731D02*
X208825715Y-121161731D01*
X209754286Y-122661731D02*
X209897143Y-122661731D01*
X209897143Y-122661731D02*
X210040000Y-122590302D01*
X210040000Y-122590302D02*
X210111429Y-122518874D01*
X210111429Y-122518874D02*
X210182857Y-122376017D01*
X210182857Y-122376017D02*
X210254286Y-122090302D01*
X210254286Y-122090302D02*
X210254286Y-121733160D01*
X210254286Y-121733160D02*
X210182857Y-121447445D01*
X210182857Y-121447445D02*
X210111429Y-121304588D01*
X210111429Y-121304588D02*
X210040000Y-121233160D01*
X210040000Y-121233160D02*
X209897143Y-121161731D01*
X209897143Y-121161731D02*
X209754286Y-121161731D01*
X209754286Y-121161731D02*
X209611429Y-121233160D01*
X209611429Y-121233160D02*
X209540000Y-121304588D01*
X209540000Y-121304588D02*
X209468571Y-121447445D01*
X209468571Y-121447445D02*
X209397143Y-121733160D01*
X209397143Y-121733160D02*
X209397143Y-122090302D01*
X209397143Y-122090302D02*
X209468571Y-122376017D01*
X209468571Y-122376017D02*
X209540000Y-122518874D01*
X209540000Y-122518874D02*
X209611429Y-122590302D01*
X209611429Y-122590302D02*
X209754286Y-122661731D01*
X210825714Y-122518874D02*
X210897142Y-122590302D01*
X210897142Y-122590302D02*
X211040000Y-122661731D01*
X211040000Y-122661731D02*
X211397142Y-122661731D01*
X211397142Y-122661731D02*
X211540000Y-122590302D01*
X211540000Y-122590302D02*
X211611428Y-122518874D01*
X211611428Y-122518874D02*
X211682857Y-122376017D01*
X211682857Y-122376017D02*
X211682857Y-122233160D01*
X211682857Y-122233160D02*
X211611428Y-122018874D01*
X211611428Y-122018874D02*
X210754285Y-121161731D01*
X210754285Y-121161731D02*
X211682857Y-121161731D01*
X212968571Y-122161731D02*
X212968571Y-121161731D01*
X212611428Y-122733160D02*
X212254285Y-121661731D01*
X212254285Y-121661731D02*
X213182856Y-121661731D01*
D12*
X198642857Y-163654819D02*
X198976190Y-163178628D01*
X199214285Y-163654819D02*
X199214285Y-162654819D01*
X199214285Y-162654819D02*
X198833333Y-162654819D01*
X198833333Y-162654819D02*
X198738095Y-162702438D01*
X198738095Y-162702438D02*
X198690476Y-162750057D01*
X198690476Y-162750057D02*
X198642857Y-162845295D01*
X198642857Y-162845295D02*
X198642857Y-162988152D01*
X198642857Y-162988152D02*
X198690476Y-163083390D01*
X198690476Y-163083390D02*
X198738095Y-163131009D01*
X198738095Y-163131009D02*
X198833333Y-163178628D01*
X198833333Y-163178628D02*
X199214285Y-163178628D01*
X198261904Y-162750057D02*
X198214285Y-162702438D01*
X198214285Y-162702438D02*
X198119047Y-162654819D01*
X198119047Y-162654819D02*
X197880952Y-162654819D01*
X197880952Y-162654819D02*
X197785714Y-162702438D01*
X197785714Y-162702438D02*
X197738095Y-162750057D01*
X197738095Y-162750057D02*
X197690476Y-162845295D01*
X197690476Y-162845295D02*
X197690476Y-162940533D01*
X197690476Y-162940533D02*
X197738095Y-163083390D01*
X197738095Y-163083390D02*
X198309523Y-163654819D01*
X198309523Y-163654819D02*
X197690476Y-163654819D01*
X197309523Y-162750057D02*
X197261904Y-162702438D01*
X197261904Y-162702438D02*
X197166666Y-162654819D01*
X197166666Y-162654819D02*
X196928571Y-162654819D01*
X196928571Y-162654819D02*
X196833333Y-162702438D01*
X196833333Y-162702438D02*
X196785714Y-162750057D01*
X196785714Y-162750057D02*
X196738095Y-162845295D01*
X196738095Y-162845295D02*
X196738095Y-162940533D01*
X196738095Y-162940533D02*
X196785714Y-163083390D01*
X196785714Y-163083390D02*
X197357142Y-163654819D01*
X197357142Y-163654819D02*
X196738095Y-163654819D01*
X178842857Y-114054819D02*
X179176190Y-113578628D01*
X179414285Y-114054819D02*
X179414285Y-113054819D01*
X179414285Y-113054819D02*
X179033333Y-113054819D01*
X179033333Y-113054819D02*
X178938095Y-113102438D01*
X178938095Y-113102438D02*
X178890476Y-113150057D01*
X178890476Y-113150057D02*
X178842857Y-113245295D01*
X178842857Y-113245295D02*
X178842857Y-113388152D01*
X178842857Y-113388152D02*
X178890476Y-113483390D01*
X178890476Y-113483390D02*
X178938095Y-113531009D01*
X178938095Y-113531009D02*
X179033333Y-113578628D01*
X179033333Y-113578628D02*
X179414285Y-113578628D01*
X177890476Y-114054819D02*
X178461904Y-114054819D01*
X178176190Y-114054819D02*
X178176190Y-113054819D01*
X178176190Y-113054819D02*
X178271428Y-113197676D01*
X178271428Y-113197676D02*
X178366666Y-113292914D01*
X178366666Y-113292914D02*
X178461904Y-113340533D01*
X177557142Y-113054819D02*
X176890476Y-113054819D01*
X176890476Y-113054819D02*
X177319047Y-114054819D01*
X220120833Y-148131009D02*
X220454166Y-148131009D01*
X220454166Y-148654819D02*
X220454166Y-147654819D01*
X220454166Y-147654819D02*
X219977976Y-147654819D01*
X219263690Y-148131009D02*
X219120833Y-148178628D01*
X219120833Y-148178628D02*
X219073214Y-148226247D01*
X219073214Y-148226247D02*
X219025595Y-148321485D01*
X219025595Y-148321485D02*
X219025595Y-148464342D01*
X219025595Y-148464342D02*
X219073214Y-148559580D01*
X219073214Y-148559580D02*
X219120833Y-148607200D01*
X219120833Y-148607200D02*
X219216071Y-148654819D01*
X219216071Y-148654819D02*
X219597023Y-148654819D01*
X219597023Y-148654819D02*
X219597023Y-147654819D01*
X219597023Y-147654819D02*
X219263690Y-147654819D01*
X219263690Y-147654819D02*
X219168452Y-147702438D01*
X219168452Y-147702438D02*
X219120833Y-147750057D01*
X219120833Y-147750057D02*
X219073214Y-147845295D01*
X219073214Y-147845295D02*
X219073214Y-147940533D01*
X219073214Y-147940533D02*
X219120833Y-148035771D01*
X219120833Y-148035771D02*
X219168452Y-148083390D01*
X219168452Y-148083390D02*
X219263690Y-148131009D01*
X219263690Y-148131009D02*
X219597023Y-148131009D01*
X218168452Y-147988152D02*
X218168452Y-148654819D01*
X218406547Y-147607200D02*
X218644642Y-148321485D01*
X218644642Y-148321485D02*
X218025595Y-148321485D01*
X240366666Y-115359580D02*
X240414285Y-115407200D01*
X240414285Y-115407200D02*
X240557142Y-115454819D01*
X240557142Y-115454819D02*
X240652380Y-115454819D01*
X240652380Y-115454819D02*
X240795237Y-115407200D01*
X240795237Y-115407200D02*
X240890475Y-115311961D01*
X240890475Y-115311961D02*
X240938094Y-115216723D01*
X240938094Y-115216723D02*
X240985713Y-115026247D01*
X240985713Y-115026247D02*
X240985713Y-114883390D01*
X240985713Y-114883390D02*
X240938094Y-114692914D01*
X240938094Y-114692914D02*
X240890475Y-114597676D01*
X240890475Y-114597676D02*
X240795237Y-114502438D01*
X240795237Y-114502438D02*
X240652380Y-114454819D01*
X240652380Y-114454819D02*
X240557142Y-114454819D01*
X240557142Y-114454819D02*
X240414285Y-114502438D01*
X240414285Y-114502438D02*
X240366666Y-114550057D01*
X239414285Y-115454819D02*
X239985713Y-115454819D01*
X239699999Y-115454819D02*
X239699999Y-114454819D01*
X239699999Y-114454819D02*
X239795237Y-114597676D01*
X239795237Y-114597676D02*
X239890475Y-114692914D01*
X239890475Y-114692914D02*
X239985713Y-114740533D01*
X176680357Y-164209580D02*
X176727976Y-164257200D01*
X176727976Y-164257200D02*
X176870833Y-164304819D01*
X176870833Y-164304819D02*
X176966071Y-164304819D01*
X176966071Y-164304819D02*
X177108928Y-164257200D01*
X177108928Y-164257200D02*
X177204166Y-164161961D01*
X177204166Y-164161961D02*
X177251785Y-164066723D01*
X177251785Y-164066723D02*
X177299404Y-163876247D01*
X177299404Y-163876247D02*
X177299404Y-163733390D01*
X177299404Y-163733390D02*
X177251785Y-163542914D01*
X177251785Y-163542914D02*
X177204166Y-163447676D01*
X177204166Y-163447676D02*
X177108928Y-163352438D01*
X177108928Y-163352438D02*
X176966071Y-163304819D01*
X176966071Y-163304819D02*
X176870833Y-163304819D01*
X176870833Y-163304819D02*
X176727976Y-163352438D01*
X176727976Y-163352438D02*
X176680357Y-163400057D01*
X175727976Y-164304819D02*
X176299404Y-164304819D01*
X176013690Y-164304819D02*
X176013690Y-163304819D01*
X176013690Y-163304819D02*
X176108928Y-163447676D01*
X176108928Y-163447676D02*
X176204166Y-163542914D01*
X176204166Y-163542914D02*
X176299404Y-163590533D01*
X175251785Y-164304819D02*
X175061309Y-164304819D01*
X175061309Y-164304819D02*
X174966071Y-164257200D01*
X174966071Y-164257200D02*
X174918452Y-164209580D01*
X174918452Y-164209580D02*
X174823214Y-164066723D01*
X174823214Y-164066723D02*
X174775595Y-163876247D01*
X174775595Y-163876247D02*
X174775595Y-163495295D01*
X174775595Y-163495295D02*
X174823214Y-163400057D01*
X174823214Y-163400057D02*
X174870833Y-163352438D01*
X174870833Y-163352438D02*
X174966071Y-163304819D01*
X174966071Y-163304819D02*
X175156547Y-163304819D01*
X175156547Y-163304819D02*
X175251785Y-163352438D01*
X175251785Y-163352438D02*
X175299404Y-163400057D01*
X175299404Y-163400057D02*
X175347023Y-163495295D01*
X175347023Y-163495295D02*
X175347023Y-163733390D01*
X175347023Y-163733390D02*
X175299404Y-163828628D01*
X175299404Y-163828628D02*
X175251785Y-163876247D01*
X175251785Y-163876247D02*
X175156547Y-163923866D01*
X175156547Y-163923866D02*
X174966071Y-163923866D01*
X174966071Y-163923866D02*
X174870833Y-163876247D01*
X174870833Y-163876247D02*
X174823214Y-163828628D01*
X174823214Y-163828628D02*
X174775595Y-163733390D01*
X228442857Y-171709580D02*
X228490476Y-171757200D01*
X228490476Y-171757200D02*
X228633333Y-171804819D01*
X228633333Y-171804819D02*
X228728571Y-171804819D01*
X228728571Y-171804819D02*
X228871428Y-171757200D01*
X228871428Y-171757200D02*
X228966666Y-171661961D01*
X228966666Y-171661961D02*
X229014285Y-171566723D01*
X229014285Y-171566723D02*
X229061904Y-171376247D01*
X229061904Y-171376247D02*
X229061904Y-171233390D01*
X229061904Y-171233390D02*
X229014285Y-171042914D01*
X229014285Y-171042914D02*
X228966666Y-170947676D01*
X228966666Y-170947676D02*
X228871428Y-170852438D01*
X228871428Y-170852438D02*
X228728571Y-170804819D01*
X228728571Y-170804819D02*
X228633333Y-170804819D01*
X228633333Y-170804819D02*
X228490476Y-170852438D01*
X228490476Y-170852438D02*
X228442857Y-170900057D01*
X228061904Y-170900057D02*
X228014285Y-170852438D01*
X228014285Y-170852438D02*
X227919047Y-170804819D01*
X227919047Y-170804819D02*
X227680952Y-170804819D01*
X227680952Y-170804819D02*
X227585714Y-170852438D01*
X227585714Y-170852438D02*
X227538095Y-170900057D01*
X227538095Y-170900057D02*
X227490476Y-170995295D01*
X227490476Y-170995295D02*
X227490476Y-171090533D01*
X227490476Y-171090533D02*
X227538095Y-171233390D01*
X227538095Y-171233390D02*
X228109523Y-171804819D01*
X228109523Y-171804819D02*
X227490476Y-171804819D01*
X226585714Y-170804819D02*
X227061904Y-170804819D01*
X227061904Y-170804819D02*
X227109523Y-171281009D01*
X227109523Y-171281009D02*
X227061904Y-171233390D01*
X227061904Y-171233390D02*
X226966666Y-171185771D01*
X226966666Y-171185771D02*
X226728571Y-171185771D01*
X226728571Y-171185771D02*
X226633333Y-171233390D01*
X226633333Y-171233390D02*
X226585714Y-171281009D01*
X226585714Y-171281009D02*
X226538095Y-171376247D01*
X226538095Y-171376247D02*
X226538095Y-171614342D01*
X226538095Y-171614342D02*
X226585714Y-171709580D01*
X226585714Y-171709580D02*
X226633333Y-171757200D01*
X226633333Y-171757200D02*
X226728571Y-171804819D01*
X226728571Y-171804819D02*
X226966666Y-171804819D01*
X226966666Y-171804819D02*
X227061904Y-171757200D01*
X227061904Y-171757200D02*
X227109523Y-171709580D01*
X195842857Y-163654819D02*
X196176190Y-163178628D01*
X196414285Y-163654819D02*
X196414285Y-162654819D01*
X196414285Y-162654819D02*
X196033333Y-162654819D01*
X196033333Y-162654819D02*
X195938095Y-162702438D01*
X195938095Y-162702438D02*
X195890476Y-162750057D01*
X195890476Y-162750057D02*
X195842857Y-162845295D01*
X195842857Y-162845295D02*
X195842857Y-162988152D01*
X195842857Y-162988152D02*
X195890476Y-163083390D01*
X195890476Y-163083390D02*
X195938095Y-163131009D01*
X195938095Y-163131009D02*
X196033333Y-163178628D01*
X196033333Y-163178628D02*
X196414285Y-163178628D01*
X195461904Y-162750057D02*
X195414285Y-162702438D01*
X195414285Y-162702438D02*
X195319047Y-162654819D01*
X195319047Y-162654819D02*
X195080952Y-162654819D01*
X195080952Y-162654819D02*
X194985714Y-162702438D01*
X194985714Y-162702438D02*
X194938095Y-162750057D01*
X194938095Y-162750057D02*
X194890476Y-162845295D01*
X194890476Y-162845295D02*
X194890476Y-162940533D01*
X194890476Y-162940533D02*
X194938095Y-163083390D01*
X194938095Y-163083390D02*
X195509523Y-163654819D01*
X195509523Y-163654819D02*
X194890476Y-163654819D01*
X194557142Y-162654819D02*
X193938095Y-162654819D01*
X193938095Y-162654819D02*
X194271428Y-163035771D01*
X194271428Y-163035771D02*
X194128571Y-163035771D01*
X194128571Y-163035771D02*
X194033333Y-163083390D01*
X194033333Y-163083390D02*
X193985714Y-163131009D01*
X193985714Y-163131009D02*
X193938095Y-163226247D01*
X193938095Y-163226247D02*
X193938095Y-163464342D01*
X193938095Y-163464342D02*
X193985714Y-163559580D01*
X193985714Y-163559580D02*
X194033333Y-163607200D01*
X194033333Y-163607200D02*
X194128571Y-163654819D01*
X194128571Y-163654819D02*
X194414285Y-163654819D01*
X194414285Y-163654819D02*
X194509523Y-163607200D01*
X194509523Y-163607200D02*
X194557142Y-163559580D01*
X177654819Y-141766666D02*
X178369104Y-141766666D01*
X178369104Y-141766666D02*
X178511961Y-141719047D01*
X178511961Y-141719047D02*
X178607200Y-141623809D01*
X178607200Y-141623809D02*
X178654819Y-141480952D01*
X178654819Y-141480952D02*
X178654819Y-141385714D01*
X178654819Y-142242857D02*
X177654819Y-142242857D01*
X177654819Y-142242857D02*
X177654819Y-142623809D01*
X177654819Y-142623809D02*
X177702438Y-142719047D01*
X177702438Y-142719047D02*
X177750057Y-142766666D01*
X177750057Y-142766666D02*
X177845295Y-142814285D01*
X177845295Y-142814285D02*
X177988152Y-142814285D01*
X177988152Y-142814285D02*
X178083390Y-142766666D01*
X178083390Y-142766666D02*
X178131009Y-142719047D01*
X178131009Y-142719047D02*
X178178628Y-142623809D01*
X178178628Y-142623809D02*
X178178628Y-142242857D01*
X177750057Y-143195238D02*
X177702438Y-143242857D01*
X177702438Y-143242857D02*
X177654819Y-143338095D01*
X177654819Y-143338095D02*
X177654819Y-143576190D01*
X177654819Y-143576190D02*
X177702438Y-143671428D01*
X177702438Y-143671428D02*
X177750057Y-143719047D01*
X177750057Y-143719047D02*
X177845295Y-143766666D01*
X177845295Y-143766666D02*
X177940533Y-143766666D01*
X177940533Y-143766666D02*
X178083390Y-143719047D01*
X178083390Y-143719047D02*
X178654819Y-143147619D01*
X178654819Y-143147619D02*
X178654819Y-143766666D01*
X176833333Y-157654819D02*
X176833333Y-158369104D01*
X176833333Y-158369104D02*
X176880952Y-158511961D01*
X176880952Y-158511961D02*
X176976190Y-158607200D01*
X176976190Y-158607200D02*
X177119047Y-158654819D01*
X177119047Y-158654819D02*
X177214285Y-158654819D01*
X176357142Y-158654819D02*
X176357142Y-157654819D01*
X176357142Y-157654819D02*
X175976190Y-157654819D01*
X175976190Y-157654819D02*
X175880952Y-157702438D01*
X175880952Y-157702438D02*
X175833333Y-157750057D01*
X175833333Y-157750057D02*
X175785714Y-157845295D01*
X175785714Y-157845295D02*
X175785714Y-157988152D01*
X175785714Y-157988152D02*
X175833333Y-158083390D01*
X175833333Y-158083390D02*
X175880952Y-158131009D01*
X175880952Y-158131009D02*
X175976190Y-158178628D01*
X175976190Y-158178628D02*
X176357142Y-158178628D01*
X174833333Y-158654819D02*
X175404761Y-158654819D01*
X175119047Y-158654819D02*
X175119047Y-157654819D01*
X175119047Y-157654819D02*
X175214285Y-157797676D01*
X175214285Y-157797676D02*
X175309523Y-157892914D01*
X175309523Y-157892914D02*
X175404761Y-157940533D01*
X178495238Y-103350057D02*
X178590476Y-103302438D01*
X178590476Y-103302438D02*
X178685714Y-103207200D01*
X178685714Y-103207200D02*
X178828571Y-103064342D01*
X178828571Y-103064342D02*
X178923809Y-103016723D01*
X178923809Y-103016723D02*
X179019047Y-103016723D01*
X178971428Y-103254819D02*
X179066666Y-103207200D01*
X179066666Y-103207200D02*
X179161904Y-103111961D01*
X179161904Y-103111961D02*
X179209523Y-102921485D01*
X179209523Y-102921485D02*
X179209523Y-102588152D01*
X179209523Y-102588152D02*
X179161904Y-102397676D01*
X179161904Y-102397676D02*
X179066666Y-102302438D01*
X179066666Y-102302438D02*
X178971428Y-102254819D01*
X178971428Y-102254819D02*
X178780952Y-102254819D01*
X178780952Y-102254819D02*
X178685714Y-102302438D01*
X178685714Y-102302438D02*
X178590476Y-102397676D01*
X178590476Y-102397676D02*
X178542857Y-102588152D01*
X178542857Y-102588152D02*
X178542857Y-102921485D01*
X178542857Y-102921485D02*
X178590476Y-103111961D01*
X178590476Y-103111961D02*
X178685714Y-103207200D01*
X178685714Y-103207200D02*
X178780952Y-103254819D01*
X178780952Y-103254819D02*
X178971428Y-103254819D01*
X177971428Y-102683390D02*
X178066666Y-102635771D01*
X178066666Y-102635771D02*
X178114285Y-102588152D01*
X178114285Y-102588152D02*
X178161904Y-102492914D01*
X178161904Y-102492914D02*
X178161904Y-102445295D01*
X178161904Y-102445295D02*
X178114285Y-102350057D01*
X178114285Y-102350057D02*
X178066666Y-102302438D01*
X178066666Y-102302438D02*
X177971428Y-102254819D01*
X177971428Y-102254819D02*
X177780952Y-102254819D01*
X177780952Y-102254819D02*
X177685714Y-102302438D01*
X177685714Y-102302438D02*
X177638095Y-102350057D01*
X177638095Y-102350057D02*
X177590476Y-102445295D01*
X177590476Y-102445295D02*
X177590476Y-102492914D01*
X177590476Y-102492914D02*
X177638095Y-102588152D01*
X177638095Y-102588152D02*
X177685714Y-102635771D01*
X177685714Y-102635771D02*
X177780952Y-102683390D01*
X177780952Y-102683390D02*
X177971428Y-102683390D01*
X177971428Y-102683390D02*
X178066666Y-102731009D01*
X178066666Y-102731009D02*
X178114285Y-102778628D01*
X178114285Y-102778628D02*
X178161904Y-102873866D01*
X178161904Y-102873866D02*
X178161904Y-103064342D01*
X178161904Y-103064342D02*
X178114285Y-103159580D01*
X178114285Y-103159580D02*
X178066666Y-103207200D01*
X178066666Y-103207200D02*
X177971428Y-103254819D01*
X177971428Y-103254819D02*
X177780952Y-103254819D01*
X177780952Y-103254819D02*
X177685714Y-103207200D01*
X177685714Y-103207200D02*
X177638095Y-103159580D01*
X177638095Y-103159580D02*
X177590476Y-103064342D01*
X177590476Y-103064342D02*
X177590476Y-102873866D01*
X177590476Y-102873866D02*
X177638095Y-102778628D01*
X177638095Y-102778628D02*
X177685714Y-102731009D01*
X177685714Y-102731009D02*
X177780952Y-102683390D01*
X192476666Y-117559580D02*
X192524285Y-117607200D01*
X192524285Y-117607200D02*
X192667142Y-117654819D01*
X192667142Y-117654819D02*
X192762380Y-117654819D01*
X192762380Y-117654819D02*
X192905237Y-117607200D01*
X192905237Y-117607200D02*
X193000475Y-117511961D01*
X193000475Y-117511961D02*
X193048094Y-117416723D01*
X193048094Y-117416723D02*
X193095713Y-117226247D01*
X193095713Y-117226247D02*
X193095713Y-117083390D01*
X193095713Y-117083390D02*
X193048094Y-116892914D01*
X193048094Y-116892914D02*
X193000475Y-116797676D01*
X193000475Y-116797676D02*
X192905237Y-116702438D01*
X192905237Y-116702438D02*
X192762380Y-116654819D01*
X192762380Y-116654819D02*
X192667142Y-116654819D01*
X192667142Y-116654819D02*
X192524285Y-116702438D01*
X192524285Y-116702438D02*
X192476666Y-116750057D01*
X191619523Y-116654819D02*
X191809999Y-116654819D01*
X191809999Y-116654819D02*
X191905237Y-116702438D01*
X191905237Y-116702438D02*
X191952856Y-116750057D01*
X191952856Y-116750057D02*
X192048094Y-116892914D01*
X192048094Y-116892914D02*
X192095713Y-117083390D01*
X192095713Y-117083390D02*
X192095713Y-117464342D01*
X192095713Y-117464342D02*
X192048094Y-117559580D01*
X192048094Y-117559580D02*
X192000475Y-117607200D01*
X192000475Y-117607200D02*
X191905237Y-117654819D01*
X191905237Y-117654819D02*
X191714761Y-117654819D01*
X191714761Y-117654819D02*
X191619523Y-117607200D01*
X191619523Y-117607200D02*
X191571904Y-117559580D01*
X191571904Y-117559580D02*
X191524285Y-117464342D01*
X191524285Y-117464342D02*
X191524285Y-117226247D01*
X191524285Y-117226247D02*
X191571904Y-117131009D01*
X191571904Y-117131009D02*
X191619523Y-117083390D01*
X191619523Y-117083390D02*
X191714761Y-117035771D01*
X191714761Y-117035771D02*
X191905237Y-117035771D01*
X191905237Y-117035771D02*
X192000475Y-117083390D01*
X192000475Y-117083390D02*
X192048094Y-117131009D01*
X192048094Y-117131009D02*
X192095713Y-117226247D01*
X171442857Y-106434819D02*
X171776190Y-105958628D01*
X172014285Y-106434819D02*
X172014285Y-105434819D01*
X172014285Y-105434819D02*
X171633333Y-105434819D01*
X171633333Y-105434819D02*
X171538095Y-105482438D01*
X171538095Y-105482438D02*
X171490476Y-105530057D01*
X171490476Y-105530057D02*
X171442857Y-105625295D01*
X171442857Y-105625295D02*
X171442857Y-105768152D01*
X171442857Y-105768152D02*
X171490476Y-105863390D01*
X171490476Y-105863390D02*
X171538095Y-105911009D01*
X171538095Y-105911009D02*
X171633333Y-105958628D01*
X171633333Y-105958628D02*
X172014285Y-105958628D01*
X170490476Y-106434819D02*
X171061904Y-106434819D01*
X170776190Y-106434819D02*
X170776190Y-105434819D01*
X170776190Y-105434819D02*
X170871428Y-105577676D01*
X170871428Y-105577676D02*
X170966666Y-105672914D01*
X170966666Y-105672914D02*
X171061904Y-105720533D01*
X169919047Y-105863390D02*
X170014285Y-105815771D01*
X170014285Y-105815771D02*
X170061904Y-105768152D01*
X170061904Y-105768152D02*
X170109523Y-105672914D01*
X170109523Y-105672914D02*
X170109523Y-105625295D01*
X170109523Y-105625295D02*
X170061904Y-105530057D01*
X170061904Y-105530057D02*
X170014285Y-105482438D01*
X170014285Y-105482438D02*
X169919047Y-105434819D01*
X169919047Y-105434819D02*
X169728571Y-105434819D01*
X169728571Y-105434819D02*
X169633333Y-105482438D01*
X169633333Y-105482438D02*
X169585714Y-105530057D01*
X169585714Y-105530057D02*
X169538095Y-105625295D01*
X169538095Y-105625295D02*
X169538095Y-105672914D01*
X169538095Y-105672914D02*
X169585714Y-105768152D01*
X169585714Y-105768152D02*
X169633333Y-105815771D01*
X169633333Y-105815771D02*
X169728571Y-105863390D01*
X169728571Y-105863390D02*
X169919047Y-105863390D01*
X169919047Y-105863390D02*
X170014285Y-105911009D01*
X170014285Y-105911009D02*
X170061904Y-105958628D01*
X170061904Y-105958628D02*
X170109523Y-106053866D01*
X170109523Y-106053866D02*
X170109523Y-106244342D01*
X170109523Y-106244342D02*
X170061904Y-106339580D01*
X170061904Y-106339580D02*
X170014285Y-106387200D01*
X170014285Y-106387200D02*
X169919047Y-106434819D01*
X169919047Y-106434819D02*
X169728571Y-106434819D01*
X169728571Y-106434819D02*
X169633333Y-106387200D01*
X169633333Y-106387200D02*
X169585714Y-106339580D01*
X169585714Y-106339580D02*
X169538095Y-106244342D01*
X169538095Y-106244342D02*
X169538095Y-106053866D01*
X169538095Y-106053866D02*
X169585714Y-105958628D01*
X169585714Y-105958628D02*
X169633333Y-105911009D01*
X169633333Y-105911009D02*
X169728571Y-105863390D01*
X227454819Y-176175595D02*
X228264342Y-176175595D01*
X228264342Y-176175595D02*
X228359580Y-176223214D01*
X228359580Y-176223214D02*
X228407200Y-176270833D01*
X228407200Y-176270833D02*
X228454819Y-176366071D01*
X228454819Y-176366071D02*
X228454819Y-176556547D01*
X228454819Y-176556547D02*
X228407200Y-176651785D01*
X228407200Y-176651785D02*
X228359580Y-176699404D01*
X228359580Y-176699404D02*
X228264342Y-176747023D01*
X228264342Y-176747023D02*
X227454819Y-176747023D01*
X227788152Y-177651785D02*
X228454819Y-177651785D01*
X227407200Y-177413690D02*
X228121485Y-177175595D01*
X228121485Y-177175595D02*
X228121485Y-177794642D01*
X237716666Y-115359580D02*
X237764285Y-115407200D01*
X237764285Y-115407200D02*
X237907142Y-115454819D01*
X237907142Y-115454819D02*
X238002380Y-115454819D01*
X238002380Y-115454819D02*
X238145237Y-115407200D01*
X238145237Y-115407200D02*
X238240475Y-115311961D01*
X238240475Y-115311961D02*
X238288094Y-115216723D01*
X238288094Y-115216723D02*
X238335713Y-115026247D01*
X238335713Y-115026247D02*
X238335713Y-114883390D01*
X238335713Y-114883390D02*
X238288094Y-114692914D01*
X238288094Y-114692914D02*
X238240475Y-114597676D01*
X238240475Y-114597676D02*
X238145237Y-114502438D01*
X238145237Y-114502438D02*
X238002380Y-114454819D01*
X238002380Y-114454819D02*
X237907142Y-114454819D01*
X237907142Y-114454819D02*
X237764285Y-114502438D01*
X237764285Y-114502438D02*
X237716666Y-114550057D01*
X237240475Y-115454819D02*
X237049999Y-115454819D01*
X237049999Y-115454819D02*
X236954761Y-115407200D01*
X236954761Y-115407200D02*
X236907142Y-115359580D01*
X236907142Y-115359580D02*
X236811904Y-115216723D01*
X236811904Y-115216723D02*
X236764285Y-115026247D01*
X236764285Y-115026247D02*
X236764285Y-114645295D01*
X236764285Y-114645295D02*
X236811904Y-114550057D01*
X236811904Y-114550057D02*
X236859523Y-114502438D01*
X236859523Y-114502438D02*
X236954761Y-114454819D01*
X236954761Y-114454819D02*
X237145237Y-114454819D01*
X237145237Y-114454819D02*
X237240475Y-114502438D01*
X237240475Y-114502438D02*
X237288094Y-114550057D01*
X237288094Y-114550057D02*
X237335713Y-114645295D01*
X237335713Y-114645295D02*
X237335713Y-114883390D01*
X237335713Y-114883390D02*
X237288094Y-114978628D01*
X237288094Y-114978628D02*
X237240475Y-115026247D01*
X237240475Y-115026247D02*
X237145237Y-115073866D01*
X237145237Y-115073866D02*
X236954761Y-115073866D01*
X236954761Y-115073866D02*
X236859523Y-115026247D01*
X236859523Y-115026247D02*
X236811904Y-114978628D01*
X236811904Y-114978628D02*
X236764285Y-114883390D01*
X190042857Y-163654819D02*
X190376190Y-163178628D01*
X190614285Y-163654819D02*
X190614285Y-162654819D01*
X190614285Y-162654819D02*
X190233333Y-162654819D01*
X190233333Y-162654819D02*
X190138095Y-162702438D01*
X190138095Y-162702438D02*
X190090476Y-162750057D01*
X190090476Y-162750057D02*
X190042857Y-162845295D01*
X190042857Y-162845295D02*
X190042857Y-162988152D01*
X190042857Y-162988152D02*
X190090476Y-163083390D01*
X190090476Y-163083390D02*
X190138095Y-163131009D01*
X190138095Y-163131009D02*
X190233333Y-163178628D01*
X190233333Y-163178628D02*
X190614285Y-163178628D01*
X189661904Y-162750057D02*
X189614285Y-162702438D01*
X189614285Y-162702438D02*
X189519047Y-162654819D01*
X189519047Y-162654819D02*
X189280952Y-162654819D01*
X189280952Y-162654819D02*
X189185714Y-162702438D01*
X189185714Y-162702438D02*
X189138095Y-162750057D01*
X189138095Y-162750057D02*
X189090476Y-162845295D01*
X189090476Y-162845295D02*
X189090476Y-162940533D01*
X189090476Y-162940533D02*
X189138095Y-163083390D01*
X189138095Y-163083390D02*
X189709523Y-163654819D01*
X189709523Y-163654819D02*
X189090476Y-163654819D01*
X188233333Y-162988152D02*
X188233333Y-163654819D01*
X188471428Y-162607200D02*
X188709523Y-163321485D01*
X188709523Y-163321485D02*
X188090476Y-163321485D01*
X202442857Y-148034819D02*
X202776190Y-147558628D01*
X203014285Y-148034819D02*
X203014285Y-147034819D01*
X203014285Y-147034819D02*
X202633333Y-147034819D01*
X202633333Y-147034819D02*
X202538095Y-147082438D01*
X202538095Y-147082438D02*
X202490476Y-147130057D01*
X202490476Y-147130057D02*
X202442857Y-147225295D01*
X202442857Y-147225295D02*
X202442857Y-147368152D01*
X202442857Y-147368152D02*
X202490476Y-147463390D01*
X202490476Y-147463390D02*
X202538095Y-147511009D01*
X202538095Y-147511009D02*
X202633333Y-147558628D01*
X202633333Y-147558628D02*
X203014285Y-147558628D01*
X201490476Y-148034819D02*
X202061904Y-148034819D01*
X201776190Y-148034819D02*
X201776190Y-147034819D01*
X201776190Y-147034819D02*
X201871428Y-147177676D01*
X201871428Y-147177676D02*
X201966666Y-147272914D01*
X201966666Y-147272914D02*
X202061904Y-147320533D01*
X200585714Y-147034819D02*
X201061904Y-147034819D01*
X201061904Y-147034819D02*
X201109523Y-147511009D01*
X201109523Y-147511009D02*
X201061904Y-147463390D01*
X201061904Y-147463390D02*
X200966666Y-147415771D01*
X200966666Y-147415771D02*
X200728571Y-147415771D01*
X200728571Y-147415771D02*
X200633333Y-147463390D01*
X200633333Y-147463390D02*
X200585714Y-147511009D01*
X200585714Y-147511009D02*
X200538095Y-147606247D01*
X200538095Y-147606247D02*
X200538095Y-147844342D01*
X200538095Y-147844342D02*
X200585714Y-147939580D01*
X200585714Y-147939580D02*
X200633333Y-147987200D01*
X200633333Y-147987200D02*
X200728571Y-148034819D01*
X200728571Y-148034819D02*
X200966666Y-148034819D01*
X200966666Y-148034819D02*
X201061904Y-147987200D01*
X201061904Y-147987200D02*
X201109523Y-147939580D01*
X172683333Y-148454819D02*
X172683333Y-149169104D01*
X172683333Y-149169104D02*
X172730952Y-149311961D01*
X172730952Y-149311961D02*
X172826190Y-149407200D01*
X172826190Y-149407200D02*
X172969047Y-149454819D01*
X172969047Y-149454819D02*
X173064285Y-149454819D01*
X172207142Y-149454819D02*
X172207142Y-148454819D01*
X172207142Y-148454819D02*
X171826190Y-148454819D01*
X171826190Y-148454819D02*
X171730952Y-148502438D01*
X171730952Y-148502438D02*
X171683333Y-148550057D01*
X171683333Y-148550057D02*
X171635714Y-148645295D01*
X171635714Y-148645295D02*
X171635714Y-148788152D01*
X171635714Y-148788152D02*
X171683333Y-148883390D01*
X171683333Y-148883390D02*
X171730952Y-148931009D01*
X171730952Y-148931009D02*
X171826190Y-148978628D01*
X171826190Y-148978628D02*
X172207142Y-148978628D01*
X171302380Y-148454819D02*
X170683333Y-148454819D01*
X170683333Y-148454819D02*
X171016666Y-148835771D01*
X171016666Y-148835771D02*
X170873809Y-148835771D01*
X170873809Y-148835771D02*
X170778571Y-148883390D01*
X170778571Y-148883390D02*
X170730952Y-148931009D01*
X170730952Y-148931009D02*
X170683333Y-149026247D01*
X170683333Y-149026247D02*
X170683333Y-149264342D01*
X170683333Y-149264342D02*
X170730952Y-149359580D01*
X170730952Y-149359580D02*
X170778571Y-149407200D01*
X170778571Y-149407200D02*
X170873809Y-149454819D01*
X170873809Y-149454819D02*
X171159523Y-149454819D01*
X171159523Y-149454819D02*
X171254761Y-149407200D01*
X171254761Y-149407200D02*
X171302380Y-149359580D01*
X223842857Y-163654819D02*
X224176190Y-163178628D01*
X224414285Y-163654819D02*
X224414285Y-162654819D01*
X224414285Y-162654819D02*
X224033333Y-162654819D01*
X224033333Y-162654819D02*
X223938095Y-162702438D01*
X223938095Y-162702438D02*
X223890476Y-162750057D01*
X223890476Y-162750057D02*
X223842857Y-162845295D01*
X223842857Y-162845295D02*
X223842857Y-162988152D01*
X223842857Y-162988152D02*
X223890476Y-163083390D01*
X223890476Y-163083390D02*
X223938095Y-163131009D01*
X223938095Y-163131009D02*
X224033333Y-163178628D01*
X224033333Y-163178628D02*
X224414285Y-163178628D01*
X222890476Y-163654819D02*
X223461904Y-163654819D01*
X223176190Y-163654819D02*
X223176190Y-162654819D01*
X223176190Y-162654819D02*
X223271428Y-162797676D01*
X223271428Y-162797676D02*
X223366666Y-162892914D01*
X223366666Y-162892914D02*
X223461904Y-162940533D01*
X222509523Y-162750057D02*
X222461904Y-162702438D01*
X222461904Y-162702438D02*
X222366666Y-162654819D01*
X222366666Y-162654819D02*
X222128571Y-162654819D01*
X222128571Y-162654819D02*
X222033333Y-162702438D01*
X222033333Y-162702438D02*
X221985714Y-162750057D01*
X221985714Y-162750057D02*
X221938095Y-162845295D01*
X221938095Y-162845295D02*
X221938095Y-162940533D01*
X221938095Y-162940533D02*
X221985714Y-163083390D01*
X221985714Y-163083390D02*
X222557142Y-163654819D01*
X222557142Y-163654819D02*
X221938095Y-163654819D01*
X192366666Y-163654819D02*
X192699999Y-163178628D01*
X192938094Y-163654819D02*
X192938094Y-162654819D01*
X192938094Y-162654819D02*
X192557142Y-162654819D01*
X192557142Y-162654819D02*
X192461904Y-162702438D01*
X192461904Y-162702438D02*
X192414285Y-162750057D01*
X192414285Y-162750057D02*
X192366666Y-162845295D01*
X192366666Y-162845295D02*
X192366666Y-162988152D01*
X192366666Y-162988152D02*
X192414285Y-163083390D01*
X192414285Y-163083390D02*
X192461904Y-163131009D01*
X192461904Y-163131009D02*
X192557142Y-163178628D01*
X192557142Y-163178628D02*
X192938094Y-163178628D01*
X191890475Y-163654819D02*
X191699999Y-163654819D01*
X191699999Y-163654819D02*
X191604761Y-163607200D01*
X191604761Y-163607200D02*
X191557142Y-163559580D01*
X191557142Y-163559580D02*
X191461904Y-163416723D01*
X191461904Y-163416723D02*
X191414285Y-163226247D01*
X191414285Y-163226247D02*
X191414285Y-162845295D01*
X191414285Y-162845295D02*
X191461904Y-162750057D01*
X191461904Y-162750057D02*
X191509523Y-162702438D01*
X191509523Y-162702438D02*
X191604761Y-162654819D01*
X191604761Y-162654819D02*
X191795237Y-162654819D01*
X191795237Y-162654819D02*
X191890475Y-162702438D01*
X191890475Y-162702438D02*
X191938094Y-162750057D01*
X191938094Y-162750057D02*
X191985713Y-162845295D01*
X191985713Y-162845295D02*
X191985713Y-163083390D01*
X191985713Y-163083390D02*
X191938094Y-163178628D01*
X191938094Y-163178628D02*
X191890475Y-163226247D01*
X191890475Y-163226247D02*
X191795237Y-163273866D01*
X191795237Y-163273866D02*
X191604761Y-163273866D01*
X191604761Y-163273866D02*
X191509523Y-163226247D01*
X191509523Y-163226247D02*
X191461904Y-163178628D01*
X191461904Y-163178628D02*
X191414285Y-163083390D01*
X203442857Y-163654819D02*
X203776190Y-163178628D01*
X204014285Y-163654819D02*
X204014285Y-162654819D01*
X204014285Y-162654819D02*
X203633333Y-162654819D01*
X203633333Y-162654819D02*
X203538095Y-162702438D01*
X203538095Y-162702438D02*
X203490476Y-162750057D01*
X203490476Y-162750057D02*
X203442857Y-162845295D01*
X203442857Y-162845295D02*
X203442857Y-162988152D01*
X203442857Y-162988152D02*
X203490476Y-163083390D01*
X203490476Y-163083390D02*
X203538095Y-163131009D01*
X203538095Y-163131009D02*
X203633333Y-163178628D01*
X203633333Y-163178628D02*
X204014285Y-163178628D01*
X202490476Y-163654819D02*
X203061904Y-163654819D01*
X202776190Y-163654819D02*
X202776190Y-162654819D01*
X202776190Y-162654819D02*
X202871428Y-162797676D01*
X202871428Y-162797676D02*
X202966666Y-162892914D01*
X202966666Y-162892914D02*
X203061904Y-162940533D01*
X201538095Y-163654819D02*
X202109523Y-163654819D01*
X201823809Y-163654819D02*
X201823809Y-162654819D01*
X201823809Y-162654819D02*
X201919047Y-162797676D01*
X201919047Y-162797676D02*
X202014285Y-162892914D01*
X202014285Y-162892914D02*
X202109523Y-162940533D01*
X215433333Y-150531009D02*
X215766666Y-150531009D01*
X215766666Y-151054819D02*
X215766666Y-150054819D01*
X215766666Y-150054819D02*
X215290476Y-150054819D01*
X214576190Y-150531009D02*
X214433333Y-150578628D01*
X214433333Y-150578628D02*
X214385714Y-150626247D01*
X214385714Y-150626247D02*
X214338095Y-150721485D01*
X214338095Y-150721485D02*
X214338095Y-150864342D01*
X214338095Y-150864342D02*
X214385714Y-150959580D01*
X214385714Y-150959580D02*
X214433333Y-151007200D01*
X214433333Y-151007200D02*
X214528571Y-151054819D01*
X214528571Y-151054819D02*
X214909523Y-151054819D01*
X214909523Y-151054819D02*
X214909523Y-150054819D01*
X214909523Y-150054819D02*
X214576190Y-150054819D01*
X214576190Y-150054819D02*
X214480952Y-150102438D01*
X214480952Y-150102438D02*
X214433333Y-150150057D01*
X214433333Y-150150057D02*
X214385714Y-150245295D01*
X214385714Y-150245295D02*
X214385714Y-150340533D01*
X214385714Y-150340533D02*
X214433333Y-150435771D01*
X214433333Y-150435771D02*
X214480952Y-150483390D01*
X214480952Y-150483390D02*
X214576190Y-150531009D01*
X214576190Y-150531009D02*
X214909523Y-150531009D01*
X214004761Y-150054819D02*
X213385714Y-150054819D01*
X213385714Y-150054819D02*
X213719047Y-150435771D01*
X213719047Y-150435771D02*
X213576190Y-150435771D01*
X213576190Y-150435771D02*
X213480952Y-150483390D01*
X213480952Y-150483390D02*
X213433333Y-150531009D01*
X213433333Y-150531009D02*
X213385714Y-150626247D01*
X213385714Y-150626247D02*
X213385714Y-150864342D01*
X213385714Y-150864342D02*
X213433333Y-150959580D01*
X213433333Y-150959580D02*
X213480952Y-151007200D01*
X213480952Y-151007200D02*
X213576190Y-151054819D01*
X213576190Y-151054819D02*
X213861904Y-151054819D01*
X213861904Y-151054819D02*
X213957142Y-151007200D01*
X213957142Y-151007200D02*
X214004761Y-150959580D01*
X194966666Y-117559580D02*
X195014285Y-117607200D01*
X195014285Y-117607200D02*
X195157142Y-117654819D01*
X195157142Y-117654819D02*
X195252380Y-117654819D01*
X195252380Y-117654819D02*
X195395237Y-117607200D01*
X195395237Y-117607200D02*
X195490475Y-117511961D01*
X195490475Y-117511961D02*
X195538094Y-117416723D01*
X195538094Y-117416723D02*
X195585713Y-117226247D01*
X195585713Y-117226247D02*
X195585713Y-117083390D01*
X195585713Y-117083390D02*
X195538094Y-116892914D01*
X195538094Y-116892914D02*
X195490475Y-116797676D01*
X195490475Y-116797676D02*
X195395237Y-116702438D01*
X195395237Y-116702438D02*
X195252380Y-116654819D01*
X195252380Y-116654819D02*
X195157142Y-116654819D01*
X195157142Y-116654819D02*
X195014285Y-116702438D01*
X195014285Y-116702438D02*
X194966666Y-116750057D01*
X194395237Y-117083390D02*
X194490475Y-117035771D01*
X194490475Y-117035771D02*
X194538094Y-116988152D01*
X194538094Y-116988152D02*
X194585713Y-116892914D01*
X194585713Y-116892914D02*
X194585713Y-116845295D01*
X194585713Y-116845295D02*
X194538094Y-116750057D01*
X194538094Y-116750057D02*
X194490475Y-116702438D01*
X194490475Y-116702438D02*
X194395237Y-116654819D01*
X194395237Y-116654819D02*
X194204761Y-116654819D01*
X194204761Y-116654819D02*
X194109523Y-116702438D01*
X194109523Y-116702438D02*
X194061904Y-116750057D01*
X194061904Y-116750057D02*
X194014285Y-116845295D01*
X194014285Y-116845295D02*
X194014285Y-116892914D01*
X194014285Y-116892914D02*
X194061904Y-116988152D01*
X194061904Y-116988152D02*
X194109523Y-117035771D01*
X194109523Y-117035771D02*
X194204761Y-117083390D01*
X194204761Y-117083390D02*
X194395237Y-117083390D01*
X194395237Y-117083390D02*
X194490475Y-117131009D01*
X194490475Y-117131009D02*
X194538094Y-117178628D01*
X194538094Y-117178628D02*
X194585713Y-117273866D01*
X194585713Y-117273866D02*
X194585713Y-117464342D01*
X194585713Y-117464342D02*
X194538094Y-117559580D01*
X194538094Y-117559580D02*
X194490475Y-117607200D01*
X194490475Y-117607200D02*
X194395237Y-117654819D01*
X194395237Y-117654819D02*
X194204761Y-117654819D01*
X194204761Y-117654819D02*
X194109523Y-117607200D01*
X194109523Y-117607200D02*
X194061904Y-117559580D01*
X194061904Y-117559580D02*
X194014285Y-117464342D01*
X194014285Y-117464342D02*
X194014285Y-117273866D01*
X194014285Y-117273866D02*
X194061904Y-117178628D01*
X194061904Y-117178628D02*
X194109523Y-117131009D01*
X194109523Y-117131009D02*
X194204761Y-117083390D01*
D13*
X198910000Y-159222936D02*
X198910000Y-160677064D01*
X197090000Y-159222936D02*
X197090000Y-160677064D01*
X177490000Y-111127064D02*
X177490000Y-109672936D01*
X179310000Y-111127064D02*
X179310000Y-109672936D01*
X219542224Y-149922500D02*
X219032776Y-149922500D01*
X219542224Y-148877500D02*
X219032776Y-148877500D01*
X239290000Y-112511252D02*
X239290000Y-111088748D01*
X241110000Y-112511252D02*
X241110000Y-111088748D01*
X175326248Y-161090000D02*
X176748752Y-161090000D01*
X175326248Y-162910000D02*
X176748752Y-162910000D01*
X228511252Y-174110000D02*
X227088748Y-174110000D01*
X228511252Y-172290000D02*
X227088748Y-172290000D01*
X194290000Y-160677064D02*
X194290000Y-159222936D01*
X196110000Y-160677064D02*
X196110000Y-159222936D01*
X177200000Y-141050000D02*
X175200000Y-141050000D01*
X175200000Y-141050000D02*
X175200000Y-143850000D01*
X177200000Y-143850000D02*
X177200000Y-141050000D01*
X175200000Y-143850000D02*
X177200000Y-143850000D01*
X174550000Y-155400000D02*
X174550000Y-157400000D01*
X174550000Y-157400000D02*
X177350000Y-157400000D01*
X177350000Y-155400000D02*
X174550000Y-155400000D01*
X177350000Y-157400000D02*
X177350000Y-155400000D01*
X176840000Y-105537500D02*
X176840000Y-106187500D01*
X176840000Y-105537500D02*
X176840000Y-104887500D01*
X179960000Y-105537500D02*
X179960000Y-107212500D01*
X179960000Y-105537500D02*
X179960000Y-104887500D01*
X192710000Y-114791233D02*
X192710000Y-115083767D01*
X191690000Y-114791233D02*
X191690000Y-115083767D01*
X171527064Y-108710000D02*
X170072936Y-108710000D01*
X171527064Y-106890000D02*
X170072936Y-106890000D01*
X229040000Y-177000000D02*
X229040000Y-177800000D01*
X229040000Y-177000000D02*
X229040000Y-176200000D01*
X232160000Y-177000000D02*
X232160000Y-178800000D01*
X232160000Y-177000000D02*
X232160000Y-176200000D01*
X238510000Y-111088748D02*
X238510000Y-112511252D01*
X236690000Y-111088748D02*
X236690000Y-112511252D01*
X190310000Y-159222936D02*
X190310000Y-160677064D01*
X188490000Y-159222936D02*
X188490000Y-160677064D01*
X202527064Y-150310000D02*
X201072936Y-150310000D01*
X202527064Y-148490000D02*
X201072936Y-148490000D01*
X170450000Y-146200000D02*
X170450000Y-148200000D01*
X170450000Y-148200000D02*
X173250000Y-148200000D01*
X173250000Y-146200000D02*
X170450000Y-146200000D01*
X173250000Y-148200000D02*
X173250000Y-146200000D01*
X224110000Y-159322936D02*
X224110000Y-160777064D01*
X222290000Y-159322936D02*
X222290000Y-160777064D01*
X191290000Y-160677064D02*
X191290000Y-159222936D01*
X193110000Y-160677064D02*
X193110000Y-159222936D01*
X201890000Y-160677064D02*
X201890000Y-159222936D01*
X203710000Y-160677064D02*
X203710000Y-159222936D01*
X214854724Y-149922500D02*
X214345276Y-149922500D01*
X214854724Y-148877500D02*
X214345276Y-148877500D01*
X195310000Y-114791233D02*
X195310000Y-115083767D01*
X194290000Y-114791233D02*
X194290000Y-115083767D01*
%LPC*%
D14*
X172800000Y-104800000D03*
D15*
X168800000Y-104800000D03*
D16*
X220722371Y-186211047D03*
D17*
X216746000Y-185647600D03*
D18*
X217879342Y-183374467D03*
D16*
X213117523Y-188659665D03*
D17*
X209141152Y-188096218D03*
D18*
X210274494Y-185823085D03*
D16*
X200756971Y-188636580D03*
D19*
X203600000Y-185800000D03*
D18*
X204733342Y-188073133D03*
D20*
X181800000Y-100000000D03*
D21*
X232600000Y-114400000D03*
D22*
X230060000Y-114400000D03*
D23*
X189650000Y-110800000D03*
D22*
X192190000Y-110800000D03*
X194730000Y-110800000D03*
X197270000Y-110800000D03*
X199810000Y-110800000D03*
X202350000Y-110800000D03*
D20*
X171400000Y-151660000D03*
D22*
X171400000Y-154200000D03*
X171400000Y-156740000D03*
X171400000Y-159280000D03*
X171400000Y-161820000D03*
D21*
X230760000Y-152400000D03*
D24*
X228220000Y-152400000D03*
X225680000Y-152400000D03*
X223140000Y-152400000D03*
X220600000Y-152400000D03*
X218060000Y-152400000D03*
X215520000Y-152400000D03*
X212980000Y-152400000D03*
X210440000Y-152400000D03*
X207900000Y-152400000D03*
X205360000Y-152400000D03*
X202820000Y-152400000D03*
X200280000Y-152400000D03*
X197740000Y-152400000D03*
X195200000Y-152400000D03*
X192660000Y-152400000D03*
X190120000Y-152400000D03*
X187580000Y-152400000D03*
X185040000Y-152400000D03*
X182500000Y-152400000D03*
X182500000Y-167640000D03*
X185040000Y-167640000D03*
X187580000Y-167640000D03*
X190120000Y-167640000D03*
X192660000Y-167640000D03*
X195200000Y-167640000D03*
X197740000Y-167640000D03*
X200280000Y-167640000D03*
X202820000Y-167640000D03*
X205360000Y-167640000D03*
X207900000Y-167640000D03*
X210440000Y-167640000D03*
X212980000Y-167640000D03*
X215520000Y-167640000D03*
X218060000Y-167640000D03*
X220600000Y-167640000D03*
X223140000Y-167640000D03*
X225680000Y-167640000D03*
X228220000Y-167640000D03*
X230760000Y-167640000D03*
D20*
X240000000Y-100200000D03*
D25*
X206800000Y-108074000D03*
D20*
X177800000Y-100000000D03*
D26*
X179050000Y-121800000D03*
X179050000Y-139800000D03*
D20*
X168000000Y-148000000D03*
D16*
X169730000Y-168610000D03*
D27*
X168460000Y-164800000D03*
D18*
X171000000Y-164800000D03*
D16*
X238539200Y-174420800D03*
D27*
X237269200Y-170610800D03*
D18*
X239809200Y-170610800D03*
D20*
X201200000Y-100000000D03*
D23*
X214853400Y-146274200D03*
D22*
X217393400Y-146274200D03*
X219933400Y-146274200D03*
X222473400Y-146274200D03*
X225013400Y-146274200D03*
X227553400Y-146274200D03*
D28*
X225771000Y-109232000D03*
X225771000Y-107200000D03*
X225771000Y-105168000D03*
X225771000Y-103136000D03*
X225771000Y-101104000D03*
X223739000Y-109232000D03*
X223739000Y-107200000D03*
X223739000Y-105168000D03*
X223739000Y-103136000D03*
X223739000Y-101104000D03*
X221707000Y-109232000D03*
X221707000Y-107200000D03*
X221707000Y-105168000D03*
X221707000Y-103136000D03*
X221707000Y-101104000D03*
X219675000Y-109232000D03*
X219675000Y-107200000D03*
X219675000Y-105168000D03*
X219675000Y-103136000D03*
X219675000Y-101104000D03*
D29*
X176400000Y-154070000D03*
D30*
X175130000Y-154070000D03*
X176400000Y-152800000D03*
X175130000Y-152800000D03*
X176400000Y-151530000D03*
X175130000Y-151530000D03*
X176400000Y-150260000D03*
X175130000Y-150260000D03*
X176400000Y-148990000D03*
X175130000Y-148990000D03*
D16*
X243930000Y-168210000D03*
D27*
X242660000Y-164400000D03*
D18*
X245200000Y-164400000D03*
D14*
X239400000Y-105800000D03*
D15*
X236900000Y-105800000D03*
D31*
X245209000Y-112026000D03*
X245209000Y-107200000D03*
X245209000Y-102374000D03*
D23*
X185853400Y-146274200D03*
D22*
X188393400Y-146274200D03*
X190933400Y-146274200D03*
X193473400Y-146274200D03*
X196013400Y-146274200D03*
X198553400Y-146274200D03*
D25*
X206800000Y-100200000D03*
D20*
X235600000Y-145800000D03*
X167550000Y-151660000D03*
D22*
X167550000Y-154200000D03*
X167550000Y-156740000D03*
X167550000Y-159280000D03*
X167550000Y-161820000D03*
D16*
X193262429Y-186134847D03*
D19*
X196105458Y-183298267D03*
D18*
X197238800Y-185571400D03*
D16*
X175648800Y-174293800D03*
D27*
X174378800Y-170483800D03*
D18*
X176918800Y-170483800D03*
D26*
X234437500Y-139800000D03*
X234437500Y-121800000D03*
D25*
X207000000Y-191447000D03*
D32*
X213400000Y-103582379D03*
D15*
X213400000Y-101082379D03*
D23*
X189650000Y-105975000D03*
D22*
X192190000Y-105975000D03*
X194730000Y-105975000D03*
X197270000Y-105975000D03*
X199810000Y-105975000D03*
X202350000Y-105975000D03*
D25*
X207000000Y-183573000D03*
D33*
X198000000Y-158400000D03*
X198000000Y-161500000D03*
D34*
X178400000Y-111950000D03*
X178400000Y-108850000D03*
D35*
X220200000Y-149400000D03*
X218375000Y-149400000D03*
D36*
X240200000Y-113362500D03*
X240200000Y-110237500D03*
D37*
X174475000Y-162000000D03*
X177600000Y-162000000D03*
D38*
X229362500Y-173200000D03*
X226237500Y-173200000D03*
D34*
X195200000Y-161500000D03*
X195200000Y-158400000D03*
D39*
X176200000Y-141800000D03*
X176200000Y-143100000D03*
D40*
X175300000Y-156400000D03*
X176600000Y-156400000D03*
D41*
X179350000Y-106475000D03*
X177450000Y-106475000D03*
X178400000Y-104600000D03*
D42*
X192200000Y-114075000D03*
X192200000Y-115800000D03*
D43*
X172350000Y-107800000D03*
X169250000Y-107800000D03*
D44*
X231550000Y-178137500D03*
X230600000Y-178137500D03*
X229650000Y-178137500D03*
X229650000Y-175862500D03*
X231550000Y-175862500D03*
D45*
X237600000Y-110237500D03*
X237600000Y-113362500D03*
D33*
X189400000Y-158400000D03*
X189400000Y-161500000D03*
D43*
X203350000Y-149400000D03*
X200250000Y-149400000D03*
D40*
X171200000Y-147200000D03*
X172500000Y-147200000D03*
D33*
X223200000Y-158500000D03*
X223200000Y-161600000D03*
D34*
X192200000Y-161500000D03*
X192200000Y-158400000D03*
X202800000Y-161500000D03*
X202800000Y-158400000D03*
D35*
X215512500Y-149400000D03*
X213687500Y-149400000D03*
D42*
X194800000Y-114075000D03*
X194800000Y-115800000D03*
%LPD*%
M02*
