M48
; DRILL file {KiCad 7.0.8} date Wed Aug  7 19:44:48 2024
; FORMAT={-:-/ absolute / metric / decimal}
; #@! TF.CreationDate,2024-08-07T19:44:48-07:00
; #@! TF.GenerationSoftware,Kicad,Pcbnew,7.0.8
; #@! TF.FileFunction,Plated,1,4,PTH
FMAT,2
METRIC
; #@! TA.AperFunction,Plated,PTH,ViaDrill
T1C0.400
; #@! TA.AperFunction,Plated,PTH,ViaDrill
T2C0.500
; #@! TA.AperFunction,Plated,PTH,ComponentDrill
T3C0.650
; #@! TA.AperFunction,Plated,PTH,ViaDrill
T4C0.700
; #@! TA.AperFunction,Plated,PTH,ComponentDrill
T5C0.762
; #@! TA.AperFunction,Plated,PTH,ViaDrill
T6C0.800
; #@! TA.AperFunction,Plated,PTH,ComponentDrill
T7C0.800
; #@! TA.AperFunction,Plated,PTH,ComponentDrill
T8C0.900
; #@! TA.AperFunction,Plated,PTH,ViaDrill
T9C1.000
; #@! TA.AperFunction,Plated,PTH,ComponentDrill
T10C1.000
; #@! TA.AperFunction,Plated,PTH,ComponentDrill
T11C1.850
%
G90
G05
T1
X166.0Y-109.4
X168.2Y-109.4
X169.6Y-146.6
X173.6Y-109.6
X175.6Y-139.6
X178.2Y-118.4
X178.2Y-156.6
X178.5Y-144.1
X178.8Y-117.6
X179.0Y-131.0
X179.2Y-115.4
X179.2Y-144.8
X179.4Y-116.8
X180.0Y-145.4
X181.0Y-165.4
X181.8Y-164.6
X182.4Y-163.8
X185.3Y-182.2
X185.6Y-102.8
X185.9Y-158.1
X189.4Y-163.2
X190.2Y-138.2
X190.8Y-160.0
X193.0Y-155.8
X193.4Y-114.4
X194.8Y-174.2
X196.0Y-131.0
X196.2Y-114.4
X197.02Y-156.62
X198.2Y-155.8
X198.4Y-142.8
X199.6Y-158.4
X201.0Y-173.8
X204.8Y-161.0
X205.0Y-158.0
X205.2Y-141.2
X206.4Y-158.0
X207.8Y-146.2
X208.4Y-143.6
X208.4Y-144.6
X208.8Y-172.8
X210.0Y-172.8
X211.0Y-115.2
X211.0Y-173.8
X212.8Y-150.6
X214.0Y-142.2
X218.2Y-171.4
X218.7Y-163.7
X220.6Y-171.4
X221.2Y-159.0
X221.8Y-149.4
X223.0Y-150.12
X223.4Y-154.6
X226.8Y-154.4
X232.8Y-154.8
X234.4Y-160.2
X234.7Y-131.1
X235.0Y-166.5
X235.8Y-154.6
X236.0Y-150.2
X236.0Y-158.4
T2
X215.0Y-139.6
T3
X175.13Y-148.99
X175.13Y-150.26
X175.13Y-151.53
X175.13Y-152.8
X175.13Y-154.07
X176.4Y-148.99
X176.4Y-150.26
X176.4Y-151.53
X176.4Y-152.8
X176.4Y-154.07
T4
X182.2Y-123.337
X192.8Y-123.8
X204.8Y-103.6
X213.2Y-123.4
X227.0Y-122.4
T5
X219.675Y-101.104
X219.675Y-103.136
X219.675Y-105.168
X219.675Y-107.2
X219.675Y-109.232
X221.707Y-101.104
X221.707Y-103.136
X221.707Y-105.168
X221.707Y-107.2
X221.707Y-109.232
X223.739Y-101.104
X223.739Y-103.136
X223.739Y-105.168
X223.739Y-107.2
X223.739Y-109.232
X225.771Y-101.104
X225.771Y-103.136
X225.771Y-105.168
X225.771Y-107.2
X225.771Y-109.232
T6
X187.0Y-121.0
X193.4Y-121.063
X205.0Y-118.8
X210.2Y-147.4
X210.4Y-137.2
X222.4Y-113.4
X226.6Y-176.0
X227.0Y-182.2
X231.55Y-173.95
X234.4Y-178.4
T7
X213.4Y-101.082
X213.4Y-103.582
X236.9Y-105.8
X239.4Y-105.8
T8
X168.46Y-164.8
X168.8Y-104.8
X171.0Y-164.8
X172.8Y-104.8
X174.379Y-170.484
X176.919Y-170.484
X196.105Y-183.298
X197.239Y-185.571
X203.6Y-185.8
X204.733Y-188.073
X209.141Y-188.096
X210.274Y-185.823
X216.746Y-185.648
X217.879Y-183.374
X237.269Y-170.611
X239.809Y-170.611
X242.66Y-164.4
X245.2Y-164.4
T9
X234.4Y-110.2
T10
X167.55Y-151.66
X167.55Y-154.2
X167.55Y-156.74
X167.55Y-159.28
X167.55Y-161.82
X168.0Y-148.0
X171.4Y-151.66
X171.4Y-154.2
X171.4Y-156.74
X171.4Y-159.28
X171.4Y-161.82
X177.8Y-100.0
X181.8Y-100.0
X182.5Y-152.4
X182.5Y-167.64
X185.04Y-152.4
X185.04Y-167.64
X185.853Y-146.274
X187.58Y-152.4
X187.58Y-167.64
X188.393Y-146.274
X189.65Y-105.975
X189.65Y-110.8
X190.12Y-152.4
X190.12Y-167.64
X190.933Y-146.274
X192.19Y-105.975
X192.19Y-110.8
X192.66Y-152.4
X192.66Y-167.64
X193.473Y-146.274
X194.73Y-105.975
X194.73Y-110.8
X195.2Y-152.4
X195.2Y-167.64
X196.013Y-146.274
X197.27Y-105.975
X197.27Y-110.8
X197.74Y-152.4
X197.74Y-167.64
X198.553Y-146.274
X199.81Y-105.975
X199.81Y-110.8
X200.28Y-152.4
X200.28Y-167.64
X201.2Y-100.0
X202.35Y-105.975
X202.35Y-110.8
X202.82Y-152.4
X202.82Y-167.64
X205.36Y-152.4
X205.36Y-167.64
X207.9Y-152.4
X207.9Y-167.64
X210.44Y-152.4
X210.44Y-167.64
X212.98Y-152.4
X212.98Y-167.64
X214.853Y-146.274
X215.52Y-152.4
X215.52Y-167.64
X217.393Y-146.274
X218.06Y-152.4
X218.06Y-167.64
X219.933Y-146.274
X220.6Y-152.4
X220.6Y-167.64
X222.473Y-146.274
X223.14Y-152.4
X223.14Y-167.64
X225.013Y-146.274
X225.68Y-152.4
X225.68Y-167.64
X227.553Y-146.274
X228.22Y-152.4
X228.22Y-167.64
X230.06Y-114.4
X230.76Y-152.4
X230.76Y-167.64
X232.6Y-114.4
X235.6Y-145.8
X240.0Y-100.2
T11
X245.209Y-102.374
X245.209Y-107.2
X245.209Y-112.026
T0
M30
