<?xml version="1.0" standalone="no"?>
 <!DOCTYPE svg PUBLIC "-//W3C//DTD SVG 1.1//EN" 
 "http://www.w3.org/Graphics/SVG/1.1/DTD/svg11.dtd"> 
<svg
  xmlns:svg="http://www.w3.org/2000/svg"
  xmlns="http://www.w3.org/2000/svg"
  xmlns:xlink="http://www.w3.org/1999/xlink"
  version="1.1"
  width="395.0462mm" height="185.1152mm" viewBox="0.0000 0.0000 395.0462 185.1152">
<title>SVG Image created as bloo-B_Silkscreen.svg date 2025/03/05 00:18:27 </title>
  <desc>Image generated by PCBNEW </desc>
<g style="fill:#000000; fill-opacity:1.0000;stroke:#000000; stroke-opacity:1.0000;
stroke-linecap:round; stroke-linejoin:round;"
 transform="translate(0 0) scale(1 1)">
</g>
<g style="fill:none; 
stroke:#000000; stroke-width:0.1500; stroke-opacity:1; 
stroke-linecap:round; stroke-linejoin:round;">
<text x="316.0615" y="63.1673"
transform="scale(-1 1) translate(-632.123058 0)"
textLength="2.2024" font-size="1.3333" lengthAdjust="spacingAndGlyphs"
text-anchor="middle" opacity="0" stroke-opacity="0">C8</text>
<g class="stroked-text"><desc>C8</desc>
<path d="M316.2282 63.0269
L316.2758 63.0745
" />
<path d="M316.2758 63.0745
L316.4187 63.1221
" />
<path d="M316.4187 63.1221
L316.5139 63.1221
" />
<path d="M316.5139 63.1221
L316.6568 63.0745
" />
<path d="M316.6568 63.0745
L316.7520 62.9792
" />
<path d="M316.7520 62.9792
L316.7996 62.8840
" />
<path d="M316.7996 62.8840
L316.8472 62.6935
" />
<path d="M316.8472 62.6935
L316.8472 62.5507
" />
<path d="M316.8472 62.5507
L316.7996 62.3602
" />
<path d="M316.7996 62.3602
L316.7520 62.2650
" />
<path d="M316.7520 62.2650
L316.6568 62.1697
" />
<path d="M316.6568 62.1697
L316.5139 62.1221
" />
<path d="M316.5139 62.1221
L316.4187 62.1221
" />
<path d="M316.4187 62.1221
L316.2758 62.1697
" />
<path d="M316.2758 62.1697
L316.2282 62.2173
" />
<path d="M315.6568 62.5507
L315.7520 62.5031
" />
<path d="M315.7520 62.5031
L315.7996 62.4554
" />
<path d="M315.7996 62.4554
L315.8472 62.3602
" />
<path d="M315.8472 62.3602
L315.8472 62.3126
" />
<path d="M315.8472 62.3126
L315.7996 62.2173
" />
<path d="M315.7996 62.2173
L315.7520 62.1697
" />
<path d="M315.7520 62.1697
L315.6568 62.1221
" />
<path d="M315.6568 62.1221
L315.4663 62.1221
" />
<path d="M315.4663 62.1221
L315.3711 62.1697
" />
<path d="M315.3711 62.1697
L315.3234 62.2173
" />
<path d="M315.3234 62.2173
L315.2758 62.3126
" />
<path d="M315.2758 62.3126
L315.2758 62.3602
" />
<path d="M315.2758 62.3602
L315.3234 62.4554
" />
<path d="M315.3234 62.4554
L315.3711 62.5031
" />
<path d="M315.3711 62.5031
L315.4663 62.5507
" />
<path d="M315.4663 62.5507
L315.6568 62.5507
" />
<path d="M315.6568 62.5507
L315.7520 62.5983
" />
<path d="M315.7520 62.5983
L315.7996 62.6459
" />
<path d="M315.7996 62.6459
L315.8472 62.7412
" />
<path d="M315.8472 62.7412
L315.8472 62.9316
" />
<path d="M315.8472 62.9316
L315.7996 63.0269
" />
<path d="M315.7996 63.0269
L315.7520 63.0745
" />
<path d="M315.7520 63.0745
L315.6568 63.1221
" />
<path d="M315.6568 63.1221
L315.4663 63.1221
" />
<path d="M315.4663 63.1221
L315.3711 63.0745
" />
<path d="M315.3711 63.0745
L315.3234 63.0269
" />
<path d="M315.3234 63.0269
L315.2758 62.9316
" />
<path d="M315.2758 62.9316
L315.2758 62.7412
" />
<path d="M315.2758 62.7412
L315.3234 62.6459
" />
<path d="M315.3234 62.6459
L315.3711 62.5983
" />
<path d="M315.3711 62.5983
L315.4663 62.5507
" />
</g><text x="297.1356" y="105.4712"
transform="scale(-1 1) translate(-594.271146 0)"
textLength="2.9643" font-size="1.3333" lengthAdjust="spacingAndGlyphs"
text-anchor="middle" opacity="0" stroke-opacity="0">JP1</text>
<g class="stroked-text"><desc>JP1</desc>
<path d="M297.9689 104.4260
L297.9689 105.1403
" />
<path d="M297.9689 105.1403
L298.0165 105.2831
" />
<path d="M298.0165 105.2831
L298.1118 105.3784
" />
<path d="M298.1118 105.3784
L298.2546 105.4260
" />
<path d="M298.2546 105.4260
L298.3499 105.4260
" />
<path d="M297.4927 105.4260
L297.4927 104.4260
" />
<path d="M297.4927 104.4260
L297.1118 104.4260
" />
<path d="M297.1118 104.4260
L297.0165 104.4736
" />
<path d="M297.0165 104.4736
L296.9689 104.5212
" />
<path d="M296.9689 104.5212
L296.9213 104.6165
" />
<path d="M296.9213 104.6165
L296.9213 104.7593
" />
<path d="M296.9213 104.7593
L296.9689 104.8546
" />
<path d="M296.9689 104.8546
L297.0165 104.9022
" />
<path d="M297.0165 104.9022
L297.1118 104.9498
" />
<path d="M297.1118 104.9498
L297.4927 104.9498
" />
<path d="M295.9689 105.4260
L296.5403 105.4260
" />
<path d="M296.2546 105.4260
L296.2546 104.4260
" />
<path d="M296.2546 104.4260
L296.3499 104.5689
" />
<path d="M296.3499 104.5689
L296.4451 104.6641
" />
<path d="M296.4451 104.6641
L296.5403 104.7117
" />
</g><text x="342.6856" y="105.6712"
transform="scale(-1 1) translate(-685.371146 0)"
textLength="3.0595" font-size="1.3333" lengthAdjust="spacingAndGlyphs"
text-anchor="middle" opacity="0" stroke-opacity="0">FB4</text>
<g class="stroked-text"><desc>FB4</desc>
<path d="M343.5189 105.1022
L343.8522 105.1022
" />
<path d="M343.8522 105.6260
L343.8522 104.6260
" />
<path d="M343.8522 104.6260
L343.3760 104.6260
" />
<path d="M342.6618 105.1022
L342.5189 105.1498
" />
<path d="M342.5189 105.1498
L342.4713 105.1974
" />
<path d="M342.4713 105.1974
L342.4237 105.2927
" />
<path d="M342.4237 105.2927
L342.4237 105.4355
" />
<path d="M342.4237 105.4355
L342.4713 105.5308
" />
<path d="M342.4713 105.5308
L342.5189 105.5784
" />
<path d="M342.5189 105.5784
L342.6141 105.6260
" />
<path d="M342.6141 105.6260
L342.9951 105.6260
" />
<path d="M342.9951 105.6260
L342.9951 104.6260
" />
<path d="M342.9951 104.6260
L342.6618 104.6260
" />
<path d="M342.6618 104.6260
L342.5665 104.6736
" />
<path d="M342.5665 104.6736
L342.5189 104.7212
" />
<path d="M342.5189 104.7212
L342.4713 104.8165
" />
<path d="M342.4713 104.8165
L342.4713 104.9117
" />
<path d="M342.4713 104.9117
L342.5189 105.0070
" />
<path d="M342.5189 105.0070
L342.5665 105.0546
" />
<path d="M342.5665 105.0546
L342.6618 105.1022
" />
<path d="M342.6618 105.1022
L342.9951 105.1022
" />
<path d="M341.5665 104.9593
L341.5665 105.6260
" />
<path d="M341.8046 104.5784
L342.0427 105.2927
" />
<path d="M342.0427 105.2927
L341.4237 105.2927
" />
</g><text x="325.5856" y="96.9912"
transform="scale(-1 1) translate(-651.171146 0)"
textLength="3.1548" font-size="1.3333" lengthAdjust="spacingAndGlyphs"
text-anchor="middle" opacity="0" stroke-opacity="0">R10</text>
<g class="stroked-text"><desc>R10</desc>
<path d="M326.2284 96.9460
L326.5618 96.4698
" />
<path d="M326.7999 96.9460
L326.7999 95.9460
" />
<path d="M326.7999 95.9460
L326.4189 95.9460
" />
<path d="M326.4189 95.9460
L326.3237 95.9936
" />
<path d="M326.3237 95.9936
L326.2760 96.0412
" />
<path d="M326.2760 96.0412
L326.2284 96.1365
" />
<path d="M326.2284 96.1365
L326.2284 96.2793
" />
<path d="M326.2284 96.2793
L326.2760 96.3746
" />
<path d="M326.2760 96.3746
L326.3237 96.4222
" />
<path d="M326.3237 96.4222
L326.4189 96.4698
" />
<path d="M326.4189 96.4698
L326.7999 96.4698
" />
<path d="M325.2760 96.9460
L325.8475 96.9460
" />
<path d="M325.5618 96.9460
L325.5618 95.9460
" />
<path d="M325.5618 95.9460
L325.6570 96.0889
" />
<path d="M325.6570 96.0889
L325.7522 96.1841
" />
<path d="M325.7522 96.1841
L325.8475 96.2317
" />
<path d="M324.6570 95.9460
L324.5618 95.9460
" />
<path d="M324.5618 95.9460
L324.4665 95.9936
" />
<path d="M324.4665 95.9936
L324.4189 96.0412
" />
<path d="M324.4189 96.0412
L324.3713 96.1365
" />
<path d="M324.3713 96.1365
L324.3237 96.3270
" />
<path d="M324.3237 96.3270
L324.3237 96.5651
" />
<path d="M324.3237 96.5651
L324.3713 96.7555
" />
<path d="M324.3713 96.7555
L324.4189 96.8508
" />
<path d="M324.4189 96.8508
L324.4665 96.8984
" />
<path d="M324.4665 96.8984
L324.5618 96.9460
" />
<path d="M324.5618 96.9460
L324.6570 96.9460
" />
<path d="M324.6570 96.9460
L324.7522 96.8984
" />
<path d="M324.7522 96.8984
L324.7999 96.8508
" />
<path d="M324.7999 96.8508
L324.8475 96.7555
" />
<path d="M324.8475 96.7555
L324.8951 96.5651
" />
<path d="M324.8951 96.5651
L324.8951 96.3270
" />
<path d="M324.8951 96.3270
L324.8475 96.1365
" />
<path d="M324.8475 96.1365
L324.7999 96.0412
" />
<path d="M324.7999 96.0412
L324.7522 95.9936
" />
<path d="M324.7522 95.9936
L324.6570 95.9460
" />
</g><text x="313.5715" y="63.1673"
transform="scale(-1 1) translate(-627.143058 0)"
textLength="2.2024" font-size="1.3333" lengthAdjust="spacingAndGlyphs"
text-anchor="middle" opacity="0" stroke-opacity="0">C6</text>
<g class="stroked-text"><desc>C6</desc>
<path d="M313.7382 63.0269
L313.7858 63.0745
" />
<path d="M313.7858 63.0745
L313.9287 63.1221
" />
<path d="M313.9287 63.1221
L314.0239 63.1221
" />
<path d="M314.0239 63.1221
L314.1668 63.0745
" />
<path d="M314.1668 63.0745
L314.2620 62.9792
" />
<path d="M314.2620 62.9792
L314.3096 62.8840
" />
<path d="M314.3096 62.8840
L314.3572 62.6935
" />
<path d="M314.3572 62.6935
L314.3572 62.5507
" />
<path d="M314.3572 62.5507
L314.3096 62.3602
" />
<path d="M314.3096 62.3602
L314.2620 62.2650
" />
<path d="M314.2620 62.2650
L314.1668 62.1697
" />
<path d="M314.1668 62.1697
L314.0239 62.1221
" />
<path d="M314.0239 62.1221
L313.9287 62.1221
" />
<path d="M313.9287 62.1221
L313.7858 62.1697
" />
<path d="M313.7858 62.1697
L313.7382 62.2173
" />
<path d="M312.8811 62.1221
L313.0715 62.1221
" />
<path d="M313.0715 62.1221
L313.1668 62.1697
" />
<path d="M313.1668 62.1697
L313.2144 62.2173
" />
<path d="M313.2144 62.2173
L313.3096 62.3602
" />
<path d="M313.3096 62.3602
L313.3572 62.5507
" />
<path d="M313.3572 62.5507
L313.3572 62.9316
" />
<path d="M313.3572 62.9316
L313.3096 63.0269
" />
<path d="M313.3096 63.0269
L313.2620 63.0745
" />
<path d="M313.2620 63.0745
L313.1668 63.1221
" />
<path d="M313.1668 63.1221
L312.9763 63.1221
" />
<path d="M312.9763 63.1221
L312.8811 63.0745
" />
<path d="M312.8811 63.0745
L312.8334 63.0269
" />
<path d="M312.8334 63.0269
L312.7858 62.9316
" />
<path d="M312.7858 62.9316
L312.7858 62.6935
" />
<path d="M312.7858 62.6935
L312.8334 62.5983
" />
<path d="M312.8334 62.5983
L312.8811 62.5507
" />
<path d="M312.8811 62.5507
L312.9763 62.5031
" />
<path d="M312.9763 62.5031
L313.1668 62.5031
" />
<path d="M313.1668 62.5031
L313.2620 62.5507
" />
<path d="M313.2620 62.5507
L313.3096 62.5983
" />
<path d="M313.3096 62.5983
L313.3572 62.6935
" />
</g><text x="299.4615" y="59.5673"
transform="scale(-1 1) translate(-598.923058 0)"
textLength="3.1548" font-size="1.3333" lengthAdjust="spacingAndGlyphs"
text-anchor="middle" opacity="0" stroke-opacity="0">R17</text>
<g class="stroked-text"><desc>R17</desc>
<path d="M300.1044 59.5221
L300.4377 59.0459
" />
<path d="M300.6758 59.5221
L300.6758 58.5221
" />
<path d="M300.6758 58.5221
L300.2949 58.5221
" />
<path d="M300.2949 58.5221
L300.1996 58.5697
" />
<path d="M300.1996 58.5697
L300.1520 58.6173
" />
<path d="M300.1520 58.6173
L300.1044 58.7126
" />
<path d="M300.1044 58.7126
L300.1044 58.8554
" />
<path d="M300.1044 58.8554
L300.1520 58.9507
" />
<path d="M300.1520 58.9507
L300.1996 58.9983
" />
<path d="M300.1996 58.9983
L300.2949 59.0459
" />
<path d="M300.2949 59.0459
L300.6758 59.0459
" />
<path d="M299.1520 59.5221
L299.7234 59.5221
" />
<path d="M299.4377 59.5221
L299.4377 58.5221
" />
<path d="M299.4377 58.5221
L299.5330 58.6650
" />
<path d="M299.5330 58.6650
L299.6282 58.7602
" />
<path d="M299.6282 58.7602
L299.7234 58.8078
" />
<path d="M298.8187 58.5221
L298.1520 58.5221
" />
<path d="M298.1520 58.5221
L298.5806 59.5221
" />
</g><g transform="rotate(-90.000000 316.6856 109.2712)">
<text x="316.6856" y="109.7712"
transform="scale(-1 1) translate(-633.371146 0)"
textLength="3.1548" font-size="1.3333" lengthAdjust="spacingAndGlyphs"
text-anchor="middle" opacity="0" stroke-opacity="0">R23</text>
</g>
<g class="stroked-text"><desc>R23</desc>
<path d="M317.1404 108.6283
L316.6642 108.2950
" />
<path d="M317.1404 108.0569
L316.1404 108.0569
" />
<path d="M316.1404 108.0569
L316.1404 108.4379
" />
<path d="M316.1404 108.4379
L316.1880 108.5331
" />
<path d="M316.1880 108.5331
L316.2356 108.5807
" />
<path d="M316.2356 108.5807
L316.3309 108.6283
" />
<path d="M316.3309 108.6283
L316.4737 108.6283
" />
<path d="M316.4737 108.6283
L316.5690 108.5807
" />
<path d="M316.5690 108.5807
L316.6166 108.5331
" />
<path d="M316.6166 108.5331
L316.6642 108.4379
" />
<path d="M316.6642 108.4379
L316.6642 108.0569
" />
<path d="M316.2356 109.0093
L316.1880 109.0569
" />
<path d="M316.1880 109.0569
L316.1404 109.1521
" />
<path d="M316.1404 109.1521
L316.1404 109.3902
" />
<path d="M316.1404 109.3902
L316.1880 109.4855
" />
<path d="M316.1880 109.4855
L316.2356 109.5331
" />
<path d="M316.2356 109.5331
L316.3309 109.5807
" />
<path d="M316.3309 109.5807
L316.4261 109.5807
" />
<path d="M316.4261 109.5807
L316.5690 109.5331
" />
<path d="M316.5690 109.5331
L317.1404 108.9617
" />
<path d="M317.1404 108.9617
L317.1404 109.5807
" />
<path d="M316.1404 109.9140
L316.1404 110.5331
" />
<path d="M316.1404 110.5331
L316.5213 110.1998
" />
<path d="M316.5213 110.1998
L316.5213 110.3426
" />
<path d="M316.5213 110.3426
L316.5690 110.4379
" />
<path d="M316.5690 110.4379
L316.6166 110.4855
" />
<path d="M316.6166 110.4855
L316.7118 110.5331
" />
<path d="M316.7118 110.5331
L316.9499 110.5331
" />
<path d="M316.9499 110.5331
L317.0452 110.4855
" />
<path d="M317.0452 110.4855
L317.0928 110.4379
" />
<path d="M317.0928 110.4379
L317.1404 110.3426
" />
<path d="M317.1404 110.3426
L317.1404 110.0569
" />
<path d="M317.1404 110.0569
L317.0928 109.9617
" />
<path d="M317.0928 109.9617
L317.0452 109.9140
" />
</g><text x="297.2990" y="109.8173"
transform="scale(-1 1) translate(-594.598058 0)"
textLength="3.1548" font-size="1.3333" lengthAdjust="spacingAndGlyphs"
text-anchor="middle" opacity="0" stroke-opacity="0">C19</text>
<g class="stroked-text"><desc>C19</desc>
<path d="M297.9419 109.6769
L297.9895 109.7245
" />
<path d="M297.9895 109.7245
L298.1324 109.7721
" />
<path d="M298.1324 109.7721
L298.2276 109.7721
" />
<path d="M298.2276 109.7721
L298.3705 109.7245
" />
<path d="M298.3705 109.7245
L298.4657 109.6292
" />
<path d="M298.4657 109.6292
L298.5133 109.5340
" />
<path d="M298.5133 109.5340
L298.5609 109.3435
" />
<path d="M298.5609 109.3435
L298.5609 109.2007
" />
<path d="M298.5609 109.2007
L298.5133 109.0102
" />
<path d="M298.5133 109.0102
L298.4657 108.9150
" />
<path d="M298.4657 108.9150
L298.3705 108.8197
" />
<path d="M298.3705 108.8197
L298.2276 108.7721
" />
<path d="M298.2276 108.7721
L298.1324 108.7721
" />
<path d="M298.1324 108.7721
L297.9895 108.8197
" />
<path d="M297.9895 108.8197
L297.9419 108.8673
" />
<path d="M296.9895 109.7721
L297.5609 109.7721
" />
<path d="M297.2752 109.7721
L297.2752 108.7721
" />
<path d="M297.2752 108.7721
L297.3705 108.9150
" />
<path d="M297.3705 108.9150
L297.4657 109.0102
" />
<path d="M297.4657 109.0102
L297.5609 109.0578
" />
<path d="M296.5133 109.7721
L296.3228 109.7721
" />
<path d="M296.3228 109.7721
L296.2276 109.7245
" />
<path d="M296.2276 109.7245
L296.1800 109.6769
" />
<path d="M296.1800 109.6769
L296.0847 109.5340
" />
<path d="M296.0847 109.5340
L296.0371 109.3435
" />
<path d="M296.0371 109.3435
L296.0371 108.9626
" />
<path d="M296.0371 108.9626
L296.0847 108.8673
" />
<path d="M296.0847 108.8673
L296.1324 108.8197
" />
<path d="M296.1324 108.8197
L296.2276 108.7721
" />
<path d="M296.2276 108.7721
L296.4181 108.7721
" />
<path d="M296.4181 108.7721
L296.5133 108.8197
" />
<path d="M296.5133 108.8197
L296.5609 108.8673
" />
<path d="M296.5609 108.8673
L296.6086 108.9626
" />
<path d="M296.6086 108.9626
L296.6086 109.2007
" />
<path d="M296.6086 109.2007
L296.5609 109.2959
" />
<path d="M296.5609 109.2959
L296.5133 109.3435
" />
<path d="M296.5133 109.3435
L296.4181 109.3912
" />
<path d="M296.4181 109.3912
L296.2276 109.3912
" />
<path d="M296.2276 109.3912
L296.1324 109.3435
" />
<path d="M296.1324 109.3435
L296.0847 109.2959
" />
<path d="M296.0847 109.2959
L296.0371 109.2007
" />
</g><text x="358.8115" y="60.9673"
transform="scale(-1 1) translate(-717.623058 0)"
textLength="2.2024" font-size="1.3333" lengthAdjust="spacingAndGlyphs"
text-anchor="middle" opacity="0" stroke-opacity="0">C9</text>
<g class="stroked-text"><desc>C9</desc>
<path d="M358.9782 60.8269
L359.0258 60.8745
" />
<path d="M359.0258 60.8745
L359.1687 60.9221
" />
<path d="M359.1687 60.9221
L359.2639 60.9221
" />
<path d="M359.2639 60.9221
L359.4068 60.8745
" />
<path d="M359.4068 60.8745
L359.5020 60.7792
" />
<path d="M359.5020 60.7792
L359.5496 60.6840
" />
<path d="M359.5496 60.6840
L359.5972 60.4935
" />
<path d="M359.5972 60.4935
L359.5972 60.3507
" />
<path d="M359.5972 60.3507
L359.5496 60.1602
" />
<path d="M359.5496 60.1602
L359.5020 60.0650
" />
<path d="M359.5020 60.0650
L359.4068 59.9697
" />
<path d="M359.4068 59.9697
L359.2639 59.9221
" />
<path d="M359.2639 59.9221
L359.1687 59.9221
" />
<path d="M359.1687 59.9221
L359.0258 59.9697
" />
<path d="M359.0258 59.9697
L358.9782 60.0173
" />
<path d="M358.5020 60.9221
L358.3115 60.9221
" />
<path d="M358.3115 60.9221
L358.2163 60.8745
" />
<path d="M358.2163 60.8745
L358.1687 60.8269
" />
<path d="M358.1687 60.8269
L358.0734 60.6840
" />
<path d="M358.0734 60.6840
L358.0258 60.4935
" />
<path d="M358.0258 60.4935
L358.0258 60.1126
" />
<path d="M358.0258 60.1126
L358.0734 60.0173
" />
<path d="M358.0734 60.0173
L358.1211 59.9697
" />
<path d="M358.1211 59.9697
L358.2163 59.9221
" />
<path d="M358.2163 59.9221
L358.4068 59.9221
" />
<path d="M358.4068 59.9221
L358.5020 59.9697
" />
<path d="M358.5020 59.9697
L358.5496 60.0173
" />
<path d="M358.5496 60.0173
L358.5972 60.1126
" />
<path d="M358.5972 60.1126
L358.5972 60.3507
" />
<path d="M358.5972 60.3507
L358.5496 60.4459
" />
<path d="M358.5496 60.4459
L358.5020 60.4935
" />
<path d="M358.5020 60.4935
L358.4068 60.5412
" />
<path d="M358.4068 60.5412
L358.2163 60.5412
" />
<path d="M358.2163 60.5412
L358.1211 60.4935
" />
<path d="M358.1211 60.4935
L358.0734 60.4459
" />
<path d="M358.0734 60.4459
L358.0258 60.3507
" />
</g><text x="330.2856" y="112.6512"
transform="scale(-1 1) translate(-660.571146 0)"
textLength="3.1548" font-size="1.3333" lengthAdjust="spacingAndGlyphs"
text-anchor="middle" opacity="0" stroke-opacity="0">R25</text>
<g class="stroked-text"><desc>R25</desc>
<path d="M330.9284 112.6060
L331.2618 112.1298
" />
<path d="M331.4999 112.6060
L331.4999 111.6060
" />
<path d="M331.4999 111.6060
L331.1189 111.6060
" />
<path d="M331.1189 111.6060
L331.0237 111.6536
" />
<path d="M331.0237 111.6536
L330.9760 111.7012
" />
<path d="M330.9760 111.7012
L330.9284 111.7965
" />
<path d="M330.9284 111.7965
L330.9284 111.9393
" />
<path d="M330.9284 111.9393
L330.9760 112.0346
" />
<path d="M330.9760 112.0346
L331.0237 112.0822
" />
<path d="M331.0237 112.0822
L331.1189 112.1298
" />
<path d="M331.1189 112.1298
L331.4999 112.1298
" />
<path d="M330.5475 111.7012
L330.4999 111.6536
" />
<path d="M330.4999 111.6536
L330.4046 111.6060
" />
<path d="M330.4046 111.6060
L330.1665 111.6060
" />
<path d="M330.1665 111.6060
L330.0713 111.6536
" />
<path d="M330.0713 111.6536
L330.0237 111.7012
" />
<path d="M330.0237 111.7012
L329.9760 111.7965
" />
<path d="M329.9760 111.7965
L329.9760 111.8917
" />
<path d="M329.9760 111.8917
L330.0237 112.0346
" />
<path d="M330.0237 112.0346
L330.5951 112.6060
" />
<path d="M330.5951 112.6060
L329.9760 112.6060
" />
<path d="M329.0713 111.6060
L329.5475 111.6060
" />
<path d="M329.5475 111.6060
L329.5951 112.0822
" />
<path d="M329.5951 112.0822
L329.5475 112.0346
" />
<path d="M329.5475 112.0346
L329.4522 111.9870
" />
<path d="M329.4522 111.9870
L329.2141 111.9870
" />
<path d="M329.2141 111.9870
L329.1189 112.0346
" />
<path d="M329.1189 112.0346
L329.0713 112.0822
" />
<path d="M329.0713 112.0822
L329.0237 112.1774
" />
<path d="M329.0237 112.1774
L329.0237 112.4155
" />
<path d="M329.0237 112.4155
L329.0713 112.5108
" />
<path d="M329.0713 112.5108
L329.1189 112.5584
" />
<path d="M329.1189 112.5584
L329.2141 112.6060
" />
<path d="M329.2141 112.6060
L329.4522 112.6060
" />
<path d="M329.4522 112.6060
L329.5475 112.5584
" />
<path d="M329.5475 112.5584
L329.5951 112.5108
" />
</g><g transform="rotate(-90.000000 299.4615 88.0673)">
<text x="299.4615" y="88.5673"
transform="scale(-1 1) translate(-598.923058 0)"
textLength="2.9643" font-size="1.3333" lengthAdjust="spacingAndGlyphs"
text-anchor="middle" opacity="0" stroke-opacity="0">JP2</text>
</g>
<g class="stroked-text"><desc>JP2</desc>
<path d="M298.9163 87.2340
L299.6306 87.2340
" />
<path d="M299.6306 87.2340
L299.7735 87.1863
" />
<path d="M299.7735 87.1863
L299.8687 87.0911
" />
<path d="M299.8687 87.0911
L299.9163 86.9482
" />
<path d="M299.9163 86.9482
L299.9163 86.8530
" />
<path d="M299.9163 87.7101
L298.9163 87.7101
" />
<path d="M298.9163 87.7101
L298.9163 88.0911
" />
<path d="M298.9163 88.0911
L298.9640 88.1863
" />
<path d="M298.9640 88.1863
L299.0116 88.2340
" />
<path d="M299.0116 88.2340
L299.1068 88.2816
" />
<path d="M299.1068 88.2816
L299.2497 88.2816
" />
<path d="M299.2497 88.2816
L299.3449 88.2340
" />
<path d="M299.3449 88.2340
L299.3925 88.1863
" />
<path d="M299.3925 88.1863
L299.4402 88.0911
" />
<path d="M299.4402 88.0911
L299.4402 87.7101
" />
<path d="M299.0116 88.6625
L298.9640 88.7101
" />
<path d="M298.9640 88.7101
L298.9163 88.8054
" />
<path d="M298.9163 88.8054
L298.9163 89.0435
" />
<path d="M298.9163 89.0435
L298.9640 89.1387
" />
<path d="M298.9640 89.1387
L299.0116 89.1863
" />
<path d="M299.0116 89.1863
L299.1068 89.2340
" />
<path d="M299.1068 89.2340
L299.2021 89.2340
" />
<path d="M299.2021 89.2340
L299.3449 89.1863
" />
<path d="M299.3449 89.1863
L299.9163 88.6149
" />
<path d="M299.9163 88.6149
L299.9163 89.2340
" />
</g><g transform="rotate(-90.000000 316.6856 106.6712)">
<text x="316.6856" y="107.1712"
transform="scale(-1 1) translate(-633.371146 0)"
textLength="3.1548" font-size="1.3333" lengthAdjust="spacingAndGlyphs"
text-anchor="middle" opacity="0" stroke-opacity="0">R22</text>
</g>
<g class="stroked-text"><desc>R22</desc>
<path d="M317.1404 106.0283
L316.6642 105.6950
" />
<path d="M317.1404 105.4569
L316.1404 105.4569
" />
<path d="M316.1404 105.4569
L316.1404 105.8379
" />
<path d="M316.1404 105.8379
L316.1880 105.9331
" />
<path d="M316.1880 105.9331
L316.2356 105.9807
" />
<path d="M316.2356 105.9807
L316.3309 106.0283
" />
<path d="M316.3309 106.0283
L316.4737 106.0283
" />
<path d="M316.4737 106.0283
L316.5690 105.9807
" />
<path d="M316.5690 105.9807
L316.6166 105.9331
" />
<path d="M316.6166 105.9331
L316.6642 105.8379
" />
<path d="M316.6642 105.8379
L316.6642 105.4569
" />
<path d="M316.2356 106.4093
L316.1880 106.4569
" />
<path d="M316.1880 106.4569
L316.1404 106.5521
" />
<path d="M316.1404 106.5521
L316.1404 106.7902
" />
<path d="M316.1404 106.7902
L316.1880 106.8855
" />
<path d="M316.1880 106.8855
L316.2356 106.9331
" />
<path d="M316.2356 106.9331
L316.3309 106.9807
" />
<path d="M316.3309 106.9807
L316.4261 106.9807
" />
<path d="M316.4261 106.9807
L316.5690 106.9331
" />
<path d="M316.5690 106.9331
L317.1404 106.3617
" />
<path d="M317.1404 106.3617
L317.1404 106.9807
" />
<path d="M316.2356 107.3617
L316.1880 107.4093
" />
<path d="M316.1880 107.4093
L316.1404 107.5045
" />
<path d="M316.1404 107.5045
L316.1404 107.7426
" />
<path d="M316.1404 107.7426
L316.1880 107.8379
" />
<path d="M316.1880 107.8379
L316.2356 107.8855
" />
<path d="M316.2356 107.8855
L316.3309 107.9331
" />
<path d="M316.3309 107.9331
L316.4261 107.9331
" />
<path d="M316.4261 107.9331
L316.5690 107.8855
" />
<path d="M316.5690 107.8855
L317.1404 107.3140
" />
<path d="M317.1404 107.3140
L317.1404 107.9331
" />
</g><text x="293.1115" y="94.9673"
transform="scale(-1 1) translate(-586.223058 0)"
textLength="2.9643" font-size="1.3333" lengthAdjust="spacingAndGlyphs"
text-anchor="middle" opacity="0" stroke-opacity="0">JP3</text>
<g class="stroked-text"><desc>JP3</desc>
<path d="M293.9449 93.9221
L293.9449 94.6364
" />
<path d="M293.9449 94.6364
L293.9925 94.7792
" />
<path d="M293.9925 94.7792
L294.0877 94.8745
" />
<path d="M294.0877 94.8745
L294.2306 94.9221
" />
<path d="M294.2306 94.9221
L294.3258 94.9221
" />
<path d="M293.4687 94.9221
L293.4687 93.9221
" />
<path d="M293.4687 93.9221
L293.0877 93.9221
" />
<path d="M293.0877 93.9221
L292.9925 93.9697
" />
<path d="M292.9925 93.9697
L292.9449 94.0173
" />
<path d="M292.9449 94.0173
L292.8972 94.1126
" />
<path d="M292.8972 94.1126
L292.8972 94.2554
" />
<path d="M292.8972 94.2554
L292.9449 94.3507
" />
<path d="M292.9449 94.3507
L292.9925 94.3983
" />
<path d="M292.9925 94.3983
L293.0877 94.4459
" />
<path d="M293.0877 94.4459
L293.4687 94.4459
" />
<path d="M292.5639 93.9221
L291.9449 93.9221
" />
<path d="M291.9449 93.9221
L292.2782 94.3031
" />
<path d="M292.2782 94.3031
L292.1353 94.3031
" />
<path d="M292.1353 94.3031
L292.0401 94.3507
" />
<path d="M292.0401 94.3507
L291.9925 94.3983
" />
<path d="M291.9925 94.3983
L291.9449 94.4935
" />
<path d="M291.9449 94.4935
L291.9449 94.7316
" />
<path d="M291.9449 94.7316
L291.9925 94.8269
" />
<path d="M291.9925 94.8269
L292.0401 94.8745
" />
<path d="M292.0401 94.8745
L292.1353 94.9221
" />
<path d="M292.1353 94.9221
L292.4211 94.9221
" />
<path d="M292.4211 94.9221
L292.5163 94.8745
" />
<path d="M292.5163 94.8745
L292.5639 94.8269
" />
</g><text x="299.6615" y="48.7673"
transform="scale(-1 1) translate(-599.323058 0)"
textLength="2.2500" font-size="1.3333" lengthAdjust="spacingAndGlyphs"
text-anchor="middle" opacity="0" stroke-opacity="0">Q8</text>
<g class="stroked-text"><desc>Q8</desc>
<path d="M299.7568 48.8173
L299.8520 48.7697
" />
<path d="M299.8520 48.7697
L299.9472 48.6745
" />
<path d="M299.9472 48.6745
L300.0901 48.5316
" />
<path d="M300.0901 48.5316
L300.1853 48.4840
" />
<path d="M300.1853 48.4840
L300.2806 48.4840
" />
<path d="M300.2330 48.7221
L300.3282 48.6745
" />
<path d="M300.3282 48.6745
L300.4234 48.5792
" />
<path d="M300.4234 48.5792
L300.4711 48.3888
" />
<path d="M300.4711 48.3888
L300.4711 48.0554
" />
<path d="M300.4711 48.0554
L300.4234 47.8650
" />
<path d="M300.4234 47.8650
L300.3282 47.7697
" />
<path d="M300.3282 47.7697
L300.2330 47.7221
" />
<path d="M300.2330 47.7221
L300.0425 47.7221
" />
<path d="M300.0425 47.7221
L299.9472 47.7697
" />
<path d="M299.9472 47.7697
L299.8520 47.8650
" />
<path d="M299.8520 47.8650
L299.8044 48.0554
" />
<path d="M299.8044 48.0554
L299.8044 48.3888
" />
<path d="M299.8044 48.3888
L299.8520 48.5792
" />
<path d="M299.8520 48.5792
L299.9472 48.6745
" />
<path d="M299.9472 48.6745
L300.0425 48.7221
" />
<path d="M300.0425 48.7221
L300.2330 48.7221
" />
<path d="M299.2330 48.1507
L299.3282 48.1031
" />
<path d="M299.3282 48.1031
L299.3758 48.0554
" />
<path d="M299.3758 48.0554
L299.4234 47.9602
" />
<path d="M299.4234 47.9602
L299.4234 47.9126
" />
<path d="M299.4234 47.9126
L299.3758 47.8173
" />
<path d="M299.3758 47.8173
L299.3282 47.7697
" />
<path d="M299.3282 47.7697
L299.2330 47.7221
" />
<path d="M299.2330 47.7221
L299.0425 47.7221
" />
<path d="M299.0425 47.7221
L298.9472 47.7697
" />
<path d="M298.9472 47.7697
L298.8996 47.8173
" />
<path d="M298.8996 47.8173
L298.8520 47.9126
" />
<path d="M298.8520 47.9126
L298.8520 47.9602
" />
<path d="M298.8520 47.9602
L298.8996 48.0554
" />
<path d="M298.8996 48.0554
L298.9472 48.1031
" />
<path d="M298.9472 48.1031
L299.0425 48.1507
" />
<path d="M299.0425 48.1507
L299.2330 48.1507
" />
<path d="M299.2330 48.1507
L299.3282 48.1983
" />
<path d="M299.3282 48.1983
L299.3758 48.2459
" />
<path d="M299.3758 48.2459
L299.4234 48.3412
" />
<path d="M299.4234 48.3412
L299.4234 48.5316
" />
<path d="M299.4234 48.5316
L299.3758 48.6269
" />
<path d="M299.3758 48.6269
L299.3282 48.6745
" />
<path d="M299.3282 48.6745
L299.2330 48.7221
" />
<path d="M299.2330 48.7221
L299.0425 48.7221
" />
<path d="M299.0425 48.7221
L298.9472 48.6745
" />
<path d="M298.9472 48.6745
L298.8996 48.6269
" />
<path d="M298.8996 48.6269
L298.8520 48.5316
" />
<path d="M298.8520 48.5316
L298.8520 48.3412
" />
<path d="M298.8520 48.3412
L298.8996 48.2459
" />
<path d="M298.8996 48.2459
L298.9472 48.1983
" />
<path d="M298.9472 48.1983
L299.0425 48.1507
" />
</g><text x="292.0615" y="51.9473"
transform="scale(-1 1) translate(-584.123058 0)"
textLength="3.1548" font-size="1.3333" lengthAdjust="spacingAndGlyphs"
text-anchor="middle" opacity="0" stroke-opacity="0">R18</text>
<g class="stroked-text"><desc>R18</desc>
<path d="M292.7044 51.9021
L293.0377 51.4259
" />
<path d="M293.2758 51.9021
L293.2758 50.9021
" />
<path d="M293.2758 50.9021
L292.8949 50.9021
" />
<path d="M292.8949 50.9021
L292.7996 50.9497
" />
<path d="M292.7996 50.9497
L292.7520 50.9973
" />
<path d="M292.7520 50.9973
L292.7044 51.0926
" />
<path d="M292.7044 51.0926
L292.7044 51.2354
" />
<path d="M292.7044 51.2354
L292.7520 51.3307
" />
<path d="M292.7520 51.3307
L292.7996 51.3783
" />
<path d="M292.7996 51.3783
L292.8949 51.4259
" />
<path d="M292.8949 51.4259
L293.2758 51.4259
" />
<path d="M291.7520 51.9021
L292.3234 51.9021
" />
<path d="M292.0377 51.9021
L292.0377 50.9021
" />
<path d="M292.0377 50.9021
L292.1330 51.0450
" />
<path d="M292.1330 51.0450
L292.2282 51.1402
" />
<path d="M292.2282 51.1402
L292.3234 51.1878
" />
<path d="M291.1806 51.3307
L291.2758 51.2831
" />
<path d="M291.2758 51.2831
L291.3234 51.2354
" />
<path d="M291.3234 51.2354
L291.3711 51.1402
" />
<path d="M291.3711 51.1402
L291.3711 51.0926
" />
<path d="M291.3711 51.0926
L291.3234 50.9973
" />
<path d="M291.3234 50.9973
L291.2758 50.9497
" />
<path d="M291.2758 50.9497
L291.1806 50.9021
" />
<path d="M291.1806 50.9021
L290.9901 50.9021
" />
<path d="M290.9901 50.9021
L290.8949 50.9497
" />
<path d="M290.8949 50.9497
L290.8472 50.9973
" />
<path d="M290.8472 50.9973
L290.7996 51.0926
" />
<path d="M290.7996 51.0926
L290.7996 51.1402
" />
<path d="M290.7996 51.1402
L290.8472 51.2354
" />
<path d="M290.8472 51.2354
L290.8949 51.2831
" />
<path d="M290.8949 51.2831
L290.9901 51.3307
" />
<path d="M290.9901 51.3307
L291.1806 51.3307
" />
<path d="M291.1806 51.3307
L291.2758 51.3783
" />
<path d="M291.2758 51.3783
L291.3234 51.4259
" />
<path d="M291.3234 51.4259
L291.3711 51.5212
" />
<path d="M291.3711 51.5212
L291.3711 51.7116
" />
<path d="M291.3711 51.7116
L291.3234 51.8069
" />
<path d="M291.3234 51.8069
L291.2758 51.8545
" />
<path d="M291.2758 51.8545
L291.1806 51.9021
" />
<path d="M291.1806 51.9021
L290.9901 51.9021
" />
<path d="M290.9901 51.9021
L290.8949 51.8545
" />
<path d="M290.8949 51.8545
L290.8472 51.8069
" />
<path d="M290.8472 51.8069
L290.7996 51.7116
" />
<path d="M290.7996 51.7116
L290.7996 51.5212
" />
<path d="M290.7996 51.5212
L290.8472 51.4259
" />
<path d="M290.8472 51.4259
L290.8949 51.3783
" />
<path d="M290.8949 51.3783
L290.9901 51.3307
" />
</g><text x="349.0615" y="117.3173"
transform="scale(-1 1) translate(-698.123058 0)"
textLength="3.1548" font-size="1.3333" lengthAdjust="spacingAndGlyphs"
text-anchor="middle" opacity="0" stroke-opacity="0">C25</text>
<g class="stroked-text"><desc>C25</desc>
<path d="M349.7044 117.1769
L349.7520 117.2245
" />
<path d="M349.7520 117.2245
L349.8949 117.2721
" />
<path d="M349.8949 117.2721
L349.9901 117.2721
" />
<path d="M349.9901 117.2721
L350.1330 117.2245
" />
<path d="M350.1330 117.2245
L350.2282 117.1292
" />
<path d="M350.2282 117.1292
L350.2758 117.0340
" />
<path d="M350.2758 117.0340
L350.3234 116.8435
" />
<path d="M350.3234 116.8435
L350.3234 116.7007
" />
<path d="M350.3234 116.7007
L350.2758 116.5102
" />
<path d="M350.2758 116.5102
L350.2282 116.4150
" />
<path d="M350.2282 116.4150
L350.1330 116.3197
" />
<path d="M350.1330 116.3197
L349.9901 116.2721
" />
<path d="M349.9901 116.2721
L349.8949 116.2721
" />
<path d="M349.8949 116.2721
L349.7520 116.3197
" />
<path d="M349.7520 116.3197
L349.7044 116.3673
" />
<path d="M349.3234 116.3673
L349.2758 116.3197
" />
<path d="M349.2758 116.3197
L349.1806 116.2721
" />
<path d="M349.1806 116.2721
L348.9425 116.2721
" />
<path d="M348.9425 116.2721
L348.8472 116.3197
" />
<path d="M348.8472 116.3197
L348.7996 116.3673
" />
<path d="M348.7996 116.3673
L348.7520 116.4626
" />
<path d="M348.7520 116.4626
L348.7520 116.5578
" />
<path d="M348.7520 116.5578
L348.7996 116.7007
" />
<path d="M348.7996 116.7007
L349.3711 117.2721
" />
<path d="M349.3711 117.2721
L348.7520 117.2721
" />
<path d="M347.8472 116.2721
L348.3234 116.2721
" />
<path d="M348.3234 116.2721
L348.3711 116.7483
" />
<path d="M348.3711 116.7483
L348.3234 116.7007
" />
<path d="M348.3234 116.7007
L348.2282 116.6531
" />
<path d="M348.2282 116.6531
L347.9901 116.6531
" />
<path d="M347.9901 116.6531
L347.8949 116.7007
" />
<path d="M347.8949 116.7007
L347.8472 116.7483
" />
<path d="M347.8472 116.7483
L347.7996 116.8435
" />
<path d="M347.7996 116.8435
L347.7996 117.0816
" />
<path d="M347.7996 117.0816
L347.8472 117.1769
" />
<path d="M347.8472 117.1769
L347.8949 117.2245
" />
<path d="M347.8949 117.2245
L347.9901 117.2721
" />
<path d="M347.9901 117.2721
L348.2282 117.2721
" />
<path d="M348.2282 117.2721
L348.3234 117.2245
" />
<path d="M348.3234 117.2245
L348.3711 117.1769
" />
</g><text x="361.4615" y="60.9673"
transform="scale(-1 1) translate(-722.923058 0)"
textLength="2.2024" font-size="1.3333" lengthAdjust="spacingAndGlyphs"
text-anchor="middle" opacity="0" stroke-opacity="0">C1</text>
<g class="stroked-text"><desc>C1</desc>
<path d="M361.6282 60.8269
L361.6758 60.8745
" />
<path d="M361.6758 60.8745
L361.8187 60.9221
" />
<path d="M361.8187 60.9221
L361.9139 60.9221
" />
<path d="M361.9139 60.9221
L362.0568 60.8745
" />
<path d="M362.0568 60.8745
L362.1520 60.7792
" />
<path d="M362.1520 60.7792
L362.1996 60.6840
" />
<path d="M362.1996 60.6840
L362.2472 60.4935
" />
<path d="M362.2472 60.4935
L362.2472 60.3507
" />
<path d="M362.2472 60.3507
L362.1996 60.1602
" />
<path d="M362.1996 60.1602
L362.1520 60.0650
" />
<path d="M362.1520 60.0650
L362.0568 59.9697
" />
<path d="M362.0568 59.9697
L361.9139 59.9221
" />
<path d="M361.9139 59.9221
L361.8187 59.9221
" />
<path d="M361.8187 59.9221
L361.6758 59.9697
" />
<path d="M361.6758 59.9697
L361.6282 60.0173
" />
<path d="M360.6758 60.9221
L361.2472 60.9221
" />
<path d="M360.9615 60.9221
L360.9615 59.9221
" />
<path d="M360.9615 59.9221
L361.0568 60.0650
" />
<path d="M361.0568 60.0650
L361.1520 60.1602
" />
<path d="M361.1520 60.1602
L361.2472 60.2078
" />
</g><text x="342.6856" y="104.0712"
transform="scale(-1 1) translate(-685.371146 0)"
textLength="3.0595" font-size="1.3333" lengthAdjust="spacingAndGlyphs"
text-anchor="middle" opacity="0" stroke-opacity="0">FB3</text>
<g class="stroked-text"><desc>FB3</desc>
<path d="M343.5189 103.5022
L343.8522 103.5022
" />
<path d="M343.8522 104.0260
L343.8522 103.0260
" />
<path d="M343.8522 103.0260
L343.3760 103.0260
" />
<path d="M342.6618 103.5022
L342.5189 103.5498
" />
<path d="M342.5189 103.5498
L342.4713 103.5974
" />
<path d="M342.4713 103.5974
L342.4237 103.6927
" />
<path d="M342.4237 103.6927
L342.4237 103.8355
" />
<path d="M342.4237 103.8355
L342.4713 103.9308
" />
<path d="M342.4713 103.9308
L342.5189 103.9784
" />
<path d="M342.5189 103.9784
L342.6141 104.0260
" />
<path d="M342.6141 104.0260
L342.9951 104.0260
" />
<path d="M342.9951 104.0260
L342.9951 103.0260
" />
<path d="M342.9951 103.0260
L342.6618 103.0260
" />
<path d="M342.6618 103.0260
L342.5665 103.0736
" />
<path d="M342.5665 103.0736
L342.5189 103.1212
" />
<path d="M342.5189 103.1212
L342.4713 103.2165
" />
<path d="M342.4713 103.2165
L342.4713 103.3117
" />
<path d="M342.4713 103.3117
L342.5189 103.4070
" />
<path d="M342.5189 103.4070
L342.5665 103.4546
" />
<path d="M342.5665 103.4546
L342.6618 103.5022
" />
<path d="M342.6618 103.5022
L342.9951 103.5022
" />
<path d="M342.0903 103.0260
L341.4713 103.0260
" />
<path d="M341.4713 103.0260
L341.8046 103.4070
" />
<path d="M341.8046 103.4070
L341.6618 103.4070
" />
<path d="M341.6618 103.4070
L341.5665 103.4546
" />
<path d="M341.5665 103.4546
L341.5189 103.5022
" />
<path d="M341.5189 103.5022
L341.4713 103.5974
" />
<path d="M341.4713 103.5974
L341.4713 103.8355
" />
<path d="M341.4713 103.8355
L341.5189 103.9308
" />
<path d="M341.5189 103.9308
L341.5665 103.9784
" />
<path d="M341.5665 103.9784
L341.6618 104.0260
" />
<path d="M341.6618 104.0260
L341.9475 104.0260
" />
<path d="M341.9475 104.0260
L342.0427 103.9784
" />
<path d="M342.0427 103.9784
L342.0903 103.9308
" />
</g><g transform="rotate(-90.000000 349.2615 122.4048)">
<text x="349.2615" y="122.9048"
transform="scale(-1 1) translate(-698.523058 0)"
textLength="2.2500" font-size="1.3333" lengthAdjust="spacingAndGlyphs"
text-anchor="middle" opacity="0" stroke-opacity="0">U4</text>
</g>
<g class="stroked-text"><desc>U4</desc>
<path d="M348.7163 121.6429
L349.5259 121.6429
" />
<path d="M349.5259 121.6429
L349.6211 121.6905
" />
<path d="M349.6211 121.6905
L349.6687 121.7381
" />
<path d="M349.6687 121.7381
L349.7163 121.8334
" />
<path d="M349.7163 121.8334
L349.7163 122.0238
" />
<path d="M349.7163 122.0238
L349.6687 122.1191
" />
<path d="M349.6687 122.1191
L349.6211 122.1667
" />
<path d="M349.6211 122.1667
L349.5259 122.2143
" />
<path d="M349.5259 122.2143
L348.7163 122.2143
" />
<path d="M349.0497 123.1191
L349.7163 123.1191
" />
<path d="M348.6687 122.8810
L349.3830 122.6429
" />
<path d="M349.3830 122.6429
L349.3830 123.2619
" />
</g></g>
<g style="fill:none; 
stroke:#000000; stroke-width:0.1200; stroke-opacity:1; 
stroke-linecap:round; stroke-linejoin:round;">
<path d="M316.5715 60.2585
L316.5715 60.5511
" />
<path d="M315.5515 60.2585
L315.5515 60.5511
" />
<path d="M295.6856 102.1712
L295.6856 104.1712
" />
<path d="M295.6856 104.1712
L298.4856 104.1712
" />
<path d="M298.4856 102.1712
L295.6856 102.1712
" />
<path d="M298.4856 104.1712
L298.4856 102.1712
" />
<path d="M339.8403 105.6937
L339.3308 105.6937
" />
<path d="M339.8403 104.6487
L339.3308 104.6487
" />
<path d="M324.8585 93.7612
L326.3126 93.7612
" />
<path d="M324.8585 95.5812
L326.3126 95.5812
" />
<path d="M313.9715 60.2585
L313.9715 60.5511
" />
<path d="M312.9515 60.2585
L312.9515 60.5511
" />
<path d="M298.7515 56.5943
L298.7515 55.1402
" />
<path d="M300.5715 56.5943
L300.5715 55.1402
" />
<path d="M314.1626 110.1812
L312.7085 110.1812
" />
<path d="M314.1626 108.3612
L312.7085 108.3612
" />
<path d="M296.5878 106.5573
L298.0103 106.5573
" />
<path d="M296.5878 108.3773
L298.0103 108.3773
" />
<path d="M359.7715 56.5560
L359.7715 57.9785
" />
<path d="M357.9515 56.5560
L357.9515 57.9785
" />
<path d="M331.0126 114.8812
L329.5585 114.8812
" />
<path d="M331.0126 113.0612
L329.5585 113.0612
" />
<path d="M298.4615 86.5173
L296.4615 86.5173
" />
<path d="M296.4615 86.5173
L296.4615 89.3173
" />
<path d="M298.4615 89.3173
L298.4615 86.5173
" />
<path d="M296.4615 89.3173
L298.4615 89.3173
" />
<path d="M312.7085 105.7612
L314.1626 105.7612
" />
<path d="M312.7085 107.5812
L314.1626 107.5812
" />
<path d="M291.7115 91.6673
L291.7115 93.6673
" />
<path d="M291.7115 93.6673
L294.5115 93.6673
" />
<path d="M294.5115 91.6673
L291.7115 91.6673
" />
<path d="M294.5115 93.6673
L294.5115 91.6673
" />
<path d="M298.1015 51.0048
L298.1015 51.6548
" />
<path d="M298.1015 51.0048
L298.1015 50.3548
" />
<path d="M301.2215 51.0048
L301.2215 52.6798
" />
<path d="M301.2215 51.0048
L301.2215 50.3548
" />
<path d="M292.7886 54.1773
L291.3345 54.1773
" />
<path d="M292.7886 52.3573
L291.3345 52.3573
" />
<path d="M349.7728 119.5773
L348.3503 119.5773
" />
<path d="M349.7728 117.7573
L348.3503 117.7573
" />
<path d="M360.5515 57.9785
L360.5515 56.5560
" />
<path d="M362.3715 57.9785
L362.3715 56.5560
" />
<path d="M339.3308 102.9487
L339.8403 102.9487
" />
<path d="M339.3308 103.9937
L339.8403 103.9937
" />
<path d="M350.3015 122.4673
L350.3015 123.2673
" />
<path d="M350.3015 122.4673
L350.3015 121.6673
" />
<path d="M353.4215 122.4673
L353.4215 124.2673
" />
<path d="M353.4215 122.4673
L353.4215 121.6673
" />
</g>
<g style="fill:none; 
stroke:#000000; stroke-width:0.1500; stroke-opacity:1; 
stroke-linecap:round; stroke-linejoin:round;">
<path d="M289.0069 43.8080
L367.1906 43.8003
" />
<path d="M285.7125 61.3670
L295.7455 61.3670
" />
<path d="M285.6973 112.6318
L285.6871 91.3136
" />
<path d="M360.2615 61.3670
L370.5343 61.3647
" />
<path d="M370.5968 91.5676
L360.2615 91.5676
" />
<path d="M360.2615 61.3670
L360.2615 91.5676
" />
<path d="M370.5343 61.3647
L370.5562 47.1330
" />
<path d="M370.6051 112.0353
L370.5968 91.5676
" />
<path d="M370.5561 47.1330 A3.3707 3.3707 0.0 0 0 367.1906 43.8003" />
<path d="M285.6871 91.3136
L295.7455 91.3136
" />
<path d="M285.6973 112.6318 A47.3739 47.3739 0.0 0 0 370.6051 112.0353" />
<path d="M295.7455 91.3136
L295.7455 61.3670
" />
<path d="M289.0069 43.8079 A3.3713 3.3713 0.0 0 0 285.7017 47.1912" />
<path d="M285.7125 61.3670
L285.7017 47.1912
" />
</g> 
</svg>
